<svg width="32" height="32" viewBox="0 0 32 32" fill="none" xmlns="http://www.w3.org/2000/svg">
<path d="M24.9248 3.90997L21.7248 2.22186C18.9152 0.741157 17.5104 0 16 0C14.4896 0 13.0848 0.73955 10.2752 2.22186L9.7616 2.49357L24.0384 10.6913L30.464 7.45981C29.4304 6.28296 27.7632 5.40354 24.9248 3.90675M31.5968 9.58842L25.2 12.8039V17.6849C25.2 18.0047 25.0736 18.3114 24.8485 18.5375C24.6235 18.7636 24.3183 18.8907 24 18.8907C23.6817 18.8907 23.3765 18.7636 23.1515 18.5375C22.9264 18.3114 22.8 18.0047 22.8 17.6849V14.0096L17.2 16.8232V32C18.3488 31.7122 19.656 31.0241 21.7248 29.9325L24.9248 28.2444C28.3664 26.4293 30.088 25.5225 31.0448 23.8907C32 22.2605 32 20.2299 32 16.1736V15.9855C32 12.9421 32 11.0386 31.5968 9.58842ZM14.8 32V16.8232L0.4032 9.58842C1.43051e-07 11.0386 0 12.9421 0 15.9823V16.1704C0 20.2299 -1.90735e-07 22.2605 0.9552 23.8907C1.912 25.5225 3.6336 26.4309 7.0752 28.246L10.2752 29.9325C12.344 31.0241 13.6512 31.7122 14.8 32ZM1.536 7.46141L16 14.7283L21.4576 11.9871L7.24 3.82315L7.0752 3.90997C4.2384 5.40515 2.5696 6.28457 1.536 7.46302" fill="#1B1716"/>
</svg>
