<svg width="20" height="20" viewBox="0 0 20 20" fill="none" xmlns="http://www.w3.org/2000/svg">
<path d="M18 10C18 12.1217 17.1571 14.1566 15.6569 15.6569C14.1566 17.1571 12.1217 18 10 18C7.87827 18 5.84344 17.1571 4.34315 15.6569C2.84285 14.1566 2 12.1217 2 10C2 7.87827 2.84285 5.84344 4.34315 4.34315C5.84344 2.84285 7.87827 2 10 2C12.1217 2 14.1566 2.84285 15.6569 4.34315C17.1571 5.84344 18 7.87827 18 10ZM10 20C15.523 20 20 15.523 20 10C20 4.477 15.523 0 10 0C4.477 0 0 4.477 0 10C0 15.523 4.477 20 10 20ZM10.358 7.382C9.386 7.78667 7.44233 8.62433 4.527 9.895C4.053 10.083 3.805 10.267 3.783 10.447C3.745 10.751 4.126 10.871 4.645 11.034L4.863 11.104C5.373 11.27 6.061 11.464 6.418 11.472C6.742 11.4787 7.10333 11.3453 7.502 11.072C10.226 9.232 11.632 8.30233 11.72 8.283C11.783 8.269 11.869 8.251 11.927 8.303C11.986 8.355 11.98 8.453 11.974 8.48C11.936 8.641 10.44 10.032 9.666 10.751C9.43667 10.967 9.209 11.1847 8.983 11.404C8.509 11.861 8.153 12.204 9.003 12.764C9.864 13.332 10.733 13.898 11.573 14.497C11.987 14.793 12.359 15.057 12.819 15.016C13.086 14.991 13.362 14.74 13.502 13.99C13.834 12.22 14.485 8.382 14.635 6.8C14.6437 6.66877 14.638 6.53699 14.618 6.407C14.6062 6.30238 14.5555 6.20602 14.476 6.137C14.356 6.039 14.171 6.019 14.089 6.02C13.713 6.027 13.136 6.227 10.359 7.382" fill="#F6F5EC"/>
</svg>
