<svg width="16" height="16" viewBox="0 0 16 16" fill="none" xmlns="http://www.w3.org/2000/svg">
<path d="M2.57143 16H10.5714C11.2534 16 11.9075 15.7291 12.3897 15.2469C12.8719 14.7646 13.1429 14.1106 13.1429 13.4286V5.42861C13.1429 4.74662 12.8719 4.09257 12.3897 3.61033C11.9075 3.1281 11.2534 2.85718 10.5714 2.85718H2.57143C1.88944 2.85718 1.23539 3.1281 0.753153 3.61033C0.270917 4.09257 -9.53674e-07 4.74662 -9.53674e-07 5.42861V13.4286C-9.53674e-07 14.1106 0.270917 14.7646 0.753153 15.2469C1.23539 15.7291 1.88944 16 2.57143 16Z" fill="#1B1716" fill-opacity="0.6"/>
<path d="M11.4289 1.71429H3.00457C3.18235 1.2133 3.5108 0.779597 3.94484 0.472674C4.37888 0.16575 4.89725 0.000641788 5.42885 0H13.4289C14.1108 0 14.7649 0.270918 15.2471 0.753154C15.7294 1.23539 16.0003 1.88944 16.0003 2.57143V10.5714C15.9996 11.103 15.8345 11.6214 15.5276 12.0554C15.2207 12.4895 14.787 12.8179 14.286 12.9957V4.57143C14.286 3.81367 13.985 3.08694 13.4492 2.55112C12.9133 2.01531 12.1866 1.71429 11.4289 1.71429Z" fill="#1B1716" fill-opacity="0.6"/>
</svg>
