<svg width="24" height="24" viewBox="0 0 24 24" fill="none" xmlns="http://www.w3.org/2000/svg">
<path fill-rule="evenodd" clip-rule="evenodd" d="M2.71521 2.63848C1.85881 3.48659 1.17802 4.49636 0.712039 5.60964C0.246055 6.72293 0.0040817 7.91773 5.11954e-05 9.12526C-0.00397931 10.3328 0.230013 11.5292 0.688555 12.6456C1.1471 13.762 1.82113 14.7763 2.67185 15.6301C3.52256 16.484 4.53315 17.1605 5.64544 17.6208C6.75772 18.081 7.94973 18.3159 9.15281 18.3118C10.3559 18.3078 11.5463 18.0649 12.6555 17.5972C13.7647 17.1295 14.7707 16.4462 15.6157 15.5866C17.3075 13.8657 18.2525 11.5429 18.2445 9.12526C18.2364 6.70759 17.2759 4.39126 15.5727 2.68171C13.8694 0.972154 11.5616 0.00815094 9.15281 5.14513e-05C6.74404 -0.00804804 4.42985 0.940414 2.71521 2.63848ZM13.2705 13.2327C12.7314 13.7738 12.0914 14.203 11.3871 14.4958C10.6827 14.7886 9.92784 14.9393 9.16547 14.9393C8.4031 14.9393 7.64819 14.7886 6.94385 14.4958C6.23951 14.203 5.59953 13.7738 5.06046 13.2327C4.52138 12.6917 4.09376 12.0493 3.80201 11.3424C3.51027 10.6354 3.36011 9.87774 3.36011 9.11255C3.36011 8.34737 3.51027 7.58967 3.80201 6.88273C4.09376 6.17579 4.52138 5.53345 5.06046 4.99238C6.14917 3.89965 7.62579 3.28575 9.16547 3.28575C10.7051 3.28575 12.1818 3.89965 13.2705 4.99238C14.3592 6.08512 14.9708 7.56719 14.9708 9.11255C14.9708 10.6579 14.3592 12.14 13.2705 13.2327Z" fill="#1B1716"/>
<path d="M13.8578 17.353C13.6267 17.1211 13.4434 16.8457 13.3183 16.5426C13.1933 16.2396 13.1289 15.9148 13.1289 15.5867C13.1289 15.2587 13.1933 14.9339 13.3183 14.6308C13.4434 14.3278 13.6267 14.0524 13.8578 13.8205C14.0889 13.5885 14.3633 13.4045 14.6652 13.279C14.9672 13.1535 15.2908 13.0889 15.6176 13.0889C15.9444 13.0889 16.268 13.1535 16.57 13.279C16.8719 13.4045 17.1463 13.5885 17.3774 13.8205L23.2405 19.7069C23.4781 19.9373 23.6676 20.2128 23.798 20.5174C23.9284 20.8221 23.997 21.1498 23.9999 21.4813C24.0028 21.8129 23.9398 22.1417 23.8147 22.4486C23.6896 22.7555 23.5049 23.0343 23.2713 23.2687C23.0377 23.5032 22.7599 23.6886 22.4542 23.8141C22.1484 23.9397 21.8208 24.0029 21.4905 24C21.1602 23.9971 20.8337 23.9282 20.5302 23.7974C20.2266 23.6665 19.9521 23.4763 19.7226 23.2378L13.8578 17.353Z" fill="#1B1716"/>
</svg>
