<svg width="24" height="24" viewBox="0 0 24 24" fill="none" xmlns="http://www.w3.org/2000/svg">
<path fill-rule="evenodd" clip-rule="evenodd" d="M2.63523 2.63848C1.80406 3.48659 1.14332 4.49636 0.691065 5.60964C0.238807 6.72293 0.00396147 7.91773 4.96874e-05 9.12526C-0.00386209 10.3328 0.223238 11.5292 0.668273 12.6456C1.11331 13.762 1.76749 14.7763 2.59314 15.6301C3.4188 16.484 4.39963 17.1605 5.47915 17.6208C6.55867 18.081 7.71556 18.3159 8.88321 18.3118C10.0509 18.3078 11.2062 18.0649 12.2827 17.5972C13.3592 17.1295 14.3357 16.4462 15.1558 15.5866C16.7977 13.8657 17.7149 11.5429 17.7071 9.12526C17.6992 6.70759 16.7671 4.39126 15.114 2.68171C13.4609 0.972154 11.221 0.00815094 8.88321 5.14513e-05C6.54539 -0.00804804 4.29937 0.940414 2.63523 2.63848ZM12.8796 13.2327C12.3564 13.7738 11.7353 14.203 11.0517 14.4958C10.3681 14.7886 9.63541 14.9393 8.8955 14.9393C8.15558 14.9393 7.42291 14.7886 6.73932 14.4958C6.05573 14.203 5.4346 13.7738 4.9114 13.2327C4.3882 12.6917 3.97317 12.0493 3.69002 11.3424C3.40687 10.6354 3.26113 9.87774 3.26113 9.11255C3.26113 8.34737 3.40687 7.58967 3.69002 6.88273C3.97317 6.17579 4.3882 5.53345 4.9114 4.99238C5.96805 3.89965 7.40117 3.28575 8.8955 3.28575C10.3898 3.28575 11.8229 3.89965 12.8796 4.99238C13.9362 6.08512 14.5299 7.56719 14.5299 9.11255C14.5299 10.6579 13.9362 12.14 12.8796 13.2327Z" fill="#640000"/>
<path d="M13.4496 17.353C13.2253 17.1211 13.0474 16.8457 12.926 16.5426C12.8047 16.2396 12.7422 15.9148 12.7422 15.5867C12.7422 15.2587 12.8047 14.9339 12.926 14.6308C13.0474 14.3278 13.2253 14.0524 13.4496 13.8205C13.6739 13.5885 13.9402 13.4045 14.2332 13.279C14.5263 13.1535 14.8404 13.0889 15.1576 13.0889C15.4748 13.0889 15.7888 13.1535 16.0819 13.279C16.3749 13.4045 16.6412 13.5885 16.8655 13.8205L22.5559 19.7069C22.7865 19.9373 22.9705 20.2128 23.097 20.5174C23.2236 20.8221 23.2902 21.1498 23.293 21.4813C23.2958 21.8129 23.2347 22.1417 23.1133 22.4486C22.9919 22.7555 22.8126 23.0343 22.5858 23.2687C22.3591 23.5032 22.0895 23.6886 21.7928 23.8141C21.496 23.9397 21.1781 24.0029 20.8575 24C20.5369 23.9971 20.22 23.9282 19.9254 23.7974C19.6308 23.6665 19.3644 23.4763 19.1417 23.2378L13.4496 17.353Z" fill="#640000"/>
</svg>
