<svg width="19" height="12" viewBox="0 0 19 12" fill="none" xmlns="http://www.w3.org/2000/svg">
<path fill-rule="evenodd" clip-rule="evenodd" d="M0 6C1.75145 2.44114 5.34764 0 9.5 0C13.6524 0 17.2485 2.44114 19 6C17.2485 9.55886 13.6524 12 9.5 12C5.34764 12 1.75145 9.55886 0 6ZM9.5 9C9.89695 9 10.29 8.9224 10.6567 8.77164C11.0235 8.62087 11.3567 8.3999 11.6374 8.12132C11.9181 7.84274 12.1407 7.51203 12.2926 7.14805C12.4445 6.78407 12.5227 6.39397 12.5227 6C12.5227 5.60603 12.4445 5.21593 12.2926 4.85195C12.1407 4.48797 11.9181 4.15726 11.6374 3.87868C11.3567 3.6001 11.0235 3.37913 10.6567 3.22836C10.29 3.0776 9.89695 3 9.5 3C8.69832 3 7.92948 3.31607 7.36261 3.87868C6.79574 4.44129 6.47727 5.20435 6.47727 6C6.47727 6.79565 6.79574 7.55871 7.36261 8.12132C7.92948 8.68393 8.69832 9 9.5 9Z" fill="#1B1716" fill-opacity="0.6"/>
</svg>
