<svg width="22" height="14" viewBox="0 0 22 14" fill="none" xmlns="http://www.w3.org/2000/svg">
<path fill-rule="evenodd" clip-rule="evenodd" d="M0 7C2.028 2.848 6.192 0 11 0C15.808 0 19.972 2.848 22 7C19.972 11.152 15.808 14 11 14C6.192 14 2.028 11.152 0 7ZM11 10.5C11.4596 10.5 11.9148 10.4095 12.3394 10.2336C12.764 10.0577 13.1499 9.79988 13.4749 9.47487C13.7999 9.14987 14.0577 8.76403 14.2336 8.33939C14.4095 7.91475 14.5 7.45963 14.5 7C14.5 6.54037 14.4095 6.08525 14.2336 5.66061C14.0577 5.23597 13.7999 4.85013 13.4749 4.52513C13.1499 4.20012 12.764 3.94231 12.3394 3.76642C11.9148 3.59053 11.4596 3.5 11 3.5C10.0717 3.5 9.1815 3.86875 8.52513 4.52513C7.86875 5.1815 7.5 6.07174 7.5 7C7.5 7.92826 7.86875 8.8185 8.52513 9.47487C9.1815 10.1313 10.0717 10.5 11 10.5Z" fill="#F6F5EC"/>
</svg>
