<svg width="32" height="32" viewBox="0 0 32 32" fill="none" xmlns="http://www.w3.org/2000/svg">
<rect x="1" y="1" width="30" height="30" rx="9" stroke="#1B1716" stroke-width="2"/>
<path d="M11.7145 10.2198C11.8553 10.0791 12.0463 10.0002 12.2454 10.0002C12.4445 10.0002 12.6355 10.0791 12.7763 10.2198L15.78 13.2198C15.9168 13.3612 15.9925 13.5507 15.9907 13.7473C15.989 13.9439 15.9101 14.1321 15.7708 14.2711C15.6316 14.4102 15.4433 14.489 15.2464 14.4908C15.0495 14.4925 14.8598 14.4169 14.7182 14.2802L12.9963 12.5605V21.25C12.9963 21.4489 12.9172 21.6397 12.7764 21.7803C12.6355 21.921 12.4445 22 12.2454 22C12.0462 22 11.8552 21.921 11.7144 21.7803C11.5736 21.6397 11.4945 21.4489 11.4945 21.25V12.5605L9.7726 14.2802C9.63097 14.4169 9.44129 14.4925 9.2444 14.4908C9.04751 14.489 8.85917 14.4102 8.71994 14.2711C8.58071 14.1321 8.50174 13.9439 8.50003 13.7473C8.49832 13.5507 8.57401 13.3612 8.71079 13.2198L11.7145 10.2198ZM19.0037 19.4395V10.75C19.0037 10.5511 19.0828 10.3603 19.2236 10.2197C19.3645 10.079 19.5555 10 19.7546 10C19.9538 10 20.1448 10.079 20.2856 10.2197C20.4264 10.3603 20.5055 10.5511 20.5055 10.75V19.4395L22.2274 17.7198C22.369 17.5831 22.5587 17.5075 22.7556 17.5092C22.9525 17.511 23.1408 17.5898 23.2801 17.7289C23.4193 17.8679 23.4983 18.0561 23.5 18.2527C23.5017 18.4493 23.426 18.6388 23.2892 18.7802L20.2855 21.7803C20.1447 21.9209 19.9537 21.9998 19.7546 21.9998C19.5555 21.9998 19.3645 21.9209 19.2237 21.7803L16.22 18.7802C16.0832 18.6388 16.0075 18.4493 16.0093 18.2527C16.011 18.0561 16.0899 17.8679 16.2292 17.7289C16.3684 17.5898 16.5567 17.511 16.7536 17.5092C16.9505 17.5075 17.1402 17.5831 17.2818 17.7198L19.0037 19.4395Z" fill="#1B1716"/>
</svg>
