<svg width="27" height="32" viewBox="0 0 27 32" fill="none" xmlns="http://www.w3.org/2000/svg">
<path d="M2.07692 2.13333C1.52609 2.13333 0.997815 2.35809 0.608317 2.75817C0.218818 3.15825 0 3.70087 0 4.26667V6.4C0 6.9658 0.218818 7.50842 0.608317 7.90849C0.997815 8.30857 1.52609 8.53333 2.07692 8.53333H3.11538V27.7333C3.11538 28.8649 3.55302 29.9502 4.33202 30.7503C5.11102 31.5505 6.16756 32 7.26923 32H19.7308C20.8324 32 21.889 31.5505 22.668 30.7503C23.447 29.9502 23.8846 28.8649 23.8846 27.7333V8.53333H24.9231C25.4739 8.53333 26.0022 8.30857 26.3917 7.90849C26.7812 7.50842 27 6.9658 27 6.4V4.26667C27 3.70087 26.7812 3.15825 26.3917 2.75817C26.0022 2.35809 25.4739 2.13333 24.9231 2.13333H17.6538C17.6538 1.56754 17.435 1.02492 17.0455 0.624839C16.656 0.224761 16.1278 0 15.5769 0L11.4231 0C10.8722 0 10.344 0.224761 9.95447 0.624839C9.56497 1.02492 9.34615 1.56754 9.34615 2.13333H2.07692ZM8.30769 10.6667C8.58311 10.6667 8.84725 10.779 9.042 10.9791C9.23674 11.1791 9.34615 11.4504 9.34615 11.7333V26.6667C9.34615 26.9496 9.23674 27.2209 9.042 27.4209C8.84725 27.621 8.58311 27.7333 8.30769 27.7333C8.03228 27.7333 7.76814 27.621 7.57339 27.4209C7.37864 27.2209 7.26923 26.9496 7.26923 26.6667V11.7333C7.26923 11.4504 7.37864 11.1791 7.57339 10.9791C7.76814 10.779 8.03228 10.6667 8.30769 10.6667ZM13.5 10.6667C13.7754 10.6667 14.0396 10.779 14.2343 10.9791C14.4291 11.1791 14.5385 11.4504 14.5385 11.7333V26.6667C14.5385 26.9496 14.4291 27.2209 14.2343 27.4209C14.0396 27.621 13.7754 27.7333 13.5 27.7333C13.2246 27.7333 12.9604 27.621 12.7657 27.4209C12.5709 27.2209 12.4615 26.9496 12.4615 26.6667V11.7333C12.4615 11.4504 12.5709 11.1791 12.7657 10.9791C12.9604 10.779 13.2246 10.6667 13.5 10.6667ZM19.7308 11.7333V26.6667C19.7308 26.9496 19.6214 27.2209 19.4266 27.4209C19.2319 27.621 18.9677 27.7333 18.6923 27.7333C18.4169 27.7333 18.1528 27.621 17.958 27.4209C17.7633 27.2209 17.6538 26.9496 17.6538 26.6667V11.7333C17.6538 11.4504 17.7633 11.1791 17.958 10.9791C18.1528 10.779 18.4169 10.6667 18.6923 10.6667C18.9677 10.6667 19.2319 10.779 19.4266 10.9791C19.6214 11.1791 19.7308 11.4504 19.7308 11.7333Z" fill="#640000"/>
</svg>
