<svg width="20" height="21" viewBox="0 0 20 21" fill="none" xmlns="http://www.w3.org/2000/svg">
<path d="M9.88298 0.118879C9.80853 0.0425829 9.70949 0 9.60648 0C9.50346 0 9.40442 0.0425829 9.32998 0.118879L0.125 9.54049C0.0859072 9.58056 0.0548066 9.6287 0.0335792 9.68202C0.0123517 9.73533 0.0014386 9.79271 0.00149994 9.85067L0 18.6932C0 19.1478 0.16857 19.5839 0.468628 19.9054C0.768685 20.2268 1.17565 20.4075 1.6 20.4075H6.40498C6.61716 20.4075 6.82064 20.3172 6.97067 20.1564C7.1207 19.9957 7.20498 19.7776 7.20498 19.5503V12.2646C7.20498 12.1509 7.24712 12.0419 7.32214 11.9616C7.39715 11.8812 7.49889 11.836 7.60498 11.836H11.605C11.7111 11.836 11.8128 11.8812 11.8878 11.9616C11.9628 12.0419 12.005 12.1509 12.005 12.2646V19.5503C12.005 19.7776 12.0893 19.9957 12.2393 20.1564C12.3893 20.3172 12.5928 20.4075 12.805 20.4075H17.608C18.0323 20.4075 18.4393 20.2268 18.7393 19.9054C19.0394 19.5839 19.208 19.1478 19.208 18.6932V9.85067C19.208 9.79271 19.1971 9.73533 19.1759 9.68202C19.1546 9.6287 19.1235 9.58056 19.0845 9.54049L9.88298 0.118879Z" fill="#1B1716"/>
</svg>
