<svg width="299" height="328" viewBox="0 0 299 328" fill="none" xmlns="http://www.w3.org/2000/svg">
<rect x="1" y="1" width="297" height="326" rx="9" fill="#F6F5EC"/>
<rect x="1" y="1" width="297" height="326" rx="9" stroke="#640000" stroke-width="2"/>
<rect x="25" y="33" width="22" height="22" rx="11" stroke="#1B1716" stroke-width="2"/>
<circle cx="36" cy="44" r="6" fill="#1B1716"/>
<path d="M66.1136 37.8636V49.5H64.7045V39.1136H58.8409V49.5H57.4318V37.8636H66.1136ZM72.1596 49.6818C71.3717 49.6818 70.6804 49.4943 70.0857 49.1193C69.4948 48.7443 69.0327 48.2197 68.6994 47.5455C68.3698 46.8712 68.2051 46.0833 68.2051 45.1818C68.2051 44.2727 68.3698 43.4792 68.6994 42.8011C69.0327 42.1231 69.4948 41.5966 70.0857 41.2216C70.6804 40.8466 71.3717 40.6591 72.1596 40.6591C72.9475 40.6591 73.6369 40.8466 74.2278 41.2216C74.8225 41.5966 75.2846 42.1231 75.6141 42.8011C75.9475 43.4792 76.1141 44.2727 76.1141 45.1818C76.1141 46.0833 75.9475 46.8712 75.6141 47.5455C75.2846 48.2197 74.8225 48.7443 74.2278 49.1193C73.6369 49.4943 72.9475 49.6818 72.1596 49.6818ZM72.1596 48.4773C72.7581 48.4773 73.2505 48.3239 73.6369 48.017C74.0232 47.7102 74.3092 47.3068 74.4948 46.8068C74.6804 46.3068 74.7732 45.7652 74.7732 45.1818C74.7732 44.5985 74.6804 44.0549 74.4948 43.5511C74.3092 43.0473 74.0232 42.6402 73.6369 42.3295C73.2505 42.0189 72.7581 41.8636 72.1596 41.8636C71.5611 41.8636 71.0687 42.0189 70.6823 42.3295C70.296 42.6402 70.01 43.0473 69.8244 43.5511C69.6388 44.0549 69.546 44.5985 69.546 45.1818C69.546 45.7652 69.6388 46.3068 69.8244 46.8068C70.01 47.3068 70.296 47.7102 70.6823 48.017C71.0687 48.3239 71.5611 48.4773 72.1596 48.4773ZM83.2047 52.7727C82.9774 52.7727 82.7747 52.7538 82.5967 52.7159C82.4187 52.6818 82.2956 52.6477 82.2274 52.6136L82.5683 51.4318C82.8941 51.5152 83.1819 51.5455 83.4319 51.5227C83.6819 51.5 83.9035 51.3883 84.0967 51.1875C84.2937 50.9905 84.4736 50.6705 84.6365 50.2273L84.8865 49.5455L81.6592 40.7727H83.1138L85.5228 47.7273H85.6138L88.0228 40.7727H89.4774L85.7728 50.7727C85.6062 51.2235 85.3997 51.5966 85.1535 51.892C84.9073 52.1913 84.6213 52.4129 84.2956 52.5568C83.9736 52.7008 83.61 52.7727 83.2047 52.7727ZM95.86 47.6818L98.9055 40.7727H100.178L96.4055 49.5H95.3145L91.61 40.7727H92.86L95.86 47.6818ZM92.4282 40.7727V49.5H91.0873V40.7727H92.4282ZM99.2918 49.5V40.7727H100.633V49.5H99.2918ZM106.473 49.6818C105.685 49.6818 104.994 49.4943 104.399 49.1193C103.808 48.7443 103.346 48.2197 103.013 47.5455C102.683 46.8712 102.518 46.0833 102.518 45.1818C102.518 44.2727 102.683 43.4792 103.013 42.8011C103.346 42.1231 103.808 41.5966 104.399 41.2216C104.994 40.8466 105.685 40.6591 106.473 40.6591C107.261 40.6591 107.95 40.8466 108.541 41.2216C109.136 41.5966 109.598 42.1231 109.927 42.8011C110.261 43.4792 110.427 44.2727 110.427 45.1818C110.427 46.0833 110.261 46.8712 109.927 47.5455C109.598 48.2197 109.136 48.7443 108.541 49.1193C107.95 49.4943 107.261 49.6818 106.473 49.6818ZM106.473 48.4773C107.071 48.4773 107.564 48.3239 107.95 48.017C108.336 47.7102 108.622 47.3068 108.808 46.8068C108.994 46.3068 109.086 45.7652 109.086 45.1818C109.086 44.5985 108.994 44.0549 108.808 43.5511C108.622 43.0473 108.336 42.6402 107.95 42.3295C107.564 42.0189 107.071 41.8636 106.473 41.8636C105.874 41.8636 105.382 42.0189 104.995 42.3295C104.609 42.6402 104.323 43.0473 104.138 43.5511C103.952 44.0549 103.859 44.5985 103.859 45.1818C103.859 45.7652 103.952 46.3068 104.138 46.8068C104.323 47.3068 104.609 47.7102 104.995 48.017C105.382 48.3239 105.874 48.4773 106.473 48.4773ZM111.541 49.5V48.25H111.86C112.121 48.25 112.339 48.1989 112.513 48.0966C112.687 47.9905 112.827 47.8068 112.933 47.5455C113.043 47.2803 113.127 46.9129 113.183 46.4432C113.244 45.9697 113.288 45.3674 113.314 44.6364L113.473 40.7727H119.291V49.5H117.951V42.0227H114.746L114.61 45.1364C114.579 45.8523 114.515 46.483 114.416 47.0284C114.322 47.5701 114.176 48.0246 113.979 48.392C113.786 48.7595 113.528 49.036 113.206 49.2216C112.884 49.4072 112.481 49.5 111.996 49.5H111.541ZM128.319 40.7727V49.5H126.978V40.7727H128.319ZM127.796 44.9318V46.1818C127.493 46.2955 127.192 46.3958 126.893 46.483C126.594 46.5663 126.279 46.6326 125.95 46.6818C125.62 46.7273 125.258 46.75 124.864 46.75C123.876 46.75 123.082 46.483 122.484 45.9489C121.889 45.4148 121.592 44.6136 121.592 43.5455V40.75H122.933V43.5455C122.933 43.9924 123.018 44.3598 123.188 44.6477C123.359 44.9356 123.59 45.1496 123.881 45.2898C124.173 45.4299 124.501 45.5 124.864 45.5C125.433 45.5 125.946 45.4489 126.404 45.3466C126.866 45.2405 127.33 45.1023 127.796 44.9318ZM133.187 49.7045C132.634 49.7045 132.132 49.6004 131.682 49.392C131.231 49.1799 130.873 48.875 130.608 48.4773C130.343 48.0758 130.21 47.5909 130.21 47.0227C130.21 46.5227 130.309 46.1174 130.506 45.8068C130.702 45.4924 130.966 45.2462 131.295 45.0682C131.625 44.8902 131.988 44.7576 132.386 44.6705C132.788 44.5795 133.191 44.5076 133.596 44.4545C134.127 44.3864 134.557 44.3352 134.886 44.3011C135.22 44.2633 135.462 44.2008 135.613 44.1136C135.769 44.0265 135.846 43.875 135.846 43.6591V43.6136C135.846 43.053 135.693 42.6174 135.386 42.3068C135.083 41.9962 134.623 41.8409 134.006 41.8409C133.365 41.8409 132.863 41.9811 132.5 42.2614C132.136 42.5417 131.881 42.8409 131.733 43.1591L130.46 42.7045C130.687 42.1742 130.99 41.7614 131.369 41.4659C131.752 41.1667 132.168 40.9583 132.619 40.8409C133.074 40.7197 133.521 40.6591 133.96 40.6591C134.24 40.6591 134.562 40.6932 134.926 40.7614C135.293 40.8258 135.648 40.9602 135.988 41.1648C136.333 41.3693 136.619 41.678 136.846 42.0909C137.074 42.5038 137.187 43.0568 137.187 43.75V49.5H135.846V48.3182H135.778C135.687 48.5076 135.536 48.7102 135.324 48.9261C135.112 49.142 134.829 49.3258 134.477 49.4773C134.125 49.6288 133.695 49.7045 133.187 49.7045ZM133.392 48.5C133.922 48.5 134.369 48.3958 134.733 48.1875C135.1 47.9792 135.377 47.7102 135.562 47.3807C135.752 47.0511 135.846 46.7045 135.846 46.3409V45.1136C135.79 45.1818 135.665 45.2443 135.471 45.3011C135.282 45.3542 135.062 45.4015 134.812 45.4432C134.566 45.4811 134.326 45.5152 134.091 45.5455C133.86 45.572 133.672 45.5947 133.528 45.6136C133.18 45.6591 132.854 45.733 132.551 45.8352C132.252 45.9337 132.009 46.0833 131.824 46.2841C131.642 46.4811 131.551 46.75 131.551 47.0909C131.551 47.5568 131.723 47.9091 132.068 48.1477C132.416 48.3826 132.858 48.5 133.392 48.5ZM145.316 44.5227V45.7727H140.497V44.5227H145.316ZM140.816 40.7727V49.5H139.475V40.7727H140.816ZM146.338 40.7727V49.5H144.997V40.7727H146.338ZM149.968 47.5227L154.173 40.7727H155.718V49.5H154.377V42.75L150.195 49.5H148.627V40.7727H149.968V47.5227ZM162.196 44.5909V45.8409H157.582V44.5909H162.196ZM158.719 40.7727V49.5H157.378V40.7727H158.719ZM164.878 49.6818C164.09 49.6818 163.399 49.4943 162.804 49.1193C162.213 48.7443 161.751 48.2197 161.418 47.5455C161.088 46.8712 160.923 46.0833 160.923 45.1818C160.923 44.2727 161.088 43.4792 161.418 42.8011C161.751 42.1231 162.213 41.5966 162.804 41.2216C163.399 40.8466 164.09 40.6591 164.878 40.6591C165.666 40.6591 166.355 40.8466 166.946 41.2216C167.541 41.5966 168.003 42.1231 168.332 42.8011C168.666 43.4792 168.832 44.2727 168.832 45.1818C168.832 46.0833 168.666 46.8712 168.332 47.5455C168.003 48.2197 167.541 48.7443 166.946 49.1193C166.355 49.4943 165.666 49.6818 164.878 49.6818ZM164.878 48.4773C165.476 48.4773 165.969 48.3239 166.355 48.017C166.741 47.7102 167.027 47.3068 167.213 46.8068C167.399 46.3068 167.491 45.7652 167.491 45.1818C167.491 44.5985 167.399 44.0549 167.213 43.5511C167.027 43.0473 166.741 42.6402 166.355 42.3295C165.969 42.0189 165.476 41.8636 164.878 41.8636C164.279 41.8636 163.787 42.0189 163.401 42.3295C163.014 42.6402 162.728 43.0473 162.543 43.5511C162.357 44.0549 162.264 44.5985 162.264 45.1818C162.264 45.7652 162.357 46.3068 162.543 46.8068C162.728 47.3068 163.014 47.7102 163.401 48.017C163.787 48.3239 164.279 48.4773 164.878 48.4773Z" fill="#1B1716"/>
<circle cx="36" cy="92" r="11" stroke="#1B1716" stroke-opacity="0.6" stroke-width="2"/>
<path d="M57.4091 97.5V85.8636H58.8182V91.0455H65.0227V85.8636H66.4318V97.5H65.0227V92.2955H58.8182V97.5H57.4091ZM72.4565 97.6818C71.6686 97.6818 70.9773 97.4943 70.3826 97.1193C69.7917 96.7443 69.3296 96.2197 68.9963 95.5455C68.6667 94.8712 68.5019 94.0833 68.5019 93.1818C68.5019 92.2727 68.6667 91.4792 68.9963 90.8011C69.3296 90.1231 69.7917 89.5966 70.3826 89.2216C70.9773 88.8466 71.6686 88.6591 72.4565 88.6591C73.2444 88.6591 73.9338 88.8466 74.5247 89.2216C75.1194 89.5966 75.5815 90.1231 75.911 90.8011C76.2444 91.4792 76.411 92.2727 76.411 93.1818C76.411 94.0833 76.2444 94.8712 75.911 95.5455C75.5815 96.2197 75.1194 96.7443 74.5247 97.1193C73.9338 97.4943 73.2444 97.6818 72.4565 97.6818ZM72.4565 96.4773C73.055 96.4773 73.5474 96.3239 73.9338 96.017C74.3201 95.7102 74.6061 95.3068 74.7917 94.8068C74.9773 94.3068 75.0701 93.7652 75.0701 93.1818C75.0701 92.5985 74.9773 92.0549 74.7917 91.5511C74.6061 91.0473 74.3201 90.6402 73.9338 90.3295C73.5474 90.0189 73.055 89.8636 72.4565 89.8636C71.858 89.8636 71.3656 90.0189 70.9792 90.3295C70.5928 90.6402 70.3069 91.0473 70.1213 91.5511C69.9356 92.0549 69.8428 92.5985 69.8428 93.1818C69.8428 93.7652 69.9356 94.3068 70.1213 94.8068C70.3069 95.3068 70.5928 95.7102 70.9792 96.017C71.3656 96.3239 71.858 96.4773 72.4565 96.4773ZM78.2979 97.5V88.7727H81.8661C82.8055 88.7727 83.5517 88.9848 84.1047 89.4091C84.6577 89.8333 84.9343 90.3939 84.9343 91.0909C84.9343 91.6212 84.7771 92.0322 84.4627 92.3239C84.1483 92.6117 83.7449 92.8068 83.2524 92.9091C83.5744 92.9545 83.8869 93.0682 84.1899 93.25C84.4968 93.4318 84.7505 93.6818 84.9513 94C85.1521 94.3144 85.2524 94.7008 85.2524 95.1591C85.2524 95.6061 85.1388 96.0057 84.9115 96.358C84.6843 96.7102 84.3585 96.9886 83.9343 97.1932C83.51 97.3977 83.0024 97.5 82.4115 97.5H78.2979ZM79.5706 96.2727H82.4115C82.8737 96.2727 83.2354 96.1629 83.4968 95.9432C83.7581 95.7235 83.8888 95.4242 83.8888 95.0455C83.8888 94.5947 83.7581 94.2405 83.4968 93.983C83.2354 93.7216 82.8737 93.5909 82.4115 93.5909H79.5706V96.2727ZM79.5706 92.4318H81.8661C82.2259 92.4318 82.5346 92.3826 82.7922 92.2841C83.0498 92.1818 83.2468 92.0379 83.3831 91.8523C83.5233 91.6629 83.5934 91.4394 83.5934 91.1818C83.5934 90.8144 83.4399 90.5265 83.1331 90.3182C82.8263 90.1061 82.404 90 81.8661 90H79.5706V92.4318ZM88.4632 95.5227L92.6677 88.7727H94.2132V97.5H92.8723V90.75L88.6905 97.5H87.1223V88.7727H88.4632V95.5227ZM102.35 92.5227V93.7727H97.5319V92.5227H102.35ZM97.8501 88.7727V97.5H96.5091V88.7727H97.8501ZM103.373 88.7727V97.5H102.032V88.7727H103.373ZM105.662 97.5V88.7727H107.003V92.5682H107.889L111.025 88.7727H112.753L109.23 92.9773L112.798 97.5H111.071L108.207 93.8182H107.003V97.5H105.662ZM115.436 95.5227L119.641 88.7727H121.186V97.5H119.845V90.75L115.664 97.5H114.095V88.7727H115.436V95.5227Z" fill="#1B1716" fill-opacity="0.6"/>
<circle cx="36" cy="140" r="11" stroke="#1B1716" stroke-opacity="0.6" stroke-width="2"/>
<path d="M66.1136 133.864V145.5H64.7045V135.114H58.8409V145.5H57.4318V133.864H66.1136ZM72.1596 145.682C71.3717 145.682 70.6804 145.494 70.0857 145.119C69.4948 144.744 69.0327 144.22 68.6994 143.545C68.3698 142.871 68.2051 142.083 68.2051 141.182C68.2051 140.273 68.3698 139.479 68.6994 138.801C69.0327 138.123 69.4948 137.597 70.0857 137.222C70.6804 136.847 71.3717 136.659 72.1596 136.659C72.9475 136.659 73.6369 136.847 74.2278 137.222C74.8225 137.597 75.2846 138.123 75.6141 138.801C75.9475 139.479 76.1141 140.273 76.1141 141.182C76.1141 142.083 75.9475 142.871 75.6141 143.545C75.2846 144.22 74.8225 144.744 74.2278 145.119C73.6369 145.494 72.9475 145.682 72.1596 145.682ZM72.1596 144.477C72.7581 144.477 73.2505 144.324 73.6369 144.017C74.0232 143.71 74.3092 143.307 74.4948 142.807C74.6804 142.307 74.7732 141.765 74.7732 141.182C74.7732 140.598 74.6804 140.055 74.4948 139.551C74.3092 139.047 74.0232 138.64 73.6369 138.33C73.2505 138.019 72.7581 137.864 72.1596 137.864C71.5611 137.864 71.0687 138.019 70.6823 138.33C70.296 138.64 70.01 139.047 69.8244 139.551C69.6388 140.055 69.546 140.598 69.546 141.182C69.546 141.765 69.6388 142.307 69.8244 142.807C70.01 143.307 70.296 143.71 70.6823 144.017C71.0687 144.324 71.5611 144.477 72.1596 144.477ZM82.341 145.5V136.773H85.9092C86.8486 136.773 87.5948 136.985 88.1478 137.409C88.7009 137.833 88.9774 138.394 88.9774 139.091C88.9774 139.621 88.8202 140.032 88.5058 140.324C88.1914 140.612 87.788 140.807 87.2956 140.909C87.6175 140.955 87.93 141.068 88.2331 141.25C88.5399 141.432 88.7937 141.682 88.9944 142C89.1952 142.314 89.2956 142.701 89.2956 143.159C89.2956 143.606 89.1819 144.006 88.9547 144.358C88.7274 144.71 88.4016 144.989 87.9774 145.193C87.5531 145.398 87.0456 145.5 86.4547 145.5H82.341ZM83.6138 144.273H86.4547C86.9168 144.273 87.2785 144.163 87.5399 143.943C87.8013 143.723 87.9319 143.424 87.9319 143.045C87.9319 142.595 87.8013 142.241 87.5399 141.983C87.2785 141.722 86.9168 141.591 86.4547 141.591H83.6138V144.273ZM83.6138 140.432H85.9092C86.2691 140.432 86.5778 140.383 86.8353 140.284C87.0929 140.182 87.2899 140.038 87.4263 139.852C87.5664 139.663 87.6365 139.439 87.6365 139.182C87.6365 138.814 87.4831 138.527 87.1763 138.318C86.8694 138.106 86.4471 138 85.9092 138H83.6138V140.432ZM94.7109 145.682C93.923 145.682 93.2317 145.494 92.637 145.119C92.0461 144.744 91.584 144.22 91.2506 143.545C90.9211 142.871 90.7563 142.083 90.7563 141.182C90.7563 140.273 90.9211 139.479 91.2506 138.801C91.584 138.123 92.0461 137.597 92.637 137.222C93.2317 136.847 93.923 136.659 94.7109 136.659C95.4987 136.659 96.1881 136.847 96.779 137.222C97.3737 137.597 97.8359 138.123 98.1654 138.801C98.4987 139.479 98.6654 140.273 98.6654 141.182C98.6654 142.083 98.4987 142.871 98.1654 143.545C97.8359 144.22 97.3737 144.744 96.779 145.119C96.1881 145.494 95.4987 145.682 94.7109 145.682ZM94.7109 144.477C95.3093 144.477 95.8018 144.324 96.1881 144.017C96.5745 143.71 96.8605 143.307 97.0461 142.807C97.2317 142.307 97.3245 141.765 97.3245 141.182C97.3245 140.598 97.2317 140.055 97.0461 139.551C96.8605 139.047 96.5745 138.64 96.1881 138.33C95.8018 138.019 95.3093 137.864 94.7109 137.864C94.1124 137.864 93.6199 138.019 93.2336 138.33C92.8472 138.64 92.5612 139.047 92.3756 139.551C92.19 140.055 92.0972 140.598 92.0972 141.182C92.0972 141.765 92.19 142.307 92.3756 142.807C92.5612 143.307 92.8472 143.71 93.2336 144.017C93.6199 144.324 94.1124 144.477 94.7109 144.477ZM100.007 143.273H101.439C101.469 143.667 101.647 143.966 101.973 144.17C102.302 144.375 102.73 144.477 103.257 144.477C103.795 144.477 104.255 144.367 104.638 144.148C105.02 143.924 105.211 143.564 105.211 143.068C105.211 142.777 105.139 142.523 104.995 142.307C104.852 142.087 104.649 141.917 104.388 141.795C104.126 141.674 103.817 141.614 103.461 141.614H101.961V140.409H103.461C103.995 140.409 104.389 140.288 104.643 140.045C104.901 139.803 105.03 139.5 105.03 139.136C105.03 138.746 104.891 138.434 104.615 138.199C104.338 137.96 103.946 137.841 103.439 137.841C102.927 137.841 102.501 137.956 102.16 138.188C101.819 138.415 101.639 138.708 101.62 139.068H100.211C100.227 138.598 100.37 138.184 100.643 137.824C100.916 137.46 101.287 137.176 101.757 136.972C102.227 136.763 102.764 136.659 103.37 136.659C103.984 136.659 104.516 136.767 104.967 136.983C105.422 137.195 105.772 137.485 106.018 137.852C106.268 138.216 106.393 138.629 106.393 139.091C106.393 139.583 106.255 139.981 105.978 140.284C105.702 140.587 105.355 140.803 104.939 140.932V141.023C105.268 141.045 105.554 141.152 105.797 141.341C106.043 141.527 106.234 141.771 106.37 142.074C106.507 142.373 106.575 142.705 106.575 143.068C106.575 143.598 106.433 144.061 106.149 144.455C105.865 144.845 105.475 145.148 104.978 145.364C104.482 145.576 103.916 145.682 103.28 145.682C102.662 145.682 102.109 145.581 101.62 145.381C101.132 145.176 100.744 144.894 100.456 144.534C100.172 144.17 100.022 143.75 100.007 143.273ZM108.299 148.773V136.773H109.594V138.159H109.753C109.852 138.008 109.988 137.814 110.162 137.58C110.34 137.341 110.594 137.129 110.924 136.943C111.257 136.754 111.708 136.659 112.276 136.659C113.011 136.659 113.658 136.843 114.219 137.21C114.78 137.578 115.217 138.098 115.531 138.773C115.846 139.447 116.003 140.242 116.003 141.159C116.003 142.083 115.846 142.884 115.531 143.562C115.217 144.237 114.781 144.759 114.225 145.131C113.668 145.498 113.026 145.682 112.299 145.682C111.738 145.682 111.289 145.589 110.952 145.403C110.615 145.214 110.355 145 110.174 144.761C109.992 144.519 109.852 144.318 109.753 144.159H109.639V148.773H108.299ZM109.617 141.136C109.617 141.795 109.713 142.377 109.906 142.881C110.1 143.381 110.382 143.773 110.753 144.057C111.124 144.337 111.579 144.477 112.117 144.477C112.677 144.477 113.145 144.33 113.52 144.034C113.899 143.735 114.183 143.333 114.372 142.83C114.566 142.322 114.662 141.758 114.662 141.136C114.662 140.523 114.567 139.97 114.378 139.477C114.192 138.981 113.91 138.589 113.531 138.301C113.156 138.009 112.685 137.864 112.117 137.864C111.571 137.864 111.113 138.002 110.742 138.278C110.37 138.551 110.09 138.934 109.901 139.426C109.711 139.915 109.617 140.485 109.617 141.136ZM120.457 145.705C119.904 145.705 119.402 145.6 118.951 145.392C118.5 145.18 118.142 144.875 117.877 144.477C117.612 144.076 117.479 143.591 117.479 143.023C117.479 142.523 117.578 142.117 117.775 141.807C117.972 141.492 118.235 141.246 118.565 141.068C118.894 140.89 119.258 140.758 119.656 140.67C120.057 140.58 120.46 140.508 120.866 140.455C121.396 140.386 121.826 140.335 122.156 140.301C122.489 140.263 122.731 140.201 122.883 140.114C123.038 140.027 123.116 139.875 123.116 139.659V139.614C123.116 139.053 122.962 138.617 122.656 138.307C122.353 137.996 121.892 137.841 121.275 137.841C120.635 137.841 120.133 137.981 119.769 138.261C119.406 138.542 119.15 138.841 119.002 139.159L117.729 138.705C117.957 138.174 118.26 137.761 118.639 137.466C119.021 137.167 119.438 136.958 119.889 136.841C120.343 136.72 120.79 136.659 121.229 136.659C121.51 136.659 121.832 136.693 122.195 136.761C122.563 136.826 122.917 136.96 123.258 137.165C123.603 137.369 123.889 137.678 124.116 138.091C124.343 138.504 124.457 139.057 124.457 139.75V145.5H123.116V144.318H123.048C122.957 144.508 122.805 144.71 122.593 144.926C122.381 145.142 122.099 145.326 121.746 145.477C121.394 145.629 120.964 145.705 120.457 145.705ZM120.661 144.5C121.192 144.5 121.639 144.396 122.002 144.188C122.37 143.979 122.646 143.71 122.832 143.381C123.021 143.051 123.116 142.705 123.116 142.341V141.114C123.059 141.182 122.934 141.244 122.741 141.301C122.551 141.354 122.332 141.402 122.082 141.443C121.835 141.481 121.595 141.515 121.36 141.545C121.129 141.572 120.942 141.595 120.798 141.614C120.449 141.659 120.123 141.733 119.82 141.835C119.521 141.934 119.279 142.083 119.093 142.284C118.911 142.481 118.82 142.75 118.82 143.091C118.82 143.557 118.993 143.909 119.337 144.148C119.686 144.383 120.127 144.5 120.661 144.5ZM130.29 145.682C129.471 145.682 128.767 145.489 128.176 145.102C127.585 144.716 127.131 144.184 126.812 143.506C126.494 142.828 126.335 142.053 126.335 141.182C126.335 140.295 126.498 139.513 126.824 138.835C127.153 138.153 127.612 137.621 128.199 137.239C128.79 136.852 129.479 136.659 130.267 136.659C130.881 136.659 131.434 136.773 131.926 137C132.418 137.227 132.822 137.545 133.136 137.955C133.451 138.364 133.646 138.841 133.721 139.386H132.381C132.278 138.989 132.051 138.636 131.699 138.33C131.35 138.019 130.881 137.864 130.29 137.864C129.767 137.864 129.309 138 128.915 138.273C128.524 138.542 128.22 138.922 128 139.415C127.784 139.903 127.676 140.477 127.676 141.136C127.676 141.811 127.782 142.398 127.994 142.898C128.21 143.398 128.513 143.786 128.903 144.062C129.297 144.339 129.759 144.477 130.29 144.477C130.638 144.477 130.954 144.417 131.238 144.295C131.523 144.174 131.763 144 131.96 143.773C132.157 143.545 132.297 143.273 132.381 142.955H133.721C133.646 143.47 133.458 143.934 133.159 144.347C132.863 144.756 132.471 145.081 131.983 145.324C131.498 145.562 130.934 145.682 130.29 145.682ZM134.834 138.023V136.773H141.925V138.023H139.061V145.5H137.721V138.023H134.834ZM145.836 145.705C145.283 145.705 144.781 145.6 144.33 145.392C143.88 145.18 143.522 144.875 143.257 144.477C142.991 144.076 142.859 143.591 142.859 143.023C142.859 142.523 142.957 142.117 143.154 141.807C143.351 141.492 143.614 141.246 143.944 141.068C144.274 140.89 144.637 140.758 145.035 140.67C145.436 140.58 145.84 140.508 146.245 140.455C146.775 140.386 147.205 140.335 147.535 140.301C147.868 140.263 148.111 140.201 148.262 140.114C148.418 140.027 148.495 139.875 148.495 139.659V139.614C148.495 139.053 148.342 138.617 148.035 138.307C147.732 137.996 147.272 137.841 146.654 137.841C146.014 137.841 145.512 137.981 145.149 138.261C144.785 138.542 144.529 138.841 144.382 139.159L143.109 138.705C143.336 138.174 143.639 137.761 144.018 137.466C144.4 137.167 144.817 136.958 145.268 136.841C145.722 136.72 146.169 136.659 146.609 136.659C146.889 136.659 147.211 136.693 147.575 136.761C147.942 136.826 148.296 136.96 148.637 137.165C148.982 137.369 149.268 137.678 149.495 138.091C149.722 138.504 149.836 139.057 149.836 139.75V145.5H148.495V144.318H148.427C148.336 144.508 148.185 144.71 147.972 144.926C147.76 145.142 147.478 145.326 147.126 145.477C146.774 145.629 146.344 145.705 145.836 145.705ZM146.041 144.5C146.571 144.5 147.018 144.396 147.382 144.188C147.749 143.979 148.025 143.71 148.211 143.381C148.4 143.051 148.495 142.705 148.495 142.341V141.114C148.438 141.182 148.313 141.244 148.12 141.301C147.931 141.354 147.711 141.402 147.461 141.443C147.215 141.481 146.974 141.515 146.739 141.545C146.508 141.572 146.321 141.595 146.177 141.614C145.829 141.659 145.503 141.733 145.2 141.835C144.9 141.934 144.658 142.083 144.472 142.284C144.291 142.481 144.2 142.75 144.2 143.091C144.2 143.557 144.372 143.909 144.717 144.148C145.065 144.383 145.507 144.5 146.041 144.5ZM157.964 140.523V141.773H153.146V140.523H157.964ZM153.464 136.773V145.5H152.124V136.773H153.464ZM158.987 136.773V145.5H157.646V136.773H158.987ZM162.617 143.523L166.821 136.773H168.367V145.5H167.026V138.75L162.844 145.5H161.276V136.773H162.617V143.523ZM174.845 140.591V141.841H170.231V140.591H174.845ZM171.367 136.773V145.5H170.027V136.773H171.367ZM177.527 145.682C176.739 145.682 176.047 145.494 175.453 145.119C174.862 144.744 174.4 144.22 174.066 143.545C173.737 142.871 173.572 142.083 173.572 141.182C173.572 140.273 173.737 139.479 174.066 138.801C174.4 138.123 174.862 137.597 175.453 137.222C176.047 136.847 176.739 136.659 177.527 136.659C178.314 136.659 179.004 136.847 179.595 137.222C180.189 137.597 180.652 138.123 180.981 138.801C181.314 139.479 181.481 140.273 181.481 141.182C181.481 142.083 181.314 142.871 180.981 143.545C180.652 144.22 180.189 144.744 179.595 145.119C179.004 145.494 178.314 145.682 177.527 145.682ZM177.527 144.477C178.125 144.477 178.617 144.324 179.004 144.017C179.39 143.71 179.676 143.307 179.862 142.807C180.047 142.307 180.14 141.765 180.14 141.182C180.14 140.598 180.047 140.055 179.862 139.551C179.676 139.047 179.39 138.64 179.004 138.33C178.617 138.019 178.125 137.864 177.527 137.864C176.928 137.864 176.436 138.019 176.049 138.33C175.663 138.64 175.377 139.047 175.191 139.551C175.006 140.055 174.913 140.598 174.913 141.182C174.913 141.765 175.006 142.307 175.191 142.807C175.377 143.307 175.663 143.71 176.049 144.017C176.436 144.324 176.928 144.477 177.527 144.477ZM194.707 136.773V144.25H195.934V148.318H194.593V145.5H187.843V136.773H189.184V144.25H193.366V136.773H194.707ZM201.404 145.682C200.564 145.682 199.838 145.496 199.228 145.125C198.622 144.75 198.154 144.227 197.825 143.557C197.499 142.883 197.336 142.098 197.336 141.205C197.336 140.311 197.499 139.523 197.825 138.841C198.154 138.155 198.613 137.621 199.2 137.239C199.791 136.852 200.48 136.659 201.268 136.659C201.723 136.659 202.172 136.735 202.615 136.886C203.058 137.038 203.461 137.284 203.825 137.625C204.189 137.962 204.478 138.409 204.694 138.966C204.91 139.523 205.018 140.208 205.018 141.023V141.591H198.291V140.432H203.654C203.654 139.939 203.556 139.5 203.359 139.114C203.166 138.727 202.889 138.422 202.529 138.199C202.173 137.975 201.753 137.864 201.268 137.864C200.734 137.864 200.272 137.996 199.882 138.261C199.495 138.523 199.198 138.864 198.99 139.284C198.781 139.705 198.677 140.155 198.677 140.636V141.409C198.677 142.068 198.791 142.627 199.018 143.085C199.249 143.54 199.569 143.886 199.978 144.125C200.387 144.36 200.863 144.477 201.404 144.477C201.757 144.477 202.075 144.428 202.359 144.33C202.647 144.227 202.895 144.076 203.103 143.875C203.312 143.67 203.473 143.417 203.586 143.114L204.882 143.477C204.745 143.917 204.516 144.303 204.194 144.636C203.872 144.966 203.475 145.223 203.001 145.409C202.528 145.591 201.995 145.682 201.404 145.682ZM212.739 140.523V141.773H207.921V140.523H212.739ZM208.239 136.773V145.5H206.898V136.773H208.239ZM213.762 136.773V145.5H212.421V136.773H213.762ZM217.209 139.932H219.709C220.732 139.932 221.514 140.191 222.056 140.71C222.598 141.229 222.869 141.886 222.869 142.682C222.869 143.205 222.747 143.68 222.505 144.108C222.263 144.532 221.906 144.871 221.437 145.125C220.967 145.375 220.391 145.5 219.709 145.5H216.05V136.773H217.391V144.25H219.709C220.24 144.25 220.675 144.11 221.016 143.83C221.357 143.549 221.528 143.189 221.528 142.75C221.528 142.288 221.357 141.911 221.016 141.619C220.675 141.328 220.24 141.182 219.709 141.182H217.209V139.932ZM224.255 145.5V136.773H225.596V145.5H224.255Z" fill="#1B1716" fill-opacity="0.6"/>
<circle cx="36" cy="188" r="11" stroke="#1B1716" stroke-opacity="0.6" stroke-width="2"/>
<path d="M66.1136 181.864V193.5H64.7045V183.114H58.8409V193.5H57.4318V181.864H66.1136ZM72.1596 193.682C71.3717 193.682 70.6804 193.494 70.0857 193.119C69.4948 192.744 69.0327 192.22 68.6994 191.545C68.3698 190.871 68.2051 190.083 68.2051 189.182C68.2051 188.273 68.3698 187.479 68.6994 186.801C69.0327 186.123 69.4948 185.597 70.0857 185.222C70.6804 184.847 71.3717 184.659 72.1596 184.659C72.9475 184.659 73.6369 184.847 74.2278 185.222C74.8225 185.597 75.2846 186.123 75.6141 186.801C75.9475 187.479 76.1141 188.273 76.1141 189.182C76.1141 190.083 75.9475 190.871 75.6141 191.545C75.2846 192.22 74.8225 192.744 74.2278 193.119C73.6369 193.494 72.9475 193.682 72.1596 193.682ZM72.1596 192.477C72.7581 192.477 73.2505 192.324 73.6369 192.017C74.0232 191.71 74.3092 191.307 74.4948 190.807C74.6804 190.307 74.7732 189.765 74.7732 189.182C74.7732 188.598 74.6804 188.055 74.4948 187.551C74.3092 187.047 74.0232 186.64 73.6369 186.33C73.2505 186.019 72.7581 185.864 72.1596 185.864C71.5611 185.864 71.0687 186.019 70.6823 186.33C70.296 186.64 70.01 187.047 69.8244 187.551C69.6388 188.055 69.546 188.598 69.546 189.182C69.546 189.765 69.6388 190.307 69.8244 190.807C70.01 191.307 70.296 191.71 70.6823 192.017C71.0687 192.324 71.5611 192.477 72.1596 192.477ZM83.2047 196.773C82.9774 196.773 82.7747 196.754 82.5967 196.716C82.4187 196.682 82.2956 196.648 82.2274 196.614L82.5683 195.432C82.8941 195.515 83.1819 195.545 83.4319 195.523C83.6819 195.5 83.9035 195.388 84.0967 195.188C84.2937 194.991 84.4736 194.67 84.6365 194.227L84.8865 193.545L81.6592 184.773H83.1138L85.5228 191.727H85.6138L88.0228 184.773H89.4774L85.7728 194.773C85.6062 195.223 85.3997 195.597 85.1535 195.892C84.9073 196.191 84.6213 196.413 84.2956 196.557C83.9736 196.701 83.61 196.773 83.2047 196.773ZM97.5645 181.5L98.2464 182.318C97.9812 182.576 97.6744 182.756 97.3259 182.858C96.9774 182.96 96.5835 183.023 96.1441 183.045C95.7047 183.068 95.2161 183.091 94.6782 183.114C94.0721 183.136 93.5702 183.284 93.1725 183.557C92.7748 183.83 92.468 184.223 92.252 184.739C92.0361 185.254 91.8979 185.886 91.8373 186.636H91.9509C92.2464 186.091 92.6555 185.689 93.1782 185.432C93.7009 185.174 94.2615 185.045 94.86 185.045C95.5418 185.045 96.1555 185.205 96.7009 185.523C97.2464 185.841 97.6782 186.312 97.9964 186.938C98.3145 187.562 98.4736 188.333 98.4736 189.25C98.4736 190.163 98.3108 190.951 97.985 191.614C97.663 192.277 97.2104 192.788 96.627 193.148C96.0475 193.504 95.3676 193.682 94.5873 193.682C93.807 193.682 93.1233 193.498 92.5361 193.131C91.949 192.759 91.4926 192.21 91.1668 191.483C90.8411 190.752 90.6782 189.848 90.6782 188.773V187.841C90.6782 185.898 91.0077 184.424 91.6668 183.42C92.3297 182.417 93.3259 181.898 94.6555 181.864C95.1252 181.848 95.5437 181.845 95.9111 181.852C96.2786 181.86 96.5986 181.843 96.8714 181.801C97.1441 181.759 97.3752 181.659 97.5645 181.5ZM94.5873 192.477C95.1138 192.477 95.5664 192.345 95.9452 192.08C96.3278 191.814 96.6214 191.441 96.8259 190.96C97.0305 190.475 97.1327 189.905 97.1327 189.25C97.1327 188.614 97.0286 188.072 96.8202 187.625C96.6157 187.178 96.3221 186.837 95.9395 186.602C95.557 186.367 95.0986 186.25 94.5645 186.25C94.1744 186.25 93.824 186.316 93.5134 186.449C93.2028 186.581 92.9377 186.777 92.718 187.034C92.4983 187.292 92.3278 187.606 92.2066 187.977C92.0892 188.348 92.0267 188.773 92.0191 189.25C92.0191 190.227 92.2483 191.009 92.7066 191.597C93.1649 192.184 93.7918 192.477 94.5873 192.477ZM101.524 187.932H104.024C105.047 187.932 105.829 188.191 106.37 188.71C106.912 189.229 107.183 189.886 107.183 190.682C107.183 191.205 107.062 191.68 106.819 192.108C106.577 192.532 106.221 192.871 105.751 193.125C105.281 193.375 104.706 193.5 104.024 193.5H100.365V184.773H101.706V192.25H104.024C104.554 192.25 104.99 192.11 105.331 191.83C105.672 191.549 105.842 191.189 105.842 190.75C105.842 190.288 105.672 189.911 105.331 189.619C104.99 189.328 104.554 189.182 104.024 189.182H101.524V187.932ZM108.569 193.5V184.773H109.91V193.5H108.569ZM112.205 193.5V184.773H115.773C116.712 184.773 117.459 184.985 118.012 185.409C118.565 185.833 118.841 186.394 118.841 187.091C118.841 187.621 118.684 188.032 118.37 188.324C118.055 188.612 117.652 188.807 117.159 188.909C117.481 188.955 117.794 189.068 118.097 189.25C118.404 189.432 118.657 189.682 118.858 190C119.059 190.314 119.159 190.701 119.159 191.159C119.159 191.606 119.046 192.006 118.818 192.358C118.591 192.71 118.265 192.989 117.841 193.193C117.417 193.398 116.909 193.5 116.318 193.5H112.205ZM113.478 192.273H116.318C116.781 192.273 117.142 192.163 117.404 191.943C117.665 191.723 117.796 191.424 117.796 191.045C117.796 190.595 117.665 190.241 117.404 189.983C117.142 189.722 116.781 189.591 116.318 189.591H113.478V192.273ZM113.478 188.432H115.773C116.133 188.432 116.442 188.383 116.699 188.284C116.957 188.182 117.154 188.038 117.29 187.852C117.43 187.663 117.5 187.439 117.5 187.182C117.5 186.814 117.347 186.527 117.04 186.318C116.733 186.106 116.311 186 115.773 186H113.478V188.432ZM123.597 193.705C123.044 193.705 122.542 193.6 122.092 193.392C121.641 193.18 121.283 192.875 121.018 192.477C120.753 192.076 120.62 191.591 120.62 191.023C120.62 190.523 120.719 190.117 120.916 189.807C121.112 189.492 121.376 189.246 121.705 189.068C122.035 188.89 122.398 188.758 122.796 188.67C123.198 188.58 123.601 188.508 124.006 188.455C124.537 188.386 124.967 188.335 125.296 188.301C125.63 188.263 125.872 188.201 126.023 188.114C126.179 188.027 126.256 187.875 126.256 187.659V187.614C126.256 187.053 126.103 186.617 125.796 186.307C125.493 185.996 125.033 185.841 124.416 185.841C123.775 185.841 123.273 185.981 122.91 186.261C122.546 186.542 122.291 186.841 122.143 187.159L120.87 186.705C121.097 186.174 121.4 185.761 121.779 185.466C122.162 185.167 122.578 184.958 123.029 184.841C123.484 184.72 123.931 184.659 124.37 184.659C124.65 184.659 124.972 184.693 125.336 184.761C125.703 184.826 126.058 184.96 126.398 185.165C126.743 185.369 127.029 185.678 127.256 186.091C127.484 186.504 127.597 187.057 127.597 187.75V193.5H126.256V192.318H126.188C126.097 192.508 125.946 192.71 125.734 192.926C125.522 193.142 125.239 193.326 124.887 193.477C124.535 193.629 124.105 193.705 123.597 193.705ZM123.802 192.5C124.332 192.5 124.779 192.396 125.143 192.188C125.51 191.979 125.787 191.71 125.972 191.381C126.162 191.051 126.256 190.705 126.256 190.341V189.114C126.2 189.182 126.075 189.244 125.881 189.301C125.692 189.354 125.472 189.402 125.222 189.443C124.976 189.481 124.736 189.515 124.501 189.545C124.27 189.572 124.082 189.595 123.938 189.614C123.59 189.659 123.264 189.733 122.961 189.835C122.662 189.934 122.419 190.083 122.234 190.284C122.052 190.481 121.961 190.75 121.961 191.091C121.961 191.557 122.133 191.909 122.478 192.148C122.826 192.383 123.268 192.5 123.802 192.5ZM135.726 188.523V189.773H130.908V188.523H135.726ZM131.226 184.773V193.5H129.885V184.773H131.226ZM136.748 184.773V193.5H135.408V184.773H136.748ZM140.378 191.523L144.583 184.773H146.128V193.5H144.787V186.75L140.605 193.5H139.037V184.773H140.378V191.523ZM152.606 188.591V189.841H147.992V188.591H152.606ZM149.129 184.773V193.5H147.788V184.773H149.129ZM155.288 193.682C154.5 193.682 153.809 193.494 153.214 193.119C152.623 192.744 152.161 192.22 151.828 191.545C151.498 190.871 151.333 190.083 151.333 189.182C151.333 188.273 151.498 187.479 151.828 186.801C152.161 186.123 152.623 185.597 153.214 185.222C153.809 184.847 154.5 184.659 155.288 184.659C156.076 184.659 156.765 184.847 157.356 185.222C157.951 185.597 158.413 186.123 158.742 186.801C159.076 187.479 159.242 188.273 159.242 189.182C159.242 190.083 159.076 190.871 158.742 191.545C158.413 192.22 157.951 192.744 157.356 193.119C156.765 193.494 156.076 193.682 155.288 193.682ZM155.288 192.477C155.886 192.477 156.379 192.324 156.765 192.017C157.151 191.71 157.437 191.307 157.623 190.807C157.809 190.307 157.901 189.765 157.901 189.182C157.901 188.598 157.809 188.055 157.623 187.551C157.437 187.047 157.151 186.64 156.765 186.33C156.379 186.019 155.886 185.864 155.288 185.864C154.689 185.864 154.197 186.019 153.811 186.33C153.424 186.64 153.138 187.047 152.953 187.551C152.767 188.055 152.674 188.598 152.674 189.182C152.674 189.765 152.767 190.307 152.953 190.807C153.138 191.307 153.424 191.71 153.811 192.017C154.197 192.324 154.689 192.477 155.288 192.477ZM172.468 184.773V192.25H173.695V196.318H172.354V193.5H165.604V184.773H166.945V192.25H171.127V184.773H172.468ZM179.166 193.682C178.325 193.682 177.599 193.496 176.99 193.125C176.384 192.75 175.916 192.227 175.586 191.557C175.26 190.883 175.098 190.098 175.098 189.205C175.098 188.311 175.26 187.523 175.586 186.841C175.916 186.155 176.374 185.621 176.961 185.239C177.552 184.852 178.241 184.659 179.029 184.659C179.484 184.659 179.933 184.735 180.376 184.886C180.819 185.038 181.223 185.284 181.586 185.625C181.95 185.962 182.24 186.409 182.456 186.966C182.671 187.523 182.779 188.208 182.779 189.023V189.591H176.052V188.432H181.416C181.416 187.939 181.317 187.5 181.12 187.114C180.927 186.727 180.651 186.422 180.291 186.199C179.935 185.975 179.514 185.864 179.029 185.864C178.495 185.864 178.033 185.996 177.643 186.261C177.257 186.523 176.959 186.864 176.751 187.284C176.543 187.705 176.438 188.155 176.438 188.636V189.409C176.438 190.068 176.552 190.627 176.779 191.085C177.01 191.54 177.331 191.886 177.74 192.125C178.149 192.36 178.624 192.477 179.166 192.477C179.518 192.477 179.836 192.428 180.12 192.33C180.408 192.227 180.656 192.076 180.865 191.875C181.073 191.67 181.234 191.417 181.348 191.114L182.643 191.477C182.507 191.917 182.277 192.303 181.956 192.636C181.634 192.966 181.236 193.223 180.762 193.409C180.289 193.591 179.757 193.682 179.166 193.682ZM190.5 188.523V189.773H185.682V188.523H190.5ZM186 184.773V193.5H184.659V184.773H186ZM191.523 184.773V193.5H190.182V184.773H191.523ZM194.971 187.932H197.471C198.493 187.932 199.276 188.191 199.817 188.71C200.359 189.229 200.63 189.886 200.63 190.682C200.63 191.205 200.509 191.68 200.266 192.108C200.024 192.532 199.668 192.871 199.198 193.125C198.728 193.375 198.153 193.5 197.471 193.5H193.812V184.773H195.153V192.25H197.471C198.001 192.25 198.437 192.11 198.778 191.83C199.118 191.549 199.289 191.189 199.289 190.75C199.289 190.288 199.118 189.911 198.778 189.619C198.437 189.328 198.001 189.182 197.471 189.182H194.971V187.932ZM202.016 193.5V184.773H203.357V193.5H202.016Z" fill="#1B1716" fill-opacity="0.6"/>
<circle cx="36" cy="236" r="11" stroke="#1B1716" stroke-opacity="0.6" stroke-width="2"/>
<path d="M57.4091 241.5V229.864H64.4318V231.114H58.8182V234.75H61.7727C62.6061 234.75 63.3087 234.886 63.8807 235.159C64.4564 235.432 64.892 235.816 65.1875 236.312C65.4867 236.809 65.6364 237.394 65.6364 238.068C65.6364 238.742 65.4867 239.337 65.1875 239.852C64.892 240.367 64.4564 240.771 63.8807 241.062C63.3087 241.354 62.6061 241.5 61.7727 241.5H57.4091ZM58.8182 240.273H61.7727C62.303 240.273 62.7519 240.167 63.1193 239.955C63.4905 239.739 63.7708 239.462 63.9602 239.125C64.1534 238.784 64.25 238.424 64.25 238.045C64.25 237.489 64.036 237.009 63.608 236.608C63.1799 236.203 62.5682 236 61.7727 236H58.8182V240.273ZM71.1596 241.682C70.3717 241.682 69.6804 241.494 69.0857 241.119C68.4948 240.744 68.0327 240.22 67.6994 239.545C67.3698 238.871 67.2051 238.083 67.2051 237.182C67.2051 236.273 67.3698 235.479 67.6994 234.801C68.0327 234.123 68.4948 233.597 69.0857 233.222C69.6804 232.847 70.3717 232.659 71.1596 232.659C71.9475 232.659 72.6369 232.847 73.2278 233.222C73.8225 233.597 74.2846 234.123 74.6141 234.801C74.9475 235.479 75.1141 236.273 75.1141 237.182C75.1141 238.083 74.9475 238.871 74.6141 239.545C74.2846 240.22 73.8225 240.744 73.2278 241.119C72.6369 241.494 71.9475 241.682 71.1596 241.682ZM71.1596 240.477C71.7581 240.477 72.2505 240.324 72.6369 240.017C73.0232 239.71 73.3092 239.307 73.4948 238.807C73.6804 238.307 73.7732 237.765 73.7732 237.182C73.7732 236.598 73.6804 236.055 73.4948 235.551C73.3092 235.047 73.0232 234.64 72.6369 234.33C72.2505 234.019 71.7581 233.864 71.1596 233.864C70.5611 233.864 70.0687 234.019 69.6823 234.33C69.296 234.64 69.01 235.047 68.8244 235.551C68.6388 236.055 68.546 236.598 68.546 237.182C68.546 237.765 68.6388 238.307 68.8244 238.807C69.01 239.307 69.296 239.71 69.6823 240.017C70.0687 240.324 70.5611 240.477 71.1596 240.477ZM76.2283 241.5V240.25H76.5465C76.8078 240.25 77.0256 240.199 77.1999 240.097C77.3741 239.991 77.5143 239.807 77.6203 239.545C77.7302 239.28 77.8135 238.913 77.8703 238.443C77.9309 237.97 77.9745 237.367 78.001 236.636L78.1601 232.773H83.9783V241.5H82.6374V234.023H79.4328L79.2965 237.136C79.2662 237.852 79.2018 238.483 79.1033 239.028C79.0086 239.57 78.8628 240.025 78.6658 240.392C78.4726 240.759 78.215 241.036 77.8931 241.222C77.5711 241.407 77.1677 241.5 76.6828 241.5H76.2283ZM87.4376 235.932H89.9376C90.9603 235.932 91.7425 236.191 92.2842 236.71C92.8259 237.229 93.0967 237.886 93.0967 238.682C93.0967 239.205 92.9755 239.68 92.7331 240.108C92.4906 240.532 92.1346 240.871 91.6649 241.125C91.1952 241.375 90.6194 241.5 89.9376 241.5H86.2785V232.773H87.6194V240.25H89.9376C90.4679 240.25 90.9035 240.11 91.2444 239.83C91.5853 239.549 91.7558 239.189 91.7558 238.75C91.7558 238.288 91.5853 237.911 91.2444 237.619C90.9035 237.328 90.4679 237.182 89.9376 237.182H87.4376V235.932ZM94.9779 232.773H96.3188V240.25H99.6143V232.773H100.955V240.25H104.251V232.773H105.592V241.5H94.9779V232.773ZM111.539 241.682C110.699 241.682 109.973 241.496 109.363 241.125C108.757 240.75 108.289 240.227 107.96 239.557C107.634 238.883 107.471 238.098 107.471 237.205C107.471 236.311 107.634 235.523 107.96 234.841C108.289 234.155 108.748 233.621 109.335 233.239C109.926 232.852 110.615 232.659 111.403 232.659C111.858 232.659 112.307 232.735 112.75 232.886C113.193 233.038 113.596 233.284 113.96 233.625C114.324 233.962 114.613 234.409 114.829 234.966C115.045 235.523 115.153 236.208 115.153 237.023V237.591H108.426V236.432H113.789C113.789 235.939 113.691 235.5 113.494 235.114C113.301 234.727 113.024 234.422 112.664 234.199C112.308 233.975 111.888 233.864 111.403 233.864C110.869 233.864 110.407 233.996 110.017 234.261C109.63 234.523 109.333 234.864 109.125 235.284C108.916 235.705 108.812 236.155 108.812 236.636V237.409C108.812 238.068 108.926 238.627 109.153 239.085C109.384 239.54 109.704 239.886 110.113 240.125C110.522 240.36 110.998 240.477 111.539 240.477C111.892 240.477 112.21 240.428 112.494 240.33C112.782 240.227 113.03 240.076 113.238 239.875C113.447 239.67 113.608 239.417 113.721 239.114L115.017 239.477C114.88 239.917 114.651 240.303 114.329 240.636C114.007 240.966 113.61 241.223 113.136 241.409C112.663 241.591 112.13 241.682 111.539 241.682ZM121.373 241.5V232.773H128.237V241.5H126.896V234.023H122.714V241.5H121.373ZM130.525 244.773V232.773H131.821V234.159H131.98C132.078 234.008 132.215 233.814 132.389 233.58C132.567 233.341 132.821 233.129 133.15 232.943C133.484 232.754 133.934 232.659 134.503 232.659C135.238 232.659 135.885 232.843 136.446 233.21C137.006 233.578 137.444 234.098 137.758 234.773C138.073 235.447 138.23 236.242 138.23 237.159C138.23 238.083 138.073 238.884 137.758 239.562C137.444 240.237 137.008 240.759 136.452 241.131C135.895 241.498 135.253 241.682 134.525 241.682C133.965 241.682 133.516 241.589 133.179 241.403C132.842 241.214 132.582 241 132.4 240.761C132.219 240.519 132.078 240.318 131.98 240.159H131.866V244.773H130.525ZM131.844 237.136C131.844 237.795 131.94 238.377 132.133 238.881C132.327 239.381 132.609 239.773 132.98 240.057C133.351 240.337 133.806 240.477 134.344 240.477C134.904 240.477 135.372 240.33 135.747 240.034C136.126 239.735 136.41 239.333 136.599 238.83C136.792 238.322 136.889 237.758 136.889 237.136C136.889 236.523 136.794 235.97 136.605 235.477C136.419 234.981 136.137 234.589 135.758 234.301C135.383 234.009 134.912 233.864 134.344 233.864C133.798 233.864 133.34 234.002 132.969 234.278C132.597 234.551 132.317 234.934 132.128 235.426C131.938 235.915 131.844 236.485 131.844 237.136ZM143.661 241.682C142.873 241.682 142.182 241.494 141.587 241.119C140.996 240.744 140.534 240.22 140.201 239.545C139.871 238.871 139.706 238.083 139.706 237.182C139.706 236.273 139.871 235.479 140.201 234.801C140.534 234.123 140.996 233.597 141.587 233.222C142.182 232.847 142.873 232.659 143.661 232.659C144.449 232.659 145.138 232.847 145.729 233.222C146.324 233.597 146.786 234.123 147.115 234.801C147.449 235.479 147.615 236.273 147.615 237.182C147.615 238.083 147.449 238.871 147.115 239.545C146.786 240.22 146.324 240.744 145.729 241.119C145.138 241.494 144.449 241.682 143.661 241.682ZM143.661 240.477C144.259 240.477 144.752 240.324 145.138 240.017C145.524 239.71 145.81 239.307 145.996 238.807C146.182 238.307 146.274 237.765 146.274 237.182C146.274 236.598 146.182 236.055 145.996 235.551C145.81 235.047 145.524 234.64 145.138 234.33C144.752 234.019 144.259 233.864 143.661 233.864C143.062 233.864 142.57 234.019 142.184 234.33C141.797 234.64 141.511 235.047 141.326 235.551C141.14 236.055 141.047 236.598 141.047 237.182C141.047 237.765 141.14 238.307 141.326 238.807C141.511 239.307 141.797 239.71 142.184 240.017C142.57 240.324 143.062 240.477 143.661 240.477ZM153.048 241.682C152.23 241.682 151.525 241.489 150.934 241.102C150.343 240.716 149.889 240.184 149.57 239.506C149.252 238.828 149.093 238.053 149.093 237.182C149.093 236.295 149.256 235.513 149.582 234.835C149.911 234.153 150.37 233.621 150.957 233.239C151.548 232.852 152.237 232.659 153.025 232.659C153.639 232.659 154.192 232.773 154.684 233C155.177 233.227 155.58 233.545 155.894 233.955C156.209 234.364 156.404 234.841 156.48 235.386H155.139C155.036 234.989 154.809 234.636 154.457 234.33C154.108 234.019 153.639 233.864 153.048 233.864C152.525 233.864 152.067 234 151.673 234.273C151.283 234.542 150.978 234.922 150.758 235.415C150.542 235.903 150.434 236.477 150.434 237.136C150.434 237.811 150.54 238.398 150.752 238.898C150.968 239.398 151.271 239.786 151.661 240.062C152.055 240.339 152.517 240.477 153.048 240.477C153.396 240.477 153.713 240.417 153.997 240.295C154.281 240.174 154.521 240 154.718 239.773C154.915 239.545 155.055 239.273 155.139 238.955H156.48C156.404 239.47 156.216 239.934 155.917 240.347C155.622 240.756 155.23 241.081 154.741 241.324C154.256 241.562 153.692 241.682 153.048 241.682ZM163.052 239.682L166.098 232.773H167.371L163.598 241.5H162.507L158.802 232.773H160.052L163.052 239.682ZM159.621 232.773V241.5H158.28V232.773H159.621ZM166.484 241.5V232.773H167.825V241.5H166.484ZM173.665 241.682C172.877 241.682 172.186 241.494 171.591 241.119C171 240.744 170.538 240.22 170.205 239.545C169.875 238.871 169.711 238.083 169.711 237.182C169.711 236.273 169.875 235.479 170.205 234.801C170.538 234.123 171 233.597 171.591 233.222C172.186 232.847 172.877 232.659 173.665 232.659C174.453 232.659 175.143 232.847 175.733 233.222C176.328 233.597 176.79 234.123 177.12 234.801C177.453 235.479 177.62 236.273 177.62 237.182C177.62 238.083 177.453 238.871 177.12 239.545C176.79 240.22 176.328 240.744 175.733 241.119C175.143 241.494 174.453 241.682 173.665 241.682ZM173.665 240.477C174.264 240.477 174.756 240.324 175.143 240.017C175.529 239.71 175.815 239.307 176 238.807C176.186 238.307 176.279 237.765 176.279 237.182C176.279 236.598 176.186 236.055 176 235.551C175.815 235.047 175.529 234.64 175.143 234.33C174.756 234.019 174.264 233.864 173.665 233.864C173.067 233.864 172.574 234.019 172.188 234.33C171.802 234.64 171.516 235.047 171.33 235.551C171.144 236.055 171.052 236.598 171.052 237.182C171.052 237.765 171.144 238.307 171.33 238.807C171.516 239.307 171.802 239.71 172.188 240.017C172.574 240.324 173.067 240.477 173.665 240.477ZM178.366 234.023V232.773H185.457V234.023H182.593V241.5H181.252V234.023H178.366ZM187.253 244.773V232.773H188.548V234.159H188.707C188.806 234.008 188.942 233.814 189.117 233.58C189.295 233.341 189.548 233.129 189.878 232.943C190.211 232.754 190.662 232.659 191.23 232.659C191.965 232.659 192.613 232.843 193.173 233.21C193.734 233.578 194.171 234.098 194.486 234.773C194.8 235.447 194.957 236.242 194.957 237.159C194.957 238.083 194.8 238.884 194.486 239.562C194.171 240.237 193.736 240.759 193.179 241.131C192.622 241.498 191.98 241.682 191.253 241.682C190.692 241.682 190.243 241.589 189.906 241.403C189.569 241.214 189.31 241 189.128 240.761C188.946 240.519 188.806 240.318 188.707 240.159H188.594V244.773H187.253ZM188.571 237.136C188.571 237.795 188.668 238.377 188.861 238.881C189.054 239.381 189.336 239.773 189.707 240.057C190.079 240.337 190.533 240.477 191.071 240.477C191.632 240.477 192.099 240.33 192.474 240.034C192.853 239.735 193.137 239.333 193.327 238.83C193.52 238.322 193.617 237.758 193.617 237.136C193.617 236.523 193.522 235.97 193.332 235.477C193.147 234.981 192.865 234.589 192.486 234.301C192.111 234.009 191.639 233.864 191.071 233.864C190.526 233.864 190.067 234.002 189.696 234.278C189.325 234.551 189.045 234.934 188.855 235.426C188.666 235.915 188.571 236.485 188.571 237.136ZM200.388 241.682C199.6 241.682 198.909 241.494 198.314 241.119C197.724 240.744 197.261 240.22 196.928 239.545C196.599 238.871 196.434 238.083 196.434 237.182C196.434 236.273 196.599 235.479 196.928 234.801C197.261 234.123 197.724 233.597 198.314 233.222C198.909 232.847 199.6 232.659 200.388 232.659C201.176 232.659 201.866 232.847 202.457 233.222C203.051 233.597 203.513 234.123 203.843 234.801C204.176 235.479 204.343 236.273 204.343 237.182C204.343 238.083 204.176 238.871 203.843 239.545C203.513 240.22 203.051 240.744 202.457 241.119C201.866 241.494 201.176 241.682 200.388 241.682ZM200.388 240.477C200.987 240.477 201.479 240.324 201.866 240.017C202.252 239.71 202.538 239.307 202.724 238.807C202.909 238.307 203.002 237.765 203.002 237.182C203.002 236.598 202.909 236.055 202.724 235.551C202.538 235.047 202.252 234.64 201.866 234.33C201.479 234.019 200.987 233.864 200.388 233.864C199.79 233.864 199.297 234.019 198.911 234.33C198.525 234.64 198.239 235.047 198.053 235.551C197.868 236.055 197.775 236.598 197.775 237.182C197.775 237.765 197.868 238.307 198.053 238.807C198.239 239.307 198.525 239.71 198.911 240.017C199.297 240.324 199.79 240.477 200.388 240.477ZM206.23 241.5V232.773H209.798C210.737 232.773 211.484 232.985 212.037 233.409C212.59 233.833 212.866 234.394 212.866 235.091C212.866 235.621 212.709 236.032 212.395 236.324C212.08 236.612 211.677 236.807 211.184 236.909C211.506 236.955 211.819 237.068 212.122 237.25C212.429 237.432 212.682 237.682 212.883 238C213.084 238.314 213.184 238.701 213.184 239.159C213.184 239.606 213.071 240.006 212.843 240.358C212.616 240.71 212.29 240.989 211.866 241.193C211.442 241.398 210.934 241.5 210.343 241.5H206.23ZM207.503 240.273H210.343C210.806 240.273 211.167 240.163 211.429 239.943C211.69 239.723 211.821 239.424 211.821 239.045C211.821 238.595 211.69 238.241 211.429 237.983C211.167 237.722 210.806 237.591 210.343 237.591H207.503V240.273ZM207.503 236.432H209.798C210.158 236.432 210.467 236.383 210.724 236.284C210.982 236.182 211.179 236.038 211.315 235.852C211.455 235.663 211.525 235.439 211.525 235.182C211.525 234.814 211.372 234.527 211.065 234.318C210.758 234.106 210.336 234 209.798 234H207.503V236.432Z" fill="#1B1716" fill-opacity="0.6"/>
<circle cx="36" cy="284" r="11" stroke="#1B1716" stroke-opacity="0.6" stroke-width="2"/>
<path d="M57.4091 277.864H59.0909L63.0455 287.523H63.1818L67.1364 277.864H68.8182V289.5H67.5V280.659H67.3864L63.75 289.5H62.4773L58.8409 280.659H58.7273V289.5H57.4091V277.864ZM74.9607 289.682C74.1198 289.682 73.3945 289.496 72.7846 289.125C72.1785 288.75 71.7107 288.227 71.3812 287.557C71.0554 286.883 70.8926 286.098 70.8926 285.205C70.8926 284.311 71.0554 283.523 71.3812 282.841C71.7107 282.155 72.1691 281.621 72.7562 281.239C73.3471 280.852 74.0365 280.659 74.8244 280.659C75.2789 280.659 75.7278 280.735 76.171 280.886C76.6141 281.038 77.0176 281.284 77.3812 281.625C77.7448 281.962 78.0346 282.409 78.2505 282.966C78.4664 283.523 78.5744 284.208 78.5744 285.023V285.591H71.8471V284.432H77.2107C77.2107 283.939 77.1123 283.5 76.9153 283.114C76.7221 282.727 76.4456 282.422 76.0857 282.199C75.7297 281.975 75.3092 281.864 74.8244 281.864C74.2903 281.864 73.8282 281.996 73.438 282.261C73.0516 282.523 72.7543 282.864 72.546 283.284C72.3376 283.705 72.2335 284.155 72.2335 284.636V285.409C72.2335 286.068 72.3471 286.627 72.5744 287.085C72.8054 287.54 73.1255 287.886 73.5346 288.125C73.9437 288.36 74.4191 288.477 74.9607 288.477C75.313 288.477 75.6312 288.428 75.9153 288.33C76.2032 288.227 76.4513 288.076 76.6596 287.875C76.8679 287.67 77.0289 287.417 77.1426 287.114L78.438 287.477C78.3016 287.917 78.0725 288.303 77.7505 288.636C77.4285 288.966 77.0308 289.223 76.5573 289.409C76.0838 289.591 75.5516 289.682 74.9607 289.682ZM86.2951 284.523V285.773H81.4769V284.523H86.2951ZM81.7951 280.773V289.5H80.4541V280.773H81.7951ZM87.3178 280.773V289.5H85.9769V280.773H87.3178ZM90.7657 283.932H93.2657C94.2885 283.932 95.0707 284.191 95.6123 284.71C96.154 285.229 96.4248 285.886 96.4248 286.682C96.4248 287.205 96.3036 287.68 96.0612 288.108C95.8188 288.532 95.4627 288.871 94.993 289.125C94.5233 289.375 93.9476 289.5 93.2657 289.5H89.6066V280.773H90.9476V288.25H93.2657C93.796 288.25 94.2316 288.11 94.5726 287.83C94.9135 287.549 95.0839 287.189 95.0839 286.75C95.0839 286.288 94.9135 285.911 94.5726 285.619C94.2316 285.328 93.796 285.182 93.2657 285.182H90.7657V283.932ZM98.306 280.773H99.6469V288.25H102.942V280.773H104.283V288.25H107.579V280.773H108.92V289.5H98.306V280.773ZM114.868 289.682C114.027 289.682 113.301 289.496 112.691 289.125C112.085 288.75 111.618 288.227 111.288 287.557C110.962 286.883 110.799 286.098 110.799 285.205C110.799 284.311 110.962 283.523 111.288 282.841C111.618 282.155 112.076 281.621 112.663 281.239C113.254 280.852 113.943 280.659 114.731 280.659C115.186 280.659 115.635 280.735 116.078 280.886C116.521 281.038 116.924 281.284 117.288 281.625C117.652 281.962 117.941 282.409 118.157 282.966C118.373 283.523 118.481 284.208 118.481 285.023V285.591H111.754V284.432H117.118C117.118 283.939 117.019 283.5 116.822 283.114C116.629 282.727 116.352 282.422 115.993 282.199C115.637 281.975 115.216 281.864 114.731 281.864C114.197 281.864 113.735 281.996 113.345 282.261C112.959 282.523 112.661 282.864 112.453 283.284C112.245 283.705 112.14 284.155 112.14 284.636V285.409C112.14 286.068 112.254 286.627 112.481 287.085C112.712 287.54 113.032 287.886 113.441 288.125C113.851 288.36 114.326 288.477 114.868 288.477C115.22 288.477 115.538 288.428 115.822 288.33C116.11 288.227 116.358 288.076 116.566 287.875C116.775 287.67 116.936 287.417 117.049 287.114L118.345 287.477C118.209 287.917 117.979 288.303 117.657 288.636C117.335 288.966 116.938 289.223 116.464 289.409C115.991 289.591 115.459 289.682 114.868 289.682ZM124.701 289.5V280.773H131.565V289.5H130.224V282.023H126.042V289.5H124.701ZM133.854 292.773V280.773H135.149V282.159H135.308C135.407 282.008 135.543 281.814 135.717 281.58C135.895 281.341 136.149 281.129 136.479 280.943C136.812 280.754 137.263 280.659 137.831 280.659C138.566 280.659 139.213 280.843 139.774 281.21C140.335 281.578 140.772 282.098 141.086 282.773C141.401 283.447 141.558 284.242 141.558 285.159C141.558 286.083 141.401 286.884 141.086 287.562C140.772 288.237 140.336 288.759 139.78 289.131C139.223 289.498 138.581 289.682 137.854 289.682C137.293 289.682 136.844 289.589 136.507 289.403C136.17 289.214 135.91 289 135.729 288.761C135.547 288.519 135.407 288.318 135.308 288.159H135.194V292.773H133.854ZM135.172 285.136C135.172 285.795 135.268 286.377 135.461 286.881C135.655 287.381 135.937 287.773 136.308 288.057C136.679 288.337 137.134 288.477 137.672 288.477C138.232 288.477 138.7 288.33 139.075 288.034C139.454 287.735 139.738 287.333 139.927 286.83C140.121 286.322 140.217 285.758 140.217 285.136C140.217 284.523 140.122 283.97 139.933 283.477C139.747 282.981 139.465 282.589 139.086 282.301C138.711 282.009 138.24 281.864 137.672 281.864C137.126 281.864 136.668 282.002 136.297 282.278C135.925 282.551 135.645 282.934 135.456 283.426C135.266 283.915 135.172 284.485 135.172 285.136ZM146.989 289.682C146.201 289.682 145.51 289.494 144.915 289.119C144.324 288.744 143.862 288.22 143.529 287.545C143.199 286.871 143.034 286.083 143.034 285.182C143.034 284.273 143.199 283.479 143.529 282.801C143.862 282.123 144.324 281.597 144.915 281.222C145.51 280.847 146.201 280.659 146.989 280.659C147.777 280.659 148.466 280.847 149.057 281.222C149.652 281.597 150.114 282.123 150.444 282.801C150.777 283.479 150.944 284.273 150.944 285.182C150.944 286.083 150.777 286.871 150.444 287.545C150.114 288.22 149.652 288.744 149.057 289.119C148.466 289.494 147.777 289.682 146.989 289.682ZM146.989 288.477C147.587 288.477 148.08 288.324 148.466 288.017C148.853 287.71 149.139 287.307 149.324 286.807C149.51 286.307 149.603 285.765 149.603 285.182C149.603 284.598 149.51 284.055 149.324 283.551C149.139 283.047 148.853 282.64 148.466 282.33C148.08 282.019 147.587 281.864 146.989 281.864C146.39 281.864 145.898 282.019 145.512 282.33C145.125 282.64 144.839 283.047 144.654 283.551C144.468 284.055 144.375 284.598 144.375 285.182C144.375 285.765 144.468 286.307 144.654 286.807C144.839 287.307 145.125 287.71 145.512 288.017C145.898 288.324 146.39 288.477 146.989 288.477ZM156.376 289.682C155.558 289.682 154.853 289.489 154.262 289.102C153.671 288.716 153.217 288.184 152.899 287.506C152.58 286.828 152.421 286.053 152.421 285.182C152.421 284.295 152.584 283.513 152.91 282.835C153.239 282.153 153.698 281.621 154.285 281.239C154.876 280.852 155.565 280.659 156.353 280.659C156.967 280.659 157.52 280.773 158.012 281C158.505 281.227 158.908 281.545 159.222 281.955C159.537 282.364 159.732 282.841 159.808 283.386H158.467C158.364 282.989 158.137 282.636 157.785 282.33C157.436 282.019 156.967 281.864 156.376 281.864C155.853 281.864 155.395 282 155.001 282.273C154.611 282.542 154.306 282.922 154.086 283.415C153.87 283.903 153.762 284.477 153.762 285.136C153.762 285.811 153.868 286.398 154.08 286.898C154.296 287.398 154.599 287.786 154.989 288.062C155.383 288.339 155.846 288.477 156.376 288.477C156.724 288.477 157.041 288.417 157.325 288.295C157.609 288.174 157.849 288 158.046 287.773C158.243 287.545 158.383 287.273 158.467 286.955H159.808C159.732 287.47 159.544 287.934 159.245 288.347C158.95 288.756 158.558 289.081 158.069 289.324C157.584 289.562 157.02 289.682 156.376 289.682ZM166.381 287.682L169.426 280.773H170.699L166.926 289.5H165.835L162.131 280.773H163.381L166.381 287.682ZM162.949 280.773V289.5H161.608V280.773H162.949ZM169.812 289.5V280.773H171.153V289.5H169.812ZM176.993 289.682C176.205 289.682 175.514 289.494 174.919 289.119C174.329 288.744 173.866 288.22 173.533 287.545C173.204 286.871 173.039 286.083 173.039 285.182C173.039 284.273 173.204 283.479 173.533 282.801C173.866 282.123 174.329 281.597 174.919 281.222C175.514 280.847 176.205 280.659 176.993 280.659C177.781 280.659 178.471 280.847 179.062 281.222C179.656 281.597 180.118 282.123 180.448 282.801C180.781 283.479 180.948 284.273 180.948 285.182C180.948 286.083 180.781 286.871 180.448 287.545C180.118 288.22 179.656 288.744 179.062 289.119C178.471 289.494 177.781 289.682 176.993 289.682ZM176.993 288.477C177.592 288.477 178.084 288.324 178.471 288.017C178.857 287.71 179.143 287.307 179.329 286.807C179.514 286.307 179.607 285.765 179.607 285.182C179.607 284.598 179.514 284.055 179.329 283.551C179.143 283.047 178.857 282.64 178.471 282.33C178.084 282.019 177.592 281.864 176.993 281.864C176.395 281.864 175.902 282.019 175.516 282.33C175.13 282.64 174.844 283.047 174.658 283.551C174.473 284.055 174.38 284.598 174.38 285.182C174.38 285.765 174.473 286.307 174.658 286.807C174.844 287.307 175.13 287.71 175.516 288.017C175.902 288.324 176.395 288.477 176.993 288.477ZM181.694 282.023V280.773H188.785V282.023H185.921V289.5H184.581V282.023H181.694ZM190.581 292.773V280.773H191.876V282.159H192.036C192.134 282.008 192.27 281.814 192.445 281.58C192.623 281.341 192.876 281.129 193.206 280.943C193.539 280.754 193.99 280.659 194.558 280.659C195.293 280.659 195.941 280.843 196.501 281.21C197.062 281.578 197.5 282.098 197.814 282.773C198.128 283.447 198.286 284.242 198.286 285.159C198.286 286.083 198.128 286.884 197.814 287.562C197.5 288.237 197.064 288.759 196.507 289.131C195.95 289.498 195.308 289.682 194.581 289.682C194.02 289.682 193.572 289.589 193.234 289.403C192.897 289.214 192.638 289 192.456 288.761C192.274 288.519 192.134 288.318 192.036 288.159H191.922V292.773H190.581ZM191.899 285.136C191.899 285.795 191.996 286.377 192.189 286.881C192.382 287.381 192.664 287.773 193.036 288.057C193.407 288.337 193.861 288.477 194.399 288.477C194.96 288.477 195.428 288.33 195.803 288.034C196.181 287.735 196.465 287.333 196.655 286.83C196.848 286.322 196.945 285.758 196.945 285.136C196.945 284.523 196.85 283.97 196.661 283.477C196.475 282.981 196.193 282.589 195.814 282.301C195.439 282.009 194.967 281.864 194.399 281.864C193.854 281.864 193.395 282.002 193.024 282.278C192.653 282.551 192.373 282.934 192.183 283.426C191.994 283.915 191.899 284.485 191.899 285.136ZM203.716 289.682C202.929 289.682 202.237 289.494 201.643 289.119C201.052 288.744 200.59 288.22 200.256 287.545C199.927 286.871 199.762 286.083 199.762 285.182C199.762 284.273 199.927 283.479 200.256 282.801C200.59 282.123 201.052 281.597 201.643 281.222C202.237 280.847 202.929 280.659 203.716 280.659C204.504 280.659 205.194 280.847 205.785 281.222C206.379 281.597 206.841 282.123 207.171 282.801C207.504 283.479 207.671 284.273 207.671 285.182C207.671 286.083 207.504 286.871 207.171 287.545C206.841 288.22 206.379 288.744 205.785 289.119C205.194 289.494 204.504 289.682 203.716 289.682ZM203.716 288.477C204.315 288.477 204.807 288.324 205.194 288.017C205.58 287.71 205.866 287.307 206.052 286.807C206.237 286.307 206.33 285.765 206.33 285.182C206.33 284.598 206.237 284.055 206.052 283.551C205.866 283.047 205.58 282.64 205.194 282.33C204.807 282.019 204.315 281.864 203.716 281.864C203.118 281.864 202.626 282.019 202.239 282.33C201.853 282.64 201.567 283.047 201.381 283.551C201.196 284.055 201.103 284.598 201.103 285.182C201.103 285.765 201.196 286.307 201.381 286.807C201.567 287.307 201.853 287.71 202.239 288.017C202.626 288.324 203.118 288.477 203.716 288.477ZM209.558 289.5V280.773H213.126C214.065 280.773 214.812 280.985 215.365 281.409C215.918 281.833 216.194 282.394 216.194 283.091C216.194 283.621 216.037 284.032 215.723 284.324C215.408 284.612 215.005 284.807 214.512 284.909C214.834 284.955 215.147 285.068 215.45 285.25C215.757 285.432 216.011 285.682 216.211 286C216.412 286.314 216.512 286.701 216.512 287.159C216.512 287.606 216.399 288.006 216.172 288.358C215.944 288.71 215.619 288.989 215.194 289.193C214.77 289.398 214.262 289.5 213.672 289.5H209.558ZM210.831 288.273H213.672C214.134 288.273 214.495 288.163 214.757 287.943C215.018 287.723 215.149 287.424 215.149 287.045C215.149 286.595 215.018 286.241 214.757 285.983C214.495 285.722 214.134 285.591 213.672 285.591H210.831V288.273ZM210.831 284.432H213.126C213.486 284.432 213.795 284.383 214.052 284.284C214.31 284.182 214.507 284.038 214.643 283.852C214.783 283.663 214.853 283.439 214.853 283.182C214.853 282.814 214.7 282.527 214.393 282.318C214.086 282.106 213.664 282 213.126 282H210.831V284.432Z" fill="#1B1716" fill-opacity="0.6"/>
</svg>
