<svg width="105" height="35" viewBox="0 0 105 35" fill="none" xmlns="http://www.w3.org/2000/svg">
<rect width="105" height="35" rx="10" fill="#1B1716" fill-opacity="0.6"/>
<path d="M17.4091 23V11.3636H21.4773C22.2879 11.3636 22.9564 11.5038 23.483 11.7841C24.0095 12.0606 24.4015 12.4337 24.6591 12.9034C24.9167 13.3693 25.0455 13.8864 25.0455 14.4545C25.0455 14.9545 24.9564 15.3674 24.7784 15.6932C24.6042 16.0189 24.3731 16.2765 24.0852 16.4659C23.8011 16.6553 23.4924 16.7955 23.1591 16.8864V17C23.5152 17.0227 23.8731 17.1477 24.233 17.375C24.5928 17.6023 24.8939 17.928 25.1364 18.3523C25.3788 18.7765 25.5 19.2955 25.5 19.9091C25.5 20.4924 25.3674 21.017 25.1023 21.483C24.8371 21.9489 24.4186 22.3182 23.8466 22.5909C23.2746 22.8636 22.5303 23 21.6136 23H17.4091ZM18.8182 21.75H21.6136C22.5341 21.75 23.1875 21.572 23.5739 21.2159C23.964 20.8561 24.1591 20.4205 24.1591 19.9091C24.1591 19.5152 24.0587 19.1515 23.858 18.8182C23.6572 18.4811 23.3712 18.2121 23 18.0114C22.6288 17.8068 22.1894 17.7045 21.6818 17.7045H18.8182V21.75ZM18.8182 16.4773H21.4318C21.8561 16.4773 22.2386 16.3939 22.5795 16.2273C22.9242 16.0606 23.197 15.8258 23.3977 15.5227C23.6023 15.2197 23.7045 14.8636 23.7045 14.4545C23.7045 13.9432 23.5265 13.5095 23.1705 13.1534C22.8144 12.7936 22.25 12.6136 21.4773 12.6136H18.8182V16.4773ZM28.9744 21.0227L33.179 14.2727H34.7244V23H33.3835V16.25L29.2017 23H27.6335V14.2727H28.9744V21.0227ZM43.0213 18.0227V19.2727H38.2031V18.0227H43.0213ZM38.5213 14.2727V23H37.1804V14.2727H38.5213ZM44.044 14.2727V23H42.7031V14.2727H44.044ZM45.3054 15.5227V14.2727H52.3963V15.5227H49.5327V23H48.1918V15.5227H45.3054ZM56.4673 23.2045C55.9143 23.2045 55.4124 23.1004 54.9616 22.892C54.5109 22.6799 54.1529 22.375 53.8878 21.9773C53.6226 21.5758 53.4901 21.0909 53.4901 20.5227C53.4901 20.0227 53.5885 19.6174 53.7855 19.3068C53.9825 18.9924 54.2457 18.7462 54.5753 18.5682C54.9048 18.3902 55.2685 18.2576 55.6662 18.1705C56.0677 18.0795 56.4711 18.0076 56.8764 17.9545C57.4067 17.8864 57.8366 17.8352 58.1662 17.8011C58.4995 17.7633 58.742 17.7008 58.8935 17.6136C59.0488 17.5265 59.1264 17.375 59.1264 17.1591V17.1136C59.1264 16.553 58.973 16.1174 58.6662 15.8068C58.3632 15.4962 57.9029 15.3409 57.2855 15.3409C56.6454 15.3409 56.1435 15.4811 55.7798 15.7614C55.4162 16.0417 55.1605 16.3409 55.0128 16.6591L53.7401 16.2045C53.9673 15.6742 54.2704 15.2614 54.6491 14.9659C55.0317 14.6667 55.4484 14.4583 55.8991 14.3409C56.3537 14.2197 56.8007 14.1591 57.2401 14.1591C57.5204 14.1591 57.8423 14.1932 58.206 14.2614C58.5734 14.3258 58.9276 14.4602 59.2685 14.6648C59.6132 14.8693 59.8991 15.178 60.1264 15.5909C60.3537 16.0038 60.4673 16.5568 60.4673 17.25V23H59.1264V21.8182H59.0582C58.9673 22.0076 58.8158 22.2102 58.6037 22.4261C58.3916 22.642 58.1094 22.8258 57.7571 22.9773C57.4048 23.1288 56.9749 23.2045 56.4673 23.2045ZM56.6719 22C57.2022 22 57.6491 21.8958 58.0128 21.6875C58.3802 21.4792 58.6567 21.2102 58.8423 20.8807C59.0317 20.5511 59.1264 20.2045 59.1264 19.8409V18.6136C59.0696 18.6818 58.9446 18.7443 58.7514 18.8011C58.562 18.8542 58.3423 18.9015 58.0923 18.9432C57.8461 18.9811 57.6056 19.0152 57.3707 19.0455C57.1397 19.072 56.9522 19.0947 56.8082 19.1136C56.4598 19.1591 56.134 19.233 55.831 19.3352C55.5317 19.4337 55.2893 19.5833 55.1037 19.7841C54.9219 19.9811 54.831 20.25 54.831 20.5909C54.831 21.0568 55.0033 21.4091 55.348 21.6477C55.6965 21.8826 56.1378 22 56.6719 22ZM62.3693 23L65.9148 18.5682L62.4148 14.2727H64.0057L66.9148 18H67.642V14.2727H68.983V18H69.6875L72.5966 14.2727H74.1875L70.7102 18.5682L74.233 23H72.6193L69.6648 19.25H68.983V23H67.642V19.25H66.9602L63.983 23H62.3693Z" fill="#F6F5EC"/>
<path d="M83 12.0625L83.8924 11L88.7528 16.7904C88.8311 16.8831 88.8933 16.9935 88.9357 17.115C88.9782 17.2365 89 17.3669 89 17.4985C89 17.6301 88.9782 17.7605 88.9357 17.882C88.8933 18.0035 88.8311 18.1138 88.7528 18.2066L83.8924 24L83.0008 22.9375L87.5627 17.5L83 12.0625Z" fill="#F6F5EC"/>
</svg>
