<svg width="691" height="55" viewBox="0 0 691 55" fill="none" xmlns="http://www.w3.org/2000/svg">
<rect x="1" y="1" width="689" height="53" rx="9" stroke="#640000" stroke-width="2"/>
<path opacity="0.6" d="M18.1136 36V18.5455H20.2273V26.3182H29.5341V18.5455H31.6477V36H29.5341V28.1932H20.2273V36H18.1136ZM39.2188 36.3068C38.3893 36.3068 37.6364 36.1506 36.9603 35.8381C36.2841 35.5199 35.7472 35.0625 35.3495 34.4659C34.9518 33.8636 34.7529 33.1364 34.7529 32.2841C34.7529 31.5341 34.9006 30.9261 35.1961 30.4602C35.4915 29.9886 35.8864 29.6193 36.3807 29.3523C36.8751 29.0852 37.4205 28.8864 38.0171 28.7557C38.6194 28.6193 39.2245 28.5114 39.8324 28.4318C40.6279 28.3295 41.2728 28.2528 41.7671 28.2017C42.2671 28.1449 42.6307 28.0511 42.858 27.9205C43.091 27.7898 43.2074 27.5625 43.2074 27.2386V27.1705C43.2074 26.3295 42.9773 25.6761 42.5171 25.2102C42.0626 24.7443 41.3722 24.5114 40.4461 24.5114C39.4859 24.5114 38.733 24.7216 38.1876 25.142C37.6421 25.5625 37.2586 26.0114 37.037 26.4886L35.1279 25.8068C35.4688 25.0114 35.9234 24.392 36.4915 23.9489C37.0654 23.5 37.6904 23.1875 38.3665 23.0114C39.0484 22.8295 39.7188 22.7386 40.3779 22.7386C40.7984 22.7386 41.2813 22.7898 41.8268 22.892C42.3779 22.9886 42.9091 23.1903 43.4205 23.4972C43.9376 23.804 44.3665 24.267 44.7074 24.8864C45.0484 25.5057 45.2188 26.3352 45.2188 27.375V36H43.2074V34.2273H43.1052C42.9688 34.5114 42.7415 34.8153 42.4234 35.1392C42.1052 35.4631 41.6819 35.7386 41.1535 35.9659C40.6251 36.1932 39.9802 36.3068 39.2188 36.3068ZM39.5256 34.5C40.3211 34.5 40.9915 34.3438 41.537 34.0312C42.0881 33.7188 42.5029 33.3153 42.7813 32.821C43.0654 32.3267 43.2074 31.8068 43.2074 31.2614V29.4205C43.1222 29.5227 42.9347 29.6165 42.6449 29.7017C42.3609 29.7812 42.0313 29.8523 41.6563 29.9148C41.287 29.9716 40.9262 30.0227 40.5739 30.0682C40.2273 30.108 39.9461 30.142 39.7302 30.1705C39.2074 30.2386 38.7188 30.3494 38.2643 30.5028C37.8154 30.6506 37.4518 30.875 37.1734 31.1761C36.9006 31.4716 36.7643 31.875 36.7643 32.3864C36.7643 33.0852 37.0228 33.6136 37.5398 33.9716C38.0626 34.3239 38.7245 34.5 39.5256 34.5ZM50.6613 33.0341L56.9682 22.9091H59.2863V36H57.275V25.875L51.0022 36H48.65V22.9091H50.6613V33.0341ZM55.6386 18.5455H57.5136C57.5136 19.4659 57.1954 20.2188 56.5591 20.804C55.9227 21.3892 55.0591 21.6818 53.9682 21.6818C52.8943 21.6818 52.0392 21.3892 51.4028 20.804C50.7721 20.2188 50.4568 19.4659 50.4568 18.5455H52.3318C52.3318 18.9886 52.4539 19.3778 52.6983 19.7131C52.9483 20.0483 53.3716 20.2159 53.9682 20.2159C54.5647 20.2159 54.9909 20.0483 55.2466 19.7131C55.5079 19.3778 55.6386 18.9886 55.6386 18.5455ZM60.949 24.7841V22.9091H71.5854V24.7841H67.2899V36H65.2786V24.7841H60.949ZM76.2907 33.0341L82.5975 22.9091H84.9157V36H82.9043V25.875L76.6316 36H74.2793V22.9091H76.2907V33.0341Z" fill="#1B1716"/>
<path fill-rule="evenodd" clip-rule="evenodd" d="M654.342 18.1385C653.511 18.9866 652.85 19.9964 652.398 21.1096C651.946 22.2229 651.711 23.4177 651.707 24.6253C651.703 25.8328 651.93 27.0292 652.375 28.1456C652.82 29.262 653.475 30.2763 654.3 31.1301C655.126 31.984 656.107 32.6605 657.186 33.1208C658.266 33.581 659.423 33.8159 660.59 33.8118C661.758 33.8078 662.913 33.5649 663.99 33.0972C665.066 32.6295 666.043 31.9462 666.863 31.0866C668.505 29.3657 669.422 27.0429 669.414 24.6253C669.406 22.2076 668.474 19.8913 666.821 18.1817C665.168 16.4722 662.928 15.5082 660.59 15.5001C658.252 15.492 656.006 16.4404 654.342 18.1385ZM664.587 28.7327C664.063 29.2738 663.442 29.703 662.759 29.9958C662.075 30.2886 661.342 30.4393 660.603 30.4393C659.863 30.4393 659.13 30.2886 658.446 29.9958C657.763 29.703 657.142 29.2738 656.618 28.7327C656.095 28.1917 655.68 27.5493 655.397 26.8424C655.114 26.1354 654.968 25.3777 654.968 24.6126C654.968 23.8474 655.114 23.0897 655.397 22.3827C655.68 21.6758 656.095 21.0335 656.618 20.4924C657.675 19.3996 659.108 18.7858 660.603 18.7858C662.097 18.7858 663.53 19.3996 664.587 20.4924C665.643 21.5851 666.237 23.0672 666.237 24.6126C666.237 26.1579 665.643 27.64 664.587 28.7327Z" fill="#640000"/>
<path d="M665.157 32.853C664.932 32.6211 664.754 32.3457 664.633 32.0426C664.512 31.7396 664.449 31.4148 664.449 31.0867C664.449 30.7587 664.512 30.4339 664.633 30.1308C664.754 29.8278 664.932 29.5524 665.157 29.3205C665.381 29.0885 665.647 28.9045 665.94 28.779C666.233 28.6535 666.547 28.5889 666.865 28.5889C667.182 28.5889 667.496 28.6535 667.789 28.779C668.082 28.9045 668.348 29.0885 668.573 29.3205L674.263 35.2069C674.494 35.4373 674.678 35.7128 674.804 36.0174C674.931 36.3221 674.997 36.6498 675 36.9813C675.003 37.3129 674.942 37.6417 674.82 37.9486C674.699 38.2555 674.52 38.5343 674.293 38.7687C674.066 39.0032 673.797 39.1886 673.5 39.3141C673.203 39.4397 672.885 39.5029 672.565 39.5C672.244 39.4971 671.927 39.4282 671.632 39.2974C671.338 39.1665 671.071 38.9763 670.849 38.7378L665.157 32.853Z" fill="#640000"/>
</svg>
