<svg width="345" height="89" viewBox="0 0 345 89" fill="none" xmlns="http://www.w3.org/2000/svg">
<path d="M1.88636 15H0.409091L4.68182 3.36364H6.13636L10.4091 15H8.93182L5.45455 5.20455H5.36364L1.88636 15ZM2.43182 10.4545H8.38636V11.7045H2.43182V10.4545ZM11.8798 18.2727V6.27273H13.1752V7.65909H13.3343C13.4328 7.50758 13.5692 7.31439 13.7434 7.07955C13.9214 6.84091 14.1752 6.62879 14.5048 6.44318C14.8381 6.25379 15.2889 6.15909 15.857 6.15909C16.5919 6.15909 17.2396 6.3428 17.8002 6.71023C18.3608 7.07765 18.7983 7.59848 19.1127 8.27273C19.4271 8.94697 19.5843 9.74242 19.5843 10.6591C19.5843 11.5833 19.4271 12.3845 19.1127 13.0625C18.7983 13.7367 18.3627 14.2595 17.8059 14.6307C17.2491 14.9981 16.607 15.1818 15.8798 15.1818C15.3192 15.1818 14.8703 15.089 14.5332 14.9034C14.1961 14.714 13.9366 14.5 13.7548 14.2614C13.573 14.0189 13.4328 13.8182 13.3343 13.6591H13.2207V18.2727H11.8798ZM13.198 10.6364C13.198 11.2955 13.2945 11.8769 13.4877 12.3807C13.6809 12.8807 13.9631 13.2727 14.3343 13.5568C14.7055 13.8371 15.1601 13.9773 15.698 13.9773C16.2586 13.9773 16.7264 13.8295 17.1014 13.5341C17.4802 13.2348 17.7642 12.8333 17.9536 12.3295C18.1468 11.822 18.2434 11.2576 18.2434 10.6364C18.2434 10.0227 18.1487 9.4697 17.9593 8.97727C17.7737 8.48106 17.4915 8.08902 17.1127 7.80114C16.7377 7.50947 16.2661 7.36364 15.698 7.36364C15.1525 7.36364 14.6942 7.50189 14.323 7.77841C13.9517 8.05114 13.6714 8.43371 13.482 8.92614C13.2927 9.41477 13.198 9.98485 13.198 10.6364ZM20.3291 7.52273V6.27273H27.4201V7.52273H24.5564V15H23.2155V7.52273H20.3291ZM30.5569 13.0227L34.7615 6.27273H36.3069V15H34.966V8.25L30.7842 15H29.216V6.27273H30.5569V13.0227ZM38.6029 15V6.27273H39.9438V10.0682H40.8302L43.9665 6.27273H45.6938L42.1711 10.4773L45.7393 15H44.012L41.1484 11.3182H39.9438V15H38.6029ZM47.9003 18.2727C47.673 18.2727 47.4704 18.2538 47.2923 18.2159C47.1143 18.1818 46.9912 18.1477 46.923 18.1136L47.2639 16.9318C47.5897 17.0152 47.8776 17.0455 48.1276 17.0227C48.3776 17 48.5991 16.8883 48.7923 16.6875C48.9893 16.4905 49.1692 16.1705 49.3321 15.7273L49.5821 15.0455L46.3548 6.27273H47.8094L50.2185 13.2273H50.3094L52.7185 6.27273H54.173L50.4685 16.2727C50.3018 16.7235 50.0954 17.0966 49.8491 17.392C49.6029 17.6913 49.317 17.9129 48.9912 18.0568C48.6692 18.2008 48.3056 18.2727 47.9003 18.2727ZM54.2758 15V13.75H54.594C54.8553 13.75 55.0731 13.6989 55.2474 13.5966C55.4216 13.4905 55.5618 13.3068 55.6678 13.0455C55.7777 12.7803 55.861 12.4129 55.9178 11.9432C55.9784 11.4697 56.022 10.8674 56.0485 10.1364L56.2076 6.27273H62.0258V15H60.6849V7.52273H57.4803L57.344 10.6364C57.3137 11.3523 57.2493 11.983 57.1508 12.5284C57.0561 13.0701 56.9103 13.5246 56.7133 13.892C56.5201 14.2595 56.2625 14.536 55.9406 14.7216C55.6186 14.9072 55.2152 15 54.7303 15H54.2758ZM68.166 7.52273V6.27273H75.2569V7.52273H72.3933V15H71.0524V7.52273H68.166ZM80.1452 15.1818C79.3573 15.1818 78.6661 14.9943 78.0714 14.6193C77.4805 14.2443 77.0183 13.7197 76.685 13.0455C76.3555 12.3712 76.1907 11.5833 76.1907 10.6818C76.1907 9.77273 76.3555 8.97917 76.685 8.30114C77.0183 7.62311 77.4805 7.09659 78.0714 6.72159C78.6661 6.34659 79.3573 6.15909 80.1452 6.15909C80.9331 6.15909 81.6225 6.34659 82.2134 6.72159C82.8081 7.09659 83.2702 7.62311 83.5998 8.30114C83.9331 8.97917 84.0998 9.77273 84.0998 10.6818C84.0998 11.5833 83.9331 12.3712 83.5998 13.0455C83.2702 13.7197 82.8081 14.2443 82.2134 14.6193C81.6225 14.9943 80.9331 15.1818 80.1452 15.1818ZM80.1452 13.9773C80.7437 13.9773 81.2361 13.8239 81.6225 13.517C82.0089 13.2102 82.2948 12.8068 82.4805 12.3068C82.6661 11.8068 82.7589 11.2652 82.7589 10.6818C82.7589 10.0985 82.6661 9.55492 82.4805 9.05114C82.2948 8.54735 82.0089 8.14015 81.6225 7.82955C81.2361 7.51894 80.7437 7.36364 80.1452 7.36364C79.5467 7.36364 79.0543 7.51894 78.668 7.82955C78.2816 8.14015 77.9956 8.54735 77.81 9.05114C77.6244 9.55492 77.5316 10.0985 77.5316 10.6818C77.5316 11.2652 77.6244 11.8068 77.81 12.3068C77.9956 12.8068 78.2816 13.2102 78.668 13.517C79.0543 13.8239 79.5467 13.9773 80.1452 13.9773ZM85.9866 15V6.27273H89.5548C90.4942 6.27273 91.2404 6.48485 91.7935 6.90909C92.3465 7.33333 92.623 7.89394 92.623 8.59091C92.623 9.12121 92.4658 9.5322 92.1514 9.82386C91.837 10.1117 91.4336 10.3068 90.9412 10.4091C91.2632 10.4545 91.5757 10.5682 91.8787 10.75C92.1855 10.9318 92.4393 11.1818 92.6401 11.5C92.8408 11.8144 92.9412 12.2008 92.9412 12.6591C92.9412 13.1061 92.8276 13.5057 92.6003 13.858C92.373 14.2102 92.0473 14.4886 91.623 14.6932C91.1988 14.8977 90.6912 15 90.1003 15H85.9866ZM87.2594 13.7727H90.1003C90.5624 13.7727 90.9241 13.6629 91.1855 13.4432C91.4469 13.2235 91.5776 12.9242 91.5776 12.5455C91.5776 12.0947 91.4469 11.7405 91.1855 11.483C90.9241 11.2216 90.5624 11.0909 90.1003 11.0909H87.2594V13.7727ZM87.2594 9.93182H89.5548C89.9147 9.93182 90.2234 9.88258 90.481 9.78409C90.7385 9.68182 90.9355 9.53788 91.0719 9.35227C91.212 9.16288 91.2821 8.93939 91.2821 8.68182C91.2821 8.31439 91.1287 8.02651 90.8219 7.81818C90.5151 7.60606 90.0927 7.5 89.5548 7.5H87.2594V9.93182ZM97.3792 15.2045C96.8262 15.2045 96.3243 15.1004 95.8735 14.892C95.4228 14.6799 95.0648 14.375 94.7997 13.9773C94.5345 13.5758 94.4019 13.0909 94.4019 12.5227C94.4019 12.0227 94.5004 11.6174 94.6974 11.3068C94.8944 10.9924 95.1576 10.7462 95.4872 10.5682C95.8167 10.3902 96.1803 10.2576 96.5781 10.1705C96.9796 10.0795 97.383 10.0076 97.7883 9.95455C98.3186 9.88636 98.7485 9.83523 99.0781 9.80114C99.4114 9.76326 99.6538 9.70076 99.8053 9.61364C99.9606 9.52652 100.038 9.375 100.038 9.15909V9.11364C100.038 8.55303 99.8849 8.11742 99.5781 7.80682C99.275 7.49621 98.8148 7.34091 98.1974 7.34091C97.5572 7.34091 97.0553 7.48106 96.6917 7.76136C96.3281 8.04167 96.0724 8.34091 95.9247 8.65909L94.6519 8.20455C94.8792 7.67424 95.1822 7.26136 95.561 6.96591C95.9436 6.66667 96.3603 6.45833 96.811 6.34091C97.2656 6.2197 97.7125 6.15909 98.1519 6.15909C98.4322 6.15909 98.7542 6.19318 99.1178 6.26136C99.4853 6.32576 99.8394 6.46023 100.18 6.66477C100.525 6.86932 100.811 7.17803 101.038 7.59091C101.266 8.00379 101.379 8.55682 101.379 9.25V15H100.038V13.8182H99.9701C99.8792 14.0076 99.7277 14.2102 99.5156 14.4261C99.3034 14.642 99.0212 14.8258 98.669 14.9773C98.3167 15.1288 97.8868 15.2045 97.3792 15.2045ZM97.5837 14C98.1141 14 98.561 13.8958 98.9247 13.6875C99.2921 13.4792 99.5686 13.2102 99.7542 12.8807C99.9436 12.5511 100.038 12.2045 100.038 11.8409V10.6136C99.9815 10.6818 99.8565 10.7443 99.6633 10.8011C99.4739 10.8542 99.2542 10.9015 99.0042 10.9432C98.758 10.9811 98.5175 11.0152 98.2826 11.0455C98.0516 11.072 97.8641 11.0947 97.7201 11.1136C97.3716 11.1591 97.0459 11.233 96.7428 11.3352C96.4436 11.4337 96.2012 11.5833 96.0156 11.7841C95.8337 11.9811 95.7428 12.25 95.7428 12.5909C95.7428 13.0568 95.9152 13.4091 96.2599 13.6477C96.6084 13.8826 97.0497 14 97.5837 14ZM103.667 18.2727V6.27273H104.962V7.65909H105.121C105.22 7.50758 105.356 7.31439 105.53 7.07955C105.708 6.84091 105.962 6.62879 106.292 6.44318C106.625 6.25379 107.076 6.15909 107.644 6.15909C108.379 6.15909 109.026 6.3428 109.587 6.71023C110.148 7.07765 110.585 7.59848 110.9 8.27273C111.214 8.94697 111.371 9.74242 111.371 10.6591C111.371 11.5833 111.214 12.3845 110.9 13.0625C110.585 13.7367 110.15 14.2595 109.593 14.6307C109.036 14.9981 108.394 15.1818 107.667 15.1818C107.106 15.1818 106.657 15.089 106.32 14.9034C105.983 14.714 105.723 14.5 105.542 14.2614C105.36 14.0189 105.22 13.8182 105.121 13.6591H105.008V18.2727H103.667ZM104.985 10.6364C104.985 11.2955 105.081 11.8769 105.275 12.3807C105.468 12.8807 105.75 13.2727 106.121 13.5568C106.492 13.8371 106.947 13.9773 107.485 13.9773C108.045 13.9773 108.513 13.8295 108.888 13.5341C109.267 13.2348 109.551 12.8333 109.741 12.3295C109.934 11.822 110.03 11.2576 110.03 10.6364C110.03 10.0227 109.936 9.4697 109.746 8.97727C109.561 8.48106 109.278 8.08902 108.9 7.80114C108.525 7.50947 108.053 7.36364 107.485 7.36364C106.939 7.36364 106.481 7.50189 106.11 7.77841C105.739 8.05114 105.458 8.43371 105.269 8.92614C105.08 9.41477 104.985 9.98485 104.985 10.6364ZM115.825 15.2045C115.272 15.2045 114.77 15.1004 114.319 14.892C113.868 14.6799 113.51 14.375 113.245 13.9773C112.98 13.5758 112.848 13.0909 112.848 12.5227C112.848 12.0227 112.946 11.6174 113.143 11.3068C113.34 10.9924 113.603 10.7462 113.933 10.5682C114.262 10.3902 114.626 10.2576 115.024 10.1705C115.425 10.0795 115.829 10.0076 116.234 9.95455C116.764 9.88636 117.194 9.83523 117.524 9.80114C117.857 9.76326 118.099 9.70076 118.251 9.61364C118.406 9.52652 118.484 9.375 118.484 9.15909V9.11364C118.484 8.55303 118.331 8.11742 118.024 7.80682C117.721 7.49621 117.26 7.34091 116.643 7.34091C116.003 7.34091 115.501 7.48106 115.137 7.76136C114.774 8.04167 114.518 8.34091 114.37 8.65909L113.098 8.20455C113.325 7.67424 113.628 7.26136 114.007 6.96591C114.389 6.66667 114.806 6.45833 115.257 6.34091C115.711 6.2197 116.158 6.15909 116.598 6.15909C116.878 6.15909 117.2 6.19318 117.563 6.26136C117.931 6.32576 118.285 6.46023 118.626 6.66477C118.971 6.86932 119.257 7.17803 119.484 7.59091C119.711 8.00379 119.825 8.55682 119.825 9.25V15H118.484V13.8182H118.416C118.325 14.0076 118.173 14.2102 117.961 14.4261C117.749 14.642 117.467 14.8258 117.115 14.9773C116.762 15.1288 116.332 15.2045 115.825 15.2045ZM116.029 14C116.56 14 117.007 13.8958 117.37 13.6875C117.738 13.4792 118.014 13.2102 118.2 12.8807C118.389 12.5511 118.484 12.2045 118.484 11.8409V10.6136C118.427 10.6818 118.302 10.7443 118.109 10.8011C117.92 10.8542 117.7 10.9015 117.45 10.9432C117.204 10.9811 116.963 11.0152 116.728 11.0455C116.497 11.072 116.31 11.0947 116.166 11.1136C115.817 11.1591 115.491 11.233 115.188 11.3352C114.889 11.4337 114.647 11.5833 114.461 11.7841C114.279 11.9811 114.188 12.25 114.188 12.5909C114.188 13.0568 114.361 13.4091 114.706 13.6477C115.054 13.8826 115.495 14 116.029 14ZM123.09 15.0909C122.809 15.0909 122.569 14.9905 122.368 14.7898C122.167 14.589 122.067 14.3485 122.067 14.0682C122.067 13.7879 122.167 13.5473 122.368 13.3466C122.569 13.1458 122.809 13.0455 123.09 13.0455C123.37 13.0455 123.61 13.1458 123.811 13.3466C124.012 13.5473 124.112 13.7879 124.112 14.0682C124.112 14.2538 124.065 14.4242 123.97 14.5795C123.879 14.7348 123.756 14.8598 123.601 14.9545C123.449 15.0455 123.279 15.0909 123.09 15.0909ZM123.09 8.61364C122.809 8.61364 122.569 8.51326 122.368 8.3125C122.167 8.11174 122.067 7.87121 122.067 7.59091C122.067 7.31061 122.167 7.07008 122.368 6.86932C122.569 6.66856 122.809 6.56818 123.09 6.56818C123.37 6.56818 123.61 6.66856 123.811 6.86932C124.012 7.07008 124.112 7.31061 124.112 7.59091C124.112 7.77652 124.065 7.94697 123.97 8.10227C123.879 8.25758 123.756 8.38258 123.601 8.47727C123.449 8.56818 123.279 8.61364 123.09 8.61364Z" fill="#1B1716" fill-opacity="0.6"/>
<path d="M254.364 7C254.239 6.61742 254.074 6.27462 253.869 5.97159C253.669 5.66477 253.428 5.40341 253.148 5.1875C252.871 4.97159 252.557 4.80682 252.205 4.69318C251.852 4.57955 251.466 4.52273 251.045 4.52273C250.356 4.52273 249.729 4.70076 249.165 5.05682C248.6 5.41288 248.152 5.9375 247.818 6.63068C247.485 7.32386 247.318 8.17424 247.318 9.18182C247.318 10.1894 247.487 11.0398 247.824 11.733C248.161 12.4261 248.617 12.9508 249.193 13.3068C249.769 13.6629 250.417 13.8409 251.136 13.8409C251.803 13.8409 252.39 13.6989 252.898 13.4148C253.409 13.1269 253.807 12.7216 254.091 12.1989C254.379 11.6723 254.523 11.053 254.523 10.3409L254.955 10.4318H251.455V9.18182H255.886V10.4318C255.886 11.3902 255.682 12.2235 255.273 12.9318C254.867 13.6402 254.307 14.1894 253.591 14.5795C252.879 14.9659 252.061 15.1591 251.136 15.1591C250.106 15.1591 249.201 14.9167 248.42 14.4318C247.644 13.947 247.038 13.2576 246.602 12.3636C246.17 11.4697 245.955 10.4091 245.955 9.18182C245.955 8.26136 246.078 7.43371 246.324 6.69886C246.574 5.96023 246.926 5.33144 247.381 4.8125C247.835 4.29356 248.373 3.89583 248.994 3.61932C249.616 3.3428 250.299 3.20455 251.045 3.20455C251.659 3.20455 252.231 3.29735 252.761 3.48295C253.295 3.66477 253.771 3.92424 254.188 4.26136C254.608 4.5947 254.958 4.99432 255.239 5.46023C255.519 5.92235 255.712 6.43561 255.818 7H254.364ZM258.14 15V3.36364H259.549V8.54545H265.753V3.36364H267.162V15H265.753V9.79545H259.549V15H258.14ZM269.619 15V13.9773L273.46 9.77273C273.911 9.2803 274.282 8.85227 274.573 8.48864C274.865 8.12121 275.081 7.77652 275.221 7.45455C275.365 7.12879 275.437 6.78788 275.437 6.43182C275.437 6.02273 275.339 5.66856 275.142 5.36932C274.948 5.07008 274.683 4.83901 274.346 4.67614C274.009 4.51326 273.63 4.43182 273.21 4.43182C272.763 4.43182 272.373 4.52462 272.039 4.71023C271.71 4.89205 271.454 5.14773 271.272 5.47727C271.094 5.80682 271.005 6.19318 271.005 6.63636H269.664C269.664 5.95455 269.822 5.35606 270.136 4.84091C270.45 4.32576 270.878 3.92424 271.42 3.63636C271.966 3.34848 272.577 3.20455 273.255 3.20455C273.937 3.20455 274.541 3.34848 275.068 3.63636C275.594 3.92424 276.007 4.3125 276.306 4.80114C276.606 5.28977 276.755 5.83333 276.755 6.43182C276.755 6.85985 276.678 7.27841 276.522 7.6875C276.371 8.0928 276.106 8.54545 275.727 9.04545C275.352 9.54167 274.831 10.1477 274.164 10.8636L271.551 13.6591V13.75H276.96V15H269.619ZM282.942 15.1591C282.086 15.1591 281.357 14.9261 280.754 14.4602C280.152 13.9905 279.692 13.3106 279.374 12.4205C279.056 11.5265 278.896 10.447 278.896 9.18182C278.896 7.92424 279.056 6.85038 279.374 5.96023C279.696 5.06629 280.158 4.38447 280.76 3.91477C281.366 3.44129 282.093 3.20455 282.942 3.20455C283.79 3.20455 284.516 3.44129 285.118 3.91477C285.724 4.38447 286.186 5.06629 286.504 5.96023C286.826 6.85038 286.987 7.92424 286.987 9.18182C286.987 10.447 286.828 11.5265 286.51 12.4205C286.192 13.3106 285.732 13.9905 285.129 14.4602C284.527 14.9261 283.798 15.1591 282.942 15.1591ZM282.942 13.9091C283.79 13.9091 284.449 13.5 284.919 12.6818C285.389 11.8636 285.624 10.697 285.624 9.18182C285.624 8.17424 285.516 7.31629 285.3 6.60795C285.088 5.89962 284.781 5.35985 284.379 4.98864C283.982 4.61742 283.502 4.43182 282.942 4.43182C282.101 4.43182 281.444 4.84659 280.97 5.67614C280.497 6.50189 280.26 7.67045 280.26 9.18182C280.26 10.1894 280.366 11.0455 280.578 11.75C280.79 12.4545 281.095 12.9905 281.493 13.358C281.895 13.7254 282.377 13.9091 282.942 13.9091ZM293.326 15V13.9773L297.167 9.77273C297.618 9.2803 297.989 8.85227 298.281 8.48864C298.573 8.12121 298.789 7.77652 298.929 7.45455C299.073 7.12879 299.145 6.78788 299.145 6.43182C299.145 6.02273 299.046 5.66856 298.849 5.36932C298.656 5.07008 298.391 4.83901 298.054 4.67614C297.717 4.51326 297.338 4.43182 296.917 4.43182C296.47 4.43182 296.08 4.52462 295.747 4.71023C295.417 4.89205 295.162 5.14773 294.98 5.47727C294.802 5.80682 294.713 6.19318 294.713 6.63636H293.372C293.372 5.95455 293.529 5.35606 293.843 4.84091C294.158 4.32576 294.586 3.92424 295.128 3.63636C295.673 3.34848 296.285 3.20455 296.963 3.20455C297.645 3.20455 298.249 3.34848 298.775 3.63636C299.302 3.92424 299.715 4.3125 300.014 4.80114C300.313 5.28977 300.463 5.83333 300.463 6.43182C300.463 6.85985 300.385 7.27841 300.23 7.6875C300.078 8.0928 299.813 8.54545 299.434 9.04545C299.059 9.54167 298.539 10.1477 297.872 10.8636L295.258 13.6591V13.75H300.667V15H293.326ZM303.218 15L308.422 4.70455V4.61364H302.422V3.36364H309.877V4.68182L304.695 15H303.218ZM315.38 15.1591C314.524 15.1591 313.795 14.9261 313.192 14.4602C312.59 13.9905 312.13 13.3106 311.812 12.4205C311.494 11.5265 311.335 10.447 311.335 9.18182C311.335 7.92424 311.494 6.85038 311.812 5.96023C312.134 5.06629 312.596 4.38447 313.198 3.91477C313.804 3.44129 314.532 3.20455 315.38 3.20455C316.228 3.20455 316.954 3.44129 317.556 3.91477C318.162 4.38447 318.624 5.06629 318.942 5.96023C319.264 6.85038 319.425 7.92424 319.425 9.18182C319.425 10.447 319.266 11.5265 318.948 12.4205C318.63 13.3106 318.17 13.9905 317.567 14.4602C316.965 14.9261 316.236 15.1591 315.38 15.1591ZM315.38 13.9091C316.228 13.9091 316.888 13.5 317.357 12.6818C317.827 11.8636 318.062 10.697 318.062 9.18182C318.062 8.17424 317.954 7.31629 317.738 6.60795C317.526 5.89962 317.219 5.35985 316.817 4.98864C316.42 4.61742 315.941 4.43182 315.38 4.43182C314.539 4.43182 313.882 4.84659 313.408 5.67614C312.935 6.50189 312.698 7.67045 312.698 9.18182C312.698 10.1894 312.804 11.0455 313.016 11.75C313.228 12.4545 313.533 12.9905 313.931 13.358C314.333 13.7254 314.816 13.9091 315.38 13.9091Z" fill="#1B1716"/>
<path d="M331.571 17.5H339.571C340.253 17.5 340.907 17.2291 341.389 16.7469C341.872 16.2646 342.143 15.6106 342.143 14.9286V6.92861C342.143 6.24662 341.872 5.59257 341.389 5.11033C340.907 4.6281 340.253 4.35718 339.571 4.35718H331.571C330.889 4.35718 330.235 4.6281 329.753 5.11033C329.271 5.59257 329 6.24662 329 6.92861V14.9286C329 15.6106 329.271 16.2646 329.753 16.7469C330.235 17.2291 330.889 17.5 331.571 17.5Z" fill="#1B1716" fill-opacity="0.6"/>
<path d="M340.429 3.21429H332.004C332.182 2.7133 332.511 2.2796 332.945 1.97267C333.379 1.66575 333.897 1.50064 334.429 1.5H342.429C343.111 1.5 343.765 1.77092 344.247 2.25315C344.729 2.73539 345 3.38944 345 4.07143V12.0714C344.999 12.603 344.834 13.1214 344.527 13.5554C344.22 13.9895 343.787 14.3179 343.286 14.4957V6.07143C343.286 5.31367 342.985 4.58694 342.449 4.05112C341.913 3.51531 341.186 3.21429 340.429 3.21429Z" fill="#1B1716" fill-opacity="0.6"/>
<path d="M8.25 50L4.25 44.6591H2.81818V50H1.40909V38.3636H2.81818V43.4091H3.43182L8.09091 38.3636H9.77273L5.06818 43.4773L9.93182 50H8.25ZM14.3159 50.1818C13.528 50.1818 12.8367 49.9943 12.242 49.6193C11.6511 49.2443 11.189 48.7197 10.8556 48.0455C10.5261 47.3712 10.3613 46.5833 10.3613 45.6818C10.3613 44.7727 10.5261 43.9792 10.8556 43.3011C11.189 42.6231 11.6511 42.0966 12.242 41.7216C12.8367 41.3466 13.528 41.1591 14.3159 41.1591C15.1037 41.1591 15.7931 41.3466 16.384 41.7216C16.9787 42.0966 17.4409 42.6231 17.7704 43.3011C18.1037 43.9792 18.2704 44.7727 18.2704 45.6818C18.2704 46.5833 18.1037 47.3712 17.7704 48.0455C17.4409 48.7197 16.9787 49.2443 16.384 49.6193C15.7931 49.9943 15.1037 50.1818 14.3159 50.1818ZM14.3159 48.9773C14.9143 48.9773 15.4068 48.8239 15.7931 48.517C16.1795 48.2102 16.4655 47.8068 16.6511 47.3068C16.8367 46.8068 16.9295 46.2652 16.9295 45.6818C16.9295 45.0985 16.8367 44.5549 16.6511 44.0511C16.4655 43.5473 16.1795 43.1402 15.7931 42.8295C15.4068 42.5189 14.9143 42.3636 14.3159 42.3636C13.7174 42.3636 13.2249 42.5189 12.8386 42.8295C12.4522 43.1402 12.1662 43.5473 11.9806 44.0511C11.795 44.5549 11.7022 45.0985 11.7022 45.6818C11.7022 46.2652 11.795 46.8068 11.9806 47.3068C12.1662 47.8068 12.4522 48.2102 12.8386 48.517C13.2249 48.8239 13.7174 48.9773 14.3159 48.9773ZM19.3845 50V48.75H19.7027C19.9641 48.75 20.1819 48.6989 20.3561 48.5966C20.5304 48.4905 20.6705 48.3068 20.7766 48.0455C20.8864 47.7803 20.9698 47.4129 21.0266 46.9432C21.0872 46.4697 21.1308 45.8674 21.1573 45.1364L21.3164 41.2727H27.1345V50H25.7936V42.5227H22.5891L22.4527 45.6364C22.4224 46.3523 22.358 46.983 22.2595 47.5284C22.1648 48.0701 22.019 48.5246 21.822 48.892C21.6289 49.2595 21.3713 49.536 21.0493 49.7216C20.7273 49.9072 20.3239 50 19.8391 50H19.3845ZM30.7757 48.0227L34.9802 41.2727H36.5257V50H35.1848V43.25L31.003 50H29.4348V41.2727H30.7757V48.0227ZM45.5489 41.2727V50H44.208V41.2727H45.5489ZM45.0262 45.4318V46.6818C44.7232 46.7955 44.422 46.8958 44.1228 46.983C43.8235 47.0663 43.5091 47.1326 43.1796 47.1818C42.8501 47.2273 42.4883 47.25 42.0944 47.25C41.1057 47.25 40.3122 46.983 39.7137 46.4489C39.119 45.9148 38.8216 45.1136 38.8216 44.0455V41.25H40.1626V44.0455C40.1626 44.4924 40.2478 44.8598 40.4182 45.1477C40.5887 45.4356 40.8198 45.6496 41.1114 45.7898C41.4031 45.9299 41.7307 46 42.0944 46C42.6626 46 43.1758 45.9489 43.6341 45.8466C44.0963 45.7405 44.5603 45.6023 45.0262 45.4318ZM51.5082 50.1818C50.6673 50.1818 49.942 49.9962 49.3321 49.625C48.726 49.25 48.2582 48.7273 47.9287 48.0568C47.6029 47.3826 47.4401 46.5985 47.4401 45.7045C47.4401 44.8106 47.6029 44.0227 47.9287 43.3409C48.2582 42.6553 48.7166 42.1212 49.3037 41.7386C49.8946 41.3523 50.584 41.1591 51.3719 41.1591C51.8264 41.1591 52.2753 41.2348 52.7185 41.3864C53.1616 41.5379 53.5651 41.7841 53.9287 42.125C54.2923 42.4621 54.5821 42.9091 54.798 43.4659C55.0139 44.0227 55.1219 44.7083 55.1219 45.5227V46.0909H48.3946V44.9318H53.7582C53.7582 44.4394 53.6598 44 53.4628 43.6136C53.2696 43.2273 52.9931 42.9223 52.6332 42.6989C52.2772 42.4754 51.8567 42.3636 51.3719 42.3636C50.8378 42.3636 50.3757 42.4962 49.9855 42.7614C49.5991 43.0227 49.3018 43.3636 49.0935 43.7841C48.8851 44.2045 48.781 44.6553 48.781 45.1364V45.9091C48.781 46.5682 48.8946 47.1269 49.1219 47.5852C49.3529 48.0398 49.673 48.3864 50.0821 48.625C50.4912 48.8598 50.9666 48.9773 51.5082 48.9773C51.8605 48.9773 52.1787 48.928 52.4628 48.8295C52.7507 48.7273 52.9988 48.5758 53.2071 48.375C53.4154 48.1705 53.5764 47.9167 53.6901 47.6136L54.9855 47.9773C54.8491 48.4167 54.62 48.803 54.298 49.1364C53.976 49.4659 53.5783 49.7235 53.1048 49.9091C52.6313 50.0909 52.0991 50.1818 51.5082 50.1818ZM60.5471 50.1818C59.7289 50.1818 59.0244 49.9886 58.4335 49.6023C57.8426 49.2159 57.388 48.6837 57.0698 48.0057C56.7516 47.3277 56.5926 46.553 56.5926 45.6818C56.5926 44.7955 56.7554 44.0133 57.0812 43.3352C57.4107 42.6534 57.8691 42.1212 58.4562 41.7386C59.0471 41.3523 59.7365 41.1591 60.5244 41.1591C61.138 41.1591 61.691 41.2727 62.1835 41.5C62.6759 41.7273 63.0793 42.0455 63.3937 42.4545C63.7081 42.8636 63.9032 43.3409 63.9789 43.8864H62.638C62.5357 43.4886 62.3085 43.1364 61.9562 42.8295C61.6077 42.5189 61.138 42.3636 60.5471 42.3636C60.0244 42.3636 59.566 42.5 59.1721 42.7727C58.782 43.0417 58.477 43.4223 58.2573 43.9148C58.0414 44.4034 57.9335 44.9773 57.9335 45.6364C57.9335 46.3106 58.0395 46.8977 58.2516 47.3977C58.4676 47.8977 58.7706 48.286 59.1607 48.5625C59.5547 48.839 60.0168 48.9773 60.5471 48.9773C60.8956 48.9773 61.2119 48.9167 61.496 48.7955C61.7801 48.6742 62.0206 48.5 62.2176 48.2727C62.4145 48.0455 62.5547 47.7727 62.638 47.4545H63.9789C63.9032 47.9697 63.7157 48.4337 63.4164 48.8466C63.121 49.2557 62.7289 49.5814 62.2403 49.8239C61.7554 50.0625 61.191 50.1818 60.5471 50.1818ZM65.0916 42.5227V41.2727H72.1826V42.5227H69.3189V50H67.978V42.5227H65.0916ZM73.9785 50V41.2727H77.5467C78.4861 41.2727 79.2323 41.4848 79.7853 41.9091C80.3384 42.3333 80.6149 42.8939 80.6149 43.5909C80.6149 44.1212 80.4577 44.5322 80.1433 44.8239C79.8289 45.1117 79.4255 45.3068 78.9331 45.4091C79.255 45.4545 79.5675 45.5682 79.8706 45.75C80.1774 45.9318 80.4312 46.1818 80.6319 46.5C80.8327 46.8144 80.9331 47.2008 80.9331 47.6591C80.9331 48.1061 80.8194 48.5057 80.5922 48.858C80.3649 49.2102 80.0391 49.4886 79.6149 49.6932C79.1906 49.8977 78.6831 50 78.0922 50H73.9785ZM75.2513 48.7727H78.0922C78.5543 48.7727 78.916 48.6629 79.1774 48.4432C79.4388 48.2235 79.5694 47.9242 79.5694 47.5455C79.5694 47.0947 79.4388 46.7405 79.1774 46.483C78.916 46.2216 78.5543 46.0909 78.0922 46.0909H75.2513V48.7727ZM75.2513 44.9318H77.5467C77.9066 44.9318 78.2153 44.8826 78.4728 44.7841C78.7304 44.6818 78.9274 44.5379 79.0638 44.3523C79.2039 44.1629 79.274 43.9394 79.274 43.6818C79.274 43.3144 79.1206 43.0265 78.8138 42.8182C78.5069 42.6061 78.0846 42.5 77.5467 42.5H75.2513V44.9318ZM86.3484 50.1818C85.5605 50.1818 84.8692 49.9943 84.2745 49.6193C83.6836 49.2443 83.2215 48.7197 82.8881 48.0455C82.5586 47.3712 82.3938 46.5833 82.3938 45.6818C82.3938 44.7727 82.5586 43.9792 82.8881 43.3011C83.2215 42.6231 83.6836 42.0966 84.2745 41.7216C84.8692 41.3466 85.5605 41.1591 86.3484 41.1591C87.1362 41.1591 87.8256 41.3466 88.4165 41.7216C89.0112 42.0966 89.4734 42.6231 89.8029 43.3011C90.1362 43.9792 90.3029 44.7727 90.3029 45.6818C90.3029 46.5833 90.1362 47.3712 89.8029 48.0455C89.4734 48.7197 89.0112 49.2443 88.4165 49.6193C87.8256 49.9943 87.1362 50.1818 86.3484 50.1818ZM86.3484 48.9773C86.9468 48.9773 87.4393 48.8239 87.8256 48.517C88.212 48.2102 88.498 47.8068 88.6836 47.3068C88.8692 46.8068 88.962 46.2652 88.962 45.6818C88.962 45.0985 88.8692 44.5549 88.6836 44.0511C88.498 43.5473 88.212 43.1402 87.8256 42.8295C87.4393 42.5189 86.9468 42.3636 86.3484 42.3636C85.7499 42.3636 85.2574 42.5189 84.8711 42.8295C84.4847 43.1402 84.1987 43.5473 84.0131 44.0511C83.8275 44.5549 83.7347 45.0985 83.7347 45.6818C83.7347 46.2652 83.8275 46.8068 84.0131 47.3068C84.1987 47.8068 84.4847 48.2102 84.8711 48.517C85.2574 48.8239 85.7499 48.9773 86.3484 48.9773ZM96.0298 42.5227V41.2727H103.121V42.5227H100.257V50H98.9161V42.5227H96.0298ZM108.009 50.1818C107.221 50.1818 106.53 49.9943 105.935 49.6193C105.344 49.2443 104.882 48.7197 104.549 48.0455C104.219 47.3712 104.054 46.5833 104.054 45.6818C104.054 44.7727 104.219 43.9792 104.549 43.3011C104.882 42.6231 105.344 42.0966 105.935 41.7216C106.53 41.3466 107.221 41.1591 108.009 41.1591C108.797 41.1591 109.486 41.3466 110.077 41.7216C110.672 42.0966 111.134 42.6231 111.464 43.3011C111.797 43.9792 111.964 44.7727 111.964 45.6818C111.964 46.5833 111.797 47.3712 111.464 48.0455C111.134 48.7197 110.672 49.2443 110.077 49.6193C109.486 49.9943 108.797 50.1818 108.009 50.1818ZM108.009 48.9773C108.607 48.9773 109.1 48.8239 109.486 48.517C109.873 48.2102 110.159 47.8068 110.344 47.3068C110.53 46.8068 110.623 46.2652 110.623 45.6818C110.623 45.0985 110.53 44.5549 110.344 44.0511C110.159 43.5473 109.873 43.1402 109.486 42.8295C109.1 42.5189 108.607 42.3636 108.009 42.3636C107.41 42.3636 106.918 42.5189 106.532 42.8295C106.145 43.1402 105.859 43.5473 105.674 44.0511C105.488 44.5549 105.395 45.0985 105.395 45.6818C105.395 46.2652 105.488 46.8068 105.674 47.3068C105.859 47.8068 106.145 48.2102 106.532 48.517C106.918 48.8239 107.41 48.9773 108.009 48.9773ZM113.85 50V41.2727H117.419C118.358 41.2727 119.104 41.4848 119.657 41.9091C120.21 42.3333 120.487 42.8939 120.487 43.5909C120.487 44.1212 120.33 44.5322 120.015 44.8239C119.701 45.1117 119.297 45.3068 118.805 45.4091C119.127 45.4545 119.439 45.5682 119.742 45.75C120.049 45.9318 120.303 46.1818 120.504 46.5C120.705 46.8144 120.805 47.2008 120.805 47.6591C120.805 48.1061 120.691 48.5057 120.464 48.858C120.237 49.2102 119.911 49.4886 119.487 49.6932C119.063 49.8977 118.555 50 117.964 50H113.85ZM115.123 48.7727H117.964C118.426 48.7727 118.788 48.6629 119.049 48.4432C119.311 48.2235 119.441 47.9242 119.441 47.5455C119.441 47.0947 119.311 46.7405 119.049 46.483C118.788 46.2216 118.426 46.0909 117.964 46.0909H115.123V48.7727ZM115.123 44.9318H117.419C117.778 44.9318 118.087 44.8826 118.345 44.7841C118.602 44.6818 118.799 44.5379 118.936 44.3523C119.076 44.1629 119.146 43.9394 119.146 43.6818C119.146 43.3144 118.992 43.0265 118.686 42.8182C118.379 42.6061 117.956 42.5 117.419 42.5H115.123V44.9318ZM125.243 50.2045C124.69 50.2045 124.188 50.1004 123.737 49.892C123.287 49.6799 122.929 49.375 122.663 48.9773C122.398 48.5758 122.266 48.0909 122.266 47.5227C122.266 47.0227 122.364 46.6174 122.561 46.3068C122.758 45.9924 123.021 45.7462 123.351 45.5682C123.68 45.3902 124.044 45.2576 124.442 45.1705C124.843 45.0795 125.247 45.0076 125.652 44.9545C126.182 44.8864 126.612 44.8352 126.942 44.8011C127.275 44.7633 127.518 44.7008 127.669 44.6136C127.824 44.5265 127.902 44.375 127.902 44.1591V44.1136C127.902 43.553 127.749 43.1174 127.442 42.8068C127.139 42.4962 126.679 42.3409 126.061 42.3409C125.421 42.3409 124.919 42.4811 124.555 42.7614C124.192 43.0417 123.936 43.3409 123.788 43.6591L122.516 43.2045C122.743 42.6742 123.046 42.2614 123.425 41.9659C123.807 41.6667 124.224 41.4583 124.675 41.3409C125.129 41.2197 125.576 41.1591 126.016 41.1591C126.296 41.1591 126.618 41.1932 126.982 41.2614C127.349 41.3258 127.703 41.4602 128.044 41.6648C128.389 41.8693 128.675 42.178 128.902 42.5909C129.129 43.0038 129.243 43.5568 129.243 44.25V50H127.902V48.8182H127.834C127.743 49.0076 127.591 49.2102 127.379 49.4261C127.167 49.642 126.885 49.8258 126.533 49.9773C126.18 50.1288 125.751 50.2045 125.243 50.2045ZM125.448 49C125.978 49 126.425 48.8958 126.788 48.6875C127.156 48.4792 127.432 48.2102 127.618 47.8807C127.807 47.5511 127.902 47.2045 127.902 46.8409V45.6136C127.845 45.6818 127.72 45.7443 127.527 45.8011C127.338 45.8542 127.118 45.9015 126.868 45.9432C126.622 45.9811 126.381 46.0152 126.146 46.0455C125.915 46.072 125.728 46.0947 125.584 46.1136C125.235 46.1591 124.91 46.233 124.607 46.3352C124.307 46.4337 124.065 46.5833 123.879 46.7841C123.698 46.9811 123.607 47.25 123.607 47.5909C123.607 48.0568 123.779 48.4091 124.124 48.6477C124.472 48.8826 124.913 49 125.448 49ZM131.53 53.2727V41.2727H132.826V42.6591H132.985C133.083 42.5076 133.22 42.3144 133.394 42.0795C133.572 41.8409 133.826 41.6288 134.155 41.4432C134.489 41.2538 134.939 41.1591 135.508 41.1591C136.243 41.1591 136.89 41.3428 137.451 41.7102C138.011 42.0777 138.449 42.5985 138.763 43.2727C139.078 43.947 139.235 44.7424 139.235 45.6591C139.235 46.5833 139.078 47.3845 138.763 48.0625C138.449 48.7367 138.013 49.2595 137.457 49.6307C136.9 49.9981 136.258 50.1818 135.53 50.1818C134.97 50.1818 134.521 50.089 134.184 49.9034C133.847 49.714 133.587 49.5 133.405 49.2614C133.224 49.0189 133.083 48.8182 132.985 48.6591H132.871V53.2727H131.53ZM132.849 45.6364C132.849 46.2955 132.945 46.8769 133.138 47.3807C133.332 47.8807 133.614 48.2727 133.985 48.5568C134.356 48.8371 134.811 48.9773 135.349 48.9773C135.909 48.9773 136.377 48.8295 136.752 48.5341C137.131 48.2348 137.415 47.8333 137.604 47.3295C137.797 46.822 137.894 46.2576 137.894 45.6364C137.894 45.0227 137.799 44.4697 137.61 43.9773C137.424 43.4811 137.142 43.089 136.763 42.8011C136.388 42.5095 135.917 42.3636 135.349 42.3636C134.803 42.3636 134.345 42.5019 133.974 42.7784C133.602 43.0511 133.322 43.4337 133.133 43.9261C132.943 44.4148 132.849 44.9848 132.849 45.6364ZM143.689 50.2045C143.136 50.2045 142.634 50.1004 142.183 49.892C141.732 49.6799 141.374 49.375 141.109 48.9773C140.844 48.5758 140.711 48.0909 140.711 47.5227C140.711 47.0227 140.81 46.6174 141.007 46.3068C141.204 45.9924 141.467 45.7462 141.797 45.5682C142.126 45.3902 142.49 45.2576 142.887 45.1705C143.289 45.0795 143.692 45.0076 144.098 44.9545C144.628 44.8864 145.058 44.8352 145.387 44.8011C145.721 44.7633 145.963 44.7008 146.115 44.6136C146.27 44.5265 146.348 44.375 146.348 44.1591V44.1136C146.348 43.553 146.194 43.1174 145.887 42.8068C145.584 42.4962 145.124 42.3409 144.507 42.3409C143.867 42.3409 143.365 42.4811 143.001 42.7614C142.637 43.0417 142.382 43.3409 142.234 43.6591L140.961 43.2045C141.189 42.6742 141.492 42.2614 141.87 41.9659C142.253 41.6667 142.67 41.4583 143.12 41.3409C143.575 41.2197 144.022 41.1591 144.461 41.1591C144.742 41.1591 145.064 41.1932 145.427 41.2614C145.795 41.3258 146.149 41.4602 146.49 41.6648C146.834 41.8693 147.12 42.178 147.348 42.5909C147.575 43.0038 147.689 43.5568 147.689 44.25V50H146.348V48.8182H146.279C146.189 49.0076 146.037 49.2102 145.825 49.4261C145.613 49.642 145.331 49.8258 144.978 49.9773C144.626 50.1288 144.196 50.2045 143.689 50.2045ZM143.893 49C144.423 49 144.87 48.8958 145.234 48.6875C145.601 48.4792 145.878 48.2102 146.064 47.8807C146.253 47.5511 146.348 47.2045 146.348 46.8409V45.6136C146.291 45.6818 146.166 45.7443 145.973 45.8011C145.783 45.8542 145.564 45.9015 145.314 45.9432C145.067 45.9811 144.827 46.0152 144.592 46.0455C144.361 46.072 144.173 46.0947 144.029 46.1136C143.681 46.1591 143.355 46.233 143.052 46.3352C142.753 46.4337 142.511 46.5833 142.325 46.7841C142.143 46.9811 142.052 47.25 142.052 47.5909C142.052 48.0568 142.225 48.4091 142.569 48.6477C142.918 48.8826 143.359 49 143.893 49ZM150.953 50.0909C150.673 50.0909 150.432 49.9905 150.232 49.7898C150.031 49.589 149.931 49.3485 149.931 49.0682C149.931 48.7879 150.031 48.5473 150.232 48.3466C150.432 48.1458 150.673 48.0455 150.953 48.0455C151.234 48.0455 151.474 48.1458 151.675 48.3466C151.876 48.5473 151.976 48.7879 151.976 49.0682C151.976 49.2538 151.929 49.4242 151.834 49.5795C151.743 49.7348 151.62 49.8598 151.465 49.9545C151.313 50.0455 151.143 50.0909 150.953 50.0909ZM150.953 43.6136C150.673 43.6136 150.432 43.5133 150.232 43.3125C150.031 43.1117 149.931 42.8712 149.931 42.5909C149.931 42.3106 150.031 42.0701 150.232 41.8693C150.432 41.6686 150.673 41.5682 150.953 41.5682C151.234 41.5682 151.474 41.6686 151.675 41.8693C151.876 42.0701 151.976 42.3106 151.976 42.5909C151.976 42.7765 151.929 42.947 151.834 43.1023C151.743 43.2576 151.62 43.3826 151.465 43.4773C151.313 43.5682 151.143 43.6136 150.953 43.6136Z" fill="#1B1716" fill-opacity="0.6"/>
<path d="M317.295 38.3636V50H315.886V39.8409H315.818L312.977 41.7273V40.2955L315.886 38.3636H317.295ZM324.845 41.2727H326.186V48.75H329.481V41.2727H330.822V48.75H334.118V41.2727H335.458V50H324.845V41.2727ZM336.56 42.5227V41.2727H343.651V42.5227H340.787V50H339.446V42.5227H336.56Z" fill="#1B1716"/>
<path d="M8.25 85L4.25 79.6591H2.81818V85H1.40909V73.3636H2.81818V78.4091H3.43182L8.09091 73.3636H9.77273L5.06818 78.4773L9.93182 85H8.25ZM14.3159 85.1818C13.528 85.1818 12.8367 84.9943 12.242 84.6193C11.6511 84.2443 11.189 83.7197 10.8556 83.0455C10.5261 82.3712 10.3613 81.5833 10.3613 80.6818C10.3613 79.7727 10.5261 78.9792 10.8556 78.3011C11.189 77.6231 11.6511 77.0966 12.242 76.7216C12.8367 76.3466 13.528 76.1591 14.3159 76.1591C15.1037 76.1591 15.7931 76.3466 16.384 76.7216C16.9787 77.0966 17.4409 77.6231 17.7704 78.3011C18.1037 78.9792 18.2704 79.7727 18.2704 80.6818C18.2704 81.5833 18.1037 82.3712 17.7704 83.0455C17.4409 83.7197 16.9787 84.2443 16.384 84.6193C15.7931 84.9943 15.1037 85.1818 14.3159 85.1818ZM14.3159 83.9773C14.9143 83.9773 15.4068 83.8239 15.7931 83.517C16.1795 83.2102 16.4655 82.8068 16.6511 82.3068C16.8367 81.8068 16.9295 81.2652 16.9295 80.6818C16.9295 80.0985 16.8367 79.5549 16.6511 79.0511C16.4655 78.5473 16.1795 78.1402 15.7931 77.8295C15.4068 77.5189 14.9143 77.3636 14.3159 77.3636C13.7174 77.3636 13.2249 77.5189 12.8386 77.8295C12.4522 78.1402 12.1662 78.5473 11.9806 79.0511C11.795 79.5549 11.7022 80.0985 11.7022 80.6818C11.7022 81.2652 11.795 81.8068 11.9806 82.3068C12.1662 82.8068 12.4522 83.2102 12.8386 83.517C13.2249 83.8239 13.7174 83.9773 14.3159 83.9773ZM19.3845 85V83.75H19.7027C19.9641 83.75 20.1819 83.6989 20.3561 83.5966C20.5304 83.4905 20.6705 83.3068 20.7766 83.0455C20.8864 82.7803 20.9698 82.4129 21.0266 81.9432C21.0872 81.4697 21.1308 80.8674 21.1573 80.1364L21.3164 76.2727H27.1345V85H25.7936V77.5227H22.5891L22.4527 80.6364C22.4224 81.3523 22.358 81.983 22.2595 82.5284C22.1648 83.0701 22.019 83.5246 21.822 83.892C21.6289 84.2595 21.3713 84.536 21.0493 84.7216C20.7273 84.9072 20.3239 85 19.8391 85H19.3845ZM30.7757 83.0227L34.9802 76.2727H36.5257V85H35.1848V78.25L31.003 85H29.4348V76.2727H30.7757V83.0227ZM45.5489 76.2727V85H44.208V76.2727H45.5489ZM45.0262 80.4318V81.6818C44.7232 81.7955 44.422 81.8958 44.1228 81.983C43.8235 82.0663 43.5091 82.1326 43.1796 82.1818C42.8501 82.2273 42.4883 82.25 42.0944 82.25C41.1057 82.25 40.3122 81.983 39.7137 81.4489C39.119 80.9148 38.8216 80.1136 38.8216 79.0455V76.25H40.1626V79.0455C40.1626 79.4924 40.2478 79.8598 40.4182 80.1477C40.5887 80.4356 40.8198 80.6496 41.1114 80.7898C41.4031 80.9299 41.7307 81 42.0944 81C42.6626 81 43.1758 80.9489 43.6341 80.8466C44.0963 80.7405 44.5603 80.6023 45.0262 80.4318ZM51.5082 85.1818C50.6673 85.1818 49.942 84.9962 49.3321 84.625C48.726 84.25 48.2582 83.7273 47.9287 83.0568C47.6029 82.3826 47.4401 81.5985 47.4401 80.7045C47.4401 79.8106 47.6029 79.0227 47.9287 78.3409C48.2582 77.6553 48.7166 77.1212 49.3037 76.7386C49.8946 76.3523 50.584 76.1591 51.3719 76.1591C51.8264 76.1591 52.2753 76.2348 52.7185 76.3864C53.1616 76.5379 53.5651 76.7841 53.9287 77.125C54.2923 77.4621 54.5821 77.9091 54.798 78.4659C55.0139 79.0227 55.1219 79.7083 55.1219 80.5227V81.0909H48.3946V79.9318H53.7582C53.7582 79.4394 53.6598 79 53.4628 78.6136C53.2696 78.2273 52.9931 77.9223 52.6332 77.6989C52.2772 77.4754 51.8567 77.3636 51.3719 77.3636C50.8378 77.3636 50.3757 77.4962 49.9855 77.7614C49.5991 78.0227 49.3018 78.3636 49.0935 78.7841C48.8851 79.2045 48.781 79.6553 48.781 80.1364V80.9091C48.781 81.5682 48.8946 82.1269 49.1219 82.5852C49.3529 83.0398 49.673 83.3864 50.0821 83.625C50.4912 83.8598 50.9666 83.9773 51.5082 83.9773C51.8605 83.9773 52.1787 83.928 52.4628 83.8295C52.7507 83.7273 52.9988 83.5758 53.2071 83.375C53.4154 83.1705 53.5764 82.9167 53.6901 82.6136L54.9855 82.9773C54.8491 83.4167 54.62 83.803 54.298 84.1364C53.976 84.4659 53.5783 84.7235 53.1048 84.9091C52.6313 85.0909 52.0991 85.1818 51.5082 85.1818ZM60.5471 85.1818C59.7289 85.1818 59.0244 84.9886 58.4335 84.6023C57.8426 84.2159 57.388 83.6837 57.0698 83.0057C56.7516 82.3277 56.5926 81.553 56.5926 80.6818C56.5926 79.7955 56.7554 79.0133 57.0812 78.3352C57.4107 77.6534 57.8691 77.1212 58.4562 76.7386C59.0471 76.3523 59.7365 76.1591 60.5244 76.1591C61.138 76.1591 61.691 76.2727 62.1835 76.5C62.6759 76.7273 63.0793 77.0455 63.3937 77.4545C63.7081 77.8636 63.9032 78.3409 63.9789 78.8864H62.638C62.5357 78.4886 62.3085 78.1364 61.9562 77.8295C61.6077 77.5189 61.138 77.3636 60.5471 77.3636C60.0244 77.3636 59.566 77.5 59.1721 77.7727C58.782 78.0417 58.477 78.4223 58.2573 78.9148C58.0414 79.4034 57.9335 79.9773 57.9335 80.6364C57.9335 81.3106 58.0395 81.8977 58.2516 82.3977C58.4676 82.8977 58.7706 83.286 59.1607 83.5625C59.5547 83.839 60.0168 83.9773 60.5471 83.9773C60.8956 83.9773 61.2119 83.9167 61.496 83.7955C61.7801 83.6742 62.0206 83.5 62.2176 83.2727C62.4145 83.0455 62.5547 82.7727 62.638 82.4545H63.9789C63.9032 82.9697 63.7157 83.4337 63.4164 83.8466C63.121 84.2557 62.7289 84.5814 62.2403 84.8239C61.7554 85.0625 61.191 85.1818 60.5471 85.1818ZM65.0916 77.5227V76.2727H72.1826V77.5227H69.3189V85H67.978V77.5227H65.0916ZM73.9785 85V76.2727H77.5467C78.4861 76.2727 79.2323 76.4848 79.7853 76.9091C80.3384 77.3333 80.6149 77.8939 80.6149 78.5909C80.6149 79.1212 80.4577 79.5322 80.1433 79.8239C79.8289 80.1117 79.4255 80.3068 78.9331 80.4091C79.255 80.4545 79.5675 80.5682 79.8706 80.75C80.1774 80.9318 80.4312 81.1818 80.6319 81.5C80.8327 81.8144 80.9331 82.2008 80.9331 82.6591C80.9331 83.1061 80.8194 83.5057 80.5922 83.858C80.3649 84.2102 80.0391 84.4886 79.6149 84.6932C79.1906 84.8977 78.6831 85 78.0922 85H73.9785ZM75.2513 83.7727H78.0922C78.5543 83.7727 78.916 83.6629 79.1774 83.4432C79.4388 83.2235 79.5694 82.9242 79.5694 82.5455C79.5694 82.0947 79.4388 81.7405 79.1774 81.483C78.916 81.2216 78.5543 81.0909 78.0922 81.0909H75.2513V83.7727ZM75.2513 79.9318H77.5467C77.9066 79.9318 78.2153 79.8826 78.4728 79.7841C78.7304 79.6818 78.9274 79.5379 79.0638 79.3523C79.2039 79.1629 79.274 78.9394 79.274 78.6818C79.274 78.3144 79.1206 78.0265 78.8138 77.8182C78.5069 77.6061 78.0846 77.5 77.5467 77.5H75.2513V79.9318ZM86.3484 85.1818C85.5605 85.1818 84.8692 84.9943 84.2745 84.6193C83.6836 84.2443 83.2215 83.7197 82.8881 83.0455C82.5586 82.3712 82.3938 81.5833 82.3938 80.6818C82.3938 79.7727 82.5586 78.9792 82.8881 78.3011C83.2215 77.6231 83.6836 77.0966 84.2745 76.7216C84.8692 76.3466 85.5605 76.1591 86.3484 76.1591C87.1362 76.1591 87.8256 76.3466 88.4165 76.7216C89.0112 77.0966 89.4734 77.6231 89.8029 78.3011C90.1362 78.9792 90.3029 79.7727 90.3029 80.6818C90.3029 81.5833 90.1362 82.3712 89.8029 83.0455C89.4734 83.7197 89.0112 84.2443 88.4165 84.6193C87.8256 84.9943 87.1362 85.1818 86.3484 85.1818ZM86.3484 83.9773C86.9468 83.9773 87.4393 83.8239 87.8256 83.517C88.212 83.2102 88.498 82.8068 88.6836 82.3068C88.8692 81.8068 88.962 81.2652 88.962 80.6818C88.962 80.0985 88.8692 79.5549 88.6836 79.0511C88.498 78.5473 88.212 78.1402 87.8256 77.8295C87.4393 77.5189 86.9468 77.3636 86.3484 77.3636C85.7499 77.3636 85.2574 77.5189 84.8711 77.8295C84.4847 78.1402 84.1987 78.5473 84.0131 79.0511C83.8275 79.5549 83.7347 80.0985 83.7347 80.6818C83.7347 81.2652 83.8275 81.8068 84.0131 82.3068C84.1987 82.8068 84.4847 83.2102 84.8711 83.517C85.2574 83.8239 85.7499 83.9773 86.3484 83.9773ZM96.5298 85V76.2727H103.393V85H102.052V77.5227H97.8707V85H96.5298ZM105.682 88.2727V76.2727H106.978V77.6591H107.137C107.235 77.5076 107.372 77.3144 107.546 77.0795C107.724 76.8409 107.978 76.6288 108.307 76.4432C108.641 76.2538 109.091 76.1591 109.66 76.1591C110.394 76.1591 111.042 76.3428 111.603 76.7102C112.163 77.0777 112.601 77.5985 112.915 78.2727C113.23 78.947 113.387 79.7424 113.387 80.6591C113.387 81.5833 113.23 82.3845 112.915 83.0625C112.601 83.7367 112.165 84.2595 111.608 84.6307C111.052 84.9981 110.41 85.1818 109.682 85.1818C109.122 85.1818 108.673 85.089 108.336 84.9034C107.999 84.714 107.739 84.5 107.557 84.2614C107.375 84.0189 107.235 83.8182 107.137 83.6591H107.023V88.2727H105.682ZM107 80.6364C107 81.2955 107.097 81.8769 107.29 82.3807C107.483 82.8807 107.766 83.2727 108.137 83.5568C108.508 83.8371 108.963 83.9773 109.5 83.9773C110.061 83.9773 110.529 83.8295 110.904 83.5341C111.283 83.2348 111.567 82.8333 111.756 82.3295C111.949 81.822 112.046 81.2576 112.046 80.6364C112.046 80.0227 111.951 79.4697 111.762 78.9773C111.576 78.4811 111.294 78.089 110.915 77.8011C110.54 77.5095 110.069 77.3636 109.5 77.3636C108.955 77.3636 108.497 77.5019 108.125 77.7784C107.754 78.0511 107.474 78.4337 107.285 78.9261C107.095 79.4148 107 79.9848 107 80.6364ZM118.818 85.1818C118.03 85.1818 117.339 84.9943 116.744 84.6193C116.153 84.2443 115.691 83.7197 115.357 83.0455C115.028 82.3712 114.863 81.5833 114.863 80.6818C114.863 79.7727 115.028 78.9792 115.357 78.3011C115.691 77.6231 116.153 77.0966 116.744 76.7216C117.339 76.3466 118.03 76.1591 118.818 76.1591C119.606 76.1591 120.295 76.3466 120.886 76.7216C121.481 77.0966 121.943 77.6231 122.272 78.3011C122.606 78.9792 122.772 79.7727 122.772 80.6818C122.772 81.5833 122.606 82.3712 122.272 83.0455C121.943 83.7197 121.481 84.2443 120.886 84.6193C120.295 84.9943 119.606 85.1818 118.818 85.1818ZM118.818 83.9773C119.416 83.9773 119.909 83.8239 120.295 83.517C120.681 83.2102 120.967 82.8068 121.153 82.3068C121.339 81.8068 121.431 81.2652 121.431 80.6818C121.431 80.0985 121.339 79.5549 121.153 79.0511C120.967 78.5473 120.681 78.1402 120.295 77.8295C119.909 77.5189 119.416 77.3636 118.818 77.3636C118.219 77.3636 117.727 77.5189 117.34 77.8295C116.954 78.1402 116.668 78.5473 116.482 79.0511C116.297 79.5549 116.204 80.0985 116.204 80.6818C116.204 81.2652 116.297 81.8068 116.482 82.3068C116.668 82.8068 116.954 83.2102 117.34 83.517C117.727 83.8239 118.219 83.9773 118.818 83.9773ZM128.205 85.1818C127.386 85.1818 126.682 84.9886 126.091 84.6023C125.5 84.2159 125.046 83.6837 124.727 83.0057C124.409 82.3277 124.25 81.553 124.25 80.6818C124.25 79.7955 124.413 79.0133 124.739 78.3352C125.068 77.6534 125.527 77.1212 126.114 76.7386C126.705 76.3523 127.394 76.1591 128.182 76.1591C128.796 76.1591 129.349 76.2727 129.841 76.5C130.333 76.7273 130.737 77.0455 131.051 77.4545C131.366 77.8636 131.561 78.3409 131.636 78.8864H130.296C130.193 78.4886 129.966 78.1364 129.614 77.8295C129.265 77.5189 128.796 77.3636 128.205 77.3636C127.682 77.3636 127.224 77.5 126.83 77.7727C126.439 78.0417 126.135 78.4223 125.915 78.9148C125.699 79.4034 125.591 79.9773 125.591 80.6364C125.591 81.3106 125.697 81.8977 125.909 82.3977C126.125 82.8977 126.428 83.286 126.818 83.5625C127.212 83.839 127.674 83.9773 128.205 83.9773C128.553 83.9773 128.869 83.9167 129.153 83.7955C129.438 83.6742 129.678 83.5 129.875 83.2727C130.072 83.0455 130.212 82.7727 130.296 82.4545H131.636C131.561 82.9697 131.373 83.4337 131.074 83.8466C130.778 84.2557 130.386 84.5814 129.898 84.8239C129.413 85.0625 128.849 85.1818 128.205 85.1818ZM138.209 83.1818L141.255 76.2727H142.528L138.755 85H137.664L133.959 76.2727H135.209L138.209 83.1818ZM134.778 76.2727V85H133.437V76.2727H134.778ZM141.641 85V76.2727H142.982V85H141.641ZM148.822 85.1818C148.034 85.1818 147.343 84.9943 146.748 84.6193C146.157 84.2443 145.695 83.7197 145.362 83.0455C145.032 82.3712 144.868 81.5833 144.868 80.6818C144.868 79.7727 145.032 78.9792 145.362 78.3011C145.695 77.6231 146.157 77.0966 146.748 76.7216C147.343 76.3466 148.034 76.1591 148.822 76.1591C149.61 76.1591 150.299 76.3466 150.89 76.7216C151.485 77.0966 151.947 77.6231 152.277 78.3011C152.61 78.9792 152.777 79.7727 152.777 80.6818C152.777 81.5833 152.61 82.3712 152.277 83.0455C151.947 83.7197 151.485 84.2443 150.89 84.6193C150.299 84.9943 149.61 85.1818 148.822 85.1818ZM148.822 83.9773C149.421 83.9773 149.913 83.8239 150.299 83.517C150.686 83.2102 150.972 82.8068 151.157 82.3068C151.343 81.8068 151.436 81.2652 151.436 80.6818C151.436 80.0985 151.343 79.5549 151.157 79.0511C150.972 78.5473 150.686 78.1402 150.299 77.8295C149.913 77.5189 149.421 77.3636 148.822 77.3636C148.224 77.3636 147.731 77.5189 147.345 77.8295C146.958 78.1402 146.672 78.5473 146.487 79.0511C146.301 79.5549 146.208 80.0985 146.208 80.6818C146.208 81.2652 146.301 81.8068 146.487 82.3068C146.672 82.8068 146.958 83.2102 147.345 83.517C147.731 83.8239 148.224 83.9773 148.822 83.9773ZM153.523 77.5227V76.2727H160.614V77.5227H157.75V85H156.409V77.5227H153.523ZM162.41 88.2727V76.2727H163.705V77.6591H163.864C163.963 77.5076 164.099 77.3144 164.273 77.0795C164.451 76.8409 164.705 76.6288 165.035 76.4432C165.368 76.2538 165.819 76.1591 166.387 76.1591C167.122 76.1591 167.77 76.3428 168.33 76.7102C168.891 77.0777 169.328 77.5985 169.643 78.2727C169.957 78.947 170.114 79.7424 170.114 80.6591C170.114 81.5833 169.957 82.3845 169.643 83.0625C169.328 83.7367 168.893 84.2595 168.336 84.6307C167.779 84.9981 167.137 85.1818 166.41 85.1818C165.849 85.1818 165.4 85.089 165.063 84.9034C164.726 84.714 164.467 84.5 164.285 84.2614C164.103 84.0189 163.963 83.8182 163.864 83.6591H163.751V88.2727H162.41ZM163.728 80.6364C163.728 81.2955 163.825 81.8769 164.018 82.3807C164.211 82.8807 164.493 83.2727 164.864 83.5568C165.236 83.8371 165.69 83.9773 166.228 83.9773C166.789 83.9773 167.256 83.8295 167.631 83.5341C168.01 83.2348 168.294 82.8333 168.484 82.3295C168.677 81.822 168.773 81.2576 168.773 80.6364C168.773 80.0227 168.679 79.4697 168.489 78.9773C168.304 78.4811 168.022 78.089 167.643 77.8011C167.268 77.5095 166.796 77.3636 166.228 77.3636C165.682 77.3636 165.224 77.5019 164.853 77.7784C164.482 78.0511 164.201 78.4337 164.012 78.9261C163.823 79.4148 163.728 79.9848 163.728 80.6364ZM175.545 85.1818C174.757 85.1818 174.066 84.9943 173.471 84.6193C172.88 84.2443 172.418 83.7197 172.085 83.0455C171.755 82.3712 171.591 81.5833 171.591 80.6818C171.591 79.7727 171.755 78.9792 172.085 78.3011C172.418 77.6231 172.88 77.0966 173.471 76.7216C174.066 76.3466 174.757 76.1591 175.545 76.1591C176.333 76.1591 177.023 76.3466 177.613 76.7216C178.208 77.0966 178.67 77.6231 179 78.3011C179.333 78.9792 179.5 79.7727 179.5 80.6818C179.5 81.5833 179.333 82.3712 179 83.0455C178.67 83.7197 178.208 84.2443 177.613 84.6193C177.023 84.9943 176.333 85.1818 175.545 85.1818ZM175.545 83.9773C176.144 83.9773 176.636 83.8239 177.023 83.517C177.409 83.2102 177.695 82.8068 177.88 82.3068C178.066 81.8068 178.159 81.2652 178.159 80.6818C178.159 80.0985 178.066 79.5549 177.88 79.0511C177.695 78.5473 177.409 78.1402 177.023 77.8295C176.636 77.5189 176.144 77.3636 175.545 77.3636C174.947 77.3636 174.454 77.5189 174.068 77.8295C173.682 78.1402 173.396 78.5473 173.21 79.0511C173.024 79.5549 172.932 80.0985 172.932 80.6818C172.932 81.2652 173.024 81.8068 173.21 82.3068C173.396 82.8068 173.682 83.2102 174.068 83.517C174.454 83.8239 174.947 83.9773 175.545 83.9773ZM181.387 85V76.2727H184.955C185.894 76.2727 186.64 76.4848 187.193 76.9091C187.746 77.3333 188.023 77.8939 188.023 78.5909C188.023 79.1212 187.866 79.5322 187.551 79.8239C187.237 80.1117 186.834 80.3068 186.341 80.4091C186.663 80.4545 186.976 80.5682 187.279 80.75C187.586 80.9318 187.839 81.1818 188.04 81.5C188.241 81.8144 188.341 82.2008 188.341 82.6591C188.341 83.1061 188.228 83.5057 188 83.858C187.773 84.2102 187.447 84.4886 187.023 84.6932C186.599 84.8977 186.091 85 185.5 85H181.387ZM182.659 83.7727H185.5C185.962 83.7727 186.324 83.6629 186.586 83.4432C186.847 83.2235 186.978 82.9242 186.978 82.5455C186.978 82.0947 186.847 81.7405 186.586 81.483C186.324 81.2216 185.962 81.0909 185.5 81.0909H182.659V83.7727ZM182.659 79.9318H184.955C185.315 79.9318 185.623 79.8826 185.881 79.7841C186.139 79.6818 186.336 79.5379 186.472 79.3523C186.612 79.1629 186.682 78.9394 186.682 78.6818C186.682 78.3144 186.529 78.0265 186.222 77.8182C185.915 77.6061 185.493 77.5 184.955 77.5H182.659V79.9318ZM191.188 85.0909C190.908 85.0909 190.667 84.9905 190.467 84.7898C190.266 84.589 190.166 84.3485 190.166 84.0682C190.166 83.7879 190.266 83.5473 190.467 83.3466C190.667 83.1458 190.908 83.0455 191.188 83.0455C191.469 83.0455 191.709 83.1458 191.91 83.3466C192.111 83.5473 192.211 83.7879 192.211 84.0682C192.211 84.2538 192.164 84.4242 192.069 84.5795C191.978 84.7348 191.855 84.8598 191.7 84.9545C191.548 85.0455 191.378 85.0909 191.188 85.0909ZM191.188 78.6136C190.908 78.6136 190.667 78.5133 190.467 78.3125C190.266 78.1117 190.166 77.8712 190.166 77.5909C190.166 77.3106 190.266 77.0701 190.467 76.8693C190.667 76.6686 190.908 76.5682 191.188 76.5682C191.469 76.5682 191.709 76.6686 191.91 76.8693C192.111 77.0701 192.211 77.3106 192.211 77.5909C192.211 77.7765 192.164 77.947 192.069 78.1023C191.978 78.2576 191.855 78.3826 191.7 78.4773C191.548 78.5682 191.378 78.6136 191.188 78.6136Z" fill="#1B1716" fill-opacity="0.6"/>
<path d="M299.205 85V83.9773L303.045 79.7727C303.496 79.2803 303.867 78.8523 304.159 78.4886C304.451 78.1212 304.667 77.7765 304.807 77.4545C304.951 77.1288 305.023 76.7879 305.023 76.4318C305.023 76.0227 304.924 75.6686 304.727 75.3693C304.534 75.0701 304.269 74.839 303.932 74.6761C303.595 74.5133 303.216 74.4318 302.795 74.4318C302.348 74.4318 301.958 74.5246 301.625 74.7102C301.295 74.892 301.04 75.1477 300.858 75.4773C300.68 75.8068 300.591 76.1932 300.591 76.6364H299.25C299.25 75.9545 299.407 75.3561 299.722 74.8409C300.036 74.3258 300.464 73.9242 301.006 73.6364C301.551 73.3485 302.163 73.2045 302.841 73.2045C303.523 73.2045 304.127 73.3485 304.653 73.6364C305.18 73.9242 305.593 74.3125 305.892 74.8011C306.191 75.2898 306.341 75.8333 306.341 76.4318C306.341 76.8598 306.263 77.2784 306.108 77.6875C305.956 78.0928 305.691 78.5455 305.312 79.0455C304.938 79.5417 304.417 80.1477 303.75 80.8636L301.136 83.6591V83.75H306.545V85H299.205ZM308.209 82.6136V81.4545L313.323 73.3636H314.164V75.1591H313.596L309.732 81.2727V81.3636H316.618V82.6136H308.209ZM313.687 85V82.2614V81.7216V73.3636H315.028V85H313.687Z" fill="#1B1716"/>
<path fill-rule="evenodd" clip-rule="evenodd" d="M326 79.5C327.751 75.9411 331.348 73.5 335.5 73.5C339.652 73.5 343.249 75.9411 345 79.5C343.249 83.0589 339.652 85.5 335.5 85.5C331.348 85.5 327.751 83.0589 326 79.5ZM335.5 82.5C335.897 82.5 336.29 82.4224 336.657 82.2716C337.023 82.1209 337.357 81.8999 337.637 81.6213C337.918 81.3427 338.141 81.012 338.293 80.6481C338.445 80.2841 338.523 79.894 338.523 79.5C338.523 79.106 338.445 78.7159 338.293 78.352C338.141 77.988 337.918 77.6573 337.637 77.3787C337.357 77.1001 337.023 76.8791 336.657 76.7284C336.29 76.5776 335.897 76.5 335.5 76.5C334.698 76.5 333.929 76.8161 333.363 77.3787C332.796 77.9413 332.477 78.7044 332.477 79.5C332.477 80.2956 332.796 81.0587 333.363 81.6213C333.929 82.1839 334.698 82.5 335.5 82.5Z" fill="#1B1716" fill-opacity="0.6"/>
</svg>
