<svg width="477" height="80" viewBox="0 0 477 80" fill="none" xmlns="http://www.w3.org/2000/svg">
<path d="M24 29.9614L22.364 28L13.4532 38.6899C13.3096 38.8612 13.1956 39.0649 13.1178 39.2892C13.04 39.5136 13 39.7542 13 39.9972C13 40.2402 13.04 40.4808 13.1178 40.7052C13.1956 40.9296 13.3096 41.1333 13.4532 41.3045L22.364 52L23.9985 50.0386L15.6351 40L24 29.9614Z" fill="#1B1716"/>
<rect x="53.5996" width="80" height="80" rx="10" fill="#D9D9D9"/>
<rect x="150.2" width="80" height="80" rx="10" fill="#D9D9D9"/>
<rect x="246.8" width="80" height="80" rx="10" fill="#D9D9D9"/>
<rect x="343.4" width="80" height="80" rx="10" fill="#D9D9D9"/>
<path d="M453 29.9614L454.636 28L463.547 38.6899C463.69 38.8612 463.804 39.0649 463.882 39.2892C463.96 39.5136 464 39.7542 464 39.9972C464 40.2402 463.96 40.4808 463.882 40.7052C463.804 40.9296 463.69 41.1333 463.547 41.3045L454.636 52L453.002 50.0386L461.365 40L453 29.9614Z" fill="#1B1716"/>
</svg>
