<svg width="960" height="120" viewBox="0 0 960 120" fill="none" xmlns="http://www.w3.org/2000/svg">
<path d="M10.3125 43L5.3125 36.3239H3.52273V43H1.76136V28.4545H3.52273V34.7614H4.28977L10.1136 28.4545H12.2159L6.33523 34.8466L12.4148 43H10.3125ZM17.474 43.2557C16.7827 43.2557 16.1554 43.1255 15.5919 42.8651C15.0285 42.5999 14.581 42.2188 14.2496 41.7216C13.9181 41.2197 13.7524 40.6136 13.7524 39.9034C13.7524 39.2784 13.8755 38.7718 14.1217 38.3835C14.3679 37.9905 14.697 37.6828 15.1089 37.4602C15.5209 37.2377 15.9754 37.072 16.4726 36.9631C16.9745 36.8494 17.4787 36.7595 17.9854 36.6932C18.6482 36.608 19.1857 36.544 19.5976 36.5014C20.0143 36.4541 20.3173 36.3759 20.5067 36.267C20.7008 36.1581 20.7979 35.9687 20.7979 35.6989V35.642C20.7979 34.9413 20.6061 34.3968 20.2226 34.0085C19.8438 33.6203 19.2685 33.4261 18.4967 33.4261C17.6965 33.4261 17.0692 33.6013 16.6146 33.9517C16.1601 34.3021 15.8405 34.6761 15.6558 35.0739L14.0649 34.5057C14.349 33.8428 14.7278 33.3267 15.2013 32.9574C15.6795 32.5833 16.2003 32.3229 16.7638 32.1761C17.332 32.0246 17.8907 31.9489 18.4399 31.9489C18.7903 31.9489 19.1928 31.9915 19.6473 32.0767C20.1066 32.1572 20.5493 32.3253 20.9754 32.581C21.4063 32.8366 21.7638 33.2225 22.0479 33.7386C22.332 34.2547 22.474 34.946 22.474 35.8125V43H20.7979V41.5227H20.7126C20.599 41.7595 20.4096 42.0128 20.1445 42.2827C19.8793 42.5526 19.5266 42.7822 19.0862 42.9716C18.6459 43.161 18.1085 43.2557 17.474 43.2557ZM17.7297 41.75C18.3926 41.75 18.9513 41.6198 19.4058 41.3594C19.8651 41.099 20.2107 40.7628 20.4428 40.3509C20.6795 39.9389 20.7979 39.5057 20.7979 39.0511V37.517C20.7268 37.6023 20.5706 37.6804 20.3291 37.7514C20.0924 37.8177 19.8178 37.8769 19.5053 37.929C19.1975 37.9763 18.8968 38.0189 18.6033 38.0568C18.3144 38.09 18.0801 38.1184 17.9001 38.142C17.4645 38.1989 17.0573 38.2912 16.6786 38.419C16.3045 38.5421 16.0015 38.7292 15.7695 38.9801C15.5422 39.2263 15.4286 39.5625 15.4286 39.9886C15.4286 40.571 15.644 41.0114 16.0749 41.3097C16.5105 41.6032 17.0621 41.75 17.7297 41.75ZM23.8489 33.6534V32.0909H32.7126V33.6534H29.133V43H27.4569V33.6534H23.8489ZM37.6014 43.2557C36.9101 43.2557 36.2827 43.1255 35.7192 42.8651C35.1558 42.5999 34.7084 42.2188 34.3769 41.7216C34.0455 41.2197 33.8798 40.6136 33.8798 39.9034C33.8798 39.2784 34.0029 38.7718 34.2491 38.3835C34.4953 37.9905 34.8244 37.6828 35.2363 37.4602C35.6482 37.2377 36.1028 37.072 36.5999 36.9631C37.1018 36.8494 37.6061 36.7595 38.1127 36.6932C38.7756 36.608 39.313 36.544 39.7249 36.5014C40.1416 36.4541 40.4446 36.3759 40.634 36.267C40.8282 36.1581 40.9252 35.9687 40.9252 35.6989V35.642C40.9252 34.9413 40.7335 34.3968 40.3499 34.0085C39.9711 33.6203 39.3959 33.4261 38.6241 33.4261C37.8239 33.4261 37.1965 33.6013 36.742 33.9517C36.2874 34.3021 35.9678 34.6761 35.7832 35.0739L34.1923 34.5057C34.4764 33.8428 34.8551 33.3267 35.3286 32.9574C35.8068 32.5833 36.3277 32.3229 36.8911 32.1761C37.4593 32.0246 38.018 31.9489 38.5673 31.9489C38.9176 31.9489 39.3201 31.9915 39.7746 32.0767C40.2339 32.1572 40.6766 32.3253 41.1028 32.581C41.5336 32.8366 41.8911 33.2225 42.1752 33.7386C42.4593 34.2547 42.6014 34.946 42.6014 35.8125V43H40.9252V41.5227H40.84C40.7264 41.7595 40.537 42.0128 40.2718 42.2827C40.0067 42.5526 39.6539 42.7822 39.2136 42.9716C38.7732 43.161 38.2358 43.2557 37.6014 43.2557ZM37.857 41.75C38.5199 41.75 39.0786 41.6198 39.5332 41.3594C39.9924 41.099 40.3381 40.7628 40.5701 40.3509C40.8068 39.9389 40.9252 39.5057 40.9252 39.0511V37.517C40.8542 37.6023 40.6979 37.6804 40.4565 37.7514C40.2197 37.8177 39.9451 37.8769 39.6326 37.929C39.3248 37.9763 39.0242 38.0189 38.7306 38.0568C38.4418 38.09 38.2074 38.1184 38.0275 38.142C37.5919 38.1989 37.1847 38.2912 36.8059 38.419C36.4318 38.5421 36.1288 38.7292 35.8968 38.9801C35.6695 39.2263 35.5559 39.5625 35.5559 39.9886C35.5559 40.571 35.7713 41.0114 36.2022 41.3097C36.6378 41.6032 37.1894 41.75 37.857 41.75ZM44.4947 43V41.4375H44.8925C45.2192 41.4375 45.4914 41.3736 45.7092 41.2457C45.927 41.1132 46.1022 40.8835 46.2348 40.5568C46.3721 40.2254 46.4763 39.7661 46.5473 39.179C46.6231 38.5871 46.6775 37.8343 46.7107 36.9205L46.9095 32.0909H54.1822V43H52.5061V33.6534H48.5004L48.33 37.5455C48.2921 38.4403 48.2116 39.2287 48.0885 39.9105C47.9701 40.5876 47.7878 41.1558 47.5416 41.6151C47.3001 42.0743 46.9782 42.42 46.5757 42.652C46.1732 42.884 45.669 43 45.0629 43H44.4947ZM61.4893 43.2273C60.5045 43.2273 59.6404 42.9929 58.897 42.5241C58.1584 42.0554 57.5807 41.3996 57.1641 40.5568C56.7521 39.714 56.5462 38.7292 56.5462 37.6023C56.5462 36.4659 56.7521 35.474 57.1641 34.6264C57.5807 33.7789 58.1584 33.1207 58.897 32.652C59.6404 32.1832 60.5045 31.9489 61.4893 31.9489C62.4742 31.9489 63.3359 32.1832 64.0746 32.652C64.8179 33.1207 65.3956 33.7789 65.8075 34.6264C66.2242 35.474 66.4325 36.4659 66.4325 37.6023C66.4325 38.7292 66.2242 39.714 65.8075 40.5568C65.3956 41.3996 64.8179 42.0554 64.0746 42.5241C63.3359 42.9929 62.4742 43.2273 61.4893 43.2273ZM61.4893 41.7216C62.2375 41.7216 62.853 41.5298 63.3359 41.1463C63.8189 40.7628 64.1764 40.2585 64.4084 39.6335C64.6404 39.0085 64.7564 38.3314 64.7564 37.6023C64.7564 36.8731 64.6404 36.1937 64.4084 35.5639C64.1764 34.9342 63.8189 34.4252 63.3359 34.0369C62.853 33.6487 62.2375 33.4545 61.4893 33.4545C60.7412 33.4545 60.1257 33.6487 59.6428 34.0369C59.1598 34.4252 58.8023 34.9342 58.5703 35.5639C58.3383 36.1937 58.2223 36.8731 58.2223 37.6023C58.2223 38.3314 58.3383 39.0085 58.5703 39.6335C58.8023 40.2585 59.1598 40.7628 59.6428 41.1463C60.1257 41.5298 60.7412 41.7216 61.4893 41.7216ZM75.5241 32.0909V33.6534H70.4673V43H68.7911V32.0909H75.5241Z" fill="#1B1716" fill-opacity="0.6"/>
<path d="M10.3125 91L5.3125 84.3239H3.52273V91H1.76136V76.4545H3.52273V82.7614H4.28977L10.1136 76.4545H12.2159L6.33523 82.8466L12.4148 91H10.3125ZM17.8948 91.2273C16.91 91.2273 16.0459 90.9929 15.3025 90.5241C14.5638 90.0554 13.9862 89.3996 13.5695 88.5568C13.1576 87.714 12.9516 86.7292 12.9516 85.6023C12.9516 84.4659 13.1576 83.474 13.5695 82.6264C13.9862 81.7789 14.5638 81.1207 15.3025 80.652C16.0459 80.1832 16.91 79.9489 17.8948 79.9489C18.8797 79.9489 19.7414 80.1832 20.48 80.652C21.2234 81.1207 21.8011 81.7789 22.213 82.6264C22.6297 83.474 22.838 84.4659 22.838 85.6023C22.838 86.7292 22.6297 87.714 22.213 88.5568C21.8011 89.3996 21.2234 90.0554 20.48 90.5241C19.7414 90.9929 18.8797 91.2273 17.8948 91.2273ZM17.8948 89.7216C18.6429 89.7216 19.2585 89.5298 19.7414 89.1463C20.2244 88.7628 20.5818 88.2585 20.8139 87.6335C21.0459 87.0085 21.1619 86.3314 21.1619 85.6023C21.1619 84.8731 21.0459 84.1937 20.8139 83.5639C20.5818 82.9342 20.2244 82.4252 19.7414 82.0369C19.2585 81.6487 18.6429 81.4545 17.8948 81.4545C17.1467 81.4545 16.5312 81.6487 16.0482 82.0369C15.5653 82.4252 15.2078 82.9342 14.9758 83.5639C14.7438 84.1937 14.6278 84.8731 14.6278 85.6023C14.6278 86.3314 14.7438 87.0085 14.9758 87.6335C15.2078 88.2585 15.5653 88.7628 16.0482 89.1463C16.5312 89.5298 17.1467 89.7216 17.8948 89.7216ZM25.1966 95.0909V80.0909H26.8159V81.8239H27.0148C27.1379 81.6345 27.3083 81.393 27.5261 81.0994C27.7487 80.8011 28.0659 80.536 28.4778 80.304C28.8945 80.0672 29.458 79.9489 30.1682 79.9489C31.0867 79.9489 31.8964 80.1785 32.5972 80.6378C33.2979 81.0971 33.8448 81.7481 34.2378 82.5909C34.6308 83.4337 34.8273 84.428 34.8273 85.5739C34.8273 86.7292 34.6308 87.7306 34.2378 88.5781C33.8448 89.4209 33.3003 90.0743 32.6043 90.5384C31.9082 90.9976 31.1057 91.2273 30.1966 91.2273C29.4958 91.2273 28.9348 91.1113 28.5134 90.8793C28.092 90.6425 27.7676 90.375 27.5403 90.0767C27.3131 89.7737 27.1379 89.5227 27.0148 89.3239H26.8727V95.0909H25.1966ZM26.8443 85.5455C26.8443 86.3693 26.9651 87.0961 27.2065 87.7259C27.448 88.3509 27.8008 88.8409 28.2648 89.196C28.7288 89.5464 29.297 89.7216 29.9693 89.7216C30.6701 89.7216 31.2548 89.5369 31.7236 89.1676C32.1971 88.7936 32.5522 88.2917 32.7889 87.6619C33.0304 87.0275 33.1511 86.322 33.1511 85.5455C33.1511 84.7784 33.0328 84.0871 32.796 83.4716C32.564 82.8513 32.2113 82.3613 31.7378 82.0014C31.269 81.6368 30.6795 81.4545 29.9693 81.4545C29.2875 81.4545 28.7146 81.6274 28.2506 81.973C27.7866 82.3139 27.4362 82.7921 27.1994 83.4077C26.9627 84.0185 26.8443 84.7311 26.8443 85.5455ZM36.5023 88.2159H38.292C38.3299 88.7083 38.5525 89.0824 38.9597 89.3381C39.3716 89.5938 39.9066 89.7216 40.5648 89.7216C41.2371 89.7216 41.8124 89.5843 42.2906 89.3097C42.7688 89.0303 43.008 88.5805 43.008 87.9602C43.008 87.5956 42.918 87.2784 42.7381 87.0085C42.5581 86.7339 42.3048 86.5208 41.9781 86.3693C41.6514 86.2178 41.2655 86.142 40.8205 86.142H38.9455V84.6364H40.8205C41.4881 84.6364 41.9805 84.4848 42.2977 84.1818C42.6197 83.8788 42.7807 83.5 42.7807 83.0455C42.7807 82.5578 42.6079 82.1671 42.2622 81.8736C41.9166 81.5753 41.4265 81.4261 40.792 81.4261C40.1528 81.4261 39.6202 81.5705 39.194 81.8594C38.7679 82.1435 38.543 82.5104 38.5193 82.9602H36.758C36.7769 82.3731 36.9568 81.8546 37.2977 81.4048C37.6386 80.9503 38.1027 80.5952 38.6898 80.3395C39.2769 80.0791 39.9492 79.9489 40.7068 79.9489C41.4739 79.9489 42.1391 80.0838 42.7026 80.3537C43.2707 80.6188 43.7087 80.9811 44.0165 81.4403C44.329 81.8949 44.4852 82.411 44.4852 82.9886C44.4852 83.6042 44.3124 84.1013 43.9668 84.4801C43.6211 84.8589 43.1879 85.1288 42.667 85.2898V85.4034C43.079 85.4318 43.4365 85.5644 43.7395 85.8011C44.0473 86.0331 44.2864 86.3385 44.4568 86.7173C44.6273 87.0914 44.7125 87.5057 44.7125 87.9602C44.7125 88.6231 44.5349 89.2008 44.1798 89.6932C43.8247 90.1809 43.337 90.5597 42.7168 90.8295C42.0965 91.0947 41.3886 91.2273 40.5932 91.2273C39.8214 91.2273 39.1301 91.1018 38.5193 90.8509C37.9085 90.5952 37.4232 90.2424 37.0634 89.7926C36.7082 89.3381 36.5212 88.8125 36.5023 88.2159ZM48.543 88.5284L53.7987 80.0909H55.7305V91H54.0544V82.5625L48.8271 91H46.8669V80.0909H48.543V88.5284ZM65.9016 84.7784V86.3409H59.8789V84.7784H65.9016ZM60.2766 80.0909V91H58.6005V80.0909H60.2766ZM67.18 80.0909V91H65.5039V80.0909H67.18ZM73.2514 91.2557C72.5601 91.2557 71.9327 91.1255 71.3693 90.8651C70.8058 90.5999 70.3584 90.2188 70.0269 89.7216C69.6955 89.2197 69.5298 88.6136 69.5298 87.9034C69.5298 87.2784 69.6529 86.7718 69.8991 86.3835C70.1453 85.9905 70.4744 85.6828 70.8863 85.4602C71.2982 85.2377 71.7528 85.072 72.2499 84.9631C72.7518 84.8494 73.2561 84.7595 73.7627 84.6932C74.4256 84.608 74.963 84.544 75.3749 84.5014C75.7916 84.4541 76.0946 84.3759 76.284 84.267C76.4782 84.1581 76.5752 83.9687 76.5752 83.6989V83.642C76.5752 82.9413 76.3835 82.3968 75.9999 82.0085C75.6211 81.6203 75.0459 81.4261 74.2741 81.4261C73.4739 81.4261 72.8465 81.6013 72.392 81.9517C71.9374 82.3021 71.6178 82.6761 71.4332 83.0739L69.8423 82.5057C70.1264 81.8428 70.5051 81.3267 70.9786 80.9574C71.4568 80.5833 71.9777 80.3229 72.5411 80.1761C73.1093 80.0246 73.668 79.9489 74.2173 79.9489C74.5676 79.9489 74.9701 79.9915 75.4246 80.0767C75.8839 80.1572 76.3266 80.3253 76.7528 80.581C77.1836 80.8366 77.5411 81.2225 77.8252 81.7386C78.1093 82.2547 78.2514 82.946 78.2514 83.8125V91H76.5752V89.5227H76.49C76.3764 89.7595 76.187 90.0128 75.9218 90.2827C75.6567 90.5526 75.3039 90.7822 74.8636 90.9716C74.4232 91.161 73.8858 91.2557 73.2514 91.2557ZM73.507 89.75C74.1699 89.75 74.7286 89.6198 75.1832 89.3594C75.6425 89.099 75.9881 88.7628 76.2201 88.3509C76.4568 87.9389 76.5752 87.5057 76.5752 87.0511V85.517C76.5042 85.6023 76.3479 85.6804 76.1065 85.7514C75.8697 85.8177 75.5951 85.8769 75.2826 85.929C74.9748 85.9763 74.6742 86.0189 74.3806 86.0568C74.0918 86.09 73.8574 86.1184 73.6775 86.142C73.2419 86.1989 72.8347 86.2912 72.4559 86.419C72.0818 86.5421 71.7788 86.7292 71.5468 86.9801C71.3195 87.2263 71.2059 87.5625 71.2059 87.9886C71.2059 88.571 71.4213 89.0114 71.8522 89.3097C72.2878 89.6032 72.8394 89.75 73.507 89.75Z" fill="#1B1716" fill-opacity="0.6"/>
<rect x="171" width="2" height="120" fill="#640000"/>
<path d="M249.761 43V28.4545H254.847C255.86 28.4545 256.696 28.6297 257.354 28.9801C258.012 29.3258 258.502 29.7921 258.824 30.3793C259.146 30.9616 259.307 31.608 259.307 32.3182C259.307 32.9432 259.196 33.4593 258.973 33.8665C258.755 34.2737 258.466 34.5956 258.107 34.8324C257.751 35.0691 257.366 35.2443 256.949 35.358V35.5C257.394 35.5284 257.841 35.6847 258.291 35.9688C258.741 36.2528 259.117 36.66 259.42 37.1903C259.723 37.7206 259.875 38.3693 259.875 39.1364C259.875 39.8655 259.709 40.5213 259.378 41.1037C259.046 41.6861 258.523 42.1477 257.808 42.4886C257.093 42.8295 256.163 43 255.017 43H249.761ZM251.523 41.4375H255.017C256.168 41.4375 256.984 41.215 257.467 40.7699C257.955 40.3201 258.199 39.7756 258.199 39.1364C258.199 38.6439 258.073 38.1894 257.822 37.7727C257.571 37.3513 257.214 37.0152 256.75 36.7642C256.286 36.5085 255.737 36.3807 255.102 36.3807H251.523V41.4375ZM251.523 34.8466H254.79C255.32 34.8466 255.798 34.7424 256.224 34.5341C256.655 34.3258 256.996 34.0322 257.247 33.6534C257.503 33.2746 257.631 32.8295 257.631 32.3182C257.631 31.679 257.408 31.1368 256.963 30.6918C256.518 30.242 255.813 30.017 254.847 30.017H251.523V34.8466ZM265.552 43.2557C264.861 43.2557 264.233 43.1255 263.67 42.8651C263.107 42.5999 262.659 42.2188 262.328 41.7216C261.996 41.2197 261.831 40.6136 261.831 39.9034C261.831 39.2784 261.954 38.7718 262.2 38.3835C262.446 37.9905 262.775 37.6828 263.187 37.4602C263.599 37.2377 264.054 37.072 264.551 36.9631C265.053 36.8494 265.557 36.7595 266.063 36.6932C266.726 36.608 267.264 36.544 267.676 36.5014C268.092 36.4541 268.395 36.3759 268.585 36.267C268.779 36.1581 268.876 35.9687 268.876 35.6989V35.642C268.876 34.9413 268.684 34.3968 268.301 34.0085C267.922 33.6203 267.347 33.4261 266.575 33.4261C265.775 33.4261 265.147 33.6013 264.693 33.9517C264.238 34.3021 263.919 34.6761 263.734 35.0739L262.143 34.5057C262.427 33.8428 262.806 33.3267 263.279 32.9574C263.758 32.5833 264.278 32.3229 264.842 32.1761C265.41 32.0246 265.969 31.9489 266.518 31.9489C266.868 31.9489 267.271 31.9915 267.725 32.0767C268.185 32.1572 268.627 32.3253 269.054 32.581C269.484 32.8366 269.842 33.2225 270.126 33.7386C270.41 34.2547 270.552 34.946 270.552 35.8125V43H268.876V41.5227H268.791C268.677 41.7595 268.488 42.0128 268.223 42.2827C267.957 42.5526 267.605 42.7822 267.164 42.9716C266.724 43.161 266.187 43.2557 265.552 43.2557ZM265.808 41.75C266.471 41.75 267.029 41.6198 267.484 41.3594C267.943 41.099 268.289 40.7628 268.521 40.3509C268.758 39.9389 268.876 39.5057 268.876 39.0511V37.517C268.805 37.6023 268.649 37.6804 268.407 37.7514C268.171 37.8177 267.896 37.8769 267.583 37.929C267.276 37.9763 266.975 38.0189 266.681 38.0568C266.393 38.09 266.158 38.1184 265.978 38.142C265.543 38.1989 265.135 38.2912 264.757 38.419C264.383 38.5421 264.08 38.7292 263.848 38.9801C263.62 39.2263 263.507 39.5625 263.507 39.9886C263.507 40.571 263.722 41.0114 264.153 41.3097C264.589 41.6032 265.14 41.75 265.808 41.75ZM273.411 32.0909H275.088V41.4375H279.207V32.0909H280.883V41.4375H285.002V32.0909H286.678V43H273.411V32.0909ZM291.216 40.5284L296.471 32.0909H298.403V43H296.727V34.5625L291.5 43H289.54V32.0909H291.216V40.5284ZM306.016 40.2159H307.806C307.844 40.7083 308.067 41.0824 308.474 41.3381C308.886 41.5938 309.421 41.7216 310.079 41.7216C310.751 41.7216 311.326 41.5843 311.805 41.3097C312.283 41.0303 312.522 40.5805 312.522 39.9602C312.522 39.5956 312.432 39.2784 312.252 39.0085C312.072 38.7339 311.819 38.5208 311.492 38.3693C311.165 38.2178 310.78 38.142 310.335 38.142H308.46V36.6364H310.335C311.002 36.6364 311.495 36.4848 311.812 36.1818C312.134 35.8788 312.295 35.5 312.295 35.0455C312.295 34.5578 312.122 34.1671 311.776 33.8736C311.431 33.5753 310.941 33.4261 310.306 33.4261C309.667 33.4261 309.134 33.5705 308.708 33.8594C308.282 34.1435 308.057 34.5104 308.033 34.9602H306.272C306.291 34.3731 306.471 33.8546 306.812 33.4048C307.153 32.9503 307.617 32.5952 308.204 32.3395C308.791 32.0791 309.463 31.9489 310.221 31.9489C310.988 31.9489 311.653 32.0838 312.217 32.3537C312.785 32.6188 313.223 32.9811 313.531 33.4403C313.843 33.8949 313.999 34.411 313.999 34.9886C313.999 35.6042 313.826 36.1013 313.481 36.4801C313.135 36.8589 312.702 37.1288 312.181 37.2898V37.4034C312.593 37.4318 312.951 37.5644 313.254 37.8011C313.561 38.0331 313.8 38.3385 313.971 38.7173C314.141 39.0914 314.227 39.5057 314.227 39.9602C314.227 40.6231 314.049 41.2008 313.694 41.6932C313.339 42.1809 312.851 42.5597 312.231 42.8295C311.611 43.0947 310.903 43.2273 310.107 43.2273C309.335 43.2273 308.644 43.1018 308.033 42.8509C307.423 42.5952 306.937 42.2424 306.577 41.7926C306.222 41.3381 306.035 40.8125 306.016 40.2159ZM319.591 43.2557C318.9 43.2557 318.273 43.1255 317.709 42.8651C317.146 42.5999 316.698 42.2188 316.367 41.7216C316.035 41.2197 315.87 40.6136 315.87 39.9034C315.87 39.2784 315.993 38.7718 316.239 38.3835C316.485 37.9905 316.814 37.6828 317.226 37.4602C317.638 37.2377 318.093 37.072 318.59 36.9631C319.092 36.8494 319.596 36.7595 320.103 36.6932C320.765 36.608 321.303 36.544 321.715 36.5014C322.131 36.4541 322.434 36.3759 322.624 36.267C322.818 36.1581 322.915 35.9687 322.915 35.6989V35.642C322.915 34.9413 322.723 34.3968 322.34 34.0085C321.961 33.6203 321.386 33.4261 320.614 33.4261C319.814 33.4261 319.186 33.6013 318.732 33.9517C318.277 34.3021 317.958 34.6761 317.773 35.0739L316.182 34.5057C316.466 33.8428 316.845 33.3267 317.318 32.9574C317.797 32.5833 318.318 32.3229 318.881 32.1761C319.449 32.0246 320.008 31.9489 320.557 31.9489C320.907 31.9489 321.31 31.9915 321.764 32.0767C322.224 32.1572 322.666 32.3253 323.093 32.581C323.523 32.8366 323.881 33.2225 324.165 33.7386C324.449 34.2547 324.591 34.946 324.591 35.8125V43H322.915V41.5227H322.83C322.716 41.7595 322.527 42.0128 322.262 42.2827C321.996 42.5526 321.644 42.7822 321.203 42.9716C320.763 43.161 320.226 43.2557 319.591 43.2557ZM319.847 41.75C320.51 41.75 321.068 41.6198 321.523 41.3594C321.982 41.099 322.328 40.7628 322.56 40.3509C322.797 39.9389 322.915 39.5057 322.915 39.0511V37.517C322.844 37.6023 322.688 37.6804 322.446 37.7514C322.21 37.8177 321.935 37.8769 321.622 37.929C321.315 37.9763 321.014 38.0189 320.72 38.0568C320.432 38.09 320.197 38.1184 320.017 38.142C319.582 38.1989 319.175 38.2912 318.796 38.419C318.422 38.5421 318.119 38.7292 317.887 38.9801C317.659 39.2263 317.546 39.5625 317.546 39.9886C317.546 40.571 317.761 41.0114 318.192 41.3097C318.628 41.6032 319.179 41.75 319.847 41.75ZM327.45 43V32.0909H329.127V36.8352H330.235L334.155 32.0909H336.314L331.911 37.3466L336.371 43H334.212L330.632 38.3977H329.127V43H327.45ZM341.203 43.2557C340.512 43.2557 339.884 43.1255 339.321 42.8651C338.757 42.5999 338.31 42.2188 337.978 41.7216C337.647 41.2197 337.481 40.6136 337.481 39.9034C337.481 39.2784 337.604 38.7718 337.851 38.3835C338.097 37.9905 338.426 37.6828 338.838 37.4602C339.25 37.2377 339.704 37.072 340.201 36.9631C340.703 36.8494 341.208 36.7595 341.714 36.6932C342.377 36.608 342.915 36.544 343.326 36.5014C343.743 36.4541 344.046 36.3759 344.236 36.267C344.43 36.1581 344.527 35.9687 344.527 35.6989V35.642C344.527 34.9413 344.335 34.3968 343.951 34.0085C343.573 33.6203 342.997 33.4261 342.226 33.4261C341.425 33.4261 340.798 33.6013 340.344 33.9517C339.889 34.3021 339.569 34.6761 339.385 35.0739L337.794 34.5057C338.078 33.8428 338.457 33.3267 338.93 32.9574C339.408 32.5833 339.929 32.3229 340.493 32.1761C341.061 32.0246 341.62 31.9489 342.169 31.9489C342.519 31.9489 342.922 31.9915 343.376 32.0767C343.835 32.1572 344.278 32.3253 344.704 32.581C345.135 32.8366 345.493 33.2225 345.777 33.7386C346.061 34.2547 346.203 34.946 346.203 35.8125V43H344.527V41.5227H344.442C344.328 41.7595 344.139 42.0128 343.873 42.2827C343.608 42.5526 343.255 42.7822 342.815 42.9716C342.375 43.161 341.837 43.2557 341.203 43.2557ZM341.459 41.75C342.121 41.75 342.68 41.6198 343.135 41.3594C343.594 41.099 343.94 40.7628 344.172 40.3509C344.408 39.9389 344.527 39.5057 344.527 39.0511V37.517C344.456 37.6023 344.3 37.6804 344.058 37.7514C343.821 37.8177 343.547 37.8769 343.234 37.929C342.926 37.9763 342.626 38.0189 342.332 38.0568C342.043 38.09 341.809 38.1184 341.629 38.142C341.193 38.1989 340.786 38.2912 340.407 38.419C340.033 38.5421 339.73 38.7292 339.498 38.9801C339.271 39.2263 339.157 39.5625 339.157 39.9886C339.157 40.571 339.373 41.0114 339.804 41.3097C340.239 41.6032 340.791 41.75 341.459 41.75ZM348.38 40.2159H350.17C350.208 40.7083 350.431 41.0824 350.838 41.3381C351.25 41.5938 351.785 41.7216 352.443 41.7216C353.115 41.7216 353.691 41.5843 354.169 41.3097C354.647 41.0303 354.886 40.5805 354.886 39.9602C354.886 39.5956 354.796 39.2784 354.616 39.0085C354.436 38.7339 354.183 38.5208 353.856 38.3693C353.53 38.2178 353.144 38.142 352.699 38.142H350.824V36.6364H352.699C353.366 36.6364 353.859 36.4848 354.176 36.1818C354.498 35.8788 354.659 35.5 354.659 35.0455C354.659 34.5578 354.486 34.1671 354.14 33.8736C353.795 33.5753 353.305 33.4261 352.67 33.4261C352.031 33.4261 351.498 33.5705 351.072 33.8594C350.646 34.1435 350.421 34.5104 350.397 34.9602H348.636C348.655 34.3731 348.835 33.8546 349.176 33.4048C349.517 32.9503 349.981 32.5952 350.568 32.3395C351.155 32.0791 351.827 31.9489 352.585 31.9489C353.352 31.9489 354.017 32.0838 354.581 32.3537C355.149 32.6188 355.587 32.9811 355.895 33.4403C356.207 33.8949 356.363 34.411 356.363 34.9886C356.363 35.6042 356.191 36.1013 355.845 36.4801C355.499 36.8589 355.066 37.1288 354.545 37.2898V37.4034C354.957 37.4318 355.315 37.5644 355.618 37.8011C355.925 38.0331 356.164 38.3385 356.335 38.7173C356.505 39.0914 356.591 39.5057 356.591 39.9602C356.591 40.6231 356.413 41.2008 356.058 41.6932C355.703 42.1809 355.215 42.5597 354.595 42.8295C353.975 43.0947 353.267 43.2273 352.471 43.2273C351.7 43.2273 351.008 43.1018 350.397 42.8509C349.787 42.5952 349.301 42.2424 348.941 41.7926C348.586 41.3381 348.399 40.8125 348.38 40.2159ZM360.194 36.0398H363.319C364.597 36.0398 365.575 36.3641 366.252 37.0128C366.929 37.6615 367.268 38.483 367.268 39.4773C367.268 40.1307 367.116 40.7249 366.813 41.2599C366.51 41.7902 366.065 42.214 365.478 42.5312C364.891 42.8438 364.171 43 363.319 43H358.745V32.0909H360.421V41.4375H363.319C363.982 41.4375 364.526 41.2623 364.952 40.9119C365.379 40.5616 365.592 40.1117 365.592 39.5625C365.592 38.9848 365.379 38.5137 364.952 38.1491C364.526 37.7846 363.982 37.6023 363.319 37.6023H360.194V36.0398ZM369.001 43V32.0909H370.677V43H369.001Z" fill="#1B1716" fill-opacity="0.6"/>
<path d="M249.761 91V76.4545H254.847C255.86 76.4545 256.696 76.6297 257.354 76.9801C258.012 77.3258 258.502 77.7921 258.824 78.3793C259.146 78.9616 259.307 79.608 259.307 80.3182C259.307 80.9432 259.196 81.4593 258.973 81.8665C258.755 82.2737 258.466 82.5956 258.107 82.8324C257.751 83.0691 257.366 83.2443 256.949 83.358V83.5C257.394 83.5284 257.841 83.6847 258.291 83.9688C258.741 84.2528 259.117 84.66 259.42 85.1903C259.723 85.7206 259.875 86.3693 259.875 87.1364C259.875 87.8655 259.709 88.5213 259.378 89.1037C259.046 89.6861 258.523 90.1477 257.808 90.4886C257.093 90.8295 256.163 91 255.017 91H249.761ZM251.523 89.4375H255.017C256.168 89.4375 256.984 89.215 257.467 88.7699C257.955 88.3201 258.199 87.7756 258.199 87.1364C258.199 86.6439 258.073 86.1894 257.822 85.7727C257.571 85.3513 257.214 85.0152 256.75 84.7642C256.286 84.5085 255.737 84.3807 255.102 84.3807H251.523V89.4375ZM251.523 82.8466H254.79C255.32 82.8466 255.798 82.7424 256.224 82.5341C256.655 82.3258 256.996 82.0322 257.247 81.6534C257.503 81.2746 257.631 80.8295 257.631 80.3182C257.631 79.679 257.408 79.1368 256.963 78.6918C256.518 78.242 255.813 78.017 254.847 78.017H251.523V82.8466ZM265.552 91.2557C264.861 91.2557 264.233 91.1255 263.67 90.8651C263.107 90.5999 262.659 90.2188 262.328 89.7216C261.996 89.2197 261.831 88.6136 261.831 87.9034C261.831 87.2784 261.954 86.7718 262.2 86.3835C262.446 85.9905 262.775 85.6828 263.187 85.4602C263.599 85.2377 264.054 85.072 264.551 84.9631C265.053 84.8494 265.557 84.7595 266.063 84.6932C266.726 84.608 267.264 84.544 267.676 84.5014C268.092 84.4541 268.395 84.3759 268.585 84.267C268.779 84.1581 268.876 83.9687 268.876 83.6989V83.642C268.876 82.9413 268.684 82.3968 268.301 82.0085C267.922 81.6203 267.347 81.4261 266.575 81.4261C265.775 81.4261 265.147 81.6013 264.693 81.9517C264.238 82.3021 263.919 82.6761 263.734 83.0739L262.143 82.5057C262.427 81.8428 262.806 81.3267 263.279 80.9574C263.758 80.5833 264.278 80.3229 264.842 80.1761C265.41 80.0246 265.969 79.9489 266.518 79.9489C266.868 79.9489 267.271 79.9915 267.725 80.0767C268.185 80.1572 268.627 80.3253 269.054 80.581C269.484 80.8366 269.842 81.2225 270.126 81.7386C270.41 82.2547 270.552 82.946 270.552 83.8125V91H268.876V89.5227H268.791C268.677 89.7595 268.488 90.0128 268.223 90.2827C267.957 90.5526 267.605 90.7822 267.164 90.9716C266.724 91.161 266.187 91.2557 265.552 91.2557ZM265.808 89.75C266.471 89.75 267.029 89.6198 267.484 89.3594C267.943 89.099 268.289 88.7628 268.521 88.3509C268.758 87.9389 268.876 87.5057 268.876 87.0511V85.517C268.805 85.6023 268.649 85.6804 268.407 85.7514C268.171 85.8177 267.896 85.8769 267.583 85.929C267.276 85.9763 266.975 86.0189 266.681 86.0568C266.393 86.09 266.158 86.1184 265.978 86.142C265.543 86.1989 265.135 86.2912 264.757 86.419C264.383 86.5421 264.08 86.7292 263.848 86.9801C263.62 87.2263 263.507 87.5625 263.507 87.9886C263.507 88.571 263.722 89.0114 264.153 89.3097C264.589 89.6032 265.14 89.75 265.808 89.75ZM273.411 80.0909H275.088V89.4375H279.207V80.0909H280.883V89.4375H285.002V80.0909H286.678V91H273.411V80.0909ZM294.965 91V80.0909H303.544V91H301.868V81.6534H296.641V91H294.965ZM306.405 95.0909V80.0909H308.025V81.8239H308.223C308.346 81.6345 308.517 81.393 308.735 81.0994C308.957 80.8011 309.275 80.536 309.686 80.304C310.103 80.0672 310.667 79.9489 311.377 79.9489C312.295 79.9489 313.105 80.1785 313.806 80.6378C314.507 81.0971 315.053 81.7481 315.446 82.5909C315.839 83.4337 316.036 84.428 316.036 85.5739C316.036 86.7292 315.839 87.7306 315.446 88.5781C315.053 89.4209 314.509 90.0743 313.813 90.5384C313.117 90.9976 312.314 91.2273 311.405 91.2273C310.704 91.2273 310.143 91.1113 309.722 90.8793C309.301 90.6425 308.976 90.375 308.749 90.0767C308.522 89.7737 308.346 89.5227 308.223 89.3239H308.081V95.0909H306.405ZM308.053 85.5455C308.053 86.3693 308.174 87.0961 308.415 87.7259C308.657 88.3509 309.009 88.8409 309.473 89.196C309.937 89.5464 310.506 89.7216 311.178 89.7216C311.879 89.7216 312.463 89.5369 312.932 89.1676C313.406 88.7936 313.761 88.2917 313.998 87.6619C314.239 87.0275 314.36 86.322 314.36 85.5455C314.36 84.7784 314.241 84.0871 314.005 83.4716C313.773 82.8513 313.42 82.3613 312.946 82.0014C312.478 81.6368 311.888 81.4545 311.178 81.4545C310.496 81.4545 309.923 81.6274 309.459 81.973C308.995 82.3139 308.645 82.7921 308.408 83.4077C308.171 84.0185 308.053 84.7311 308.053 85.5455ZM322.825 91.2273C321.84 91.2273 320.976 90.9929 320.232 90.5241C319.494 90.0554 318.916 89.3996 318.499 88.5568C318.087 87.714 317.881 86.7292 317.881 85.6023C317.881 84.4659 318.087 83.474 318.499 82.6264C318.916 81.7789 319.494 81.1207 320.232 80.652C320.976 80.1832 321.84 79.9489 322.825 79.9489C323.809 79.9489 324.671 80.1832 325.41 80.652C326.153 81.1207 326.731 81.7789 327.143 82.6264C327.559 83.474 327.768 84.4659 327.768 85.6023C327.768 86.7292 327.559 87.714 327.143 88.5568C326.731 89.3996 326.153 90.0554 325.41 90.5241C324.671 90.9929 323.809 91.2273 322.825 91.2273ZM322.825 89.7216C323.573 89.7216 324.188 89.5298 324.671 89.1463C325.154 88.7628 325.512 88.2585 325.744 87.6335C325.976 87.0085 326.092 86.3314 326.092 85.6023C326.092 84.8731 325.976 84.1937 325.744 83.5639C325.512 82.9342 325.154 82.4252 324.671 82.0369C324.188 81.6487 323.573 81.4545 322.825 81.4545C322.076 81.4545 321.461 81.6487 320.978 82.0369C320.495 82.4252 320.137 82.9342 319.905 83.5639C319.673 84.1937 319.557 84.8731 319.557 85.6023C319.557 86.3314 319.673 87.0085 319.905 87.6335C320.137 88.2585 320.495 88.7628 320.978 89.1463C321.461 89.5298 322.076 89.7216 322.825 89.7216ZM334.558 94.7216V76.4545H336.234V94.7216H334.558ZM334.558 91.2273C333.819 91.2273 333.147 91.0947 332.541 90.8295C331.935 90.5597 331.414 90.1785 330.979 89.6861C330.543 89.1889 330.207 88.5947 329.97 87.9034C329.733 87.2121 329.615 86.4451 329.615 85.6023C329.615 84.75 329.733 83.9782 329.97 83.2869C330.207 82.5909 330.543 81.9943 330.979 81.4972C331.414 81 331.935 80.6188 332.541 80.3537C333.147 80.0838 333.819 79.9489 334.558 79.9489H335.069V91.2273H334.558ZM334.558 89.7216H334.842V81.4545H334.558C333.999 81.4545 333.514 81.5682 333.102 81.7955C332.69 82.018 332.349 82.3234 332.079 82.7116C331.814 83.0952 331.615 83.5355 331.483 84.0327C331.355 84.5298 331.291 85.053 331.291 85.6023C331.291 86.3314 331.407 87.0085 331.639 87.6335C331.871 88.2585 332.229 88.7628 332.712 89.1463C333.194 89.5298 333.81 89.7216 334.558 89.7216ZM336.234 91.2273H335.723V79.9489H336.234C336.973 79.9489 337.645 80.0838 338.251 80.3537C338.857 80.6188 339.378 81 339.814 81.4972C340.249 81.9943 340.586 82.5909 340.822 83.2869C341.059 83.9782 341.177 84.75 341.177 85.6023C341.177 86.4451 341.059 87.2121 340.822 87.9034C340.586 88.5947 340.249 89.1889 339.814 89.6861C339.378 90.1785 338.857 90.5597 338.251 90.8295C337.645 91.0947 336.973 91.2273 336.234 91.2273ZM336.234 89.7216C336.798 89.7216 337.283 89.6127 337.69 89.3949C338.102 89.1723 338.441 88.8693 338.706 88.4858C338.976 88.0975 339.175 87.6572 339.302 87.1648C339.435 86.6676 339.501 86.1468 339.501 85.6023C339.501 84.8731 339.385 84.1937 339.153 83.5639C338.921 82.9342 338.564 82.4252 338.081 82.0369C337.598 81.6487 336.982 81.4545 336.234 81.4545H335.95V89.7216H336.234ZM345.216 88.5284L350.471 80.0909H352.403V91H350.727V82.5625L345.5 91H343.54V80.0909H345.216V88.5284ZM354.307 91V89.4375H354.705C355.032 89.4375 355.304 89.3736 355.522 89.2457C355.74 89.1132 355.915 88.8835 356.047 88.5568C356.185 88.2254 356.289 87.7661 356.36 87.179C356.436 86.5871 356.49 85.8343 356.523 84.9205L356.722 80.0909H363.995V91H362.319V81.6534H358.313L358.142 85.5455C358.105 86.4403 358.024 87.2287 357.901 87.9105C357.783 88.5876 357.6 89.1558 357.354 89.6151C357.113 90.0743 356.791 90.42 356.388 90.652C355.986 90.884 355.481 91 354.875 91H354.307ZM368.319 84.0398H371.444C372.722 84.0398 373.7 84.3641 374.377 85.0128C375.054 85.6615 375.393 86.483 375.393 87.4773C375.393 88.1307 375.241 88.7249 374.938 89.2599C374.635 89.7902 374.19 90.214 373.603 90.5312C373.016 90.8438 372.296 91 371.444 91H366.87V80.0909H368.546V89.4375H371.444C372.107 89.4375 372.651 89.2623 373.077 88.9119C373.504 88.5616 373.717 88.1117 373.717 87.5625C373.717 86.9848 373.504 86.5137 373.077 86.1491C372.651 85.7846 372.107 85.6023 371.444 85.6023H368.319V84.0398Z" fill="#1B1716" fill-opacity="0.6"/>
<rect x="478" width="2" height="120" fill="#640000"/>
<path d="M565.312 43L560.312 36.3239H558.523V43H556.761V28.4545H558.523V34.7614H559.29L565.114 28.4545H567.216L561.335 34.8466L567.415 43H565.312ZM572.895 43.2273C571.91 43.2273 571.046 42.9929 570.302 42.5241C569.564 42.0554 568.986 41.3996 568.57 40.5568C568.158 39.714 567.952 38.7292 567.952 37.6023C567.952 36.4659 568.158 35.474 568.57 34.6264C568.986 33.7789 569.564 33.1207 570.302 32.652C571.046 32.1832 571.91 31.9489 572.895 31.9489C573.88 31.9489 574.741 32.1832 575.48 32.652C576.223 33.1207 576.801 33.7789 577.213 34.6264C577.63 35.474 577.838 36.4659 577.838 37.6023C577.838 38.7292 577.63 39.714 577.213 40.5568C576.801 41.3996 576.223 42.0554 575.48 42.5241C574.741 42.9929 573.88 43.2273 572.895 43.2273ZM572.895 41.7216C573.643 41.7216 574.258 41.5298 574.741 41.1463C575.224 40.7628 575.582 40.2585 575.814 39.6335C576.046 39.0085 576.162 38.3314 576.162 37.6023C576.162 36.8731 576.046 36.1937 575.814 35.5639C575.582 34.9342 575.224 34.4252 574.741 34.0369C574.258 33.6487 573.643 33.4545 572.895 33.4545C572.147 33.4545 571.531 33.6487 571.048 34.0369C570.565 34.4252 570.208 34.9342 569.976 35.5639C569.744 36.1937 569.628 36.8731 569.628 37.6023C569.628 38.3314 569.744 39.0085 569.976 39.6335C570.208 40.2585 570.565 40.7628 571.048 41.1463C571.531 41.5298 572.147 41.7216 572.895 41.7216ZM587.498 36.7784V38.3409H581.475V36.7784H587.498ZM581.873 32.0909V43H580.197V32.0909H581.873ZM588.776 32.0909V43H587.1V32.0909H588.776ZM590.153 33.6534V32.0909H599.016V33.6534H595.437V43H593.761V33.6534H590.153ZM603.905 43.2557C603.214 43.2557 602.587 43.1255 602.023 42.8651C601.46 42.5999 601.012 42.2188 600.681 41.7216C600.349 41.2197 600.184 40.6136 600.184 39.9034C600.184 39.2784 600.307 38.7718 600.553 38.3835C600.799 37.9905 601.128 37.6828 601.54 37.4602C601.952 37.2377 602.407 37.072 602.904 36.9631C603.406 36.8494 603.91 36.7595 604.417 36.6932C605.079 36.608 605.617 36.544 606.029 36.5014C606.446 36.4541 606.749 36.3759 606.938 36.267C607.132 36.1581 607.229 35.9687 607.229 35.6989V35.642C607.229 34.9413 607.037 34.3968 606.654 34.0085C606.275 33.6203 605.7 33.4261 604.928 33.4261C604.128 33.4261 603.5 33.6013 603.046 33.9517C602.591 34.3021 602.272 34.6761 602.087 35.0739L600.496 34.5057C600.78 33.8428 601.159 33.3267 601.633 32.9574C602.111 32.5833 602.632 32.3229 603.195 32.1761C603.763 32.0246 604.322 31.9489 604.871 31.9489C605.222 31.9489 605.624 31.9915 606.079 32.0767C606.538 32.1572 606.981 32.3253 607.407 32.581C607.838 32.8366 608.195 33.2225 608.479 33.7386C608.763 34.2547 608.905 34.946 608.905 35.8125V43H607.229V41.5227H607.144C607.03 41.7595 606.841 42.0128 606.576 42.2827C606.311 42.5526 605.958 42.7822 605.517 42.9716C605.077 43.161 604.54 43.2557 603.905 43.2557ZM604.161 41.75C604.824 41.75 605.383 41.6198 605.837 41.3594C606.296 41.099 606.642 40.7628 606.874 40.3509C607.111 39.9389 607.229 39.5057 607.229 39.0511V37.517C607.158 37.6023 607.002 37.6804 606.76 37.7514C606.524 37.8177 606.249 37.8769 605.937 37.929C605.629 37.9763 605.328 38.0189 605.035 38.0568C604.746 38.09 604.511 38.1184 604.331 38.142C603.896 38.1989 603.489 38.2912 603.11 38.419C602.736 38.5421 602.433 38.7292 602.201 38.9801C601.973 39.2263 601.86 39.5625 601.86 39.9886C601.86 40.571 602.075 41.0114 602.506 41.3097C602.942 41.6032 603.493 41.75 604.161 41.75ZM611.765 43V32.0909H613.441V36.8352H614.549L618.469 32.0909H620.628L616.225 37.3466L620.685 43H618.526L614.946 38.3977H613.441V43H611.765ZM621.682 33.6534V32.0909H630.545V33.6534H626.966V43H625.29V33.6534H621.682ZM634.239 36.0398H637.364C638.643 36.0398 639.62 36.3641 640.297 37.0128C640.975 37.6615 641.313 38.483 641.313 39.4773C641.313 40.1307 641.162 40.7249 640.859 41.2599C640.555 41.7902 640.11 42.214 639.523 42.5312C638.936 42.8438 638.216 43 637.364 43H632.79V32.0909H634.466V41.4375H637.364C638.027 41.4375 638.572 41.2623 638.998 40.9119C639.424 40.5616 639.637 40.1117 639.637 39.5625C639.637 38.9848 639.424 38.5137 638.998 38.1491C638.572 37.7846 638.027 37.6023 637.364 37.6023H634.239V36.0398ZM643.046 43V32.0909H644.722V43H643.046Z" fill="#1B1716" fill-opacity="0.6"/>
<path d="M569.034 83.7273C569.034 85.2614 568.757 86.5871 568.203 87.7045C567.649 88.822 566.889 89.6837 565.923 90.2898C564.957 90.8958 563.854 91.1989 562.614 91.1989C561.373 91.1989 560.27 90.8958 559.304 90.2898C558.338 89.6837 557.578 88.822 557.024 87.7045C556.47 86.5871 556.193 85.2614 556.193 83.7273C556.193 82.1932 556.47 80.8674 557.024 79.75C557.578 78.6326 558.338 77.7708 559.304 77.1648C560.27 76.5587 561.373 76.2557 562.614 76.2557C563.854 76.2557 564.957 76.5587 565.923 77.1648C566.889 77.7708 567.649 78.6326 568.203 79.75C568.757 80.8674 569.034 82.1932 569.034 83.7273ZM567.33 83.7273C567.33 82.4678 567.119 81.4048 566.697 80.5384C566.281 79.6719 565.715 79.0161 565 78.571C564.29 78.1259 563.494 77.9034 562.614 77.9034C561.733 77.9034 560.935 78.1259 560.22 78.571C559.51 79.0161 558.944 79.6719 558.523 80.5384C558.106 81.4048 557.898 82.4678 557.898 83.7273C557.898 84.9867 558.106 86.0497 558.523 86.9162C558.944 87.7827 559.51 88.4384 560.22 88.8835C560.935 89.3286 561.733 89.5511 562.614 89.5511C563.494 89.5511 564.29 89.3286 565 88.8835C565.715 88.4384 566.281 87.7827 566.697 86.9162C567.119 86.0497 567.33 84.9867 567.33 83.7273ZM576.993 91V80.0909H581.454C582.628 80.0909 583.561 80.3561 584.252 80.8864C584.943 81.4167 585.289 82.1174 585.289 82.9886C585.289 83.6515 585.092 84.1652 584.699 84.5298C584.306 84.8897 583.802 85.1335 583.187 85.2614C583.589 85.3182 583.98 85.4602 584.359 85.6875C584.742 85.9148 585.059 86.2273 585.31 86.625C585.561 87.018 585.687 87.5009 585.687 88.0739C585.687 88.6326 585.545 89.1321 585.261 89.5724C584.976 90.0128 584.569 90.3608 584.039 90.6165C583.509 90.8722 582.874 91 582.136 91H576.993ZM578.584 89.4659H582.136C582.713 89.4659 583.165 89.3286 583.492 89.054C583.819 88.7794 583.982 88.4053 583.982 87.9318C583.982 87.3684 583.819 86.9257 583.492 86.6037C583.165 86.277 582.713 86.1136 582.136 86.1136H578.584V89.4659ZM578.584 84.6648H581.454C581.904 84.6648 582.289 84.6032 582.611 84.4801C582.933 84.3523 583.18 84.1723 583.35 83.9403C583.525 83.7036 583.613 83.4242 583.613 83.1023C583.613 82.643 583.421 82.2831 583.038 82.0227C582.654 81.7576 582.126 81.625 581.454 81.625H578.584V84.6648ZM587.058 91V89.4375H587.456C587.782 89.4375 588.055 89.3736 588.273 89.2457C588.49 89.1132 588.666 88.8835 588.798 88.5568C588.935 88.2254 589.04 87.7661 589.111 87.179C589.186 86.5871 589.241 85.8343 589.274 84.9205L589.473 80.0909H596.746V91H595.069V81.6534H591.064L590.893 85.5455C590.855 86.4403 590.775 87.2287 590.652 87.9105C590.533 88.5876 590.351 89.1558 590.105 89.6151C589.863 90.0743 589.541 90.42 589.139 90.652C588.737 90.884 588.232 91 587.626 91H587.058ZM602.831 91.2557C602.14 91.2557 601.512 91.1255 600.949 90.8651C600.385 90.5999 599.938 90.2188 599.607 89.7216C599.275 89.2197 599.109 88.6136 599.109 87.9034C599.109 87.2784 599.233 86.7718 599.479 86.3835C599.725 85.9905 600.054 85.6828 600.466 85.4602C600.878 85.2377 601.332 85.072 601.83 84.9631C602.332 84.8494 602.836 84.7595 603.342 84.6932C604.005 84.608 604.543 84.544 604.955 84.5014C605.371 84.4541 605.674 84.3759 605.864 84.267C606.058 84.1581 606.155 83.9687 606.155 83.6989V83.642C606.155 82.9413 605.963 82.3968 605.58 82.0085C605.201 81.6203 604.626 81.4261 603.854 81.4261C603.054 81.4261 602.426 81.6013 601.972 81.9517C601.517 82.3021 601.198 82.6761 601.013 83.0739L599.422 82.5057C599.706 81.8428 600.085 81.3267 600.558 80.9574C601.037 80.5833 601.557 80.3229 602.121 80.1761C602.689 80.0246 603.248 79.9489 603.797 79.9489C604.147 79.9489 604.55 79.9915 605.004 80.0767C605.464 80.1572 605.906 80.3253 606.332 80.581C606.763 80.8366 607.121 81.2225 607.405 81.7386C607.689 82.2547 607.831 82.946 607.831 83.8125V91H606.155V89.5227H606.07C605.956 89.7595 605.767 90.0128 605.501 90.2827C605.236 90.5526 604.884 90.7822 604.443 90.9716C604.003 91.161 603.466 91.2557 602.831 91.2557ZM603.087 89.75C603.75 89.75 604.308 89.6198 604.763 89.3594C605.222 89.099 605.568 88.7628 605.8 88.3509C606.037 87.9389 606.155 87.5057 606.155 87.0511V85.517C606.084 85.6023 605.928 85.6804 605.686 85.7514C605.449 85.8177 605.175 85.8769 604.862 85.929C604.555 85.9763 604.254 86.0189 603.96 86.0568C603.671 86.09 603.437 86.1184 603.257 86.142C602.822 86.1989 602.414 86.2912 602.036 86.419C601.662 86.5421 601.358 86.7292 601.126 86.9801C600.899 87.2263 600.786 87.5625 600.786 87.9886C600.786 88.571 601.001 89.0114 601.432 89.3097C601.867 89.6032 602.419 89.75 603.087 89.75ZM609.526 94.125V89.4375H610.435C610.657 89.2055 610.849 88.9545 611.01 88.6847C611.171 88.4148 611.311 88.0952 611.429 87.7259C611.552 87.3518 611.656 86.8973 611.741 86.3622C611.827 85.8224 611.902 85.1714 611.969 84.4091L612.338 80.0909H619.27V89.4375H620.946V94.125H619.27V91H611.202V94.125H609.526ZM612.338 89.4375H617.594V81.6534H613.901L613.616 84.4091C613.498 85.5502 613.351 86.5469 613.176 87.3991C613.001 88.2514 612.722 88.9309 612.338 89.4375ZM627.545 91.2273C626.494 91.2273 625.587 90.9953 624.825 90.5312C624.067 90.0625 623.482 89.4091 623.07 88.571C622.663 87.7282 622.459 86.7481 622.459 85.6307C622.459 84.5133 622.663 83.5284 623.07 82.6761C623.482 81.8191 624.055 81.1515 624.789 80.6733C625.528 80.1903 626.389 79.9489 627.374 79.9489C627.942 79.9489 628.503 80.0436 629.057 80.233C629.611 80.4223 630.116 80.7301 630.57 81.1562C631.025 81.5777 631.387 82.1364 631.657 82.8324C631.927 83.5284 632.062 84.3854 632.062 85.4034V86.1136H623.653V84.6648H630.357C630.357 84.0492 630.234 83.5 629.988 83.017C629.746 82.5341 629.401 82.1529 628.951 81.8736C628.506 81.5942 627.98 81.4545 627.374 81.4545C626.707 81.4545 626.129 81.6203 625.641 81.9517C625.158 82.2784 624.787 82.7045 624.526 83.2301C624.266 83.7557 624.136 84.3191 624.136 84.9205V85.8864C624.136 86.7102 624.278 87.4086 624.562 87.9815C624.851 88.5497 625.251 88.983 625.762 89.2812C626.273 89.5748 626.868 89.7216 627.545 89.7216C627.985 89.7216 628.383 89.66 628.738 89.5369C629.098 89.4091 629.408 89.2197 629.668 88.9688C629.929 88.7131 630.13 88.3958 630.272 88.017L631.891 88.4716C631.721 89.0208 631.434 89.5038 631.032 89.9205C630.629 90.3324 630.132 90.6544 629.54 90.8864C628.949 91.1136 628.283 91.2273 627.545 91.2273ZM633.446 91V89.4375H633.843C634.17 89.4375 634.442 89.3736 634.66 89.2457C634.878 89.1132 635.053 88.8835 635.186 88.5568C635.323 88.2254 635.427 87.7661 635.498 87.179C635.574 86.5871 635.628 85.8343 635.661 84.9205L635.86 80.0909H643.133V91H641.457V81.6534H637.451L637.281 85.5455C637.243 86.4403 637.162 87.2287 637.039 87.9105C636.921 88.5876 636.739 89.1558 636.492 89.6151C636.251 90.0743 635.929 90.42 635.526 90.652C635.124 90.884 634.62 91 634.014 91H633.446ZM647.457 84.0398H650.582C651.861 84.0398 652.838 84.3641 653.515 85.0128C654.192 85.6615 654.531 86.483 654.531 87.4773C654.531 88.1307 654.38 88.7249 654.076 89.2599C653.773 89.7902 653.328 90.214 652.741 90.5312C652.154 90.8438 651.434 91 650.582 91H646.008V80.0909H647.684V89.4375H650.582C651.245 89.4375 651.79 89.2623 652.216 88.9119C652.642 88.5616 652.855 88.1117 652.855 87.5625C652.855 86.9848 652.642 86.5137 652.216 86.1491C651.79 85.7846 651.245 85.6023 650.582 85.6023H647.457V84.0398ZM665.462 80.0909V89.4375H666.996V94.5227H665.32V91H656.883V80.0909H658.559V89.4375H663.786V80.0909H665.462ZM673.835 91.2273C672.783 91.2273 671.877 90.9953 671.114 90.5312C670.357 90.0625 669.772 89.4091 669.36 88.571C668.953 87.7282 668.749 86.7481 668.749 85.6307C668.749 84.5133 668.953 83.5284 669.36 82.6761C669.772 81.8191 670.345 81.1515 671.079 80.6733C671.817 80.1903 672.679 79.9489 673.664 79.9489C674.232 79.9489 674.793 80.0436 675.347 80.233C675.901 80.4223 676.406 80.7301 676.86 81.1562C677.315 81.5777 677.677 82.1364 677.947 82.8324C678.217 83.5284 678.352 84.3854 678.352 85.4034V86.1136H669.942V84.6648H676.647C676.647 84.0492 676.524 83.5 676.278 83.017C676.036 82.5341 675.691 82.1529 675.241 81.8736C674.796 81.5942 674.27 81.4545 673.664 81.4545C672.996 81.4545 672.419 81.6203 671.931 81.9517C671.448 82.2784 671.076 82.7045 670.816 83.2301C670.556 83.7557 670.425 84.3191 670.425 84.9205V85.8864C670.425 86.7102 670.567 87.4086 670.852 87.9815C671.14 88.5497 671.54 88.983 672.052 89.2812C672.563 89.5748 673.157 89.7216 673.835 89.7216C674.275 89.7216 674.673 89.66 675.028 89.5369C675.388 89.4091 675.698 89.2197 675.958 88.9688C676.219 88.7131 676.42 88.3958 676.562 88.017L678.181 88.4716C678.011 89.0208 677.724 89.5038 677.322 89.9205C676.919 90.3324 676.422 90.6544 675.83 90.8864C675.238 91.1136 674.573 91.2273 673.835 91.2273Z" fill="#1B1716" fill-opacity="0.6"/>
<rect x="780" width="2" height="120" fill="#640000"/>
<path d="M859.528 43.1989V41.5511H860.438C860.788 41.5511 861.081 41.4825 861.318 41.3452C861.56 41.2079 861.759 41.0303 861.915 40.8125C862.076 40.5947 862.208 40.3674 862.312 40.1307L862.54 39.5909L857.511 28.4545H859.415L863.42 37.4886L867.085 28.4545H868.96L863.932 40.642C863.733 41.0966 863.506 41.518 863.25 41.9062C862.999 42.2945 862.656 42.607 862.22 42.8438C861.789 43.0805 861.205 43.1989 860.466 43.1989H859.528ZM873.703 43.2273C872.681 43.2273 871.8 42.9858 871.061 42.5028C870.323 42.0199 869.755 41.3546 869.357 40.5071C868.959 39.6596 868.76 38.6913 868.76 37.6023C868.76 36.4943 868.964 35.5166 869.371 34.669C869.783 33.8168 870.356 33.1515 871.09 32.6733C871.828 32.1903 872.69 31.9489 873.675 31.9489C874.442 31.9489 875.133 32.0909 875.749 32.375C876.364 32.6591 876.869 33.0568 877.262 33.5682C877.655 34.0795 877.898 34.6761 877.993 35.358H876.317C876.189 34.8608 875.905 34.4205 875.465 34.0369C875.029 33.6487 874.442 33.4545 873.703 33.4545C873.05 33.4545 872.477 33.625 871.985 33.9659C871.497 34.3021 871.116 34.7779 870.841 35.3935C870.571 36.0043 870.436 36.7216 870.436 37.5455C870.436 38.3883 870.569 39.1222 870.834 39.7472C871.104 40.3722 871.483 40.8575 871.97 41.2031C872.463 41.5488 873.041 41.7216 873.703 41.7216C874.139 41.7216 874.534 41.6458 874.889 41.4943C875.245 41.3428 875.545 41.125 875.791 40.8409C876.038 40.5568 876.213 40.2159 876.317 39.8182H877.993C877.898 40.4621 877.664 41.0421 877.29 41.5582C876.921 42.0696 876.431 42.4768 875.82 42.7798C875.214 43.0781 874.508 43.2273 873.703 43.2273ZM879.278 43V41.4375H879.675C880.002 41.4375 880.274 41.3736 880.492 41.2457C880.71 41.1132 880.885 40.8835 881.018 40.5568C881.155 40.2254 881.259 39.7661 881.33 39.179C881.406 38.5871 881.46 37.8343 881.493 36.9205L881.692 32.0909H888.965V43H887.289V33.6534H883.283L883.113 37.5455C883.075 38.4403 882.994 39.2287 882.871 39.9105C882.753 40.5876 882.571 41.1558 882.324 41.6151C882.083 42.0743 881.761 42.42 881.359 42.652C880.956 42.884 880.452 43 879.846 43H879.278ZM896.272 43.2273C895.287 43.2273 894.423 42.9929 893.68 42.5241C892.941 42.0554 892.364 41.3996 891.947 40.5568C891.535 39.714 891.329 38.7292 891.329 37.6023C891.329 36.4659 891.535 35.474 891.947 34.6264C892.364 33.7789 892.941 33.1207 893.68 32.652C894.423 32.1832 895.287 31.9489 896.272 31.9489C897.257 31.9489 898.119 32.1832 898.857 32.652C899.601 33.1207 900.178 33.7789 900.59 34.6264C901.007 35.474 901.215 36.4659 901.215 37.6023C901.215 38.7292 901.007 39.714 900.59 40.5568C900.178 41.3996 899.601 42.0554 898.857 42.5241C898.119 42.9929 897.257 43.2273 896.272 43.2273ZM896.272 41.7216C897.02 41.7216 897.636 41.5298 898.119 41.1463C898.602 40.7628 898.959 40.2585 899.191 39.6335C899.423 39.0085 899.539 38.3314 899.539 37.6023C899.539 36.8731 899.423 36.1937 899.191 35.5639C898.959 34.9342 898.602 34.4252 898.119 34.0369C897.636 33.6487 897.02 33.4545 896.272 33.4545C895.524 33.4545 894.909 33.6487 894.426 34.0369C893.943 34.4252 893.585 34.9342 893.353 35.5639C893.121 36.1937 893.005 36.8731 893.005 37.6023C893.005 38.3314 893.121 39.0085 893.353 39.6335C893.585 40.2585 893.943 40.7628 894.426 41.1463C894.909 41.5298 895.524 41.7216 896.272 41.7216ZM903.574 43V32.0909H908.034C909.208 32.0909 910.141 32.3561 910.832 32.8864C911.524 33.4167 911.869 34.1174 911.869 34.9886C911.869 35.6515 911.673 36.1652 911.28 36.5298C910.887 36.8897 910.383 37.1335 909.767 37.2614C910.17 37.3182 910.56 37.4602 910.939 37.6875C911.323 37.9148 911.64 38.2273 911.891 38.625C912.142 39.018 912.267 39.5009 912.267 40.0739C912.267 40.6326 912.125 41.1321 911.841 41.5724C911.557 42.0128 911.15 42.3608 910.619 42.6165C910.089 42.8722 909.455 43 908.716 43H903.574ZM905.165 41.4659H908.716C909.294 41.4659 909.746 41.3286 910.073 41.054C910.399 40.7794 910.563 40.4053 910.563 39.9318C910.563 39.3684 910.399 38.9257 910.073 38.6037C909.746 38.277 909.294 38.1136 908.716 38.1136H905.165V41.4659ZM905.165 36.6648H908.034C908.484 36.6648 908.87 36.6032 909.192 36.4801C909.514 36.3523 909.76 36.1723 909.93 35.9403C910.106 35.7036 910.193 35.4242 910.193 35.1023C910.193 34.643 910.001 34.2831 909.618 34.0227C909.234 33.7576 908.707 33.625 908.034 33.625H905.165V36.6648ZM916.281 40.5284L921.536 32.0909H923.468V43H921.792V34.5625L916.565 43H914.604V32.0909H916.281V40.5284ZM932.901 43V33.625H930.003C929.349 33.625 928.836 33.7765 928.462 34.0795C928.088 34.3826 927.901 34.7992 927.901 35.3295C927.901 35.8504 928.069 36.2599 928.405 36.5582C928.746 36.8565 929.212 37.0057 929.804 37.0057H933.327V38.5682H929.804C929.065 38.5682 928.428 38.438 927.893 38.1776C927.358 37.9171 926.946 37.5455 926.658 37.0625C926.369 36.5748 926.224 35.9972 926.224 35.3295C926.224 34.6572 926.376 34.0795 926.679 33.5966C926.982 33.1136 927.415 32.742 927.979 32.4815C928.547 32.2211 929.222 32.0909 930.003 32.0909H934.491V43H932.901ZM925.628 43L928.724 37.5739H930.543L927.446 43H925.628Z" fill="#1B1716" fill-opacity="0.6"/>
<path d="M871.034 83.7273C871.034 85.2614 870.757 86.5871 870.203 87.7045C869.649 88.822 868.889 89.6837 867.923 90.2898C866.957 90.8958 865.854 91.1989 864.614 91.1989C863.373 91.1989 862.27 90.8958 861.304 90.2898C860.338 89.6837 859.578 88.822 859.024 87.7045C858.47 86.5871 858.193 85.2614 858.193 83.7273C858.193 82.1932 858.47 80.8674 859.024 79.75C859.578 78.6326 860.338 77.7708 861.304 77.1648C862.27 76.5587 863.373 76.2557 864.614 76.2557C865.854 76.2557 866.957 76.5587 867.923 77.1648C868.889 77.7708 869.649 78.6326 870.203 79.75C870.757 80.8674 871.034 82.1932 871.034 83.7273ZM869.33 83.7273C869.33 82.4678 869.119 81.4048 868.697 80.5384C868.281 79.6719 867.715 79.0161 867 78.571C866.29 78.1259 865.494 77.9034 864.614 77.9034C863.733 77.9034 862.935 78.1259 862.22 78.571C861.51 79.0161 860.944 79.6719 860.523 80.5384C860.106 81.4048 859.898 82.4678 859.898 83.7273C859.898 84.9867 860.106 86.0497 860.523 86.9162C860.944 87.7827 861.51 88.4384 862.22 88.8835C862.935 89.3286 863.733 89.5511 864.614 89.5511C865.494 89.5511 866.29 89.3286 867 88.8835C867.715 88.4384 868.281 87.7827 868.697 86.9162C869.119 86.0497 869.33 84.9867 869.33 83.7273ZM878 94.7216V76.4545H879.676V94.7216H878ZM878 91.2273C877.262 91.2273 876.589 91.0947 875.983 90.8295C875.377 90.5597 874.856 90.1785 874.421 89.6861C873.985 89.1889 873.649 88.5947 873.412 87.9034C873.175 87.2121 873.057 86.4451 873.057 85.6023C873.057 84.75 873.175 83.9782 873.412 83.2869C873.649 82.5909 873.985 81.9943 874.421 81.4972C874.856 81 875.377 80.6188 875.983 80.3537C876.589 80.0838 877.262 79.9489 878 79.9489H878.512V91.2273H878ZM878 89.7216H878.284V81.4545H878C877.442 81.4545 876.956 81.5682 876.544 81.7955C876.132 82.018 875.791 82.3234 875.522 82.7116C875.256 83.0952 875.058 83.5355 874.925 84.0327C874.797 84.5298 874.733 85.053 874.733 85.6023C874.733 86.3314 874.849 87.0085 875.081 87.6335C875.313 88.2585 875.671 88.7628 876.154 89.1463C876.637 89.5298 877.252 89.7216 878 89.7216ZM879.676 91.2273H879.165V79.9489H879.676C880.415 79.9489 881.087 80.0838 881.693 80.3537C882.3 80.6188 882.82 81 883.256 81.4972C883.692 81.9943 884.028 82.5909 884.264 83.2869C884.501 83.9782 884.62 84.75 884.62 85.6023C884.62 86.4451 884.501 87.2121 884.264 87.9034C884.028 88.5947 883.692 89.1889 883.256 89.6861C882.82 90.1785 882.3 90.5597 881.693 90.8295C881.087 91.0947 880.415 91.2273 879.676 91.2273ZM879.676 89.7216C880.24 89.7216 880.725 89.6127 881.132 89.3949C881.544 89.1723 881.883 88.8693 882.148 88.4858C882.418 88.0975 882.617 87.6572 882.745 87.1648C882.877 86.6676 882.943 86.1468 882.943 85.6023C882.943 84.8731 882.827 84.1937 882.595 83.5639C882.363 82.9342 882.006 82.4252 881.523 82.0369C881.04 81.6487 880.425 81.4545 879.676 81.4545H879.392V89.7216H879.676ZM891.414 94.7216V76.4545H893.09V94.7216H891.414ZM891.414 91.2273C890.675 91.2273 890.003 91.0947 889.397 90.8295C888.79 90.5597 888.27 90.1785 887.834 89.6861C887.398 89.1889 887.062 88.5947 886.825 87.9034C886.589 87.2121 886.47 86.4451 886.47 85.6023C886.47 84.75 886.589 83.9782 886.825 83.2869C887.062 82.5909 887.398 81.9943 887.834 81.4972C888.27 81 888.79 80.6188 889.397 80.3537C890.003 80.0838 890.675 79.9489 891.414 79.9489H891.925V91.2273H891.414ZM891.414 89.7216H891.698V81.4545H891.414C890.855 81.4545 890.37 81.5682 889.958 81.7955C889.546 82.018 889.205 82.3234 888.935 82.7116C888.67 83.0952 888.471 83.5355 888.338 84.0327C888.21 84.5298 888.147 85.053 888.147 85.6023C888.147 86.3314 888.263 87.0085 888.495 87.6335C888.727 88.2585 889.084 88.7628 889.567 89.1463C890.05 89.5298 890.665 89.7216 891.414 89.7216ZM893.09 91.2273H892.578V79.9489H893.09C893.828 79.9489 894.501 80.0838 895.107 80.3537C895.713 80.6188 896.234 81 896.669 81.4972C897.105 81.9943 897.441 82.5909 897.678 83.2869C897.915 83.9782 898.033 84.75 898.033 85.6023C898.033 86.4451 897.915 87.2121 897.678 87.9034C897.441 88.5947 897.105 89.1889 896.669 89.6861C896.234 90.1785 895.713 90.5597 895.107 90.8295C894.501 91.0947 893.828 91.2273 893.09 91.2273ZM893.09 89.7216C893.653 89.7216 894.138 89.6127 894.546 89.3949C894.958 89.1723 895.296 88.8693 895.561 88.4858C895.831 88.0975 896.03 87.6572 896.158 87.1648C896.29 86.6676 896.357 86.1468 896.357 85.6023C896.357 84.8731 896.241 84.1937 896.009 83.5639C895.777 82.9342 895.419 82.4252 894.936 82.0369C894.453 81.6487 893.838 81.4545 893.09 81.4545H892.806V89.7216H893.09ZM904.969 91.2273C903.918 91.2273 903.011 90.9953 902.249 90.5312C901.491 90.0625 900.906 89.4091 900.494 88.571C900.087 87.7282 899.884 86.7481 899.884 85.6307C899.884 84.5133 900.087 83.5284 900.494 82.6761C900.906 81.8191 901.479 81.1515 902.213 80.6733C902.952 80.1903 903.814 79.9489 904.798 79.9489C905.367 79.9489 905.928 80.0436 906.482 80.233C907.036 80.4223 907.54 80.7301 907.994 81.1562C908.449 81.5777 908.811 82.1364 909.081 82.8324C909.351 83.5284 909.486 84.3854 909.486 85.4034V86.1136H901.077V84.6648H907.781C907.781 84.0492 907.658 83.5 907.412 83.017C907.171 82.5341 906.825 82.1529 906.375 81.8736C905.93 81.5942 905.404 81.4545 904.798 81.4545C904.131 81.4545 903.553 81.6203 903.065 81.9517C902.583 82.2784 902.211 82.7045 901.95 83.2301C901.69 83.7557 901.56 84.3191 901.56 84.9205V85.8864C901.56 86.7102 901.702 87.4086 901.986 87.9815C902.275 88.5497 902.675 88.983 903.186 89.2812C903.698 89.5748 904.292 89.7216 904.969 89.7216C905.409 89.7216 905.807 89.66 906.162 89.5369C906.522 89.4091 906.832 89.2197 907.092 88.9688C907.353 88.7131 907.554 88.3958 907.696 88.017L909.315 88.4716C909.145 89.0208 908.859 89.5038 908.456 89.9205C908.054 90.3324 907.556 90.6544 906.965 90.8864C906.373 91.1136 905.708 91.2273 904.969 91.2273ZM911.836 95.0909V80.0909H913.455V81.8239H913.654C913.777 81.6345 913.947 81.393 914.165 81.0994C914.388 80.8011 914.705 80.536 915.117 80.304C915.534 80.0672 916.097 79.9489 916.807 79.9489C917.726 79.9489 918.535 80.1785 919.236 80.6378C919.937 81.0971 920.484 81.7481 920.877 82.5909C921.27 83.4337 921.466 84.428 921.466 85.5739C921.466 86.7292 921.27 87.7306 920.877 88.5781C920.484 89.4209 919.939 90.0743 919.243 90.5384C918.547 90.9976 917.745 91.2273 916.836 91.2273C916.135 91.2273 915.574 91.1113 915.152 90.8793C914.731 90.6425 914.407 90.375 914.179 90.0767C913.952 89.7737 913.777 89.5227 913.654 89.3239H913.512V95.0909H911.836ZM913.483 85.5455C913.483 86.3693 913.604 87.0961 913.846 87.7259C914.087 88.3509 914.44 88.8409 914.904 89.196C915.368 89.5464 915.936 89.7216 916.608 89.7216C917.309 89.7216 917.894 89.5369 918.363 89.1676C918.836 88.7936 919.191 88.2917 919.428 87.6619C919.669 87.0275 919.79 86.322 919.79 85.5455C919.79 84.7784 919.672 84.0871 919.435 83.4716C919.203 82.8513 918.85 82.3613 918.377 82.0014C917.908 81.6368 917.319 81.4545 916.608 81.4545C915.927 81.4545 915.354 81.6274 914.89 81.973C914.426 82.3139 914.075 82.7921 913.838 83.4077C913.602 84.0185 913.483 84.7311 913.483 85.5455ZM922.397 81.6534V80.0909H931.261V81.6534H927.681V91H926.005V81.6534H922.397ZM936.15 91.2557C935.459 91.2557 934.831 91.1255 934.268 90.8651C933.704 90.5999 933.257 90.2188 932.925 89.7216C932.594 89.2197 932.428 88.6136 932.428 87.9034C932.428 87.2784 932.551 86.7718 932.798 86.3835C933.044 85.9905 933.373 85.6828 933.785 85.4602C934.197 85.2377 934.651 85.072 935.148 84.9631C935.65 84.8494 936.155 84.7595 936.661 84.6932C937.324 84.608 937.861 84.544 938.273 84.5014C938.69 84.4541 938.993 84.3759 939.182 84.267C939.377 84.1581 939.474 83.9687 939.474 83.6989V83.642C939.474 82.9413 939.282 82.3968 938.898 82.0085C938.52 81.6203 937.944 81.4261 937.173 81.4261C936.372 81.4261 935.745 81.6013 935.29 81.9517C934.836 82.3021 934.516 82.6761 934.332 83.0739L932.741 82.5057C933.025 81.8428 933.404 81.3267 933.877 80.9574C934.355 80.5833 934.876 80.3229 935.44 80.1761C936.008 80.0246 936.566 79.9489 937.116 79.9489C937.466 79.9489 937.869 79.9915 938.323 80.0767C938.782 80.1572 939.225 80.3253 939.651 80.581C940.082 80.8366 940.44 81.2225 940.724 81.7386C941.008 82.2547 941.15 82.946 941.15 83.8125V91H939.474V89.5227H939.388C939.275 89.7595 939.085 90.0128 938.82 90.2827C938.555 90.5526 938.202 90.7822 937.762 90.9716C937.322 91.161 936.784 91.2557 936.15 91.2557ZM936.405 89.75C937.068 89.75 937.627 89.6198 938.082 89.3594C938.541 89.099 938.887 88.7628 939.119 88.3509C939.355 87.9389 939.474 87.5057 939.474 87.0511V85.517C939.403 85.6023 939.246 85.6804 939.005 85.7514C938.768 85.8177 938.494 85.8769 938.181 85.929C937.873 85.9763 937.573 86.0189 937.279 86.0568C936.99 86.09 936.756 86.1184 936.576 86.142C936.14 86.1989 935.733 86.2912 935.354 86.419C934.98 86.5421 934.677 86.7292 934.445 86.9801C934.218 87.2263 934.104 87.5625 934.104 87.9886C934.104 88.571 934.32 89.0114 934.751 89.3097C935.186 89.6032 935.738 89.75 936.405 89.75Z" fill="#1B1716" fill-opacity="0.6"/>
</svg>
