<svg width="1216" height="32" viewBox="0 0 1216 32" fill="none" xmlns="http://www.w3.org/2000/svg">
<rect x="1" y="1" width="30" height="30" rx="9" stroke="#1B1716" stroke-width="2"/>
<path d="M11.7145 10.2198C11.8553 10.0791 12.0463 10.0002 12.2454 10.0002C12.4445 10.0002 12.6355 10.0791 12.7763 10.2198L15.78 13.2198C15.9168 13.3612 15.9925 13.5507 15.9907 13.7473C15.989 13.9439 15.9101 14.1321 15.7708 14.2711C15.6316 14.4102 15.4433 14.489 15.2464 14.4908C15.0495 14.4925 14.8598 14.4169 14.7182 14.2802L12.9963 12.5605V21.25C12.9963 21.4489 12.9172 21.6397 12.7764 21.7803C12.6355 21.921 12.4445 22 12.2454 22C12.0462 22 11.8552 21.921 11.7144 21.7803C11.5736 21.6397 11.4945 21.4489 11.4945 21.25V12.5605L9.7726 14.2802C9.63097 14.4169 9.44129 14.4925 9.2444 14.4908C9.04751 14.489 8.85917 14.4102 8.71994 14.2711C8.58071 14.1321 8.50174 13.9439 8.50003 13.7473C8.49832 13.5507 8.57401 13.3612 8.71079 13.2198L11.7145 10.2198ZM19.0037 19.4395V10.75C19.0037 10.5511 19.0828 10.3603 19.2236 10.2197C19.3645 10.079 19.5555 10 19.7546 10C19.9538 10 20.1448 10.079 20.2856 10.2197C20.4264 10.3603 20.5055 10.5511 20.5055 10.75V19.4395L22.2274 17.7198C22.369 17.5831 22.5587 17.5075 22.7556 17.5092C22.9525 17.511 23.1408 17.5898 23.2801 17.7289C23.4193 17.8679 23.4983 18.0561 23.5 18.2527C23.5017 18.4493 23.426 18.6388 23.2892 18.7802L20.2855 21.7803C20.1447 21.9209 19.9537 21.9998 19.7546 21.9998C19.5555 21.9998 19.3645 21.9209 19.2237 21.7803L16.22 18.7802C16.0832 18.6388 16.0075 18.4493 16.0093 18.2527C16.011 18.0561 16.0899 17.8679 16.2292 17.7289C16.3684 17.5898 16.5567 17.511 16.7536 17.5092C16.9505 17.5075 17.1402 17.5831 17.2818 17.7198L19.0037 19.4395Z" fill="#1B1716"/>
<path d="M57.4091 21.5V9.86364H61.4773C62.2879 9.86364 62.9564 10.0038 63.483 10.2841C64.0095 10.5606 64.4015 10.9337 64.6591 11.4034C64.9167 11.8693 65.0455 12.3864 65.0455 12.9545C65.0455 13.4545 64.9564 13.8674 64.7784 14.1932C64.6042 14.5189 64.3731 14.7765 64.0852 14.9659C63.8011 15.1553 63.4924 15.2955 63.1591 15.3864V15.5C63.5152 15.5227 63.8731 15.6477 64.233 15.875C64.5928 16.1023 64.8939 16.428 65.1364 16.8523C65.3788 17.2765 65.5 17.7955 65.5 18.4091C65.5 18.9924 65.3674 19.517 65.1023 19.983C64.8371 20.4489 64.4186 20.8182 63.8466 21.0909C63.2746 21.3636 62.5303 21.5 61.6136 21.5H57.4091ZM58.8182 20.25H61.6136C62.5341 20.25 63.1875 20.072 63.5739 19.7159C63.964 19.3561 64.1591 18.9205 64.1591 18.4091C64.1591 18.0152 64.0587 17.6515 63.858 17.3182C63.6572 16.9811 63.3712 16.7121 63 16.5114C62.6288 16.3068 62.1894 16.2045 61.6818 16.2045H58.8182V20.25ZM58.8182 14.9773H61.4318C61.8561 14.9773 62.2386 14.8939 62.5795 14.7273C62.9242 14.5606 63.197 14.3258 63.3977 14.0227C63.6023 13.7197 63.7045 13.3636 63.7045 12.9545C63.7045 12.4432 63.5265 12.0095 63.1705 11.6534C62.8144 11.2936 62.25 11.1136 61.4773 11.1136H58.8182V14.9773ZM68.8144 19.5227L73.019 12.7727H74.5644V21.5H73.2235V14.75L69.0417 21.5H67.4735V12.7727H68.8144V19.5227ZM82.7013 16.5227V17.7727H77.8831V16.5227H82.7013ZM78.2013 12.7727V21.5H76.8604V12.7727H78.2013ZM83.724 12.7727V21.5H82.3831V12.7727H83.724ZM84.8254 14.0227V12.7727H91.9163V14.0227H89.0527V21.5H87.7118V14.0227H84.8254ZM95.8273 21.7045C95.2743 21.7045 94.7724 21.6004 94.3216 21.392C93.8709 21.1799 93.5129 20.875 93.2478 20.4773C92.9826 20.0758 92.8501 19.5909 92.8501 19.0227C92.8501 18.5227 92.9485 18.1174 93.1455 17.8068C93.3425 17.4924 93.6057 17.2462 93.9353 17.0682C94.2648 16.8902 94.6285 16.7576 95.0262 16.6705C95.4277 16.5795 95.8311 16.5076 96.2364 16.4545C96.7667 16.3864 97.1966 16.3352 97.5262 16.3011C97.8595 16.2633 98.102 16.2008 98.2535 16.1136C98.4088 16.0265 98.4864 15.875 98.4864 15.6591V15.6136C98.4864 15.053 98.333 14.6174 98.0262 14.3068C97.7232 13.9962 97.2629 13.8409 96.6455 13.8409C96.0054 13.8409 95.5035 13.9811 95.1398 14.2614C94.7762 14.5417 94.5205 14.8409 94.3728 15.1591L93.1001 14.7045C93.3273 14.1742 93.6304 13.7614 94.0091 13.4659C94.3917 13.1667 94.8084 12.9583 95.2591 12.8409C95.7137 12.7197 96.1607 12.6591 96.6001 12.6591C96.8804 12.6591 97.2023 12.6932 97.566 12.7614C97.9334 12.8258 98.2876 12.9602 98.6285 13.1648C98.9732 13.3693 99.2591 13.678 99.4864 14.0909C99.7137 14.5038 99.8273 15.0568 99.8273 15.75V21.5H98.4864V20.3182H98.4182C98.3273 20.5076 98.1758 20.7102 97.9637 20.9261C97.7516 21.142 97.4694 21.3258 97.1171 21.4773C96.7648 21.6288 96.3349 21.7045 95.8273 21.7045ZM96.0319 20.5C96.5622 20.5 97.0091 20.3958 97.3728 20.1875C97.7402 19.9792 98.0167 19.7102 98.2023 19.3807C98.3917 19.0511 98.4864 18.7045 98.4864 18.3409V17.1136C98.4296 17.1818 98.3046 17.2443 98.1114 17.3011C97.922 17.3542 97.7023 17.4015 97.4523 17.4432C97.2061 17.4811 96.9656 17.5152 96.7307 17.5455C96.4997 17.572 96.3122 17.5947 96.1682 17.6136C95.8198 17.6591 95.494 17.733 95.191 17.8352C94.8917 17.9337 94.6493 18.0833 94.4637 18.2841C94.2819 18.4811 94.191 18.75 94.191 19.0909C94.191 19.5568 94.3633 19.9091 94.708 20.1477C95.0565 20.3826 95.4978 20.5 96.0319 20.5ZM101.569 21.5L105.115 17.0682L101.615 12.7727H103.206L106.115 16.5H106.842V12.7727H108.183V16.5H108.888L111.797 12.7727H113.388L109.91 17.0682L113.433 21.5H111.819L108.865 17.75H108.183V21.5H106.842V17.75H106.16L103.183 21.5H101.569ZM121.03 16.5227V17.7727H116.212V16.5227H121.03ZM116.53 12.7727V21.5H115.189V12.7727H116.53ZM122.053 12.7727V21.5H120.712V12.7727H122.053ZM126.91 21.7045C126.357 21.7045 125.855 21.6004 125.404 21.392C124.953 21.1799 124.595 20.875 124.33 20.4773C124.065 20.0758 123.933 19.5909 123.933 19.0227C123.933 18.5227 124.031 18.1174 124.228 17.8068C124.425 17.4924 124.688 17.2462 125.018 17.0682C125.347 16.8902 125.711 16.7576 126.109 16.6705C126.51 16.5795 126.914 16.5076 127.319 16.4545C127.849 16.3864 128.279 16.3352 128.609 16.3011C128.942 16.2633 129.184 16.2008 129.336 16.1136C129.491 16.0265 129.569 15.875 129.569 15.6591V15.6136C129.569 15.053 129.416 14.6174 129.109 14.3068C128.806 13.9962 128.345 13.8409 127.728 13.8409C127.088 13.8409 126.586 13.9811 126.222 14.2614C125.859 14.5417 125.603 14.8409 125.455 15.1591L124.183 14.7045C124.41 14.1742 124.713 13.7614 125.092 13.4659C125.474 13.1667 125.891 12.9583 126.342 12.8409C126.796 12.7197 127.243 12.6591 127.683 12.6591C127.963 12.6591 128.285 12.6932 128.648 12.7614C129.016 12.8258 129.37 12.9602 129.711 13.1648C130.056 13.3693 130.342 13.678 130.569 14.0909C130.796 14.5038 130.91 15.0568 130.91 15.75V21.5H129.569V20.3182H129.501C129.41 20.5076 129.258 20.7102 129.046 20.9261C128.834 21.142 128.552 21.3258 128.2 21.4773C127.847 21.6288 127.417 21.7045 126.91 21.7045ZM127.114 20.5C127.645 20.5 128.092 20.3958 128.455 20.1875C128.823 19.9792 129.099 19.7102 129.285 19.3807C129.474 19.0511 129.569 18.7045 129.569 18.3409V17.1136C129.512 17.1818 129.387 17.2443 129.194 17.3011C129.005 17.3542 128.785 17.4015 128.535 17.4432C128.289 17.4811 128.048 17.5152 127.813 17.5455C127.582 17.572 127.395 17.5947 127.251 17.6136C126.902 17.6591 126.576 17.733 126.273 17.8352C125.974 17.9337 125.732 18.0833 125.546 18.2841C125.364 18.4811 125.273 18.75 125.273 19.0909C125.273 19.5568 125.446 19.9091 125.791 20.1477C126.139 20.3826 126.58 20.5 127.114 20.5ZM138.447 21.5V14H136.129C135.606 14 135.195 14.1212 134.896 14.3636C134.597 14.6061 134.447 14.9394 134.447 15.3636C134.447 15.7803 134.582 16.108 134.851 16.3466C135.123 16.5852 135.497 16.7045 135.97 16.7045H138.788V17.9545H135.97C135.379 17.9545 134.87 17.8504 134.442 17.642C134.014 17.4337 133.684 17.1364 133.453 16.75C133.222 16.3598 133.106 15.8977 133.106 15.3636C133.106 14.8258 133.228 14.3636 133.47 13.9773C133.712 13.5909 134.059 13.2936 134.51 13.0852C134.964 12.8769 135.504 12.7727 136.129 12.7727H139.72V21.5H138.447ZM132.629 21.5L135.106 17.1591H136.561L134.084 21.5H132.629ZM146.362 21.5V12.7727H153.225V21.5H151.884V14.0227H147.703V21.5H146.362ZM158.082 21.7045C157.529 21.7045 157.027 21.6004 156.577 21.392C156.126 21.1799 155.768 20.875 155.503 20.4773C155.238 20.0758 155.105 19.5909 155.105 19.0227C155.105 18.5227 155.204 18.1174 155.401 17.8068C155.597 17.4924 155.861 17.2462 156.19 17.0682C156.52 16.8902 156.883 16.7576 157.281 16.6705C157.683 16.5795 158.086 16.5076 158.491 16.4545C159.022 16.3864 159.452 16.3352 159.781 16.3011C160.115 16.2633 160.357 16.2008 160.508 16.1136C160.664 16.0265 160.741 15.875 160.741 15.6591V15.6136C160.741 15.053 160.588 14.6174 160.281 14.3068C159.978 13.9962 159.518 13.8409 158.901 13.8409C158.26 13.8409 157.758 13.9811 157.395 14.2614C157.031 14.5417 156.776 14.8409 156.628 15.1591L155.355 14.7045C155.582 14.1742 155.885 13.7614 156.264 13.4659C156.647 13.1667 157.063 12.9583 157.514 12.8409C157.969 12.7197 158.416 12.6591 158.855 12.6591C159.135 12.6591 159.457 12.6932 159.821 12.7614C160.188 12.8258 160.543 12.9602 160.883 13.1648C161.228 13.3693 161.514 13.678 161.741 14.0909C161.969 14.5038 162.082 15.0568 162.082 15.75V21.5H160.741V20.3182H160.673C160.582 20.5076 160.431 20.7102 160.219 20.9261C160.007 21.142 159.724 21.3258 159.372 21.4773C159.02 21.6288 158.59 21.7045 158.082 21.7045ZM158.287 20.5C158.817 20.5 159.264 20.3958 159.628 20.1875C159.995 19.9792 160.272 19.7102 160.457 19.3807C160.647 19.0511 160.741 18.7045 160.741 18.3409V17.1136C160.685 17.1818 160.56 17.2443 160.366 17.3011C160.177 17.3542 159.957 17.4015 159.707 17.4432C159.461 17.4811 159.221 17.5152 158.986 17.5455C158.755 17.572 158.567 17.5947 158.423 17.6136C158.075 17.6591 157.749 17.733 157.446 17.8352C157.147 17.9337 156.904 18.0833 156.719 18.2841C156.537 18.4811 156.446 18.75 156.446 19.0909C156.446 19.5568 156.618 19.9091 156.963 20.1477C157.311 20.3826 157.753 20.5 158.287 20.5ZM164.37 21.5V12.7727H171.233V21.5H169.893V14.0227H165.711V21.5H164.37ZM177.068 24.4773V9.86364H178.409V24.4773H177.068ZM177.068 21.6818C176.477 21.6818 175.939 21.5758 175.454 21.3636C174.969 21.1477 174.553 20.8428 174.204 20.4489C173.856 20.0511 173.587 19.5758 173.397 19.0227C173.208 18.4697 173.113 17.8561 173.113 17.1818C173.113 16.5 173.208 15.8826 173.397 15.3295C173.587 14.7727 173.856 14.2955 174.204 13.8977C174.553 13.5 174.969 13.1951 175.454 12.983C175.939 12.767 176.477 12.6591 177.068 12.6591H177.477V21.6818H177.068ZM177.068 20.4773H177.295V13.8636H177.068C176.621 13.8636 176.232 13.9545 175.903 14.1364C175.573 14.3144 175.301 14.5587 175.085 14.8693C174.873 15.1761 174.714 15.5284 174.607 15.9261C174.505 16.3239 174.454 16.7424 174.454 17.1818C174.454 17.7652 174.547 18.3068 174.732 18.8068C174.918 19.3068 175.204 19.7102 175.59 20.017C175.977 20.3239 176.469 20.4773 177.068 20.4773ZM178.409 21.6818H178V12.6591H178.409C179 12.6591 179.537 12.767 180.022 12.983C180.507 13.1951 180.924 13.5 181.272 13.8977C181.621 14.2955 181.89 14.7727 182.079 15.3295C182.268 15.8826 182.363 16.5 182.363 17.1818C182.363 17.8561 182.268 18.4697 182.079 19.0227C181.89 19.5758 181.621 20.0511 181.272 20.4489C180.924 20.8428 180.507 21.1477 180.022 21.3636C179.537 21.5758 179 21.6818 178.409 21.6818ZM178.409 20.4773C178.859 20.4773 179.248 20.3902 179.573 20.2159C179.903 20.0379 180.174 19.7955 180.386 19.4886C180.602 19.178 180.761 18.8258 180.863 18.4318C180.969 18.0341 181.022 17.6174 181.022 17.1818C181.022 16.5985 180.929 16.0549 180.744 15.5511C180.558 15.0473 180.272 14.6402 179.886 14.3295C179.5 14.0189 179.007 13.8636 178.409 13.8636H178.181V20.4773H178.409ZM188.435 16.5909V17.8409H183.821V16.5909H188.435ZM184.957 12.7727V21.5H183.617V12.7727H184.957ZM191.117 21.6818C190.329 21.6818 189.637 21.4943 189.043 21.1193C188.452 20.7443 187.99 20.2197 187.656 19.5455C187.327 18.8712 187.162 18.0833 187.162 17.1818C187.162 16.2727 187.327 15.4792 187.656 14.8011C187.99 14.1231 188.452 13.5966 189.043 13.2216C189.637 12.8466 190.329 12.6591 191.117 12.6591C191.904 12.6591 192.594 12.8466 193.185 13.2216C193.779 13.5966 194.242 14.1231 194.571 14.8011C194.904 15.4792 195.071 16.2727 195.071 17.1818C195.071 18.0833 194.904 18.8712 194.571 19.5455C194.242 20.2197 193.779 20.7443 193.185 21.1193C192.594 21.4943 191.904 21.6818 191.117 21.6818ZM191.117 20.4773C191.715 20.4773 192.207 20.3239 192.594 20.017C192.98 19.7102 193.266 19.3068 193.452 18.8068C193.637 18.3068 193.73 17.7652 193.73 17.1818C193.73 16.5985 193.637 16.0549 193.452 15.5511C193.266 15.0473 192.98 14.6402 192.594 14.3295C192.207 14.0189 191.715 13.8636 191.117 13.8636C190.518 13.8636 190.026 14.0189 189.639 14.3295C189.253 14.6402 188.967 15.0473 188.781 15.5511C188.596 16.0549 188.503 16.5985 188.503 17.1818C188.503 17.7652 188.596 18.3068 188.781 18.8068C188.967 19.3068 189.253 19.7102 189.639 20.017C190.026 20.3239 190.518 20.4773 191.117 20.4773ZM201.866 19.6818L204.911 12.7727H206.184L202.411 21.5H201.32L197.616 12.7727H198.866L201.866 19.6818ZM198.434 12.7727V21.5H197.093V12.7727H198.434ZM205.297 21.5V12.7727H206.638V21.5H205.297ZM212.592 21.6818C211.751 21.6818 211.026 21.4962 210.416 21.125C209.81 20.75 209.342 20.2273 209.012 19.5568C208.687 18.8826 208.524 18.0985 208.524 17.2045C208.524 16.3106 208.687 15.5227 209.012 14.8409C209.342 14.1553 209.8 13.6212 210.387 13.2386C210.978 12.8523 211.668 12.6591 212.456 12.6591C212.91 12.6591 213.359 12.7348 213.802 12.8864C214.245 13.0379 214.649 13.2841 215.012 13.625C215.376 13.9621 215.666 14.4091 215.882 14.9659C216.098 15.5227 216.206 16.2083 216.206 17.0227V17.5909H209.478V16.4318H214.842C214.842 15.9394 214.744 15.5 214.547 15.1136C214.353 14.7273 214.077 14.4223 213.717 14.1989C213.361 13.9754 212.94 13.8636 212.456 13.8636C211.922 13.8636 211.459 13.9962 211.069 14.2614C210.683 14.5227 210.386 14.8636 210.177 15.2841C209.969 15.7045 209.865 16.1553 209.865 16.6364V17.4091C209.865 18.0682 209.978 18.6269 210.206 19.0852C210.437 19.5398 210.757 19.8864 211.166 20.125C211.575 20.3598 212.05 20.4773 212.592 20.4773C212.944 20.4773 213.262 20.428 213.547 20.3295C213.834 20.2273 214.083 20.0758 214.291 19.875C214.499 19.6705 214.66 19.4167 214.774 19.1136L216.069 19.4773C215.933 19.9167 215.704 20.303 215.382 20.6364C215.06 20.9659 214.662 21.2235 214.189 21.4091C213.715 21.5909 213.183 21.6818 212.592 21.6818ZM218.085 24.7727V12.7727H219.381V14.1591H219.54C219.638 14.0076 219.775 13.8144 219.949 13.5795C220.127 13.3409 220.381 13.1288 220.71 12.9432C221.044 12.7538 221.494 12.6591 222.063 12.6591C222.798 12.6591 223.445 12.8428 224.006 13.2102C224.566 13.5777 225.004 14.0985 225.318 14.7727C225.633 15.447 225.79 16.2424 225.79 17.1591C225.79 18.0833 225.633 18.8845 225.318 19.5625C225.004 20.2367 224.568 20.7595 224.012 21.1307C223.455 21.4981 222.813 21.6818 222.085 21.6818C221.525 21.6818 221.076 21.589 220.739 21.4034C220.402 21.214 220.142 21 219.96 20.7614C219.779 20.5189 219.638 20.3182 219.54 20.1591H219.426V24.7727H218.085ZM219.404 17.1364C219.404 17.7955 219.5 18.3769 219.693 18.8807C219.887 19.3807 220.169 19.7727 220.54 20.0568C220.911 20.3371 221.366 20.4773 221.904 20.4773C222.464 20.4773 222.932 20.3295 223.307 20.0341C223.686 19.7348 223.97 19.3333 224.159 18.8295C224.352 18.322 224.449 17.7576 224.449 17.1364C224.449 16.5227 224.354 15.9697 224.165 15.4773C223.979 14.9811 223.697 14.589 223.318 14.3011C222.943 14.0095 222.472 13.8636 221.904 13.8636C221.358 13.8636 220.9 14.0019 220.529 14.2784C220.157 14.5511 219.877 14.9337 219.688 15.4261C219.498 15.9148 219.404 16.4848 219.404 17.1364ZM229.016 19.5227L233.221 12.7727H234.766V21.5H233.425V14.75L229.244 21.5H227.675V12.7727H229.016V19.5227ZM242.312 21.5V14H239.994C239.471 14 239.06 14.1212 238.761 14.3636C238.462 14.6061 238.312 14.9394 238.312 15.3636C238.312 15.7803 238.447 16.108 238.716 16.3466C238.988 16.5852 239.362 16.7045 239.835 16.7045H242.653V17.9545H239.835C239.244 17.9545 238.735 17.8504 238.307 17.642C237.879 17.4337 237.549 17.1364 237.318 16.75C237.087 16.3598 236.971 15.8977 236.971 15.3636C236.971 14.8258 237.093 14.3636 237.335 13.9773C237.577 13.5909 237.924 13.2936 238.375 13.0852C238.829 12.8769 239.369 12.7727 239.994 12.7727H243.585V21.5H242.312ZM236.494 21.5L238.971 17.1591H240.426L237.949 21.5H236.494ZM251.568 19.5227L255.772 12.7727H257.318V21.5H255.977V14.75L251.795 21.5H250.227V12.7727H251.568V19.5227ZM263.954 21.5V12.7727H265.294V16.5682H266.181L269.317 12.7727H271.044L267.522 16.9773L271.09 21.5H269.363L266.499 17.8182H265.294V21.5H263.954ZM275.573 21.6818C274.785 21.6818 274.094 21.4943 273.499 21.1193C272.909 20.7443 272.446 20.2197 272.113 19.5455C271.784 18.8712 271.619 18.0833 271.619 17.1818C271.619 16.2727 271.784 15.4792 272.113 14.8011C272.446 14.1231 272.909 13.5966 273.499 13.2216C274.094 12.8466 274.785 12.6591 275.573 12.6591C276.361 12.6591 277.051 12.8466 277.642 13.2216C278.236 13.5966 278.698 14.1231 279.028 14.8011C279.361 15.4792 279.528 16.2727 279.528 17.1818C279.528 18.0833 279.361 18.8712 279.028 19.5455C278.698 20.2197 278.236 20.7443 277.642 21.1193C277.051 21.4943 276.361 21.6818 275.573 21.6818ZM275.573 20.4773C276.172 20.4773 276.664 20.3239 277.051 20.017C277.437 19.7102 277.723 19.3068 277.909 18.8068C278.094 18.3068 278.187 17.7652 278.187 17.1818C278.187 16.5985 278.094 16.0549 277.909 15.5511C277.723 15.0473 277.437 14.6402 277.051 14.3295C276.664 14.0189 276.172 13.8636 275.573 13.8636C274.975 13.8636 274.482 14.0189 274.096 14.3295C273.71 14.6402 273.424 15.0473 273.238 15.5511C273.053 16.0549 272.96 16.5985 272.96 17.1818C272.96 17.7652 273.053 18.3068 273.238 18.8068C273.424 19.3068 273.71 19.7102 274.096 20.017C274.482 20.3239 274.975 20.4773 275.573 20.4773ZM284.96 21.6818C284.142 21.6818 283.438 21.4886 282.847 21.1023C282.256 20.7159 281.801 20.1837 281.483 19.5057C281.165 18.8277 281.006 18.053 281.006 17.1818C281.006 16.2955 281.169 15.5133 281.494 14.8352C281.824 14.1534 282.282 13.6212 282.869 13.2386C283.46 12.8523 284.15 12.6591 284.938 12.6591C285.551 12.6591 286.104 12.7727 286.597 13C287.089 13.2273 287.492 13.5455 287.807 13.9545C288.121 14.3636 288.316 14.8409 288.392 15.3864H287.051C286.949 14.9886 286.722 14.6364 286.369 14.3295C286.021 14.0189 285.551 13.8636 284.96 13.8636C284.438 13.8636 283.979 14 283.585 14.2727C283.195 14.5417 282.89 14.9223 282.67 15.4148C282.455 15.9034 282.347 16.4773 282.347 17.1364C282.347 17.8106 282.453 18.3977 282.665 18.8977C282.881 19.3977 283.184 19.786 283.574 20.0625C283.968 20.339 284.43 20.4773 284.96 20.4773C285.309 20.4773 285.625 20.4167 285.909 20.2955C286.193 20.1742 286.434 20 286.631 19.7727C286.828 19.5455 286.968 19.2727 287.051 18.9545H288.392C288.316 19.4697 288.129 19.9337 287.83 20.3466C287.534 20.7557 287.142 21.0814 286.653 21.3239C286.169 21.5625 285.604 21.6818 284.96 21.6818ZM294.965 19.6818L298.01 12.7727H299.283L295.51 21.5H294.42L290.715 12.7727H291.965L294.965 19.6818ZM291.533 12.7727V21.5H290.192V12.7727H291.533ZM298.397 21.5V12.7727H299.738V21.5H298.397ZM305.691 21.6818C304.85 21.6818 304.125 21.4962 303.515 21.125C302.909 20.75 302.441 20.2273 302.112 19.5568C301.786 18.8826 301.623 18.0985 301.623 17.2045C301.623 16.3106 301.786 15.5227 302.112 14.8409C302.441 14.1553 302.9 13.6212 303.487 13.2386C304.078 12.8523 304.767 12.6591 305.555 12.6591C306.01 12.6591 306.458 12.7348 306.902 12.8864C307.345 13.0379 307.748 13.2841 308.112 13.625C308.475 13.9621 308.765 14.4091 308.981 14.9659C309.197 15.5227 309.305 16.2083 309.305 17.0227V17.5909H302.578V16.4318H307.941C307.941 15.9394 307.843 15.5 307.646 15.1136C307.453 14.7273 307.176 14.4223 306.816 14.1989C306.46 13.9754 306.04 13.8636 305.555 13.8636C305.021 13.8636 304.559 13.9962 304.169 14.2614C303.782 14.5227 303.485 14.8636 303.277 15.2841C303.068 15.7045 302.964 16.1553 302.964 16.6364V17.4091C302.964 18.0682 303.078 18.6269 303.305 19.0852C303.536 19.5398 303.856 19.8864 304.265 20.125C304.674 20.3598 305.15 20.4773 305.691 20.4773C306.044 20.4773 306.362 20.428 306.646 20.3295C306.934 20.2273 307.182 20.0758 307.39 19.875C307.599 19.6705 307.76 19.4167 307.873 19.1136L309.169 19.4773C309.032 19.9167 308.803 20.303 308.481 20.6364C308.159 20.9659 307.761 21.2235 307.288 21.4091C306.814 21.5909 306.282 21.6818 305.691 21.6818ZM310.372 14.0227V12.7727H317.463V14.0227H314.6V21.5H313.259V14.0227H310.372ZM320.6 19.5227L324.805 12.7727H326.35V21.5H325.009V14.75L320.827 21.5H319.259V12.7727H320.6V19.5227ZM328.646 21.5V12.7727H329.987V16.5682H330.873L334.01 12.7727H335.737L332.214 16.9773L335.782 21.5H334.055L331.191 17.8182H329.987V21.5H328.646ZM339.648 21.7045C339.095 21.7045 338.593 21.6004 338.142 21.392C337.692 21.1799 337.334 20.875 337.068 20.4773C336.803 20.0758 336.671 19.5909 336.671 19.0227C336.671 18.5227 336.769 18.1174 336.966 17.8068C337.163 17.4924 337.426 17.2462 337.756 17.0682C338.085 16.8902 338.449 16.7576 338.847 16.6705C339.248 16.5795 339.652 16.5076 340.057 16.4545C340.587 16.3864 341.017 16.3352 341.347 16.3011C341.68 16.2633 341.923 16.2008 342.074 16.1136C342.229 16.0265 342.307 15.875 342.307 15.6591V15.6136C342.307 15.053 342.154 14.6174 341.847 14.3068C341.544 13.9962 341.084 13.8409 340.466 13.8409C339.826 13.8409 339.324 13.9811 338.96 14.2614C338.597 14.5417 338.341 14.8409 338.193 15.1591L336.921 14.7045C337.148 14.1742 337.451 13.7614 337.83 13.4659C338.212 13.1667 338.629 12.9583 339.08 12.8409C339.534 12.7197 339.981 12.6591 340.421 12.6591C340.701 12.6591 341.023 12.6932 341.387 12.7614C341.754 12.8258 342.108 12.9602 342.449 13.1648C342.794 13.3693 343.08 13.678 343.307 14.0909C343.534 14.5038 343.648 15.0568 343.648 15.75V21.5H342.307V20.3182H342.239C342.148 20.5076 341.996 20.7102 341.784 20.9261C341.572 21.142 341.29 21.3258 340.938 21.4773C340.585 21.6288 340.156 21.7045 339.648 21.7045ZM339.853 20.5C340.383 20.5 340.83 20.3958 341.193 20.1875C341.561 19.9792 341.837 19.7102 342.023 19.3807C342.212 19.0511 342.307 18.7045 342.307 18.3409V17.1136C342.25 17.1818 342.125 17.2443 341.932 17.3011C341.743 17.3542 341.523 17.4015 341.273 17.4432C341.027 17.4811 340.786 17.5152 340.551 17.5455C340.32 17.572 340.133 17.5947 339.989 17.6136C339.64 17.6591 339.315 17.733 339.012 17.8352C338.712 17.9337 338.47 18.0833 338.284 18.2841C338.103 18.4811 338.012 18.75 338.012 19.0909C338.012 19.5568 338.184 19.9091 338.529 20.1477C338.877 20.3826 339.318 20.5 339.853 20.5Z" fill="#1B1716" fill-opacity="0.6"/>
<path d="M362.886 21.5H361.409L365.682 9.86364H367.136L371.409 21.5H369.932L366.455 11.7045H366.364L362.886 21.5ZM363.432 16.9545H369.386V18.2045H363.432V16.9545ZM372.88 21.5V12.7727H374.221V16.5682H375.107L378.243 12.7727H379.971L376.448 16.9773L380.016 21.5H378.289L375.425 17.8182H374.221V21.5H372.88ZM384.5 21.6818C383.681 21.6818 382.977 21.4886 382.386 21.1023C381.795 20.7159 381.341 20.1837 381.022 19.5057C380.704 18.8277 380.545 18.053 380.545 17.1818C380.545 16.2955 380.708 15.5133 381.034 14.8352C381.363 14.1534 381.822 13.6212 382.409 13.2386C383 12.8523 383.689 12.6591 384.477 12.6591C385.091 12.6591 385.644 12.7727 386.136 13C386.628 13.2273 387.032 13.5455 387.346 13.9545C387.661 14.3636 387.856 14.8409 387.931 15.3864H386.591C386.488 14.9886 386.261 14.6364 385.909 14.3295C385.56 14.0189 385.091 13.8636 384.5 13.8636C383.977 13.8636 383.519 14 383.125 14.2727C382.734 14.5417 382.43 14.9223 382.21 15.4148C381.994 15.9034 381.886 16.4773 381.886 17.1364C381.886 17.8106 381.992 18.3977 382.204 18.8977C382.42 19.3977 382.723 19.786 383.113 20.0625C383.507 20.339 383.969 20.4773 384.5 20.4773C384.848 20.4773 385.164 20.4167 385.448 20.2955C385.733 20.1742 385.973 20 386.17 19.7727C386.367 19.5455 386.507 19.2727 386.591 18.9545H387.931C387.856 19.4697 387.668 19.9337 387.369 20.3466C387.073 20.7557 386.681 21.0814 386.193 21.3239C385.708 21.5625 385.144 21.6818 384.5 21.6818ZM393.391 21.6818C392.55 21.6818 391.824 21.4962 391.215 21.125C390.609 20.75 390.141 20.2273 389.811 19.5568C389.485 18.8826 389.323 18.0985 389.323 17.2045C389.323 16.3106 389.485 15.5227 389.811 14.8409C390.141 14.1553 390.599 13.6212 391.186 13.2386C391.777 12.8523 392.466 12.6591 393.254 12.6591C393.709 12.6591 394.158 12.7348 394.601 12.8864C395.044 13.0379 395.448 13.2841 395.811 13.625C396.175 13.9621 396.465 14.4091 396.681 14.9659C396.896 15.5227 397.004 16.2083 397.004 17.0227V17.5909H390.277V16.4318H395.641C395.641 15.9394 395.542 15.5 395.345 15.1136C395.152 14.7273 394.876 14.4223 394.516 14.1989C394.16 13.9754 393.739 13.8636 393.254 13.8636C392.72 13.8636 392.258 13.9962 391.868 14.2614C391.482 14.5227 391.184 14.8636 390.976 15.2841C390.768 15.7045 390.663 16.1553 390.663 16.6364V17.4091C390.663 18.0682 390.777 18.6269 391.004 19.0852C391.235 19.5398 391.556 19.8864 391.965 20.125C392.374 20.3598 392.849 20.4773 393.391 20.4773C393.743 20.4773 394.061 20.428 394.345 20.3295C394.633 20.2273 394.881 20.0758 395.09 19.875C395.298 19.6705 395.459 19.4167 395.573 19.1136L396.868 19.4773C396.732 19.9167 396.502 20.303 396.181 20.6364C395.859 20.9659 395.461 21.2235 394.987 21.4091C394.514 21.5909 393.982 21.6818 393.391 21.6818ZM402.43 21.6818C401.611 21.6818 400.907 21.4886 400.316 21.1023C399.725 20.7159 399.271 20.1837 398.952 19.5057C398.634 18.8277 398.475 18.053 398.475 17.1818C398.475 16.2955 398.638 15.5133 398.964 14.8352C399.293 14.1534 399.752 13.6212 400.339 13.2386C400.93 12.8523 401.619 12.6591 402.407 12.6591C403.021 12.6591 403.574 12.7727 404.066 13C404.558 13.2273 404.962 13.5455 405.276 13.9545C405.591 14.3636 405.786 14.8409 405.861 15.3864H404.521C404.418 14.9886 404.191 14.6364 403.839 14.3295C403.49 14.0189 403.021 13.8636 402.43 13.8636C401.907 13.8636 401.449 14 401.055 14.2727C400.664 14.5417 400.36 14.9223 400.14 15.4148C399.924 15.9034 399.816 16.4773 399.816 17.1364C399.816 17.8106 399.922 18.3977 400.134 18.8977C400.35 19.3977 400.653 19.786 401.043 20.0625C401.437 20.339 401.899 20.4773 402.43 20.4773C402.778 20.4773 403.094 20.4167 403.378 20.2955C403.663 20.1742 403.903 20 404.1 19.7727C404.297 19.5455 404.437 19.2727 404.521 18.9545H405.861C405.786 19.4697 405.598 19.9337 405.299 20.3466C405.003 20.7557 404.611 21.0814 404.123 21.3239C403.638 21.5625 403.074 21.6818 402.43 21.6818ZM411.207 21.6818C410.389 21.6818 409.684 21.4886 409.093 21.1023C408.503 20.7159 408.048 20.1837 407.73 19.5057C407.412 18.8277 407.253 18.053 407.253 17.1818C407.253 16.2955 407.415 15.5133 407.741 14.8352C408.071 14.1534 408.529 13.6212 409.116 13.2386C409.707 12.8523 410.396 12.6591 411.184 12.6591C411.798 12.6591 412.351 12.7727 412.843 13C413.336 13.2273 413.739 13.5455 414.054 13.9545C414.368 14.3636 414.563 14.8409 414.639 15.3864H413.298C413.196 14.9886 412.968 14.6364 412.616 14.3295C412.268 14.0189 411.798 13.8636 411.207 13.8636C410.684 13.8636 410.226 14 409.832 14.2727C409.442 14.5417 409.137 14.9223 408.917 15.4148C408.701 15.9034 408.593 16.4773 408.593 17.1364C408.593 17.8106 408.7 18.3977 408.912 18.8977C409.128 19.3977 409.431 19.786 409.821 20.0625C410.215 20.339 410.677 20.4773 411.207 20.4773C411.556 20.4773 411.872 20.4167 412.156 20.2955C412.44 20.1742 412.681 20 412.878 19.7727C413.075 19.5455 413.215 19.2727 413.298 18.9545H414.639C414.563 19.4697 414.376 19.9337 414.076 20.3466C413.781 20.7557 413.389 21.0814 412.9 21.3239C412.415 21.5625 411.851 21.6818 411.207 21.6818ZM417.303 24.7727C417.076 24.7727 416.873 24.7538 416.695 24.7159C416.517 24.6818 416.394 24.6477 416.326 24.6136L416.666 23.4318C416.992 23.5152 417.28 23.5455 417.53 23.5227C417.78 23.5 418.002 23.3883 418.195 23.1875C418.392 22.9905 418.572 22.6705 418.735 22.2273L418.985 21.5455L415.757 12.7727H417.212L419.621 19.7273H419.712L422.121 12.7727H423.576L419.871 22.7727C419.704 23.2235 419.498 23.5966 419.252 23.892C419.005 24.1913 418.719 24.4129 418.394 24.5568C418.072 24.7008 417.708 24.7727 417.303 24.7727ZM427.488 21.7045C426.935 21.7045 426.433 21.6004 425.982 21.392C425.532 21.1799 425.174 20.875 424.908 20.4773C424.643 20.0758 424.511 19.5909 424.511 19.0227C424.511 18.5227 424.609 18.1174 424.806 17.8068C425.003 17.4924 425.266 17.2462 425.596 17.0682C425.925 16.8902 426.289 16.7576 426.687 16.6705C427.088 16.5795 427.492 16.5076 427.897 16.4545C428.427 16.3864 428.857 16.3352 429.187 16.3011C429.52 16.2633 429.763 16.2008 429.914 16.1136C430.069 16.0265 430.147 15.875 430.147 15.6591V15.6136C430.147 15.053 429.994 14.6174 429.687 14.3068C429.384 13.9962 428.924 13.8409 428.306 13.8409C427.666 13.8409 427.164 13.9811 426.8 14.2614C426.437 14.5417 426.181 14.8409 426.033 15.1591L424.761 14.7045C424.988 14.1742 425.291 13.7614 425.67 13.4659C426.052 13.1667 426.469 12.9583 426.92 12.8409C427.374 12.7197 427.821 12.6591 428.261 12.6591C428.541 12.6591 428.863 12.6932 429.227 12.7614C429.594 12.8258 429.948 12.9602 430.289 13.1648C430.634 13.3693 430.92 13.678 431.147 14.0909C431.374 14.5038 431.488 15.0568 431.488 15.75V21.5H430.147V20.3182H430.079C429.988 20.5076 429.836 20.7102 429.624 20.9261C429.412 21.142 429.13 21.3258 428.778 21.4773C428.425 21.6288 427.996 21.7045 427.488 21.7045ZM427.693 20.5C428.223 20.5 428.67 20.3958 429.033 20.1875C429.401 19.9792 429.677 19.7102 429.863 19.3807C430.052 19.0511 430.147 18.7045 430.147 18.3409V17.1136C430.09 17.1818 429.965 17.2443 429.772 17.3011C429.583 17.3542 429.363 17.4015 429.113 17.4432C428.867 17.4811 428.626 17.5152 428.391 17.5455C428.16 17.572 427.973 17.5947 427.829 17.6136C427.48 17.6591 427.155 17.733 426.852 17.8352C426.552 17.9337 426.31 18.0833 426.124 18.2841C425.943 18.4811 425.852 18.75 425.852 19.0909C425.852 19.5568 426.024 19.9091 426.369 20.1477C426.717 20.3826 427.158 20.5 427.693 20.5ZM433.775 24.7727V12.7727H435.071V14.1591H435.23C435.328 14.0076 435.465 13.8144 435.639 13.5795C435.817 13.3409 436.071 13.1288 436.4 12.9432C436.734 12.7538 437.184 12.6591 437.753 12.6591C438.488 12.6591 439.135 12.8428 439.696 13.2102C440.256 13.5777 440.694 14.0985 441.008 14.7727C441.323 15.447 441.48 16.2424 441.48 17.1591C441.48 18.0833 441.323 18.8845 441.008 19.5625C440.694 20.2367 440.258 20.7595 439.702 21.1307C439.145 21.4981 438.503 21.6818 437.775 21.6818C437.215 21.6818 436.766 21.589 436.429 21.4034C436.092 21.214 435.832 21 435.65 20.7614C435.469 20.5189 435.328 20.3182 435.23 20.1591H435.116V24.7727H433.775ZM435.094 17.1364C435.094 17.7955 435.19 18.3769 435.383 18.8807C435.577 19.3807 435.859 19.7727 436.23 20.0568C436.601 20.3371 437.056 20.4773 437.594 20.4773C438.154 20.4773 438.622 20.3295 438.997 20.0341C439.376 19.7348 439.66 19.3333 439.849 18.8295C440.042 18.322 440.139 17.7576 440.139 17.1364C440.139 16.5227 440.044 15.9697 439.855 15.4773C439.669 14.9811 439.387 14.589 439.008 14.3011C438.633 14.0095 438.162 13.8636 437.594 13.8636C437.048 13.8636 436.59 14.0019 436.219 14.2784C435.847 14.5511 435.567 14.9337 435.378 15.4261C435.188 15.9148 435.094 16.4848 435.094 17.1364ZM444.524 15.9318H447.024C448.047 15.9318 448.829 16.1913 449.371 16.7102C449.913 17.2292 450.184 17.8864 450.184 18.6818C450.184 19.2045 450.062 19.6799 449.82 20.108C449.578 20.5322 449.221 20.8712 448.752 21.125C448.282 21.375 447.706 21.5 447.024 21.5H443.365V12.7727H444.706V20.25H447.024C447.555 20.25 447.99 20.1098 448.331 19.8295C448.672 19.5492 448.843 19.1894 448.843 18.75C448.843 18.2879 448.672 17.911 448.331 17.6193C447.99 17.3277 447.555 17.1818 447.024 17.1818H444.524V15.9318ZM451.57 21.5V12.7727H452.911V21.5H451.57Z" fill="#1B1716" fill-opacity="0.6"/>
<path d="M482.227 15.6818C482.227 16.9091 482.006 17.9697 481.562 18.8636C481.119 19.7576 480.511 20.447 479.739 20.9318C478.966 21.4167 478.083 21.6591 477.091 21.6591C476.098 21.6591 475.216 21.4167 474.443 20.9318C473.67 20.447 473.063 19.7576 472.619 18.8636C472.176 17.9697 471.955 16.9091 471.955 15.6818C471.955 14.4545 472.176 13.3939 472.619 12.5C473.063 11.6061 473.67 10.9167 474.443 10.4318C475.216 9.94697 476.098 9.70455 477.091 9.70455C478.083 9.70455 478.966 9.94697 479.739 10.4318C480.511 10.9167 481.119 11.6061 481.562 12.5C482.006 13.3939 482.227 14.4545 482.227 15.6818ZM480.864 15.6818C480.864 14.6742 480.695 13.8239 480.358 13.1307C480.025 12.4375 479.572 11.9129 479 11.5568C478.432 11.2008 477.795 11.0227 477.091 11.0227C476.386 11.0227 475.748 11.2008 475.176 11.5568C474.608 11.9129 474.155 12.4375 473.818 13.1307C473.485 13.8239 473.318 14.6742 473.318 15.6818C473.318 16.6894 473.485 17.5398 473.818 18.233C474.155 18.9261 474.608 19.4508 475.176 19.8068C475.748 20.1629 476.386 20.3409 477.091 20.3409C477.795 20.3409 478.432 20.1629 479 19.8068C479.572 19.4508 480.025 18.9261 480.358 18.233C480.695 17.5398 480.864 16.6894 480.864 15.6818ZM483.323 24V20.25H484.05C484.228 20.0644 484.382 19.8636 484.51 19.6477C484.639 19.4318 484.751 19.1761 484.846 18.8807C484.944 18.5814 485.028 18.2178 485.096 17.7898C485.164 17.358 485.224 16.8371 485.278 16.2273L485.573 12.7727H491.118V20.25H492.459V24H491.118V21.5H484.664V24H483.323ZM485.573 20.25H489.778V14.0227H486.823L486.596 16.2273C486.501 17.1402 486.384 17.9375 486.243 18.6193C486.103 19.3011 485.88 19.8447 485.573 20.25ZM497.738 21.6818C496.897 21.6818 496.172 21.4962 495.562 21.125C494.956 20.75 494.488 20.2273 494.159 19.5568C493.833 18.8826 493.67 18.0985 493.67 17.2045C493.67 16.3106 493.833 15.5227 494.159 14.8409C494.488 14.1553 494.947 13.6212 495.534 13.2386C496.125 12.8523 496.814 12.6591 497.602 12.6591C498.056 12.6591 498.505 12.7348 498.948 12.8864C499.392 13.0379 499.795 13.2841 500.159 13.625C500.522 13.9621 500.812 14.4091 501.028 14.9659C501.244 15.5227 501.352 16.2083 501.352 17.0227V17.5909H494.625V16.4318H499.988C499.988 15.9394 499.89 15.5 499.693 15.1136C499.5 14.7273 499.223 14.4223 498.863 14.1989C498.507 13.9754 498.087 13.8636 497.602 13.8636C497.068 13.8636 496.606 13.9962 496.216 14.2614C495.829 14.5227 495.532 14.8636 495.323 15.2841C495.115 15.7045 495.011 16.1553 495.011 16.6364V17.4091C495.011 18.0682 495.125 18.6269 495.352 19.0852C495.583 19.5398 495.903 19.8864 496.312 20.125C496.721 20.3598 497.197 20.4773 497.738 20.4773C498.091 20.4773 498.409 20.428 498.693 20.3295C498.981 20.2273 499.229 20.0758 499.437 19.875C499.645 19.6705 499.806 19.4167 499.92 19.1136L501.216 19.4773C501.079 19.9167 500.85 20.303 500.528 20.6364C500.206 20.9659 499.808 21.2235 499.335 21.4091C498.861 21.5909 498.329 21.6818 497.738 21.6818ZM502.452 21.5L505.997 17.0682L502.497 12.7727H504.088L506.997 16.5H507.725V12.7727H509.065V16.5H509.77L512.679 12.7727H514.27L510.793 17.0682L514.315 21.5H512.702L509.747 17.75H509.065V21.5H507.725V17.75H507.043L504.065 21.5H502.452ZM515.14 24V20.25H515.867C516.045 20.0644 516.199 19.8636 516.327 19.6477C516.456 19.4318 516.568 19.1761 516.663 18.8807C516.761 18.5814 516.844 18.2178 516.913 17.7898C516.981 17.358 517.041 16.8371 517.094 16.2273L517.39 12.7727H522.935V20.25H524.276V24H522.935V21.5H516.481V24H515.14ZM517.39 20.25H521.594V14.0227H518.64L518.413 16.2273C518.318 17.1402 518.2 17.9375 518.06 18.6193C517.92 19.3011 517.697 19.8447 517.39 20.25ZM528.464 21.7045C527.911 21.7045 527.409 21.6004 526.959 21.392C526.508 21.1799 526.15 20.875 525.885 20.4773C525.62 20.0758 525.487 19.5909 525.487 19.0227C525.487 18.5227 525.585 18.1174 525.782 17.8068C525.979 17.4924 526.243 17.2462 526.572 17.0682C526.902 16.8902 527.265 16.7576 527.663 16.6705C528.065 16.5795 528.468 16.5076 528.873 16.4545C529.404 16.3864 529.834 16.3352 530.163 16.3011C530.496 16.2633 530.739 16.2008 530.89 16.1136C531.046 16.0265 531.123 15.875 531.123 15.6591V15.6136C531.123 15.053 530.97 14.6174 530.663 14.3068C530.36 13.9962 529.9 13.8409 529.282 13.8409C528.642 13.8409 528.14 13.9811 527.777 14.2614C527.413 14.5417 527.157 14.8409 527.01 15.1591L525.737 14.7045C525.964 14.1742 526.267 13.7614 526.646 13.4659C527.029 13.1667 527.445 12.9583 527.896 12.8409C528.351 12.7197 528.798 12.6591 529.237 12.6591C529.517 12.6591 529.839 12.6932 530.203 12.7614C530.57 12.8258 530.924 12.9602 531.265 13.1648C531.61 13.3693 531.896 13.678 532.123 14.0909C532.351 14.5038 532.464 15.0568 532.464 15.75V21.5H531.123V20.3182H531.055C530.964 20.5076 530.813 20.7102 530.601 20.9261C530.388 21.142 530.106 21.3258 529.754 21.4773C529.402 21.6288 528.972 21.7045 528.464 21.7045ZM528.669 20.5C529.199 20.5 529.646 20.3958 530.01 20.1875C530.377 19.9792 530.654 19.7102 530.839 19.3807C531.029 19.0511 531.123 18.7045 531.123 18.3409V17.1136C531.066 17.1818 530.941 17.2443 530.748 17.3011C530.559 17.3542 530.339 17.4015 530.089 17.4432C529.843 17.4811 529.602 17.5152 529.368 17.5455C529.137 17.572 528.949 17.5947 528.805 17.6136C528.457 17.6591 528.131 17.733 527.828 17.8352C527.529 17.9337 527.286 18.0833 527.101 18.2841C526.919 18.4811 526.828 18.75 526.828 19.0909C526.828 19.5568 527 19.9091 527.345 20.1477C527.693 20.3826 528.135 20.5 528.669 20.5Z" fill="#1B1716" fill-opacity="0.6"/>
<path d="M550.409 24.3182V20.25H551.159C551.417 20.0152 551.659 19.6837 551.886 19.2557C552.117 18.8239 552.312 18.2481 552.472 17.5284C552.634 16.8049 552.742 15.8864 552.795 14.7727L553.045 9.86364H559.955V20.25H561.295V24.2955H559.955V21.5H551.75V24.3182H550.409ZM552.841 20.25H558.614V11.1136H554.318L554.136 14.7727C554.091 15.6212 554.011 16.3902 553.898 17.0795C553.784 17.7652 553.638 18.3731 553.46 18.9034C553.282 19.4299 553.076 19.8788 552.841 20.25ZM562.31 21.5V20.25H562.628C562.89 20.25 563.108 20.1989 563.282 20.0966C563.456 19.9905 563.596 19.8068 563.702 19.5455C563.812 19.2803 563.895 18.9129 563.952 18.4432C564.013 17.9697 564.056 17.3674 564.083 16.6364L564.242 12.7727H570.06V21.5H568.719V14.0227H565.515L565.378 17.1364C565.348 17.8523 565.284 18.483 565.185 19.0284C565.09 19.5701 564.945 20.0246 564.748 20.392C564.554 20.7595 564.297 21.036 563.975 21.2216C563.653 21.4072 563.25 21.5 562.765 21.5H562.31ZM577.61 21.5V14H575.292C574.769 14 574.359 14.1212 574.059 14.3636C573.76 14.6061 573.61 14.9394 573.61 15.3636C573.61 15.7803 573.745 16.108 574.014 16.3466C574.287 16.5852 574.66 16.7045 575.133 16.7045H577.951V17.9545H575.133C574.542 17.9545 574.033 17.8504 573.605 17.642C573.177 17.4337 572.847 17.1364 572.616 16.75C572.385 16.3598 572.269 15.8977 572.269 15.3636C572.269 14.8258 572.391 14.3636 572.633 13.9773C572.876 13.5909 573.222 13.2936 573.673 13.0852C574.127 12.8769 574.667 12.7727 575.292 12.7727H578.883V21.5H577.61ZM571.792 21.5L574.269 17.1591H575.724L573.247 21.5H571.792ZM585.525 21.5V12.7727H586.866V16.5682H587.752L590.888 12.7727H592.616L589.093 16.9773L592.661 21.5H590.934L588.07 17.8182H586.866V21.5H585.525ZM597.145 21.6818C596.357 21.6818 595.665 21.4943 595.071 21.1193C594.48 20.7443 594.018 20.2197 593.684 19.5455C593.355 18.8712 593.19 18.0833 593.19 17.1818C593.19 16.2727 593.355 15.4792 593.684 14.8011C594.018 14.1231 594.48 13.5966 595.071 13.2216C595.665 12.8466 596.357 12.6591 597.145 12.6591C597.932 12.6591 598.622 12.8466 599.213 13.2216C599.807 13.5966 600.27 14.1231 600.599 14.8011C600.932 15.4792 601.099 16.2727 601.099 17.1818C601.099 18.0833 600.932 18.8712 600.599 19.5455C600.27 20.2197 599.807 20.7443 599.213 21.1193C598.622 21.4943 597.932 21.6818 597.145 21.6818ZM597.145 20.4773C597.743 20.4773 598.236 20.3239 598.622 20.017C599.008 19.7102 599.294 19.3068 599.48 18.8068C599.665 18.3068 599.758 17.7652 599.758 17.1818C599.758 16.5985 599.665 16.0549 599.48 15.5511C599.294 15.0473 599.008 14.6402 598.622 14.3295C598.236 14.0189 597.743 13.8636 597.145 13.8636C596.546 13.8636 596.054 14.0189 595.667 14.3295C595.281 14.6402 594.995 15.0473 594.809 15.5511C594.624 16.0549 594.531 16.5985 594.531 17.1818C594.531 17.7652 594.624 18.3068 594.809 18.8068C594.995 19.3068 595.281 19.7102 595.667 20.017C596.054 20.3239 596.546 20.4773 597.145 20.4773ZM602.213 21.5V20.25H602.531C602.793 20.25 603.011 20.1989 603.185 20.0966C603.359 19.9905 603.499 19.8068 603.605 19.5455C603.715 19.2803 603.799 18.9129 603.855 18.4432C603.916 17.9697 603.96 17.3674 603.986 16.6364L604.145 12.7727H609.963V21.5H608.622V14.0227H605.418L605.281 17.1364C605.251 17.8523 605.187 18.483 605.088 19.0284C604.994 19.5701 604.848 20.0246 604.651 20.392C604.458 20.7595 604.2 21.036 603.878 21.2216C603.556 21.4072 603.153 21.5 602.668 21.5H602.213ZM611.491 21.5V20.25H611.809C612.07 20.25 612.288 20.1989 612.462 20.0966C612.637 19.9905 612.777 19.8068 612.883 19.5455C612.993 19.2803 613.076 18.9129 613.133 18.4432C613.193 17.9697 613.237 17.3674 613.264 16.6364L613.423 12.7727H619.241V21.5H617.9V14.0227H614.695L614.559 17.1364C614.529 17.8523 614.464 18.483 614.366 19.0284C614.271 19.5701 614.125 20.0246 613.928 20.392C613.735 20.7595 613.478 21.036 613.156 21.2216C612.834 21.4072 612.43 21.5 611.945 21.5H611.491ZM625.2 21.6818C624.359 21.6818 623.634 21.4962 623.024 21.125C622.418 20.75 621.95 20.2273 621.621 19.5568C621.295 18.8826 621.132 18.0985 621.132 17.2045C621.132 16.3106 621.295 15.5227 621.621 14.8409C621.95 14.1553 622.408 13.6212 622.996 13.2386C623.586 12.8523 624.276 12.6591 625.064 12.6591C625.518 12.6591 625.967 12.7348 626.41 12.8864C626.854 13.0379 627.257 13.2841 627.621 13.625C627.984 13.9621 628.274 14.4091 628.49 14.9659C628.706 15.5227 628.814 16.2083 628.814 17.0227V17.5909H622.086V16.4318H627.45C627.45 15.9394 627.352 15.5 627.155 15.1136C626.961 14.7273 626.685 14.4223 626.325 14.1989C625.969 13.9754 625.549 13.8636 625.064 13.8636C624.53 13.8636 624.068 13.9962 623.677 14.2614C623.291 14.5227 622.994 14.8636 622.785 15.2841C622.577 15.7045 622.473 16.1553 622.473 16.6364V17.4091C622.473 18.0682 622.586 18.6269 622.814 19.0852C623.045 19.5398 623.365 19.8864 623.774 20.125C624.183 20.3598 624.658 20.4773 625.2 20.4773C625.552 20.4773 625.871 20.428 626.155 20.3295C626.443 20.2273 626.691 20.0758 626.899 19.875C627.107 19.6705 627.268 19.4167 627.382 19.1136L628.677 19.4773C628.541 19.9167 628.312 20.303 627.99 20.6364C627.668 20.9659 627.27 21.2235 626.797 21.4091C626.323 21.5909 625.791 21.6818 625.2 21.6818ZM630.694 21.5V12.7727H632.034V16.5682H632.921L636.057 12.7727H637.784L634.262 16.9773L637.83 21.5H636.103L633.239 17.8182H632.034V21.5H630.694ZM645.991 12.7727V20.25H647.218V24.3182H645.877V21.5H639.127V12.7727H640.468V20.25H644.65V12.7727H645.991ZM650.464 19.5227L654.669 12.7727H656.214V21.5H654.874V14.75L650.692 21.5H649.124V12.7727H650.464V19.5227ZM659.851 19.5227L664.056 12.7727H665.601V21.5H664.26V14.75L660.079 21.5H658.51V12.7727H659.851V19.5227Z" fill="#1B1716" fill-opacity="0.6"/>
<path d="M684.409 9.86364H686.091L690.045 19.5227H690.182L694.136 9.86364H695.818V21.5H694.5V12.6591H694.386L690.75 21.5H689.477L685.841 12.6591H685.727V21.5H684.409V9.86364ZM699.165 24.7727C698.938 24.7727 698.735 24.7538 698.557 24.7159C698.379 24.6818 698.256 24.6477 698.188 24.6136L698.529 23.4318C698.855 23.5152 699.143 23.5455 699.393 23.5227C699.643 23.5 699.864 23.3883 700.057 23.1875C700.254 22.9905 700.434 22.6705 700.597 22.2273L700.847 21.5455L697.62 12.7727H699.074L701.483 19.7273H701.574L703.983 12.7727H705.438L701.733 22.7727C701.567 23.2235 701.36 23.5966 701.114 23.892C700.868 24.1913 700.582 24.4129 700.256 24.5568C699.934 24.7008 699.571 24.7727 699.165 24.7727ZM706.502 21.5L710.048 17.0682L706.548 12.7727H708.139L711.048 16.5H711.775V12.7727H713.116V16.5H713.821L716.73 12.7727H718.321L714.843 17.0682L718.366 21.5H716.752L713.798 17.75H713.116V21.5H711.775V17.75H711.093L708.116 21.5H706.502ZM723.308 21.6818C722.49 21.6818 721.786 21.4886 721.195 21.1023C720.604 20.7159 720.149 20.1837 719.831 19.5057C719.513 18.8277 719.354 18.053 719.354 17.1818C719.354 16.2955 719.517 15.5133 719.842 14.8352C720.172 14.1534 720.63 13.6212 721.217 13.2386C721.808 12.8523 722.498 12.6591 723.286 12.6591C723.899 12.6591 724.452 12.7727 724.945 13C725.437 13.2273 725.841 13.5455 726.155 13.9545C726.469 14.3636 726.664 14.8409 726.74 15.3864H725.399C725.297 14.9886 725.07 14.6364 724.717 14.3295C724.369 14.0189 723.899 13.8636 723.308 13.8636C722.786 13.8636 722.327 14 721.933 14.2727C721.543 14.5417 721.238 14.9223 721.019 15.4148C720.803 15.9034 720.695 16.4773 720.695 17.1364C720.695 17.8106 720.801 18.3977 721.013 18.8977C721.229 19.3977 721.532 19.786 721.922 20.0625C722.316 20.339 722.778 20.4773 723.308 20.4773C723.657 20.4773 723.973 20.4167 724.257 20.2955C724.541 20.1742 724.782 20 724.979 19.7727C725.176 19.5455 725.316 19.2727 725.399 18.9545H726.74C726.664 19.4697 726.477 19.9337 726.178 20.3466C725.882 20.7557 725.49 21.0814 725.002 21.3239C724.517 21.5625 723.952 21.6818 723.308 21.6818ZM728.54 21.5V12.7727H729.881V16.5682H730.768L733.904 12.7727H735.631L732.109 16.9773L735.677 21.5H733.949L731.086 17.8182H729.881V21.5H728.54ZM740.16 21.6818C739.372 21.6818 738.681 21.4943 738.086 21.1193C737.495 20.7443 737.033 20.2197 736.7 19.5455C736.37 18.8712 736.206 18.0833 736.206 17.1818C736.206 16.2727 736.37 15.4792 736.7 14.8011C737.033 14.1231 737.495 13.5966 738.086 13.2216C738.681 12.8466 739.372 12.6591 740.16 12.6591C740.948 12.6591 741.638 12.8466 742.228 13.2216C742.823 13.5966 743.285 14.1231 743.615 14.8011C743.948 15.4792 744.115 16.2727 744.115 17.1818C744.115 18.0833 743.948 18.8712 743.615 19.5455C743.285 20.2197 742.823 20.7443 742.228 21.1193C741.638 21.4943 740.948 21.6818 740.16 21.6818ZM740.16 20.4773C740.759 20.4773 741.251 20.3239 741.638 20.017C742.024 19.7102 742.31 19.3068 742.495 18.8068C742.681 18.3068 742.774 17.7652 742.774 17.1818C742.774 16.5985 742.681 16.0549 742.495 15.5511C742.31 15.0473 742.024 14.6402 741.638 14.3295C741.251 14.0189 740.759 13.8636 740.16 13.8636C739.562 13.8636 739.069 14.0189 738.683 14.3295C738.297 14.6402 738.011 15.0473 737.825 15.5511C737.639 16.0549 737.547 16.5985 737.547 17.1818C737.547 17.7652 737.639 18.3068 737.825 18.8068C738.011 19.3068 738.297 19.7102 738.683 20.017C739.069 20.3239 739.562 20.4773 740.16 20.4773ZM749.661 21.6818C748.82 21.6818 748.094 21.4962 747.485 21.125C746.879 20.75 746.411 20.2273 746.081 19.5568C745.755 18.8826 745.593 18.0985 745.593 17.2045C745.593 16.3106 745.755 15.5227 746.081 14.8409C746.411 14.1553 746.869 13.6212 747.456 13.2386C748.047 12.8523 748.736 12.6591 749.524 12.6591C749.979 12.6591 750.428 12.7348 750.871 12.8864C751.314 13.0379 751.718 13.2841 752.081 13.625C752.445 13.9621 752.735 14.4091 752.951 14.9659C753.166 15.5227 753.274 16.2083 753.274 17.0227V17.5909H746.547V16.4318H751.911C751.911 15.9394 751.812 15.5 751.615 15.1136C751.422 14.7273 751.146 14.4223 750.786 14.1989C750.43 13.9754 750.009 13.8636 749.524 13.8636C748.99 13.8636 748.528 13.9962 748.138 14.2614C747.752 14.5227 747.454 14.8636 747.246 15.2841C747.038 15.7045 746.933 16.1553 746.933 16.6364V17.4091C746.933 18.0682 747.047 18.6269 747.274 19.0852C747.505 19.5398 747.826 19.8864 748.235 20.125C748.644 20.3598 749.119 20.4773 749.661 20.4773C750.013 20.4773 750.331 20.428 750.615 20.3295C750.903 20.2273 751.151 20.0758 751.36 19.875C751.568 19.6705 751.729 19.4167 751.843 19.1136L753.138 19.4773C753.002 19.9167 752.772 20.303 752.451 20.6364C752.129 20.9659 751.731 21.2235 751.257 21.4091C750.784 21.5909 750.252 21.6818 749.661 21.6818Z" fill="#1B1716" fill-opacity="0.6"/>
<path d="M779.295 9.86364V21.5H777.886V9.86364H779.295ZM771.432 21.5L775.205 15.4318L771.75 9.86364H773.455L776.477 15.0227H780.727L783.75 9.86364H785.455L781.977 15.4545L785.75 21.5H784.136L780.977 16.3409H776.205L773.023 21.5H771.432ZM790.461 21.6818C789.62 21.6818 788.894 21.4962 788.285 21.125C787.679 20.75 787.211 20.2273 786.881 19.5568C786.555 18.8826 786.393 18.0985 786.393 17.2045C786.393 16.3106 786.555 15.5227 786.881 14.8409C787.211 14.1553 787.669 13.6212 788.256 13.2386C788.847 12.8523 789.536 12.6591 790.324 12.6591C790.779 12.6591 791.228 12.7348 791.671 12.8864C792.114 13.0379 792.518 13.2841 792.881 13.625C793.245 13.9621 793.535 14.4091 793.751 14.9659C793.966 15.5227 794.074 16.2083 794.074 17.0227V17.5909H787.347V16.4318H792.711C792.711 15.9394 792.612 15.5 792.415 15.1136C792.222 14.7273 791.946 14.4223 791.586 14.1989C791.23 13.9754 790.809 13.8636 790.324 13.8636C789.79 13.8636 789.328 13.9962 788.938 14.2614C788.552 14.5227 788.254 14.8636 788.046 15.2841C787.838 15.7045 787.733 16.1553 787.733 16.6364V17.4091C787.733 18.0682 787.847 18.6269 788.074 19.0852C788.305 19.5398 788.626 19.8864 789.035 20.125C789.444 20.3598 789.919 20.4773 790.461 20.4773C790.813 20.4773 791.131 20.428 791.415 20.3295C791.703 20.2273 791.951 20.0758 792.16 19.875C792.368 19.6705 792.529 19.4167 792.643 19.1136L793.938 19.4773C793.802 19.9167 793.572 20.303 793.251 20.6364C792.929 20.9659 792.531 21.2235 792.057 21.4091C791.584 21.5909 791.052 21.6818 790.461 21.6818ZM801.795 16.5227V17.7727H796.977V16.5227H801.795ZM797.295 12.7727V21.5H795.954V12.7727H797.295ZM802.818 12.7727V21.5H801.477V12.7727H802.818ZM808.652 21.6818C807.834 21.6818 807.129 21.4886 806.538 21.1023C805.948 20.7159 805.493 20.1837 805.175 19.5057C804.857 18.8277 804.698 18.053 804.698 17.1818C804.698 16.2955 804.86 15.5133 805.186 14.8352C805.516 14.1534 805.974 13.6212 806.561 13.2386C807.152 12.8523 807.841 12.6591 808.629 12.6591C809.243 12.6591 809.796 12.7727 810.288 13C810.781 13.2273 811.184 13.5455 811.499 13.9545C811.813 14.3636 812.008 14.8409 812.084 15.3864H810.743C810.641 14.9886 810.413 14.6364 810.061 14.3295C809.713 14.0189 809.243 13.8636 808.652 13.8636C808.129 13.8636 807.671 14 807.277 14.2727C806.887 14.5417 806.582 14.9223 806.362 15.4148C806.146 15.9034 806.038 16.4773 806.038 17.1364C806.038 17.8106 806.145 18.3977 806.357 18.8977C806.573 19.3977 806.876 19.786 807.266 20.0625C807.66 20.339 808.122 20.4773 808.652 20.4773C809.001 20.4773 809.317 20.4167 809.601 20.2955C809.885 20.1742 810.126 20 810.323 19.7727C810.52 19.5455 810.66 19.2727 810.743 18.9545H812.084C812.008 19.4697 811.821 19.9337 811.521 20.3466C811.226 20.7557 810.834 21.0814 810.345 21.3239C809.86 21.5625 809.296 21.6818 808.652 21.6818ZM813.884 21.5V12.7727H815.225V16.5682H816.111L819.248 12.7727H820.975L817.452 16.9773L821.021 21.5H819.293L816.43 17.8182H815.225V21.5H813.884ZM825.504 21.6818C824.716 21.6818 824.025 21.4943 823.43 21.1193C822.839 20.7443 822.377 20.2197 822.044 19.5455C821.714 18.8712 821.549 18.0833 821.549 17.1818C821.549 16.2727 821.714 15.4792 822.044 14.8011C822.377 14.1231 822.839 13.5966 823.43 13.2216C824.025 12.8466 824.716 12.6591 825.504 12.6591C826.292 12.6591 826.981 12.8466 827.572 13.2216C828.167 13.5966 828.629 14.1231 828.959 14.8011C829.292 15.4792 829.459 16.2727 829.459 17.1818C829.459 18.0833 829.292 18.8712 828.959 19.5455C828.629 20.2197 828.167 20.7443 827.572 21.1193C826.981 21.4943 826.292 21.6818 825.504 21.6818ZM825.504 20.4773C826.102 20.4773 826.595 20.3239 826.981 20.017C827.368 19.7102 827.654 19.3068 827.839 18.8068C828.025 18.3068 828.118 17.7652 828.118 17.1818C828.118 16.5985 828.025 16.0549 827.839 15.5511C827.654 15.0473 827.368 14.6402 826.981 14.3295C826.595 14.0189 826.102 13.8636 825.504 13.8636C824.905 13.8636 824.413 14.0189 824.027 14.3295C823.64 14.6402 823.354 15.0473 823.169 15.5511C822.983 16.0549 822.89 16.5985 822.89 17.1818C822.89 17.7652 822.983 18.3068 823.169 18.8068C823.354 19.3068 823.64 19.7102 824.027 20.017C824.413 20.3239 824.905 20.4773 825.504 20.4773ZM835.004 21.6818C834.164 21.6818 833.438 21.4962 832.828 21.125C832.222 20.75 831.754 20.2273 831.425 19.5568C831.099 18.8826 830.936 18.0985 830.936 17.2045C830.936 16.3106 831.099 15.5227 831.425 14.8409C831.754 14.1553 832.213 13.6212 832.8 13.2386C833.391 12.8523 834.08 12.6591 834.868 12.6591C835.323 12.6591 835.772 12.7348 836.215 12.8864C836.658 13.0379 837.061 13.2841 837.425 13.625C837.789 13.9621 838.078 14.4091 838.294 14.9659C838.51 15.5227 838.618 16.2083 838.618 17.0227V17.5909H831.891V16.4318H837.254C837.254 15.9394 837.156 15.5 836.959 15.1136C836.766 14.7273 836.489 14.4223 836.129 14.1989C835.773 13.9754 835.353 13.8636 834.868 13.8636C834.334 13.8636 833.872 13.9962 833.482 14.2614C833.095 14.5227 832.798 14.8636 832.59 15.2841C832.381 15.7045 832.277 16.1553 832.277 16.6364V17.4091C832.277 18.0682 832.391 18.6269 832.618 19.0852C832.849 19.5398 833.169 19.8864 833.578 20.125C833.987 20.3598 834.463 20.4773 835.004 20.4773C835.357 20.4773 835.675 20.428 835.959 20.3295C836.247 20.2273 836.495 20.0758 836.703 19.875C836.912 19.6705 837.073 19.4167 837.186 19.1136L838.482 19.4773C838.345 19.9167 838.116 20.303 837.794 20.6364C837.472 20.9659 837.075 21.2235 836.601 21.4091C836.128 21.5909 835.595 21.6818 835.004 21.6818Z" fill="#1B1716" fill-opacity="0.6"/>
<path d="M858.023 21.6591V20.3409H858.75C859.03 20.3409 859.265 20.286 859.455 20.1761C859.648 20.0663 859.807 19.9242 859.932 19.75C860.061 19.5758 860.167 19.3939 860.25 19.2045L860.432 18.7727L856.409 9.86364H857.932L861.136 17.0909L864.068 9.86364H865.568L861.545 19.6136C861.386 19.9773 861.205 20.3144 861 20.625C860.799 20.9356 860.525 21.1856 860.176 21.375C859.831 21.5644 859.364 21.6591 858.773 21.6591H858.023ZM872.252 16.5227V17.7727H867.434V16.5227H872.252ZM867.752 12.7727V21.5H866.411V12.7727H867.752ZM873.275 12.7727V21.5H871.934V12.7727H873.275ZM876.904 19.5227L881.109 12.7727H882.654V21.5H881.314V14.75L877.132 21.5H875.564V12.7727H876.904V19.5227ZM888.496 21.6818C887.678 21.6818 886.973 21.4886 886.382 21.1023C885.791 20.7159 885.337 20.1837 885.019 19.5057C884.7 18.8277 884.541 18.053 884.541 17.1818C884.541 16.2955 884.704 15.5133 885.03 14.8352C885.359 14.1534 885.818 13.6212 886.405 13.2386C886.996 12.8523 887.685 12.6591 888.473 12.6591C889.087 12.6591 889.64 12.7727 890.132 13C890.625 13.2273 891.028 13.5455 891.342 13.9545C891.657 14.3636 891.852 14.8409 891.928 15.3864H890.587C890.484 14.9886 890.257 14.6364 889.905 14.3295C889.556 14.0189 889.087 13.8636 888.496 13.8636C887.973 13.8636 887.515 14 887.121 14.2727C886.731 14.5417 886.426 14.9223 886.206 15.4148C885.99 15.9034 885.882 16.4773 885.882 17.1364C885.882 17.8106 885.988 18.3977 886.2 18.8977C886.416 19.3977 886.719 19.786 887.109 20.0625C887.503 20.339 887.966 20.4773 888.496 20.4773C888.844 20.4773 889.161 20.4167 889.445 20.2955C889.729 20.1742 889.969 20 890.166 19.7727C890.363 19.5455 890.503 19.2727 890.587 18.9545H891.928C891.852 19.4697 891.664 19.9337 891.365 20.3466C891.07 20.7557 890.678 21.0814 890.189 21.3239C889.704 21.5625 889.14 21.6818 888.496 21.6818ZM897.387 21.6818C896.546 21.6818 895.821 21.4962 895.211 21.125C894.605 20.75 894.137 20.2273 893.807 19.5568C893.482 18.8826 893.319 18.0985 893.319 17.2045C893.319 16.3106 893.482 15.5227 893.807 14.8409C894.137 14.1553 894.595 13.6212 895.182 13.2386C895.773 12.8523 896.463 12.6591 897.251 12.6591C897.705 12.6591 898.154 12.7348 898.597 12.8864C899.04 13.0379 899.444 13.2841 899.807 13.625C900.171 13.9621 900.461 14.4091 900.677 14.9659C900.893 15.5227 901.001 16.2083 901.001 17.0227V17.5909H894.273V16.4318H899.637C899.637 15.9394 899.539 15.5 899.342 15.1136C899.148 14.7273 898.872 14.4223 898.512 14.1989C898.156 13.9754 897.735 13.8636 897.251 13.8636C896.717 13.8636 896.254 13.9962 895.864 14.2614C895.478 14.5227 895.181 14.8636 894.972 15.2841C894.764 15.7045 894.66 16.1553 894.66 16.6364V17.4091C894.66 18.0682 894.773 18.6269 895.001 19.0852C895.232 19.5398 895.552 19.8864 895.961 20.125C896.37 20.3598 896.845 20.4773 897.387 20.4773C897.739 20.4773 898.057 20.428 898.342 20.3295C898.629 20.2273 898.878 20.0758 899.086 19.875C899.294 19.6705 899.455 19.4167 899.569 19.1136L900.864 19.4773C900.728 19.9167 900.499 20.303 900.177 20.6364C899.855 20.9659 899.457 21.2235 898.984 21.4091C898.51 21.5909 897.978 21.6818 897.387 21.6818ZM902.88 21.5V12.7727H904.221V16.5682H905.108L908.244 12.7727H909.971L906.449 16.9773L910.017 21.5H908.289L905.426 17.8182H904.221V21.5H902.88ZM914.5 21.6818C913.682 21.6818 912.978 21.4886 912.387 21.1023C911.796 20.7159 911.341 20.1837 911.023 19.5057C910.705 18.8277 910.546 18.053 910.546 17.1818C910.546 16.2955 910.709 15.5133 911.034 14.8352C911.364 14.1534 911.822 13.6212 912.409 13.2386C913 12.8523 913.69 12.6591 914.478 12.6591C915.091 12.6591 915.644 12.7727 916.137 13C916.629 13.2273 917.032 13.5455 917.347 13.9545C917.661 14.3636 917.856 14.8409 917.932 15.3864H916.591C916.489 14.9886 916.262 14.6364 915.909 14.3295C915.561 14.0189 915.091 13.8636 914.5 13.8636C913.978 13.8636 913.519 14 913.125 14.2727C912.735 14.5417 912.43 14.9223 912.21 15.4148C911.995 15.9034 911.887 16.4773 911.887 17.1364C911.887 17.8106 911.993 18.3977 912.205 18.8977C912.421 19.3977 912.724 19.786 913.114 20.0625C913.508 20.339 913.97 20.4773 914.5 20.4773C914.849 20.4773 915.165 20.4167 915.449 20.2955C915.733 20.1742 915.974 20 916.171 19.7727C916.368 19.5455 916.508 19.2727 916.591 18.9545H917.932C917.856 19.4697 917.669 19.9337 917.37 20.3466C917.074 20.7557 916.682 21.0814 916.193 21.3239C915.709 21.5625 915.144 21.6818 914.5 21.6818Z" fill="#1B1716" fill-opacity="0.6"/>
</svg>
