<svg width="1216" height="35" viewBox="0 0 1216 35" fill="none" xmlns="http://www.w3.org/2000/svg">
<g clip-path="url(#clip0_14181_501)">
<rect width="105" height="35" rx="10" fill="#1B1716" fill-opacity="0.6"/>
<path d="M17.4091 23V11.3636H21.4773C22.2879 11.3636 22.9564 11.5038 23.483 11.7841C24.0095 12.0606 24.4015 12.4337 24.6591 12.9034C24.9167 13.3693 25.0455 13.8864 25.0455 14.4545C25.0455 14.9545 24.9564 15.3674 24.7784 15.6932C24.6042 16.0189 24.3731 16.2765 24.0852 16.4659C23.8011 16.6553 23.4924 16.7955 23.1591 16.8864V17C23.5152 17.0227 23.8731 17.1477 24.233 17.375C24.5928 17.6023 24.8939 17.928 25.1364 18.3523C25.3788 18.7765 25.5 19.2955 25.5 19.9091C25.5 20.4924 25.3674 21.017 25.1023 21.483C24.8371 21.9489 24.4186 22.3182 23.8466 22.5909C23.2746 22.8636 22.5303 23 21.6136 23H17.4091ZM18.8182 21.75H21.6136C22.5341 21.75 23.1875 21.572 23.5739 21.2159C23.964 20.8561 24.1591 20.4205 24.1591 19.9091C24.1591 19.5152 24.0587 19.1515 23.858 18.8182C23.6572 18.4811 23.3712 18.2121 23 18.0114C22.6288 17.8068 22.1894 17.7045 21.6818 17.7045H18.8182V21.75ZM18.8182 16.4773H21.4318C21.8561 16.4773 22.2386 16.3939 22.5795 16.2273C22.9242 16.0606 23.197 15.8258 23.3977 15.5227C23.6023 15.2197 23.7045 14.8636 23.7045 14.4545C23.7045 13.9432 23.5265 13.5095 23.1705 13.1534C22.8144 12.7936 22.25 12.6136 21.4773 12.6136H18.8182V16.4773ZM28.9744 21.0227L33.179 14.2727H34.7244V23H33.3835V16.25L29.2017 23H27.6335V14.2727H28.9744V21.0227ZM43.0213 18.0227V19.2727H38.2031V18.0227H43.0213ZM38.5213 14.2727V23H37.1804V14.2727H38.5213ZM44.044 14.2727V23H42.7031V14.2727H44.044ZM45.3054 15.5227V14.2727H52.3963V15.5227H49.5327V23H48.1918V15.5227H45.3054ZM56.4673 23.2045C55.9143 23.2045 55.4124 23.1004 54.9616 22.892C54.5109 22.6799 54.1529 22.375 53.8878 21.9773C53.6226 21.5758 53.4901 21.0909 53.4901 20.5227C53.4901 20.0227 53.5885 19.6174 53.7855 19.3068C53.9825 18.9924 54.2457 18.7462 54.5753 18.5682C54.9048 18.3902 55.2685 18.2576 55.6662 18.1705C56.0677 18.0795 56.4711 18.0076 56.8764 17.9545C57.4067 17.8864 57.8366 17.8352 58.1662 17.8011C58.4995 17.7633 58.742 17.7008 58.8935 17.6136C59.0488 17.5265 59.1264 17.375 59.1264 17.1591V17.1136C59.1264 16.553 58.973 16.1174 58.6662 15.8068C58.3632 15.4962 57.9029 15.3409 57.2855 15.3409C56.6454 15.3409 56.1435 15.4811 55.7798 15.7614C55.4162 16.0417 55.1605 16.3409 55.0128 16.6591L53.7401 16.2045C53.9673 15.6742 54.2704 15.2614 54.6491 14.9659C55.0317 14.6667 55.4484 14.4583 55.8991 14.3409C56.3537 14.2197 56.8007 14.1591 57.2401 14.1591C57.5204 14.1591 57.8423 14.1932 58.206 14.2614C58.5734 14.3258 58.9276 14.4602 59.2685 14.6648C59.6132 14.8693 59.8991 15.178 60.1264 15.5909C60.3537 16.0038 60.4673 16.5568 60.4673 17.25V23H59.1264V21.8182H59.0582C58.9673 22.0076 58.8158 22.2102 58.6037 22.4261C58.3916 22.642 58.1094 22.8258 57.7571 22.9773C57.4048 23.1288 56.9749 23.2045 56.4673 23.2045ZM56.6719 22C57.2022 22 57.6491 21.8958 58.0128 21.6875C58.3802 21.4792 58.6567 21.2102 58.8423 20.8807C59.0317 20.5511 59.1264 20.2045 59.1264 19.8409V18.6136C59.0696 18.6818 58.9446 18.7443 58.7514 18.8011C58.562 18.8542 58.3423 18.9015 58.0923 18.9432C57.8461 18.9811 57.6056 19.0152 57.3707 19.0455C57.1397 19.072 56.9522 19.0947 56.8082 19.1136C56.4598 19.1591 56.134 19.233 55.831 19.3352C55.5317 19.4337 55.2893 19.5833 55.1037 19.7841C54.9219 19.9811 54.831 20.25 54.831 20.5909C54.831 21.0568 55.0033 21.4091 55.348 21.6477C55.6965 21.8826 56.1378 22 56.6719 22ZM62.3693 23L65.9148 18.5682L62.4148 14.2727H64.0057L66.9148 18H67.642V14.2727H68.983V18H69.6875L72.5966 14.2727H74.1875L70.7102 18.5682L74.233 23H72.6193L69.6648 19.25H68.983V23H67.642V19.25H66.9602L63.983 23H62.3693Z" fill="#F6F5EC"/>
<path d="M83 12.0625L83.8924 11L88.7528 16.7904C88.8311 16.8831 88.8933 16.9935 88.9357 17.115C88.9782 17.2365 89 17.3669 89 17.4985C89 17.6301 88.9782 17.7605 88.9357 17.882C88.8933 18.0035 88.8311 18.1138 88.7528 18.2066L83.8924 24L83.0008 22.9375L87.5627 17.5L83 12.0625Z" fill="#F6F5EC"/>
<rect x="113" width="170" height="35" rx="10" fill="#1B1716" fill-opacity="0.6"/>
<path d="M129.773 12.6136V11.3636H138.5V12.6136H134.841V23H133.432V12.6136H129.773ZM140.357 26.2727C140.129 26.2727 139.927 26.2538 139.749 26.2159C139.571 26.1818 139.447 26.1477 139.379 26.1136L139.72 24.9318C140.046 25.0152 140.334 25.0455 140.584 25.0227C140.834 25 141.055 24.8883 141.249 24.6875C141.446 24.4905 141.625 24.1705 141.788 23.7273L142.038 23.0455L138.811 14.2727H140.266L142.675 21.2273H142.766L145.175 14.2727H146.629L142.925 24.2727C142.758 24.7235 142.552 25.0966 142.305 25.392C142.059 25.6913 141.773 25.9129 141.447 26.0568C141.125 26.2008 140.762 26.2727 140.357 26.2727ZM150.702 23.2045C150.149 23.2045 149.647 23.1004 149.196 22.892C148.745 22.6799 148.387 22.375 148.122 21.9773C147.857 21.5758 147.724 21.0909 147.724 20.5227C147.724 20.0227 147.823 19.6174 148.02 19.3068C148.217 18.9924 148.48 18.7462 148.81 18.5682C149.139 18.3902 149.503 18.2576 149.901 18.1705C150.302 18.0795 150.705 18.0076 151.111 17.9545C151.641 17.8864 152.071 17.8352 152.401 17.8011C152.734 17.7633 152.976 17.7008 153.128 17.6136C153.283 17.5265 153.361 17.375 153.361 17.1591V17.1136C153.361 16.553 153.207 16.1174 152.901 15.8068C152.598 15.4962 152.137 15.3409 151.52 15.3409C150.88 15.3409 150.378 15.4811 150.014 15.7614C149.651 16.0417 149.395 16.3409 149.247 16.6591L147.974 16.2045C148.202 15.6742 148.505 15.2614 148.884 14.9659C149.266 14.6667 149.683 14.4583 150.134 14.3409C150.588 14.2197 151.035 14.1591 151.474 14.1591C151.755 14.1591 152.077 14.1932 152.44 14.2614C152.808 14.3258 153.162 14.4602 153.503 14.6648C153.848 14.8693 154.134 15.178 154.361 15.5909C154.588 16.0038 154.702 16.5568 154.702 17.25V23H153.361V21.8182H153.293C153.202 22.0076 153.05 22.2102 152.838 22.4261C152.626 22.642 152.344 22.8258 151.991 22.9773C151.639 23.1288 151.209 23.2045 150.702 23.2045ZM150.906 22C151.437 22 151.884 21.8958 152.247 21.6875C152.615 21.4792 152.891 21.2102 153.077 20.8807C153.266 20.5511 153.361 20.2045 153.361 19.8409V18.6136C153.304 18.6818 153.179 18.7443 152.986 18.8011C152.796 18.8542 152.577 18.9015 152.327 18.9432C152.08 18.9811 151.84 19.0152 151.605 19.0455C151.374 19.072 151.187 19.0947 151.043 19.1136C150.694 19.1591 150.368 19.233 150.065 19.3352C149.766 19.4337 149.524 19.5833 149.338 19.7841C149.156 19.9811 149.065 20.25 149.065 20.5909C149.065 21.0568 149.238 21.4091 149.582 21.6477C149.931 21.8826 150.372 22 150.906 22ZM156.376 23V21.75H156.695C156.956 21.75 157.174 21.6989 157.348 21.5966C157.522 21.4905 157.662 21.3068 157.768 21.0455C157.878 20.7803 157.962 20.4129 158.018 19.9432C158.079 19.4697 158.123 18.8674 158.149 18.1364L158.308 14.2727H164.126V23H162.786V15.5227H159.581L159.445 18.6364C159.414 19.3523 159.35 19.983 159.251 20.5284C159.157 21.0701 159.011 21.5246 158.814 21.892C158.621 22.2595 158.363 22.536 158.041 22.7216C157.719 22.9072 157.316 23 156.831 23H156.376ZM170.246 23.1818C169.405 23.1818 168.679 22.9962 168.07 22.625C167.464 22.25 166.996 21.7273 166.666 21.0568C166.34 20.3826 166.178 19.5985 166.178 18.7045C166.178 17.8106 166.34 17.0227 166.666 16.3409C166.996 15.6553 167.454 15.1212 168.041 14.7386C168.632 14.3523 169.321 14.1591 170.109 14.1591C170.564 14.1591 171.013 14.2348 171.456 14.3864C171.899 14.5379 172.303 14.7841 172.666 15.125C173.03 15.4621 173.32 15.9091 173.536 16.4659C173.751 17.0227 173.859 17.7083 173.859 18.5227V19.0909H167.132V17.9318H172.496C172.496 17.4394 172.397 17 172.2 16.6136C172.007 16.2273 171.731 15.9223 171.371 15.6989C171.015 15.4754 170.594 15.3636 170.109 15.3636C169.575 15.3636 169.113 15.4962 168.723 15.7614C168.337 16.0227 168.039 16.3636 167.831 16.7841C167.623 17.2045 167.518 17.6553 167.518 18.1364V18.9091C167.518 19.5682 167.632 20.1269 167.859 20.5852C168.09 21.0398 168.411 21.3864 168.82 21.625C169.229 21.8598 169.704 21.9773 170.246 21.9773C170.598 21.9773 170.916 21.928 171.2 21.8295C171.488 21.7273 171.736 21.5758 171.945 21.375C172.153 21.1705 172.314 20.9167 172.428 20.6136L173.723 20.9773C173.587 21.4167 173.357 21.803 173.036 22.1364C172.714 22.4659 172.316 22.7235 171.842 22.9091C171.369 23.0909 170.837 23.1818 170.246 23.1818ZM175.087 15.5227V14.2727H182.178V15.5227H179.314V23H177.973V15.5227H175.087ZM189.974 18.0227V19.2727H185.156V18.0227H189.974ZM185.474 14.2727V23H184.134V14.2727H185.474ZM190.997 14.2727V23H189.656V14.2727H190.997ZM196.014 23.2045C195.461 23.2045 194.959 23.1004 194.509 22.892C194.058 22.6799 193.7 22.375 193.435 21.9773C193.17 21.5758 193.037 21.0909 193.037 20.5227C193.037 20.0227 193.135 19.6174 193.332 19.3068C193.529 18.9924 193.793 18.7462 194.122 18.5682C194.452 18.3902 194.815 18.2576 195.213 18.1705C195.615 18.0795 196.018 18.0076 196.423 17.9545C196.954 17.8864 197.384 17.8352 197.713 17.8011C198.046 17.7633 198.289 17.7008 198.44 17.6136C198.596 17.5265 198.673 17.375 198.673 17.1591V17.1136C198.673 16.553 198.52 16.1174 198.213 15.8068C197.91 15.4962 197.45 15.3409 196.832 15.3409C196.192 15.3409 195.69 15.4811 195.327 15.7614C194.963 16.0417 194.707 16.3409 194.56 16.6591L193.287 16.2045C193.514 15.6742 193.817 15.2614 194.196 14.9659C194.579 14.6667 194.995 14.4583 195.446 14.3409C195.901 14.2197 196.348 14.1591 196.787 14.1591C197.067 14.1591 197.389 14.1932 197.753 14.2614C198.12 14.3258 198.474 14.4602 198.815 14.6648C199.16 14.8693 199.446 15.178 199.673 15.5909C199.901 16.0038 200.014 16.5568 200.014 17.25V23H198.673V21.8182H198.605C198.514 22.0076 198.363 22.2102 198.151 22.4261C197.938 22.642 197.656 22.8258 197.304 22.9773C196.952 23.1288 196.522 23.2045 196.014 23.2045ZM196.219 22C196.749 22 197.196 21.8958 197.56 21.6875C197.927 21.4792 198.204 21.2102 198.389 20.8807C198.579 20.5511 198.673 20.2045 198.673 19.8409V18.6136C198.616 18.6818 198.491 18.7443 198.298 18.8011C198.109 18.8542 197.889 18.9015 197.639 18.9432C197.393 18.9811 197.152 19.0152 196.918 19.0455C196.687 19.072 196.499 19.0947 196.355 19.1136C196.007 19.1591 195.681 19.233 195.378 19.3352C195.079 19.4337 194.836 19.5833 194.651 19.7841C194.469 19.9811 194.378 20.25 194.378 20.5909C194.378 21.0568 194.55 21.4091 194.895 21.6477C195.243 21.8826 195.685 22 196.219 22ZM207.712 23V15.5H205.393C204.871 15.5 204.46 15.6212 204.161 15.8636C203.861 16.1061 203.712 16.4394 203.712 16.8636C203.712 17.2803 203.846 17.608 204.115 17.8466C204.388 18.0852 204.761 18.2045 205.234 18.2045H208.053V19.4545H205.234C204.643 19.4545 204.134 19.3504 203.706 19.142C203.278 18.9337 202.948 18.6364 202.717 18.25C202.486 17.8598 202.371 17.3977 202.371 16.8636C202.371 16.3258 202.492 15.8636 202.734 15.4773C202.977 15.0909 203.323 14.7936 203.774 14.5852C204.229 14.3769 204.768 14.2727 205.393 14.2727H208.984V23H207.712ZM201.893 23L204.371 18.6591H205.825L203.348 23H201.893ZM215.946 23V14.2727H219.514C220.454 14.2727 221.2 14.4848 221.753 14.9091C222.306 15.3333 222.582 15.8939 222.582 16.5909C222.582 17.1212 222.425 17.5322 222.111 17.8239C221.796 18.1117 221.393 18.3068 220.901 18.4091C221.223 18.4545 221.535 18.5682 221.838 18.75C222.145 18.9318 222.399 19.1818 222.599 19.5C222.8 19.8144 222.901 20.2008 222.901 20.6591C222.901 21.1061 222.787 21.5057 222.56 21.858C222.332 22.2102 222.007 22.4886 221.582 22.6932C221.158 22.8977 220.651 23 220.06 23H215.946ZM217.219 21.7727H220.06C220.522 21.7727 220.884 21.6629 221.145 21.4432C221.406 21.2235 221.537 20.9242 221.537 20.5455C221.537 20.0947 221.406 19.7405 221.145 19.483C220.884 19.2216 220.522 19.0909 220.06 19.0909H217.219V21.7727ZM217.219 17.9318H219.514C219.874 17.9318 220.183 17.8826 220.44 17.7841C220.698 17.6818 220.895 17.5379 221.031 17.3523C221.171 17.1629 221.241 16.9394 221.241 16.6818C221.241 16.3144 221.088 16.0265 220.781 15.8182C220.474 15.6061 220.052 15.5 219.514 15.5H217.219V17.9318ZM228.476 23.1818C227.688 23.1818 226.997 22.9943 226.402 22.6193C225.811 22.2443 225.349 21.7197 225.016 21.0455C224.686 20.3712 224.521 19.5833 224.521 18.6818C224.521 17.7727 224.686 16.9792 225.016 16.3011C225.349 15.6231 225.811 15.0966 226.402 14.7216C226.997 14.3466 227.688 14.1591 228.476 14.1591C229.264 14.1591 229.953 14.3466 230.544 14.7216C231.139 15.0966 231.601 15.6231 231.93 16.3011C232.264 16.9792 232.43 17.7727 232.43 18.6818C232.43 19.5833 232.264 20.3712 231.93 21.0455C231.601 21.7197 231.139 22.2443 230.544 22.6193C229.953 22.9943 229.264 23.1818 228.476 23.1818ZM228.476 21.9773C229.074 21.9773 229.567 21.8239 229.953 21.517C230.339 21.2102 230.625 20.8068 230.811 20.3068C230.997 19.8068 231.089 19.2652 231.089 18.6818C231.089 18.0985 230.997 17.5549 230.811 17.0511C230.625 16.5473 230.339 16.1402 229.953 15.8295C229.567 15.5189 229.074 15.3636 228.476 15.3636C227.877 15.3636 227.385 15.5189 226.999 15.8295C226.612 16.1402 226.326 16.5473 226.141 17.0511C225.955 17.5549 225.862 18.0985 225.862 18.6818C225.862 19.2652 225.955 19.8068 226.141 20.3068C226.326 20.8068 226.612 21.2102 226.999 21.517C227.385 21.8239 227.877 21.9773 228.476 21.9773ZM233.545 25.5V21.75H234.273C234.451 21.5644 234.604 21.3636 234.733 21.1477C234.862 20.9318 234.973 20.6761 235.068 20.3807C235.167 20.0814 235.25 19.7178 235.318 19.2898C235.386 18.858 235.447 18.3371 235.5 17.7273L235.795 14.2727H241.341V21.75H242.682V25.5H241.341V23H234.886V25.5H233.545ZM235.795 21.75H240V15.5227H237.045L236.818 17.7273C236.723 18.6402 236.606 19.4375 236.466 20.1193C236.326 20.8011 236.102 21.3447 235.795 21.75ZM247.03 23.2045C246.477 23.2045 245.975 23.1004 245.524 22.892C245.073 22.6799 244.715 22.375 244.45 21.9773C244.185 21.5758 244.053 21.0909 244.053 20.5227C244.053 20.0227 244.151 19.6174 244.348 19.3068C244.545 18.9924 244.808 18.7462 245.138 18.5682C245.467 18.3902 245.831 18.2576 246.229 18.1705C246.63 18.0795 247.034 18.0076 247.439 17.9545C247.969 17.8864 248.399 17.8352 248.729 17.8011C249.062 17.7633 249.304 17.7008 249.456 17.6136C249.611 17.5265 249.689 17.375 249.689 17.1591V17.1136C249.689 16.553 249.536 16.1174 249.229 15.8068C248.926 15.4962 248.465 15.3409 247.848 15.3409C247.208 15.3409 246.706 15.4811 246.342 15.7614C245.979 16.0417 245.723 16.3409 245.575 16.6591L244.303 16.2045C244.53 15.6742 244.833 15.2614 245.212 14.9659C245.594 14.6667 246.011 14.4583 246.462 14.3409C246.916 14.2197 247.363 14.1591 247.803 14.1591C248.083 14.1591 248.405 14.1932 248.768 14.2614C249.136 14.3258 249.49 14.4602 249.831 14.6648C250.176 14.8693 250.462 15.178 250.689 15.5909C250.916 16.0038 251.03 16.5568 251.03 17.25V23H249.689V21.8182H249.621C249.53 22.0076 249.378 22.2102 249.166 22.4261C248.954 22.642 248.672 22.8258 248.32 22.9773C247.967 23.1288 247.537 23.2045 247.03 23.2045ZM247.234 22C247.765 22 248.212 21.8958 248.575 21.6875C248.943 21.4792 249.219 21.2102 249.405 20.8807C249.594 20.5511 249.689 20.2045 249.689 19.8409V18.6136C249.632 18.6818 249.507 18.7443 249.314 18.8011C249.125 18.8542 248.905 18.9015 248.655 18.9432C248.409 18.9811 248.168 19.0152 247.933 19.0455C247.702 19.072 247.515 19.0947 247.371 19.1136C247.022 19.1591 246.696 19.233 246.393 19.3352C246.094 19.4337 245.852 19.5833 245.666 19.7841C245.484 19.9811 245.393 20.25 245.393 20.5909C245.393 21.0568 245.566 21.4091 245.911 21.6477C246.259 21.8826 246.7 22 247.234 22Z" fill="#F6F5EC"/>
<path d="M261 12.0625L261.892 11L266.753 16.7904C266.831 16.8831 266.893 16.9935 266.936 17.115C266.978 17.2365 267 17.3669 267 17.4985C267 17.6301 266.978 17.7605 266.936 17.882C266.893 18.0035 266.831 18.1138 266.753 18.2066L261.892 24L261.001 22.9375L265.563 17.5L261 12.0625Z" fill="#F6F5EC"/>
<rect x="291" width="153" height="35" rx="10" fill="#1B1716" fill-opacity="0.6"/>
<path d="M308.409 23V11.3636H309.818V21.75H315.227V23H308.409ZM317.608 11.3636V12.3864C317.608 12.697 317.552 13.0284 317.438 13.3807C317.328 13.7292 317.165 14.0682 316.949 14.3977C316.737 14.7235 316.48 15.0076 316.177 15.25L315.449 14.6591C315.688 14.3182 315.894 13.964 316.069 13.5966C316.247 13.2254 316.336 12.8295 316.336 12.4091V11.3636H317.608ZM317.691 23H316.214L320.487 11.3636H321.941L326.214 23H324.737L321.26 13.2045H321.169L317.691 23ZM318.237 18.4545H324.191V19.7045H318.237V18.4545ZM327.779 23V14.2727H329.119V23H327.779ZM328.46 12.8182C328.199 12.8182 327.974 12.7292 327.784 12.5511C327.599 12.3731 327.506 12.1591 327.506 11.9091C327.506 11.6591 327.599 11.4451 327.784 11.267C327.974 11.089 328.199 11 328.46 11C328.722 11 328.945 11.089 329.131 11.267C329.32 11.4451 329.415 11.6591 329.415 11.9091C329.415 12.1591 329.32 12.3731 329.131 12.5511C328.945 12.7292 328.722 12.8182 328.46 12.8182ZM331.415 23V14.2727H332.711V15.5909H332.802C332.961 15.1591 333.249 14.8087 333.665 14.5398C334.082 14.2708 334.552 14.1364 335.074 14.1364C335.173 14.1364 335.296 14.1383 335.444 14.142C335.592 14.1458 335.703 14.1515 335.779 14.1591V15.5227C335.734 15.5114 335.629 15.4943 335.467 15.4716C335.307 15.4451 335.139 15.4318 334.961 15.4318C334.537 15.4318 334.158 15.5208 333.824 15.6989C333.495 15.8731 333.234 16.1155 333.04 16.4261C332.851 16.733 332.756 17.0833 332.756 17.4773V23H331.415ZM344.844 23.1818C344.117 23.1818 343.475 22.9981 342.918 22.6307C342.361 22.2595 341.925 21.7367 341.611 21.0625C341.297 20.3845 341.139 19.5833 341.139 18.6591C341.139 17.7424 341.297 16.947 341.611 16.2727C341.925 15.5985 342.363 15.0777 342.924 14.7102C343.484 14.3428 344.132 14.1591 344.867 14.1591C345.435 14.1591 345.884 14.2538 346.213 14.4432C346.547 14.6288 346.8 14.8409 346.975 15.0795C347.153 15.3144 347.291 15.5076 347.389 15.6591H347.503V11.3636H348.844V23H347.549V21.6591H347.389C347.291 21.8182 347.151 22.0189 346.969 22.2614C346.787 22.5 346.528 22.714 346.191 22.9034C345.853 23.089 345.405 23.1818 344.844 23.1818ZM345.026 21.9773C345.564 21.9773 346.018 21.8371 346.389 21.5568C346.761 21.2727 347.043 20.8807 347.236 20.3807C347.429 19.8769 347.526 19.2955 347.526 18.6364C347.526 17.9848 347.431 17.4148 347.242 16.9261C347.052 16.4337 346.772 16.0511 346.401 15.7784C346.03 15.5019 345.571 15.3636 345.026 15.3636C344.458 15.3636 343.984 15.5095 343.605 15.8011C343.23 16.089 342.948 16.4811 342.759 16.9773C342.573 17.4697 342.48 18.0227 342.48 18.6364C342.48 19.2576 342.575 19.822 342.764 20.3295C342.958 20.8333 343.242 21.2348 343.617 21.5341C343.995 21.8295 344.465 21.9773 345.026 21.9773ZM356.826 19.4318V14.2727H358.167V23H356.826V21.5227H356.735C356.531 21.9659 356.212 22.3428 355.781 22.6534C355.349 22.9602 354.803 23.1136 354.144 23.1136C353.599 23.1136 353.114 22.9943 352.69 22.7557C352.265 22.5133 351.932 22.1496 351.69 21.6648C351.447 21.1761 351.326 20.5606 351.326 19.8182V14.2727H352.667V19.7273C352.667 20.3636 352.845 20.8712 353.201 21.25C353.561 21.6288 354.019 21.8182 354.576 21.8182C354.909 21.8182 355.248 21.733 355.593 21.5625C355.942 21.392 356.233 21.1307 356.468 20.7784C356.707 20.4261 356.826 19.9773 356.826 19.4318ZM364.348 12.6136V11.3636H373.076V12.6136H369.417V23H368.007V12.6136H364.348ZM377.302 23.1818C376.461 23.1818 375.736 22.9962 375.126 22.625C374.52 22.25 374.052 21.7273 373.722 21.0568C373.397 20.3826 373.234 19.5985 373.234 18.7045C373.234 17.8106 373.397 17.0227 373.722 16.3409C374.052 15.6553 374.51 15.1212 375.097 14.7386C375.688 14.3523 376.378 14.1591 377.166 14.1591C377.62 14.1591 378.069 14.2348 378.512 14.3864C378.955 14.5379 379.359 14.7841 379.722 15.125C380.086 15.4621 380.376 15.9091 380.592 16.4659C380.808 17.0227 380.916 17.7083 380.916 18.5227V19.0909H374.188V17.9318H379.552C379.552 17.4394 379.454 17 379.257 16.6136C379.063 16.2273 378.787 15.9223 378.427 15.6989C378.071 15.4754 377.65 15.3636 377.166 15.3636C376.632 15.3636 376.169 15.4962 375.779 15.7614C375.393 16.0227 375.096 16.3636 374.887 16.7841C374.679 17.2045 374.575 17.6553 374.575 18.1364V18.9091C374.575 19.5682 374.688 20.1269 374.916 20.5852C375.147 21.0398 375.467 21.3864 375.876 21.625C376.285 21.8598 376.76 21.9773 377.302 21.9773C377.654 21.9773 377.972 21.928 378.257 21.8295C378.544 21.7273 378.793 21.5758 379.001 21.375C379.209 21.1705 379.37 20.9167 379.484 20.6136L380.779 20.9773C380.643 21.4167 380.414 21.803 380.092 22.1364C379.77 22.4659 379.372 22.7235 378.899 22.9091C378.425 23.0909 377.893 23.1818 377.302 23.1818ZM382.795 23V14.2727H384.091V15.6364H384.204C384.386 15.1705 384.68 14.8087 385.085 14.5511C385.49 14.2898 385.977 14.1591 386.545 14.1591C387.121 14.1591 387.6 14.2898 387.983 14.5511C388.369 14.8087 388.67 15.1705 388.886 15.6364H388.977C389.201 15.1856 389.536 14.8277 389.983 14.5625C390.43 14.2936 390.966 14.1591 391.591 14.1591C392.371 14.1591 393.009 14.4034 393.506 14.892C394.002 15.3769 394.25 16.1326 394.25 17.1591V23H392.909V17.1591C392.909 16.5152 392.733 16.0549 392.381 15.7784C392.028 15.5019 391.614 15.3636 391.136 15.3636C390.523 15.3636 390.047 15.5492 389.71 15.9205C389.373 16.2879 389.204 16.7538 389.204 17.3182V23H387.841V17.0227C387.841 16.5265 387.68 16.1269 387.358 15.8239C387.036 15.517 386.621 15.3636 386.114 15.3636C385.765 15.3636 385.439 15.4564 385.136 15.642C384.837 15.8277 384.595 16.0852 384.409 16.4148C384.227 16.7405 384.136 17.1174 384.136 17.5455V23H382.795ZM396.542 26.2727V14.2727H397.837V15.6591H397.996C398.095 15.5076 398.231 15.3144 398.405 15.0795C398.583 14.8409 398.837 14.6288 399.167 14.4432C399.5 14.2538 399.951 14.1591 400.519 14.1591C401.254 14.1591 401.901 14.3428 402.462 14.7102C403.023 15.0777 403.46 15.5985 403.775 16.2727C404.089 16.947 404.246 17.7424 404.246 18.6591C404.246 19.5833 404.089 20.3845 403.775 21.0625C403.46 21.7367 403.025 22.2595 402.468 22.6307C401.911 22.9981 401.269 23.1818 400.542 23.1818C399.981 23.1818 399.532 23.089 399.195 22.9034C398.858 22.714 398.598 22.5 398.417 22.2614C398.235 22.0189 398.095 21.8182 397.996 21.6591H397.883V26.2727H396.542ZM397.86 18.6364C397.86 19.2955 397.956 19.8769 398.15 20.3807C398.343 20.8807 398.625 21.2727 398.996 21.5568C399.367 21.8371 399.822 21.9773 400.36 21.9773C400.92 21.9773 401.388 21.8295 401.763 21.5341C402.142 21.2348 402.426 20.8333 402.616 20.3295C402.809 19.822 402.905 19.2576 402.905 18.6364C402.905 18.0227 402.811 17.4697 402.621 16.9773C402.436 16.4811 402.153 16.089 401.775 15.8011C401.4 15.5095 400.928 15.3636 400.36 15.3636C399.814 15.3636 399.356 15.5019 398.985 15.7784C398.614 16.0511 398.333 16.4337 398.144 16.9261C397.955 17.4148 397.86 17.9848 397.86 18.6364ZM412.313 16.2273L411.109 16.5682C411.033 16.3674 410.921 16.1723 410.774 15.983C410.63 15.7898 410.433 15.6307 410.183 15.5057C409.933 15.3807 409.613 15.3182 409.223 15.3182C408.688 15.3182 408.243 15.4413 407.887 15.6875C407.535 15.9299 407.359 16.2386 407.359 16.6136C407.359 16.947 407.48 17.2102 407.723 17.4034C407.965 17.5966 408.344 17.7576 408.859 17.8864L410.154 18.2045C410.935 18.3939 411.516 18.6837 411.899 19.0739C412.281 19.4602 412.473 19.9583 412.473 20.5682C412.473 21.0682 412.329 21.5152 412.041 21.9091C411.757 22.303 411.359 22.6136 410.848 22.8409C410.336 23.0682 409.741 23.1818 409.063 23.1818C408.173 23.1818 407.437 22.9886 406.853 22.6023C406.27 22.2159 405.901 21.6515 405.745 20.9091L407.018 20.5909C407.139 21.0606 407.368 21.4129 407.706 21.6477C408.046 21.8826 408.491 22 409.041 22C409.666 22 410.162 21.8674 410.529 21.6023C410.901 21.3333 411.086 21.0114 411.086 20.6364C411.086 20.3333 410.98 20.0795 410.768 19.875C410.556 19.6667 410.23 19.5114 409.791 19.4091L408.336 19.0682C407.537 18.8788 406.95 18.5852 406.575 18.1875C406.204 17.786 406.018 17.2841 406.018 16.6818C406.018 16.1894 406.156 15.7538 406.433 15.375C406.713 14.9962 407.094 14.6989 407.575 14.483C408.06 14.267 408.609 14.1591 409.223 14.1591C410.086 14.1591 410.764 14.3485 411.257 14.7273C411.753 15.1061 412.105 15.6061 412.313 16.2273Z" fill="#F6F5EC"/>
<path d="M422 12.0625L422.892 11L427.753 16.7904C427.831 16.8831 427.893 16.9935 427.936 17.115C427.978 17.2365 428 17.3669 428 17.4985C428 17.6301 427.978 17.7605 427.936 17.882C427.893 18.0035 427.831 18.1138 427.753 18.2066L422.892 24L422.001 22.9375L426.563 17.5L422 12.0625Z" fill="#F6F5EC"/>
<rect x="452" width="77" height="35" rx="10" fill="#1B1716" fill-opacity="0.6"/>
<path d="M469.409 23V11.3636H476.432V12.6136H470.818V16.5455H476.068V17.7955H470.818V21.75H476.523V23H469.409ZM482.562 23H478.972V11.3636H482.722C483.85 11.3636 484.816 11.5966 485.619 12.0625C486.422 12.5246 487.038 13.1894 487.466 14.0568C487.894 14.9205 488.108 15.9545 488.108 17.1591C488.108 18.3712 487.892 19.4148 487.46 20.2898C487.028 21.161 486.4 21.8314 485.574 22.3011C484.748 22.767 483.744 23 482.562 23ZM480.381 21.75H482.472C483.434 21.75 484.231 21.5644 484.864 21.1932C485.496 20.822 485.968 20.2936 486.278 19.608C486.589 18.9223 486.744 18.1061 486.744 17.1591C486.744 16.2197 486.591 15.411 486.284 14.733C485.977 14.0511 485.519 13.5284 484.909 13.1648C484.299 12.7973 483.54 12.6136 482.631 12.6136H480.381V21.75ZM489.351 12.6136V11.3636H498.078V12.6136H494.419V23H493.01V12.6136H489.351Z" fill="#F6F5EC"/>
<path d="M507 12.0625L507.892 11L512.753 16.7904C512.831 16.8831 512.893 16.9935 512.936 17.115C512.978 17.2365 513 17.3669 513 17.4985C513 17.6301 512.978 17.7605 512.936 17.882C512.893 18.0035 512.831 18.1138 512.753 18.2066L507.892 24L507.001 22.9375L511.563 17.5L507 12.0625Z" fill="#F6F5EC"/>
<rect x="537" width="96" height="35" rx="10" fill="#1B1716" fill-opacity="0.6"/>
<path d="M563.773 15H562.364C562.28 14.5947 562.134 14.2386 561.926 13.9318C561.722 13.625 561.472 13.3674 561.176 13.1591C560.884 12.947 560.561 12.7879 560.205 12.6818C559.848 12.5758 559.477 12.5227 559.091 12.5227C558.386 12.5227 557.748 12.7008 557.176 13.0568C556.608 13.4129 556.155 13.9375 555.818 14.6307C555.485 15.3239 555.318 16.1742 555.318 17.1818C555.318 18.1894 555.485 19.0398 555.818 19.733C556.155 20.4261 556.608 20.9508 557.176 21.3068C557.748 21.6629 558.386 21.8409 559.091 21.8409C559.477 21.8409 559.848 21.7879 560.205 21.6818C560.561 21.5758 560.884 21.4186 561.176 21.2102C561.472 20.9981 561.722 20.7386 561.926 20.4318C562.134 20.1212 562.28 19.7652 562.364 19.3636H563.773C563.667 19.9583 563.473 20.4905 563.193 20.9602C562.913 21.4299 562.564 21.8295 562.148 22.1591C561.731 22.4848 561.263 22.733 560.744 22.9034C560.229 23.0739 559.678 23.1591 559.091 23.1591C558.098 23.1591 557.216 22.9167 556.443 22.4318C555.67 21.947 555.063 21.2576 554.619 20.3636C554.176 19.4697 553.955 18.4091 553.955 17.1818C553.955 15.9545 554.176 14.8939 554.619 14C555.063 13.1061 555.67 12.4167 556.443 11.9318C557.216 11.447 558.098 11.2045 559.091 11.2045C559.678 11.2045 560.229 11.2898 560.744 11.4602C561.263 11.6307 561.731 11.8807 562.148 12.2102C562.564 12.536 562.913 12.9337 563.193 13.4034C563.473 13.8693 563.667 14.4015 563.773 15ZM565.868 23V14.2727H572.732V23H571.391V15.5227H567.209V23H565.868ZM575.18 26.2727V14.2727H576.476V15.6591H576.635C576.733 15.5076 576.87 15.3144 577.044 15.0795C577.222 14.8409 577.476 14.6288 577.805 14.4432C578.139 14.2538 578.589 14.1591 579.158 14.1591C579.893 14.1591 580.54 14.3428 581.101 14.7102C581.661 15.0777 582.099 15.5985 582.413 16.2727C582.728 16.947 582.885 17.7424 582.885 18.6591C582.885 19.5833 582.728 20.3845 582.413 21.0625C582.099 21.7367 581.663 22.2595 581.107 22.6307C580.55 22.9981 579.908 23.1818 579.18 23.1818C578.62 23.1818 578.171 23.089 577.834 22.9034C577.497 22.714 577.237 22.5 577.055 22.2614C576.874 22.0189 576.733 21.8182 576.635 21.6591H576.521V26.2727H575.18ZM576.499 18.6364C576.499 19.2955 576.595 19.8769 576.788 20.3807C576.982 20.8807 577.264 21.2727 577.635 21.5568C578.006 21.8371 578.461 21.9773 578.999 21.9773C579.559 21.9773 580.027 21.8295 580.402 21.5341C580.781 21.2348 581.065 20.8333 581.254 20.3295C581.447 19.822 581.544 19.2576 581.544 18.6364C581.544 18.0227 581.449 17.4697 581.26 16.9773C581.074 16.4811 580.792 16.089 580.413 15.8011C580.038 15.5095 579.567 15.3636 578.999 15.3636C578.453 15.3636 577.995 15.5019 577.624 15.7784C577.252 16.0511 576.972 16.4337 576.783 16.9261C576.593 17.4148 576.499 17.9848 576.499 18.6364ZM588.589 23.1818C587.749 23.1818 587.023 22.9962 586.413 22.625C585.807 22.25 585.339 21.7273 585.01 21.0568C584.684 20.3826 584.521 19.5985 584.521 18.7045C584.521 17.8106 584.684 17.0227 585.01 16.3409C585.339 15.6553 585.798 15.1212 586.385 14.7386C586.976 14.3523 587.665 14.1591 588.453 14.1591C588.908 14.1591 589.357 14.2348 589.8 14.3864C590.243 14.5379 590.646 14.7841 591.01 15.125C591.374 15.4621 591.663 15.9091 591.879 16.4659C592.095 17.0227 592.203 17.7083 592.203 18.5227V19.0909H585.476V17.9318H590.839C590.839 17.4394 590.741 17 590.544 16.6136C590.351 16.2273 590.074 15.9223 589.714 15.6989C589.358 15.4754 588.938 15.3636 588.453 15.3636C587.919 15.3636 587.457 15.4962 587.067 15.7614C586.68 16.0227 586.383 16.3636 586.175 16.7841C585.966 17.2045 585.862 17.6553 585.862 18.1364V18.9091C585.862 19.5682 585.976 20.1269 586.203 20.5852C586.434 21.0398 586.754 21.3864 587.163 21.625C587.572 21.8598 588.048 21.9773 588.589 21.9773C588.942 21.9773 589.26 21.928 589.544 21.8295C589.832 21.7273 590.08 21.5758 590.288 21.375C590.497 21.1705 590.658 20.9167 590.771 20.6136L592.067 20.9773C591.93 21.4167 591.701 21.803 591.379 22.1364C591.057 22.4659 590.66 22.7235 590.186 22.9091C589.713 23.0909 589.18 23.1818 588.589 23.1818ZM595.584 21.0227L599.788 14.2727H601.334V23H599.993V16.25L595.811 23H594.243V14.2727H595.584V21.0227ZM598.902 11.3636H600.152C600.152 11.9773 599.94 12.4792 599.516 12.8693C599.091 13.2595 598.516 13.4545 597.788 13.4545C597.072 13.4545 596.502 13.2595 596.078 12.8693C595.658 12.4792 595.447 11.9773 595.447 11.3636H596.697C596.697 11.6591 596.779 11.9186 596.942 12.142C597.108 12.3655 597.391 12.4773 597.788 12.4773C598.186 12.4773 598.47 12.3655 598.641 12.142C598.815 11.9186 598.902 11.6591 598.902 11.3636Z" fill="#F6F5EC"/>
<path d="M611 12.0625L611.892 11L616.753 16.7904C616.831 16.8831 616.893 16.9935 616.936 17.115C616.978 17.2365 617 17.3669 617 17.4985C617 17.6301 616.978 17.7605 616.936 17.882C616.893 18.0035 616.831 18.1138 616.753 18.2066L611.892 24L611.001 22.9375L615.563 17.5L611 12.0625Z" fill="#F6F5EC"/>
<rect x="641" width="100" height="35" rx="10" fill="#1B1716" fill-opacity="0.6"/>
<path d="M662.295 11.3636V23H660.886V12.8409H660.818L657.977 14.7273V13.2955L660.886 11.3636H662.295ZM665.642 23V21.9773L669.483 17.7727C669.934 17.2803 670.305 16.8523 670.597 16.4886C670.888 16.1212 671.104 15.7765 671.244 15.4545C671.388 15.1288 671.46 14.7879 671.46 14.4318C671.46 14.0227 671.362 13.6686 671.165 13.3693C670.972 13.0701 670.706 12.839 670.369 12.6761C670.032 12.5133 669.653 12.4318 669.233 12.4318C668.786 12.4318 668.396 12.5246 668.062 12.7102C667.733 12.892 667.477 13.1477 667.295 13.4773C667.117 13.8068 667.028 14.1932 667.028 14.6364H665.688C665.688 13.9545 665.845 13.3561 666.159 12.8409C666.473 12.3258 666.902 11.9242 667.443 11.6364C667.989 11.3485 668.6 11.2045 669.278 11.2045C669.96 11.2045 670.564 11.3485 671.091 11.6364C671.617 11.9242 672.03 12.3125 672.33 12.8011C672.629 13.2898 672.778 13.8333 672.778 14.4318C672.778 14.8598 672.701 15.2784 672.545 15.6875C672.394 16.0928 672.129 16.5455 671.75 17.0455C671.375 17.5417 670.854 18.1477 670.188 18.8636L667.574 21.6591V21.75H672.983V23H665.642ZM679.125 23.1591C678.269 23.1591 677.54 22.9261 676.938 22.4602C676.335 21.9905 675.875 21.3106 675.557 20.4205C675.239 19.5265 675.08 18.447 675.08 17.1818C675.08 15.9242 675.239 14.8504 675.557 13.9602C675.879 13.0663 676.341 12.3845 676.943 11.9148C677.549 11.4413 678.277 11.2045 679.125 11.2045C679.973 11.2045 680.699 11.4413 681.301 11.9148C681.907 12.3845 682.369 13.0663 682.688 13.9602C683.009 14.8504 683.17 15.9242 683.17 17.1818C683.17 18.447 683.011 19.5265 682.693 20.4205C682.375 21.3106 681.915 21.9905 681.312 22.4602C680.71 22.9261 679.981 23.1591 679.125 23.1591ZM679.125 21.9091C679.973 21.9091 680.633 21.5 681.102 20.6818C681.572 19.8636 681.807 18.697 681.807 17.1818C681.807 16.1742 681.699 15.3163 681.483 14.608C681.271 13.8996 680.964 13.3598 680.562 12.9886C680.165 12.6174 679.686 12.4318 679.125 12.4318C678.284 12.4318 677.627 12.8466 677.153 13.6761C676.68 14.5019 676.443 15.6705 676.443 17.1818C676.443 18.1894 676.549 19.0455 676.761 19.75C676.973 20.4545 677.278 20.9905 677.676 21.358C678.078 21.7254 678.561 21.9091 679.125 21.9091ZM694.625 21.1818L697.67 14.2727H698.943L695.17 23H694.08L690.375 14.2727H691.625L694.625 21.1818ZM691.193 14.2727V23H689.852V14.2727H691.193ZM698.057 23V14.2727H699.398V23H698.057ZM701.08 23V21.75H701.398C701.659 21.75 701.877 21.6989 702.051 21.5966C702.225 21.4905 702.366 21.3068 702.472 21.0455C702.581 20.7803 702.665 20.4129 702.722 19.9432C702.782 19.4697 702.826 18.8674 702.852 18.1364L703.011 14.2727H708.83V23H707.489V15.5227H704.284L704.148 18.6364C704.117 19.3523 704.053 19.983 703.955 20.5284C703.86 21.0701 703.714 21.5246 703.517 21.892C703.324 22.2595 703.066 22.536 702.744 22.7216C702.422 22.9072 702.019 23 701.534 23H701.08Z" fill="#F6F5EC"/>
<path d="M719 12.0625L719.892 11L724.753 16.7904C724.831 16.8831 724.893 16.9935 724.936 17.115C724.978 17.2365 725 17.3669 725 17.4985C725 17.6301 724.978 17.7605 724.936 17.882C724.893 18.0035 724.831 18.1138 724.753 18.2066L719.892 24L719.001 22.9375L723.563 17.5L719 12.0625Z" fill="#F6F5EC"/>
<rect x="749" width="108" height="35" rx="10" fill="#1B1716" fill-opacity="0.6"/>
<path d="M775.114 11.3636V23H773.705V12.6136H767.841V23H766.432V11.3636H775.114ZM781.32 23.1818C780.532 23.1818 779.84 22.9943 779.246 22.6193C778.655 22.2443 778.193 21.7197 777.859 21.0455C777.53 20.3712 777.365 19.5833 777.365 18.6818C777.365 17.7727 777.53 16.9792 777.859 16.3011C778.193 15.6231 778.655 15.0966 779.246 14.7216C779.84 14.3466 780.532 14.1591 781.32 14.1591C782.107 14.1591 782.797 14.3466 783.388 14.7216C783.982 15.0966 784.445 15.6231 784.774 16.3011C785.107 16.9792 785.274 17.7727 785.274 18.6818C785.274 19.5833 785.107 20.3712 784.774 21.0455C784.445 21.7197 783.982 22.2443 783.388 22.6193C782.797 22.9943 782.107 23.1818 781.32 23.1818ZM781.32 21.9773C781.918 21.9773 782.411 21.8239 782.797 21.517C783.183 21.2102 783.469 20.8068 783.655 20.3068C783.84 19.8068 783.933 19.2652 783.933 18.6818C783.933 18.0985 783.84 17.5549 783.655 17.0511C783.469 16.5473 783.183 16.1402 782.797 15.8295C782.411 15.5189 781.918 15.3636 781.32 15.3636C780.721 15.3636 780.229 15.5189 779.842 15.8295C779.456 16.1402 779.17 16.5473 778.984 17.0511C778.799 17.5549 778.706 18.0985 778.706 18.6818C778.706 19.2652 778.799 19.8068 778.984 20.3068C779.17 20.8068 779.456 21.2102 779.842 21.517C780.229 21.8239 780.721 21.9773 781.32 21.9773ZM786.548 23V21.75H786.866C787.128 21.75 787.346 21.6989 787.52 21.5966C787.694 21.4905 787.834 21.3068 787.94 21.0455C788.05 20.7803 788.134 20.4129 788.19 19.9432C788.251 19.4697 788.295 18.8674 788.321 18.1364L788.48 14.2727H794.298V23H792.957V15.5227H789.753L789.616 18.6364C789.586 19.3523 789.522 19.983 789.423 20.5284C789.329 21.0701 789.183 21.5246 788.986 21.892C788.793 22.2595 788.535 22.536 788.213 22.7216C787.891 22.9072 787.488 23 787.003 23H786.548ZM802.599 18.0227V19.2727H797.781V18.0227H802.599ZM798.099 14.2727V23H796.759V14.2727H798.099ZM803.622 14.2727V23H802.281V14.2727H803.622ZM807.23 17.4318H809.73C810.753 17.4318 811.535 17.6913 812.077 18.2102C812.618 18.7292 812.889 19.3864 812.889 20.1818C812.889 20.7045 812.768 21.1799 812.526 21.608C812.283 22.0322 811.927 22.3712 811.457 22.625C810.988 22.875 810.412 23 809.73 23H806.071V14.2727H807.412V21.75H809.73C810.26 21.75 810.696 21.6098 811.037 21.3295C811.378 21.0492 811.548 20.6894 811.548 20.25C811.548 19.7879 811.378 19.411 811.037 19.1193C810.696 18.8277 810.26 18.6818 809.73 18.6818H807.23V17.4318ZM814.276 23V14.2727H815.616V23H814.276ZM819.412 21.0227L823.616 14.2727H825.162V23H823.821V16.25L819.639 23H818.071V14.2727H819.412V21.0227ZM822.73 11.3636H823.98C823.98 11.9773 823.768 12.4792 823.344 12.8693C822.92 13.2595 822.344 13.4545 821.616 13.4545C820.901 13.4545 820.33 13.2595 819.906 12.8693C819.486 12.4792 819.276 11.9773 819.276 11.3636H820.526C820.526 11.6591 820.607 11.9186 820.77 12.142C820.937 12.3655 821.219 12.4773 821.616 12.4773C822.014 12.4773 822.298 12.3655 822.469 12.142C822.643 11.9186 822.73 11.6591 822.73 11.3636Z" fill="#F6F5EC"/>
<path d="M835 12.0625L835.892 11L840.753 16.7904C840.831 16.8831 840.893 16.9935 840.936 17.115C840.978 17.2365 841 17.3669 841 17.4985C841 17.6301 840.978 17.7605 840.936 17.882C840.893 18.0035 840.831 18.1138 840.753 18.2066L835.892 24L835.001 22.9375L839.563 17.5L835 12.0625Z" fill="#F6F5EC"/>
<rect x="865" width="121" height="35" rx="10" fill="#1B1716" fill-opacity="0.6"/>
<path d="M891.636 11.3636V23H890.273L883.932 13.8636H883.818V23H882.409V11.3636H883.773L890.136 20.5227H890.25V11.3636H891.636ZM894.274 23V14.2727H895.615V23H894.274ZM894.956 12.8182C894.695 12.8182 894.469 12.7292 894.28 12.5511C894.094 12.3731 894.001 12.1591 894.001 11.9091C894.001 11.6591 894.094 11.4451 894.28 11.267C894.469 11.089 894.695 11 894.956 11C895.217 11 895.441 11.089 895.626 11.267C895.816 11.4451 895.911 11.6591 895.911 11.9091C895.911 12.1591 895.816 12.3731 895.626 12.5511C895.441 12.7292 895.217 12.8182 894.956 12.8182ZM899.412 17.75V23H898.071V14.2727H899.366V15.6364H899.48C899.685 15.1932 899.995 14.8371 900.412 14.5682C900.829 14.2955 901.366 14.1591 902.026 14.1591C902.616 14.1591 903.134 14.2803 903.577 14.5227C904.02 14.7614 904.365 15.125 904.611 15.6136C904.857 16.0985 904.98 16.7121 904.98 17.4545V23H903.639V17.5455C903.639 16.8598 903.461 16.3258 903.105 15.9432C902.749 15.5568 902.26 15.3636 901.639 15.3636C901.211 15.3636 900.829 15.4564 900.491 15.642C900.158 15.8277 899.895 16.0985 899.702 16.4545C899.509 16.8106 899.412 17.2424 899.412 17.75ZM909.999 23.2045C909.446 23.2045 908.944 23.1004 908.493 22.892C908.042 22.6799 907.684 22.375 907.419 21.9773C907.154 21.5758 907.021 21.0909 907.021 20.5227C907.021 20.0227 907.12 19.6174 907.317 19.3068C907.514 18.9924 907.777 18.7462 908.107 18.5682C908.436 18.3902 908.8 18.2576 909.197 18.1705C909.599 18.0795 910.002 18.0076 910.408 17.9545C910.938 17.8864 911.368 17.8352 911.697 17.8011C912.031 17.7633 912.273 17.7008 912.425 17.6136C912.58 17.5265 912.658 17.375 912.658 17.1591V17.1136C912.658 16.553 912.504 16.1174 912.197 15.8068C911.894 15.4962 911.434 15.3409 910.817 15.3409C910.177 15.3409 909.675 15.4811 909.311 15.7614C908.947 16.0417 908.692 16.3409 908.544 16.6591L907.271 16.2045C907.499 15.6742 907.802 15.2614 908.18 14.9659C908.563 14.6667 908.98 14.4583 909.43 14.3409C909.885 14.2197 910.332 14.1591 910.771 14.1591C911.052 14.1591 911.374 14.1932 911.737 14.2614C912.105 14.3258 912.459 14.4602 912.8 14.6648C913.144 14.8693 913.43 15.178 913.658 15.5909C913.885 16.0038 913.999 16.5568 913.999 17.25V23H912.658V21.8182H912.589C912.499 22.0076 912.347 22.2102 912.135 22.4261C911.923 22.642 911.641 22.8258 911.288 22.9773C910.936 23.1288 910.506 23.2045 909.999 23.2045ZM910.203 22C910.733 22 911.18 21.8958 911.544 21.6875C911.911 21.4792 912.188 21.2102 912.374 20.8807C912.563 20.5511 912.658 20.2045 912.658 19.8409V18.6136C912.601 18.6818 912.476 18.7443 912.283 18.8011C912.093 18.8542 911.874 18.9015 911.624 18.9432C911.377 18.9811 911.137 19.0152 910.902 19.0455C910.671 19.072 910.483 19.0947 910.339 19.1136C909.991 19.1591 909.665 19.233 909.362 19.3352C909.063 19.4337 908.821 19.5833 908.635 19.7841C908.453 19.9811 908.362 20.25 908.362 20.5909C908.362 21.0568 908.535 21.4091 908.879 21.6477C909.228 21.8826 909.669 22 910.203 22ZM921.128 23V11.3636H925.06C925.969 11.3636 926.715 11.5189 927.298 11.8295C927.882 12.1364 928.313 12.5587 928.594 13.0966C928.874 13.6345 929.014 14.2462 929.014 14.9318C929.014 15.6174 928.874 16.2254 928.594 16.7557C928.313 17.286 927.884 17.7027 927.304 18.0057C926.724 18.3049 925.984 18.4545 925.082 18.4545H921.901V17.1818H925.037C925.658 17.1818 926.158 17.0909 926.537 16.9091C926.92 16.7273 927.196 16.4697 927.366 16.1364C927.541 15.7992 927.628 15.3977 927.628 14.9318C927.628 14.4659 927.541 14.0587 927.366 13.7102C927.192 13.3617 926.914 13.0928 926.531 12.9034C926.149 12.7102 925.643 12.6136 925.014 12.6136H922.537V23H921.128ZM926.605 17.7727L929.469 23H927.832L925.014 17.7727H926.605ZM931.18 23V14.2727H932.521V23H931.18ZM931.862 12.8182C931.601 12.8182 931.375 12.7292 931.186 12.5511C931 12.3731 930.908 12.1591 930.908 11.9091C930.908 11.6591 931 11.4451 931.186 11.267C931.375 11.089 931.601 11 931.862 11C932.124 11 932.347 11.089 932.533 11.267C932.722 11.4451 932.817 11.6591 932.817 11.9091C932.817 12.1591 932.722 12.3731 932.533 12.5511C932.347 12.7292 932.124 12.8182 931.862 12.8182ZM938.523 23.1818C937.705 23.1818 937 22.9886 936.409 22.6023C935.818 22.2159 935.364 21.6837 935.045 21.0057C934.727 20.3277 934.568 19.553 934.568 18.6818C934.568 17.7955 934.731 17.0133 935.057 16.3352C935.386 15.6534 935.845 15.1212 936.432 14.7386C937.023 14.3523 937.712 14.1591 938.5 14.1591C939.114 14.1591 939.667 14.2727 940.159 14.5C940.652 14.7273 941.055 15.0455 941.369 15.4545C941.684 15.8636 941.879 16.3409 941.955 16.8864H940.614C940.511 16.4886 940.284 16.1364 939.932 15.8295C939.583 15.5189 939.114 15.3636 938.523 15.3636C938 15.3636 937.542 15.5 937.148 15.7727C936.758 16.0417 936.453 16.4223 936.233 16.9148C936.017 17.4034 935.909 17.9773 935.909 18.6364C935.909 19.3106 936.015 19.8977 936.227 20.3977C936.443 20.8977 936.746 21.286 937.136 21.5625C937.53 21.839 937.992 21.9773 938.523 21.9773C938.871 21.9773 939.188 21.9167 939.472 21.7955C939.756 21.6742 939.996 21.5 940.193 21.2727C940.39 21.0455 940.53 20.7727 940.614 20.4545H941.955C941.879 20.9697 941.691 21.4337 941.392 21.8466C941.097 22.2557 940.705 22.5814 940.216 22.8239C939.731 23.0625 939.167 23.1818 938.523 23.1818ZM947.46 23.1818C946.642 23.1818 945.938 22.9886 945.347 22.6023C944.756 22.2159 944.301 21.6837 943.983 21.0057C943.665 20.3277 943.506 19.553 943.506 18.6818C943.506 17.7955 943.669 17.0133 943.994 16.3352C944.324 15.6534 944.782 15.1212 945.369 14.7386C945.96 14.3523 946.65 14.1591 947.438 14.1591C948.051 14.1591 948.604 14.2727 949.097 14.5C949.589 14.7273 949.992 15.0455 950.307 15.4545C950.621 15.8636 950.816 16.3409 950.892 16.8864H949.551C949.449 16.4886 949.222 16.1364 948.869 15.8295C948.521 15.5189 948.051 15.3636 947.46 15.3636C946.938 15.3636 946.479 15.5 946.085 15.7727C945.695 16.0417 945.39 16.4223 945.17 16.9148C944.955 17.4034 944.847 17.9773 944.847 18.6364C944.847 19.3106 944.953 19.8977 945.165 20.3977C945.381 20.8977 945.684 21.286 946.074 21.5625C946.468 21.839 946.93 21.9773 947.46 21.9773C947.809 21.9773 948.125 21.9167 948.409 21.7955C948.693 21.6742 948.934 21.5 949.131 21.2727C949.328 21.0455 949.468 20.7727 949.551 20.4545H950.892C950.816 20.9697 950.629 21.4337 950.33 21.8466C950.034 22.2557 949.642 22.5814 949.153 22.8239C948.669 23.0625 948.104 23.1818 947.46 23.1818ZM952.852 23V14.2727H954.193V23H952.852ZM953.534 12.8182C953.273 12.8182 953.047 12.7292 952.858 12.5511C952.672 12.3731 952.58 12.1591 952.58 11.9091C952.58 11.6591 952.672 11.4451 952.858 11.267C953.047 11.089 953.273 11 953.534 11C953.795 11 954.019 11.089 954.205 11.267C954.394 11.4451 954.489 11.6591 954.489 11.9091C954.489 12.1591 954.394 12.3731 954.205 12.5511C954.019 12.7292 953.795 12.8182 953.534 12.8182Z" fill="#F6F5EC"/>
<path d="M964 12.0625L964.892 11L969.753 16.7904C969.831 16.8831 969.893 16.9935 969.936 17.115C969.978 17.2365 970 17.3669 970 17.4985C970 17.6301 969.978 17.7605 969.936 17.882C969.893 18.0035 969.831 18.1138 969.753 18.2066L964.892 24L964.001 22.9375L968.563 17.5L964 12.0625Z" fill="#F6F5EC"/>
<rect x="994" width="116" height="35" rx="10" fill="#1B1716" fill-opacity="0.6"/>
<path d="M1015.41 12.75H1017.25C1018.11 12.75 1018.88 12.9432 1019.55 13.3295C1020.22 13.7159 1020.75 14.2538 1021.13 14.9432C1021.51 15.6326 1021.7 16.4318 1021.7 17.3409C1021.7 18.25 1021.51 19.0511 1021.13 19.7443C1020.75 20.4375 1020.22 20.9792 1019.55 21.3693C1018.88 21.7595 1018.11 21.9545 1017.25 21.9545H1015.41C1014.55 21.9545 1013.78 21.7614 1013.11 21.375C1012.44 20.9886 1011.91 20.4508 1011.53 19.7614C1011.15 19.072 1010.95 18.2727 1010.95 17.3636C1010.95 16.4545 1011.15 15.6534 1011.53 14.9602C1011.91 14.267 1012.44 13.7254 1013.11 13.3352C1013.78 12.9451 1014.55 12.75 1015.41 12.75ZM1015.41 14C1014.75 14 1014.19 14.1383 1013.74 14.4148C1013.29 14.6913 1012.95 15.0814 1012.71 15.5852C1012.48 16.089 1012.36 16.6818 1012.36 17.3636C1012.36 18.0379 1012.48 18.625 1012.71 19.125C1012.95 19.625 1013.29 20.0133 1013.74 20.2898C1014.19 20.5663 1014.75 20.7045 1015.41 20.7045H1017.25C1017.91 20.7045 1018.46 20.5663 1018.91 20.2898C1019.37 20.0133 1019.71 19.6231 1019.94 19.1193C1020.18 18.6155 1020.3 18.0227 1020.3 17.3409C1020.3 16.6667 1020.18 16.0795 1019.94 15.5795C1019.71 15.0795 1019.37 14.6913 1018.91 14.4148C1018.46 14.1383 1017.91 14 1017.25 14H1015.41ZM1017.05 11.1591V23.4773H1015.64V11.1591H1017.05ZM1023.88 26.2727V14.2727H1025.18V15.6591H1025.34C1025.44 15.5076 1025.57 15.3144 1025.75 15.0795C1025.93 14.8409 1026.18 14.6288 1026.51 14.4432C1026.84 14.2538 1027.29 14.1591 1027.86 14.1591C1028.6 14.1591 1029.24 14.3428 1029.8 14.7102C1030.36 15.0777 1030.8 15.5985 1031.12 16.2727C1031.43 16.947 1031.59 17.7424 1031.59 18.6591C1031.59 19.5833 1031.43 20.3845 1031.12 21.0625C1030.8 21.7367 1030.37 22.2595 1029.81 22.6307C1029.25 22.9981 1028.61 23.1818 1027.88 23.1818C1027.32 23.1818 1026.87 23.089 1026.54 22.9034C1026.2 22.714 1025.94 22.5 1025.76 22.2614C1025.58 22.0189 1025.44 21.8182 1025.34 21.6591H1025.22V26.2727H1023.88ZM1025.2 18.6364C1025.2 19.2955 1025.3 19.8769 1025.49 20.3807C1025.68 20.8807 1025.97 21.2727 1026.34 21.5568C1026.71 21.8371 1027.16 21.9773 1027.7 21.9773C1028.26 21.9773 1028.73 21.8295 1029.11 21.5341C1029.48 21.2348 1029.77 20.8333 1029.96 20.3295C1030.15 19.822 1030.25 19.2576 1030.25 18.6364C1030.25 18.0227 1030.15 17.4697 1029.96 16.9773C1029.78 16.4811 1029.5 16.089 1029.12 15.8011C1028.74 15.5095 1028.27 15.3636 1027.7 15.3636C1027.16 15.3636 1026.7 15.5019 1026.33 15.7784C1025.96 16.0511 1025.68 16.4337 1025.49 16.9261C1025.3 17.4148 1025.2 17.9848 1025.2 18.6364ZM1036.2 23.2045C1035.65 23.2045 1035.15 23.1004 1034.7 22.892C1034.25 22.6799 1033.89 22.375 1033.62 21.9773C1033.36 21.5758 1033.22 21.0909 1033.22 20.5227C1033.22 20.0227 1033.32 19.6174 1033.52 19.3068C1033.72 18.9924 1033.98 18.7462 1034.31 18.5682C1034.64 18.3902 1035 18.2576 1035.4 18.1705C1035.8 18.0795 1036.21 18.0076 1036.61 17.9545C1037.14 17.8864 1037.57 17.8352 1037.9 17.8011C1038.23 17.7633 1038.48 17.7008 1038.63 17.6136C1038.78 17.5265 1038.86 17.375 1038.86 17.1591V17.1136C1038.86 16.553 1038.71 16.1174 1038.4 15.8068C1038.1 15.4962 1037.64 15.3409 1037.02 15.3409C1036.38 15.3409 1035.88 15.4811 1035.51 15.7614C1035.15 16.0417 1034.89 16.3409 1034.75 16.6591L1033.47 16.2045C1033.7 15.6742 1034 15.2614 1034.38 14.9659C1034.77 14.6667 1035.18 14.4583 1035.63 14.3409C1036.09 14.2197 1036.54 14.1591 1036.97 14.1591C1037.25 14.1591 1037.58 14.1932 1037.94 14.2614C1038.31 14.3258 1038.66 14.4602 1039 14.6648C1039.35 14.8693 1039.63 15.178 1039.86 15.5909C1040.09 16.0038 1040.2 16.5568 1040.2 17.25V23H1038.86V21.8182H1038.79C1038.7 22.0076 1038.55 22.2102 1038.34 22.4261C1038.13 22.642 1037.84 22.8258 1037.49 22.9773C1037.14 23.1288 1036.71 23.2045 1036.2 23.2045ZM1036.41 22C1036.94 22 1037.38 21.8958 1037.75 21.6875C1038.11 21.4792 1038.39 21.2102 1038.58 20.8807C1038.77 20.5511 1038.86 20.2045 1038.86 19.8409V18.6136C1038.8 18.6818 1038.68 18.7443 1038.49 18.8011C1038.3 18.8542 1038.08 18.9015 1037.83 18.9432C1037.58 18.9811 1037.34 19.0152 1037.11 19.0455C1036.87 19.072 1036.69 19.0947 1036.54 19.1136C1036.19 19.1591 1035.87 19.233 1035.57 19.3352C1035.27 19.4337 1035.02 19.5833 1034.84 19.7841C1034.66 19.9811 1034.57 20.25 1034.57 20.5909C1034.57 21.0568 1034.74 21.4091 1035.08 21.6477C1035.43 21.8826 1035.87 22 1036.41 22ZM1048.49 18.0227V19.2727H1043.67V18.0227H1048.49ZM1043.99 14.2727V23H1042.65V14.2727H1043.99ZM1049.51 14.2727V23H1048.17V14.2727H1049.51ZM1058.83 14.2727V21.75H1060.05V25.8182H1058.71V23H1051.96V14.2727H1053.3V21.75H1057.48V14.2727H1058.83ZM1063.46 21.0227L1067.66 14.2727H1069.21V23H1067.87V16.25L1063.69 23H1062.12V14.2727H1063.46V21.0227ZM1076.91 23V15.5H1074.6C1074.07 15.5 1073.66 15.6212 1073.36 15.8636C1073.06 16.1061 1072.91 16.4394 1072.91 16.8636C1072.91 17.2803 1073.05 17.608 1073.32 17.8466C1073.59 18.0852 1073.96 18.2045 1074.44 18.2045H1077.26V19.4545H1074.44C1073.85 19.4545 1073.34 19.3504 1072.91 19.142C1072.48 18.9337 1072.15 18.6364 1071.92 18.25C1071.69 17.8598 1071.57 17.3977 1071.57 16.8636C1071.57 16.3258 1071.7 15.8636 1071.94 15.4773C1072.18 15.0909 1072.53 14.7936 1072.98 14.5852C1073.43 14.3769 1073.97 14.2727 1074.6 14.2727H1078.19V23H1076.91ZM1071.1 23L1073.57 18.6591H1075.03L1072.55 23H1071.1Z" fill="#F6F5EC"/>
<path d="M1088 12.0625L1088.89 11L1093.75 16.7904C1093.83 16.8831 1093.89 16.9935 1093.94 17.115C1093.98 17.2365 1094 17.3669 1094 17.4985C1094 17.6301 1093.98 17.7605 1093.94 17.882C1093.89 18.0035 1093.83 18.1138 1093.75 18.2066L1088.89 24L1088 22.9375L1092.56 17.5L1088 12.0625Z" fill="#F6F5EC"/>
<rect x="1118" width="101" height="35" rx="10" fill="#1B1716" fill-opacity="0.6"/>
<path d="M1139.3 11.3636V23H1137.89V12.8409H1137.82L1134.98 14.7273V13.2955L1137.89 11.3636H1139.3ZM1146.35 11.2045C1146.82 11.2083 1147.3 11.2992 1147.78 11.4773C1148.26 11.6553 1148.69 11.9508 1149.09 12.3636C1149.48 12.7727 1149.8 13.3314 1150.03 14.0398C1150.27 14.7481 1150.39 15.6364 1150.39 16.7045C1150.39 17.7386 1150.29 18.6572 1150.1 19.4602C1149.9 20.2595 1149.62 20.9337 1149.26 21.483C1148.89 22.0322 1148.45 22.4489 1147.93 22.733C1147.41 23.017 1146.82 23.1591 1146.16 23.1591C1145.51 23.1591 1144.93 23.0303 1144.42 22.7727C1143.91 22.5114 1143.5 22.1496 1143.17 21.6875C1142.85 21.2216 1142.64 20.6818 1142.55 20.0682H1143.94C1144.06 20.6023 1144.31 21.0436 1144.68 21.392C1145.06 21.7367 1145.55 21.9091 1146.16 21.9091C1147.06 21.9091 1147.77 21.517 1148.29 20.733C1148.81 19.9489 1149.07 18.8409 1149.07 17.4091H1148.98C1148.77 17.7273 1148.52 18.0019 1148.23 18.233C1147.94 18.464 1147.61 18.642 1147.26 18.767C1146.9 18.892 1146.52 18.9545 1146.12 18.9545C1145.45 18.9545 1144.84 18.7898 1144.28 18.4602C1143.73 18.1269 1143.29 17.6705 1142.95 17.0909C1142.62 16.5076 1142.46 15.8409 1142.46 15.0909C1142.46 14.3788 1142.62 13.7273 1142.94 13.1364C1143.26 12.5417 1143.71 12.0682 1144.29 11.7159C1144.87 11.3636 1145.56 11.1932 1146.35 11.2045ZM1146.35 12.4545C1145.87 12.4545 1145.44 12.5739 1145.06 12.8125C1144.68 13.0473 1144.38 13.3655 1144.15 13.767C1143.93 14.1648 1143.82 14.6061 1143.82 15.0909C1143.82 15.5758 1143.93 16.017 1144.14 16.4148C1144.36 16.8087 1144.65 17.1231 1145.02 17.358C1145.4 17.589 1145.82 17.7045 1146.3 17.7045C1146.66 17.7045 1147 17.6345 1147.31 17.4943C1147.62 17.3504 1147.89 17.1553 1148.12 16.9091C1148.35 16.6591 1148.54 16.3769 1148.67 16.0625C1148.8 15.7443 1148.87 15.4129 1148.87 15.0682C1148.87 14.6136 1148.76 14.1875 1148.54 13.7898C1148.32 13.392 1148.02 13.0701 1147.64 12.8239C1147.26 12.5777 1146.83 12.4545 1146.35 12.4545ZM1156.33 11.2045C1156.81 11.2083 1157.29 11.2992 1157.76 11.4773C1158.24 11.6553 1158.68 11.9508 1159.07 12.3636C1159.46 12.7727 1159.78 13.3314 1160.02 14.0398C1160.26 14.7481 1160.38 15.6364 1160.38 16.7045C1160.38 17.7386 1160.28 18.6572 1160.08 19.4602C1159.89 20.2595 1159.61 20.9337 1159.24 21.483C1158.88 22.0322 1158.43 22.4489 1157.91 22.733C1157.39 23.017 1156.8 23.1591 1156.15 23.1591C1155.5 23.1591 1154.92 23.0303 1154.4 22.7727C1153.9 22.5114 1153.48 22.1496 1153.15 21.6875C1152.83 21.2216 1152.63 20.6818 1152.54 20.0682H1153.92C1154.05 20.6023 1154.29 21.0436 1154.67 21.392C1155.04 21.7367 1155.54 21.9091 1156.15 21.9091C1157.05 21.9091 1157.76 21.517 1158.27 20.733C1158.8 19.9489 1159.06 18.8409 1159.06 17.4091H1158.97C1158.76 17.7273 1158.5 18.0019 1158.21 18.233C1157.92 18.464 1157.6 18.642 1157.24 18.767C1156.88 18.892 1156.51 18.9545 1156.1 18.9545C1155.44 18.9545 1154.83 18.7898 1154.27 18.4602C1153.72 18.1269 1153.27 17.6705 1152.94 17.0909C1152.61 16.5076 1152.44 15.8409 1152.44 15.0909C1152.44 14.3788 1152.6 13.7273 1152.92 13.1364C1153.24 12.5417 1153.69 12.0682 1154.27 11.7159C1154.86 11.3636 1155.54 11.1932 1156.33 11.2045ZM1156.33 12.4545C1155.85 12.4545 1155.42 12.5739 1155.04 12.8125C1154.66 13.0473 1154.36 13.3655 1154.14 13.767C1153.92 14.1648 1153.81 14.6061 1153.81 15.0909C1153.81 15.5758 1153.91 16.017 1154.13 16.4148C1154.34 16.8087 1154.64 17.1231 1155.01 17.358C1155.38 17.589 1155.81 17.7045 1156.29 17.7045C1156.65 17.7045 1156.98 17.6345 1157.29 17.4943C1157.6 17.3504 1157.87 17.1553 1158.1 16.9091C1158.34 16.6591 1158.52 16.3769 1158.65 16.0625C1158.79 15.7443 1158.85 15.4129 1158.85 15.0682C1158.85 14.6136 1158.74 14.1875 1158.52 13.7898C1158.31 13.392 1158.01 13.0701 1157.63 12.8239C1157.25 12.5777 1156.82 12.4545 1156.33 12.4545ZM1166.41 23.1591C1165.55 23.1591 1164.82 22.9261 1164.22 22.4602C1163.62 21.9905 1163.16 21.3106 1162.84 20.4205C1162.52 19.5265 1162.36 18.447 1162.36 17.1818C1162.36 15.9242 1162.52 14.8504 1162.84 13.9602C1163.16 13.0663 1163.62 12.3845 1164.22 11.9148C1164.83 11.4413 1165.56 11.2045 1166.41 11.2045C1167.25 11.2045 1167.98 11.4413 1168.58 11.9148C1169.19 12.3845 1169.65 13.0663 1169.97 13.9602C1170.29 14.8504 1170.45 15.9242 1170.45 17.1818C1170.45 18.447 1170.29 19.5265 1169.97 20.4205C1169.66 21.3106 1169.2 21.9905 1168.59 22.4602C1167.99 22.9261 1167.26 23.1591 1166.41 23.1591ZM1166.41 21.9091C1167.25 21.9091 1167.91 21.5 1168.38 20.6818C1168.85 19.8636 1169.09 18.697 1169.09 17.1818C1169.09 16.1742 1168.98 15.3163 1168.76 14.608C1168.55 13.8996 1168.25 13.3598 1167.84 12.9886C1167.45 12.6174 1166.97 12.4318 1166.41 12.4318C1165.57 12.4318 1164.91 12.8466 1164.43 13.6761C1163.96 14.5019 1163.72 15.6705 1163.72 17.1818C1163.72 18.1894 1163.83 19.0455 1164.04 19.75C1164.25 20.4545 1164.56 20.9905 1164.96 21.358C1165.36 21.7254 1165.84 21.9091 1166.41 21.9091ZM1177.63 17.3864V18.6364H1172.54V17.3864H1177.63ZM1183.65 23.1818C1182.81 23.1818 1182.09 22.9962 1181.48 22.625C1180.87 22.25 1180.4 21.7273 1180.07 21.0568C1179.75 20.3826 1179.58 19.5985 1179.58 18.7045C1179.58 17.8106 1179.75 17.0227 1180.07 16.3409C1180.4 15.6553 1180.86 15.1212 1181.45 14.7386C1182.04 14.3523 1182.73 14.1591 1183.52 14.1591C1183.97 14.1591 1184.42 14.2348 1184.86 14.3864C1185.31 14.5379 1185.71 14.7841 1186.07 15.125C1186.44 15.4621 1186.73 15.9091 1186.94 16.4659C1187.16 17.0227 1187.27 17.7083 1187.27 18.5227V19.0909H1180.54V17.9318H1185.9C1185.9 17.4394 1185.8 17 1185.61 16.6136C1185.41 16.2273 1185.14 15.9223 1184.78 15.6989C1184.42 15.4754 1184 15.3636 1183.52 15.3636C1182.98 15.3636 1182.52 15.4962 1182.13 15.7614C1181.74 16.0227 1181.45 16.3636 1181.24 16.7841C1181.03 17.2045 1180.92 17.6553 1180.92 18.1364V18.9091C1180.92 19.5682 1181.04 20.1269 1181.27 20.5852C1181.5 21.0398 1181.82 21.3864 1182.23 21.625C1182.63 21.8598 1183.11 21.9773 1183.65 21.9773C1184 21.9773 1184.32 21.928 1184.61 21.8295C1184.89 21.7273 1185.14 21.5758 1185.35 21.375C1185.56 21.1705 1185.72 20.9167 1185.83 20.6136L1187.13 20.9773C1186.99 21.4167 1186.76 21.803 1186.44 22.1364C1186.12 22.4659 1185.72 22.7235 1185.25 22.9091C1184.78 23.0909 1184.24 23.1818 1183.65 23.1818Z" fill="#F6F5EC"/>
<path d="M1197 12.0625L1197.89 11L1202.75 16.7904C1202.83 16.8831 1202.89 16.9935 1202.94 17.115C1202.98 17.2365 1203 17.3669 1203 17.4985C1203 17.6301 1202.98 17.7605 1202.94 17.882C1202.89 18.0035 1202.83 18.1138 1202.75 18.2066L1197.89 24L1197 22.9375L1201.56 17.5L1197 12.0625Z" fill="#F6F5EC"/>
</g>
<defs>
<clipPath id="clip0_14181_501">
<rect width="1216" height="35" fill="white"/>
</clipPath>
</defs>
</svg>
